<?xml version="1.0" encoding="utf-8" standalone="no"?>
<!DOCTYPE svg PUBLIC "-//W3C//DTD SVG 1.1//EN"
  "http://www.w3.org/Graphics/SVG/1.1/DTD/svg11.dtd">
<svg xmlns:xlink="http://www.w3.org/1999/xlink" width="576pt" height="432pt" viewBox="0 0 576 432" xmlns="http://www.w3.org/2000/svg" version="1.1">
 <metadata>
  <rdf:RDF xmlns:dc="http://purl.org/dc/elements/1.1/" xmlns:cc="http://creativecommons.org/ns#" xmlns:rdf="http://www.w3.org/1999/02/22-rdf-syntax-ns#">
   <cc:Work>
    <dc:type rdf:resource="http://purl.org/dc/dcmitype/StillImage"/>
    <dc:date>2025-05-02T11:10:08.839585</dc:date>
    <dc:format>image/svg+xml</dc:format>
    <dc:creator>
     <cc:Agent>
      <dc:title>Matplotlib v3.7.2, https://matplotlib.org/</dc:title>
     </cc:Agent>
    </dc:creator>
   </cc:Work>
  </rdf:RDF>
 </metadata>
 <defs>
  <style type="text/css">*{stroke-linejoin: round; stroke-linecap: butt}</style>
 </defs>
 <g id="figure_1">
  <g id="patch_1">
   <path d="M 0 432 
L 576 432 
L 576 0 
L 0 0 
z
" style="fill: #ffffff"/>
  </g>
  <g id="axes_1">
   <g id="patch_2">
    <path d="M 54.02 390.04 
L 565.2 390.04 
L 565.2 26.88 
L 54.02 26.88 
z
" style="fill: #ffffff"/>
   </g>
   <g id="PolyCollection_1">
    <defs>
     <path id="m47cffbb08d" d="M 77.255455 -41.960813 
L 77.255455 -41.96 
L 79.590676 -41.96 
L 81.925898 -41.96 
L 84.261119 -41.96 
L 86.596341 -41.96 
L 88.931562 -41.96 
L 91.266784 -41.96 
L 93.602005 -41.96 
L 95.937227 -41.96 
L 98.272449 -41.96 
L 100.60767 -41.96 
L 102.942892 -41.96 
L 105.278113 -41.96 
L 107.613335 -41.96 
L 109.948556 -41.96 
L 112.283778 -41.96 
L 114.619 -41.96 
L 116.954221 -41.96 
L 119.289443 -41.96 
L 121.624664 -41.96 
L 123.959886 -41.96 
L 126.295107 -41.96 
L 128.630329 -41.96 
L 130.96555 -41.96 
L 133.300772 -41.96 
L 135.635994 -41.96 
L 137.971215 -41.96 
L 140.306437 -41.96 
L 142.641658 -41.96 
L 144.97688 -41.96 
L 147.312101 -41.96 
L 149.647323 -41.96 
L 151.982545 -41.96 
L 154.317766 -41.96 
L 156.652988 -41.96 
L 158.988209 -41.96 
L 161.323431 -41.96 
L 163.658652 -41.96 
L 165.993874 -41.96 
L 168.329095 -41.96 
L 170.664317 -41.96 
L 172.999539 -41.96 
L 175.33476 -41.96 
L 177.669982 -41.96 
L 180.005203 -41.96 
L 182.340425 -41.96 
L 184.675646 -41.96 
L 187.010868 -41.96 
L 189.34609 -41.96 
L 191.681311 -41.96 
L 194.016533 -41.96 
L 196.351754 -41.96 
L 198.686976 -41.96 
L 201.022197 -41.96 
L 203.357419 -41.96 
L 205.69264 -41.96 
L 208.027862 -41.96 
L 210.363084 -41.96 
L 212.698305 -41.96 
L 215.033527 -41.96 
L 217.368748 -41.96 
L 219.70397 -41.96 
L 222.039191 -41.96 
L 224.374413 -41.96 
L 226.709635 -41.96 
L 229.044856 -41.96 
L 231.380078 -41.96 
L 233.715299 -41.96 
L 236.050521 -41.96 
L 238.385742 -41.96 
L 240.720964 -41.96 
L 243.056185 -41.96 
L 245.391407 -41.96 
L 247.726629 -41.96 
L 250.06185 -41.96 
L 252.397072 -41.96 
L 254.732293 -41.96 
L 257.067515 -41.96 
L 259.402736 -41.96 
L 261.737958 -41.96 
L 264.07318 -41.96 
L 266.408401 -41.96 
L 268.743623 -41.96 
L 271.078844 -41.96 
L 273.414066 -41.96 
L 275.749287 -41.96 
L 278.084509 -41.96 
L 280.41973 -41.96 
L 282.754952 -41.96 
L 285.090174 -41.96 
L 287.425395 -41.96 
L 289.760617 -41.96 
L 292.095838 -41.96 
L 294.43106 -41.96 
L 296.766281 -41.96 
L 299.101503 -41.96 
L 301.436725 -41.96 
L 303.771946 -41.96 
L 306.107168 -41.96 
L 308.442389 -41.96 
L 310.777611 -41.96 
L 313.112832 -41.96 
L 315.448054 -41.96 
L 317.783275 -41.96 
L 320.118497 -41.96 
L 322.453719 -41.96 
L 324.78894 -41.96 
L 327.124162 -41.96 
L 329.459383 -41.96 
L 331.794605 -41.96 
L 334.129826 -41.96 
L 336.465048 -41.96 
L 338.80027 -41.96 
L 341.135491 -41.96 
L 343.470713 -41.96 
L 345.805934 -41.96 
L 348.141156 -41.96 
L 350.476377 -41.96 
L 352.811599 -41.96 
L 355.14682 -41.96 
L 357.482042 -41.96 
L 359.817264 -41.96 
L 362.152485 -41.96 
L 364.487707 -41.96 
L 366.822928 -41.96 
L 369.15815 -41.96 
L 371.493371 -41.96 
L 373.828593 -41.96 
L 376.163815 -41.96 
L 378.499036 -41.96 
L 380.834258 -41.96 
L 383.169479 -41.96 
L 385.504701 -41.96 
L 387.839922 -41.96 
L 390.175144 -41.96 
L 392.510365 -41.96 
L 394.845587 -41.96 
L 397.180809 -41.96 
L 399.51603 -41.96 
L 401.851252 -41.96 
L 404.186473 -41.96 
L 406.521695 -41.96 
L 408.856916 -41.96 
L 411.192138 -41.96 
L 413.52736 -41.96 
L 415.862581 -41.96 
L 418.197803 -41.96 
L 420.533024 -41.96 
L 422.868246 -41.96 
L 425.203467 -41.96 
L 427.538689 -41.96 
L 429.87391 -41.96 
L 432.209132 -41.96 
L 434.544354 -41.96 
L 436.879575 -41.96 
L 439.214797 -41.96 
L 441.550018 -41.96 
L 443.88524 -41.96 
L 446.220461 -41.96 
L 448.555683 -41.96 
L 450.890905 -41.96 
L 453.226126 -41.96 
L 455.561348 -41.96 
L 457.896569 -41.96 
L 460.231791 -41.96 
L 462.567012 -41.96 
L 464.902234 -41.96 
L 467.237455 -41.96 
L 469.572677 -41.96 
L 471.907899 -41.96 
L 474.24312 -41.96 
L 476.578342 -41.96 
L 478.913563 -41.96 
L 481.248785 -41.96 
L 483.584006 -41.96 
L 485.919228 -41.96 
L 488.25445 -41.96 
L 490.589671 -41.96 
L 492.924893 -41.96 
L 495.260114 -41.96 
L 497.595336 -41.96 
L 499.930557 -41.96 
L 502.265779 -41.96 
L 504.601 -41.96 
L 506.936222 -41.96 
L 509.271444 -41.96 
L 511.606665 -41.96 
L 513.941887 -41.96 
L 516.277108 -41.96 
L 518.61233 -41.96 
L 520.947551 -41.96 
L 523.282773 -41.96 
L 525.617995 -41.96 
L 527.953216 -41.96 
L 530.288438 -41.96 
L 532.623659 -41.96 
L 534.958881 -41.96 
L 537.294102 -41.96 
L 539.629324 -41.96 
L 541.964545 -41.96 
L 541.964545 -41.960743 
L 541.964545 -41.960743 
L 539.629324 -41.961866 
L 537.294102 -41.964256 
L 534.958881 -41.968836 
L 532.623659 -41.976758 
L 530.288438 -41.989195 
L 527.953216 -42.007052 
L 525.617995 -42.030785 
L 523.282773 -42.060458 
L 520.947551 -42.096097 
L 518.61233 -42.138298 
L 516.277108 -42.189236 
L 513.941887 -42.254422 
L 511.606665 -42.345387 
L 509.271444 -42.482569 
L 506.936222 -42.696552 
L 504.601 -43.025393 
L 502.265779 -43.506862 
L 499.930557 -44.167066 
L 497.595336 -45.009665 
L 495.260114 -46.011083 
L 492.924893 -47.124945 
L 490.589671 -48.294153 
L 488.25445 -49.464573 
L 485.919228 -50.59404 
L 483.584006 -51.654729 
L 481.248785 -52.631865 
L 478.913563 -53.522791 
L 476.578342 -54.337259 
L 474.24312 -55.096382 
L 471.907899 -55.827379 
L 469.572677 -56.554544 
L 467.237455 -57.29098 
L 464.902234 -58.037586 
L 462.567012 -58.793083 
L 460.231791 -59.572007 
L 457.896569 -60.420728 
L 455.561348 -61.420251 
L 453.226126 -62.670825 
L 450.890905 -64.26367 
L 448.555683 -66.25263 
L 446.220461 -68.638657 
L 443.88524 -71.372764 
L 441.550018 -74.372803 
L 439.214797 -77.543186 
L 436.879575 -80.788744 
L 434.544354 -84.022302 
L 432.209132 -87.172034 
L 429.87391 -90.193248 
L 427.538689 -93.081604 
L 425.203467 -95.879125 
L 422.868246 -98.666427 
L 420.533024 -101.54257 
L 418.197803 -104.600777 
L 415.862581 -107.908538 
L 413.52736 -111.49513 
L 411.192138 -115.34444 
L 408.856916 -119.391738 
L 406.521695 -123.528453 
L 404.186473 -127.621445 
L 401.851252 -131.547199 
L 399.51603 -135.230313 
L 397.180809 -138.669841 
L 394.845587 -141.941997 
L 392.510365 -145.179263 
L 390.175144 -148.53507 
L 387.839922 -152.146025 
L 385.504701 -156.101776 
L 383.169479 -160.429112 
L 380.834258 -165.093032 
L 378.499036 -170.013916 
L 376.163815 -175.09674 
L 373.828593 -180.263866 
L 371.493371 -185.477629 
L 369.15815 -190.739183 
L 366.822928 -196.062488 
L 364.487707 -201.442096 
L 362.152485 -206.842138 
L 359.817264 -212.21893 
L 357.482042 -217.560885 
L 355.14682 -222.913336 
L 352.811599 -228.367301 
L 350.476377 -234.018672 
L 348.141156 -239.922312 
L 345.805934 -246.062011 
L 343.470713 -252.342323 
L 341.135491 -258.598948 
L 338.80027 -264.624668 
L 336.465048 -270.208113 
L 334.129826 -275.175742 
L 331.794605 -279.419617 
L 329.459383 -282.896729 
L 327.124162 -285.601953 
L 324.78894 -287.534361 
L 322.453719 -288.681342 
L 320.118497 -289.032307 
L 317.783275 -288.611954 
L 315.448054 -287.506209 
L 313.112832 -285.854721 
L 310.777611 -283.805419 
L 308.442389 -281.456315 
L 306.107168 -278.822695 
L 303.771946 -275.849241 
L 301.436725 -272.450803 
L 299.101503 -268.5469 
L 296.766281 -264.071331 
L 294.43106 -258.969673 
L 292.095838 -253.208706 
L 289.760617 -246.802828 
L 287.425395 -239.83746 
L 285.090174 -232.46589 
L 282.754952 -224.875065 
L 280.41973 -217.236855 
L 278.084509 -209.668629 
L 275.749287 -202.220817 
L 273.414066 -194.896232 
L 271.078844 -187.690061 
L 268.743623 -180.626013 
L 266.408401 -173.763495 
L 264.07318 -167.168683 
L 261.737958 -160.868643 
L 259.402736 -154.821066 
L 257.067515 -148.921124 
L 254.732293 -143.041428 
L 252.397072 -137.082107 
L 250.06185 -131.007277 
L 247.726629 -124.856316 
L 245.391407 -118.731323 
L 243.056185 -112.769473 
L 240.720964 -107.111089 
L 238.385742 -101.872393 
L 236.050521 -97.127178 
L 233.715299 -92.897194 
L 231.380078 -89.150509 
L 229.044856 -85.80981 
L 226.709635 -82.772911 
L 224.374413 -79.942202 
L 222.039191 -77.252291 
L 219.70397 -74.683214 
L 217.368748 -72.253362 
L 215.033527 -69.997069 
L 212.698305 -67.939115 
L 210.363084 -66.078293 
L 208.027862 -64.386083 
L 205.69264 -62.818653 
L 203.357419 -61.334804 
L 201.022197 -59.911029 
L 198.686976 -58.54744 
L 196.351754 -57.263021 
L 194.016533 -56.083134 
L 191.681311 -55.024795 
L 189.34609 -54.085672 
L 187.010868 -53.241271 
L 184.675646 -52.451745 
L 182.340425 -51.675749 
L 180.005203 -50.885414 
L 177.669982 -50.075572 
L 175.33476 -49.263033 
L 172.999539 -48.476886 
L 170.664317 -47.745462 
L 168.329095 -47.086686 
L 165.993874 -46.505172 
L 163.658652 -45.994642 
L 161.323431 -45.541986 
L 158.988209 -45.130844 
L 156.652988 -44.745114 
L 154.317766 -44.373102 
L 151.982545 -44.011267 
L 149.647323 -43.665245 
L 147.312101 -43.347081 
L 144.97688 -43.070018 
L 142.641658 -42.84355 
L 140.306437 -42.67074 
L 137.971215 -42.548116 
L 135.635994 -42.467251 
L 133.300772 -42.416918 
L 130.96555 -42.385097 
L 128.630329 -42.360607 
L 126.295107 -42.334417 
L 123.959886 -42.300786 
L 121.624664 -42.25815 
L 119.289443 -42.20934 
L 116.954221 -42.160614 
L 114.619 -42.119399 
L 112.283778 -42.091451 
L 109.948556 -42.0786 
L 107.613335 -42.078071 
L 105.278113 -42.083661 
L 102.942892 -42.08817 
L 100.60767 -42.086023 
L 98.272449 -42.074979 
L 95.937227 -42.056349 
L 93.602005 -42.033805 
L 91.266784 -42.011561 
L 88.931562 -41.992804 
L 86.596341 -41.978987 
L 84.261119 -41.969989 
L 81.925898 -41.964772 
L 79.590676 -41.962069 
L 77.255455 -41.960813 
z
" style="stroke: #1e90ff; stroke-width: 2"/>
    </defs>
    <g clip-path="url(#pd780ffd1a2)">
     <use xlink:href="#m47cffbb08d" x="0" y="432" style="fill: #1e90ff; fill-opacity: 0.2; stroke: #1e90ff; stroke-width: 2"/>
    </g>
   </g>
   <g id="PolyCollection_2">
    <defs>
     <path id="mabd20ad46e" d="M 91.809608 -41.961406 
L 91.809608 -41.96 
L 93.798124 -41.96 
L 95.786639 -41.96 
L 97.775155 -41.96 
L 99.763671 -41.96 
L 101.752186 -41.96 
L 103.740702 -41.96 
L 105.729217 -41.96 
L 107.717733 -41.96 
L 109.706248 -41.96 
L 111.694764 -41.96 
L 113.68328 -41.96 
L 115.671795 -41.96 
L 117.660311 -41.96 
L 119.648826 -41.96 
L 121.637342 -41.96 
L 123.625858 -41.96 
L 125.614373 -41.96 
L 127.602889 -41.96 
L 129.591404 -41.96 
L 131.57992 -41.96 
L 133.568435 -41.96 
L 135.556951 -41.96 
L 137.545467 -41.96 
L 139.533982 -41.96 
L 141.522498 -41.96 
L 143.511013 -41.96 
L 145.499529 -41.96 
L 147.488045 -41.96 
L 149.47656 -41.96 
L 151.465076 -41.96 
L 153.453591 -41.96 
L 155.442107 -41.96 
L 157.430622 -41.96 
L 159.419138 -41.96 
L 161.407654 -41.96 
L 163.396169 -41.96 
L 165.384685 -41.96 
L 167.3732 -41.96 
L 169.361716 -41.96 
L 171.350232 -41.96 
L 173.338747 -41.96 
L 175.327263 -41.96 
L 177.315778 -41.96 
L 179.304294 -41.96 
L 181.292809 -41.96 
L 183.281325 -41.96 
L 185.269841 -41.96 
L 187.258356 -41.96 
L 189.246872 -41.96 
L 191.235387 -41.96 
L 193.223903 -41.96 
L 195.212419 -41.96 
L 197.200934 -41.96 
L 199.18945 -41.96 
L 201.177965 -41.96 
L 203.166481 -41.96 
L 205.154996 -41.96 
L 207.143512 -41.96 
L 209.132028 -41.96 
L 211.120543 -41.96 
L 213.109059 -41.96 
L 215.097574 -41.96 
L 217.08609 -41.96 
L 219.074606 -41.96 
L 221.063121 -41.96 
L 223.051637 -41.96 
L 225.040152 -41.96 
L 227.028668 -41.96 
L 229.017183 -41.96 
L 231.005699 -41.96 
L 232.994215 -41.96 
L 234.98273 -41.96 
L 236.971246 -41.96 
L 238.959761 -41.96 
L 240.948277 -41.96 
L 242.936793 -41.96 
L 244.925308 -41.96 
L 246.913824 -41.96 
L 248.902339 -41.96 
L 250.890855 -41.96 
L 252.87937 -41.96 
L 254.867886 -41.96 
L 256.856402 -41.96 
L 258.844917 -41.96 
L 260.833433 -41.96 
L 262.821948 -41.96 
L 264.810464 -41.96 
L 266.79898 -41.96 
L 268.787495 -41.96 
L 270.776011 -41.96 
L 272.764526 -41.96 
L 274.753042 -41.96 
L 276.741557 -41.96 
L 278.730073 -41.96 
L 280.718589 -41.96 
L 282.707104 -41.96 
L 284.69562 -41.96 
L 286.684135 -41.96 
L 288.672651 -41.96 
L 290.661167 -41.96 
L 292.649682 -41.96 
L 294.638198 -41.96 
L 296.626713 -41.96 
L 298.615229 -41.96 
L 300.603744 -41.96 
L 302.59226 -41.96 
L 304.580776 -41.96 
L 306.569291 -41.96 
L 308.557807 -41.96 
L 310.546322 -41.96 
L 312.534838 -41.96 
L 314.523354 -41.96 
L 316.511869 -41.96 
L 318.500385 -41.96 
L 320.4889 -41.96 
L 322.477416 -41.96 
L 324.465932 -41.96 
L 326.454447 -41.96 
L 328.442963 -41.96 
L 330.431478 -41.96 
L 332.419994 -41.96 
L 334.408509 -41.96 
L 336.397025 -41.96 
L 338.385541 -41.96 
L 340.374056 -41.96 
L 342.362572 -41.96 
L 344.351087 -41.96 
L 346.339603 -41.96 
L 348.328119 -41.96 
L 350.316634 -41.96 
L 352.30515 -41.96 
L 354.293665 -41.96 
L 356.282181 -41.96 
L 358.270696 -41.96 
L 360.259212 -41.96 
L 362.247728 -41.96 
L 364.236243 -41.96 
L 366.224759 -41.96 
L 368.213274 -41.96 
L 370.20179 -41.96 
L 372.190306 -41.96 
L 374.178821 -41.96 
L 376.167337 -41.96 
L 378.155852 -41.96 
L 380.144368 -41.96 
L 382.132883 -41.96 
L 384.121399 -41.96 
L 386.109915 -41.96 
L 388.09843 -41.96 
L 390.086946 -41.96 
L 392.075461 -41.96 
L 394.063977 -41.96 
L 396.052493 -41.96 
L 398.041008 -41.96 
L 400.029524 -41.96 
L 402.018039 -41.96 
L 404.006555 -41.96 
L 405.99507 -41.96 
L 407.983586 -41.96 
L 409.972102 -41.96 
L 411.960617 -41.96 
L 413.949133 -41.96 
L 415.937648 -41.96 
L 417.926164 -41.96 
L 419.91468 -41.96 
L 421.903195 -41.96 
L 423.891711 -41.96 
L 425.880226 -41.96 
L 427.868742 -41.96 
L 429.857257 -41.96 
L 431.845773 -41.96 
L 433.834289 -41.96 
L 435.822804 -41.96 
L 437.81132 -41.96 
L 439.799835 -41.96 
L 441.788351 -41.96 
L 443.776867 -41.96 
L 445.765382 -41.96 
L 447.753898 -41.96 
L 449.742413 -41.96 
L 451.730929 -41.96 
L 453.719444 -41.96 
L 455.70796 -41.96 
L 457.696476 -41.96 
L 459.684991 -41.96 
L 461.673507 -41.96 
L 463.662022 -41.96 
L 465.650538 -41.96 
L 467.639054 -41.96 
L 469.627569 -41.96 
L 471.616085 -41.96 
L 473.6046 -41.96 
L 475.593116 -41.96 
L 477.581631 -41.96 
L 479.570147 -41.96 
L 481.558663 -41.96 
L 483.547178 -41.96 
L 485.535694 -41.96 
L 487.524209 -41.96 
L 487.524209 -41.961483 
L 487.524209 -41.961483 
L 485.535694 -41.964048 
L 483.547178 -41.96993 
L 481.558663 -41.982008 
L 479.570147 -42.004393 
L 477.581631 -42.042268 
L 475.593116 -42.101587 
L 473.6046 -42.188791 
L 471.616085 -42.310307 
L 469.627569 -42.471127 
L 467.639054 -42.671924 
L 465.650538 -42.905389 
L 463.662022 -43.153709 
L 461.673507 -43.389417 
L 459.684991 -43.580669 
L 457.696476 -43.70006 
L 455.70796 -43.733896 
L 453.719444 -43.687493 
L 451.730929 -43.583069 
L 449.742413 -43.450762 
L 447.753898 -43.317709 
L 445.765382 -43.201294 
L 443.776867 -43.109513 
L 441.788351 -43.046256 
L 439.799835 -43.016045 
L 437.81132 -43.023808 
L 435.822804 -43.070047 
L 433.834289 -43.146678 
L 431.845773 -43.239242 
L 429.857257 -43.335998 
L 427.868742 -43.438048 
L 425.880226 -43.563053 
L 423.891711 -43.739604 
L 421.903195 -43.995176 
L 419.91468 -44.342938 
L 417.926164 -44.771769 
L 415.937648 -45.243222 
L 413.949133 -45.69914 
L 411.960617 -46.080599 
L 409.972102 -46.352236 
L 407.983586 -46.521214 
L 405.99507 -46.641789 
L 404.006555 -46.80267 
L 402.018039 -47.100383 
L 400.029524 -47.606654 
L 398.041008 -48.341938 
L 396.052493 -49.267533 
L 394.063977 -50.301595 
L 392.075461 -51.352596 
L 390.086946 -52.355207 
L 388.09843 -53.292831 
L 386.109915 -54.197354 
L 384.121399 -55.12781 
L 382.132883 -56.140943 
L 380.144368 -57.270068 
L 378.155852 -58.51976 
L 376.167337 -59.870412 
L 374.178821 -61.282673 
L 372.190306 -62.700584 
L 370.20179 -64.062276 
L 368.213274 -65.325192 
L 366.224759 -66.498894 
L 364.236243 -67.664944 
L 362.247728 -68.963327 
L 360.259212 -70.542503 
L 358.270696 -72.495631 
L 356.282181 -74.82008 
L 354.293665 -77.42786 
L 352.30515 -80.205562 
L 350.316634 -83.09181 
L 348.328119 -86.12662 
L 346.339603 -89.439747 
L 344.351087 -93.181137 
L 342.362572 -97.436683 
L 340.374056 -102.188205 
L 338.385541 -107.3511 
L 336.397025 -112.869381 
L 334.408509 -118.801822 
L 332.419994 -125.328744 
L 330.431478 -132.655657 
L 328.442963 -140.861915 
L 326.454447 -149.790022 
L 324.465932 -159.055402 
L 322.477416 -168.184429 
L 320.4889 -176.811342 
L 318.500385 -184.835236 
L 316.511869 -192.468992 
L 314.523354 -200.171479 
L 312.534838 -208.500202 
L 310.546322 -217.935592 
L 308.557807 -228.724525 
L 306.569291 -240.788747 
L 304.580776 -253.737379 
L 302.59226 -266.989779 
L 300.603744 -279.960481 
L 298.615229 -292.223497 
L 296.626713 -303.589771 
L 294.638198 -314.080763 
L 292.649682 -323.82494 
L 290.661167 -332.931079 
L 288.672651 -341.407491 
L 286.684135 -349.181672 
L 284.69562 -356.208392 
L 282.707104 -362.569881 
L 280.718589 -368.455509 
L 278.730073 -374.003702 
L 276.741557 -379.122386 
L 274.753042 -383.444715 
L 272.764526 -386.474898 
L 270.776011 -387.826667 
L 268.787495 -387.392146 
L 266.79898 -385.347395 
L 264.810464 -382.026813 
L 262.821948 -377.770994 
L 260.833433 -372.828237 
L 258.844917 -367.319043 
L 256.856402 -361.237406 
L 254.867886 -354.483653 
L 252.87937 -346.943167 
L 250.890855 -338.591322 
L 248.902339 -329.552639 
L 246.913824 -320.052865 
L 244.925308 -310.288382 
L 242.936793 -300.313194 
L 240.948277 -290.029759 
L 238.959761 -279.285866 
L 236.971246 -268.010729 
L 234.98273 -256.316111 
L 232.994215 -244.517793 
L 231.005699 -233.062526 
L 229.017183 -222.376415 
L 227.028668 -212.69215 
L 225.040152 -203.941629 
L 223.051637 -195.77974 
L 221.063121 -187.734211 
L 219.074606 -179.403683 
L 217.08609 -170.603186 
L 215.097574 -161.395004 
L 213.109059 -152.013024 
L 211.120543 -142.743797 
L 209.132028 -133.835575 
L 207.143512 -125.467823 
L 205.154996 -117.761913 
L 203.166481 -110.790607 
L 201.177965 -104.564259 
L 199.18945 -99.010037 
L 197.200934 -93.977623 
L 195.212419 -89.28582 
L 193.223903 -84.79028 
L 191.235387 -80.434741 
L 189.246872 -76.25901 
L 187.258356 -72.363354 
L 185.269841 -68.85168 
L 183.281325 -65.783866 
L 181.292809 -63.159508 
L 179.304294 -60.935573 
L 177.315778 -59.059387 
L 175.327263 -57.490349 
L 173.338747 -56.195608 
L 171.350232 -55.127955 
L 169.361716 -54.209177 
L 167.3732 -53.337527 
L 165.384685 -52.418648 
L 163.396169 -51.40135 
L 161.407654 -50.296113 
L 159.419138 -49.166058 
L 157.430622 -48.096972 
L 155.442107 -47.162785 
L 153.453591 -46.401901 
L 151.465076 -45.812192 
L 149.47656 -45.363388 
L 147.488045 -45.017731 
L 145.499529 -44.746306 
L 143.511013 -44.532649 
L 141.522498 -44.364894 
L 139.533982 -44.225455 
L 137.545467 -44.087644 
L 135.556951 -43.922697 
L 133.568435 -43.713226 
L 131.57992 -43.464147 
L 129.591404 -43.202503 
L 127.602889 -42.964454 
L 125.614373 -42.77697 
L 123.625858 -42.645945 
L 121.637342 -42.557551 
L 119.648826 -42.489964 
L 117.660311 -42.426236 
L 115.671795 -42.360385 
L 113.68328 -42.295015 
L 111.694764 -42.234807 
L 109.706248 -42.181687 
L 107.717733 -42.134479 
L 105.729217 -42.091524 
L 103.740702 -42.052896 
L 101.752186 -42.020318 
L 99.763671 -41.995515 
L 97.775155 -41.978795 
L 95.786639 -41.968891 
L 93.798124 -41.963748 
L 91.809608 -41.961406 
z
" style="stroke: #b22222; stroke-width: 2"/>
    </defs>
    <g clip-path="url(#pd780ffd1a2)">
     <use xlink:href="#mabd20ad46e" x="0" y="432" style="fill: #b22222; fill-opacity: 0.2; stroke: #b22222; stroke-width: 2"/>
    </g>
   </g>
   <g id="matplotlib.axis_1">
    <g id="xtick_1">
     <g id="line2d_1">
      <defs>
       <path id="m5755d4a316" d="M 0 0 
L 0 3.5 
" style="stroke: #000000; stroke-width: 0.8"/>
      </defs>
      <g>
       <use xlink:href="#m5755d4a316" x="97.692874" y="390.04" style="stroke: #000000; stroke-width: 0.8"/>
      </g>
     </g>
     <g id="text_1">
      <!-- −7.5 -->
      <g transform="translate(85.551468 404.638438) scale(0.1 -0.1)">
       <defs>
        <path id="DejaVuSans-2212" d="M 678 2272 
L 4684 2272 
L 4684 1741 
L 678 1741 
L 678 2272 
z
" transform="scale(0.015625)"/>
        <path id="DejaVuSans-37" d="M 525 4666 
L 3525 4666 
L 3525 4397 
L 1831 0 
L 1172 0 
L 2766 4134 
L 525 4134 
L 525 4666 
z
" transform="scale(0.015625)"/>
        <path id="DejaVuSans-2e" d="M 684 794 
L 1344 794 
L 1344 0 
L 684 0 
L 684 794 
z
" transform="scale(0.015625)"/>
        <path id="DejaVuSans-35" d="M 691 4666 
L 3169 4666 
L 3169 4134 
L 1269 4134 
L 1269 2991 
Q 1406 3038 1543 3061 
Q 1681 3084 1819 3084 
Q 2600 3084 3056 2656 
Q 3513 2228 3513 1497 
Q 3513 744 3044 326 
Q 2575 -91 1722 -91 
Q 1428 -91 1123 -41 
Q 819 9 494 109 
L 494 744 
Q 775 591 1075 516 
Q 1375 441 1709 441 
Q 2250 441 2565 725 
Q 2881 1009 2881 1497 
Q 2881 1984 2565 2268 
Q 2250 2553 1709 2553 
Q 1456 2553 1204 2497 
Q 953 2441 691 2322 
L 691 4666 
z
" transform="scale(0.015625)"/>
       </defs>
       <use xlink:href="#DejaVuSans-2212"/>
       <use xlink:href="#DejaVuSans-37" x="83.789062"/>
       <use xlink:href="#DejaVuSans-2e" x="147.412109"/>
       <use xlink:href="#DejaVuSans-35" x="179.199219"/>
      </g>
     </g>
    </g>
    <g id="xtick_2">
     <g id="line2d_2">
      <g>
       <use xlink:href="#m5755d4a316" x="164.920375" y="390.04" style="stroke: #000000; stroke-width: 0.8"/>
      </g>
     </g>
     <g id="text_2">
      <!-- −5.0 -->
      <g transform="translate(152.778968 404.638438) scale(0.1 -0.1)">
       <defs>
        <path id="DejaVuSans-30" d="M 2034 4250 
Q 1547 4250 1301 3770 
Q 1056 3291 1056 2328 
Q 1056 1369 1301 889 
Q 1547 409 2034 409 
Q 2525 409 2770 889 
Q 3016 1369 3016 2328 
Q 3016 3291 2770 3770 
Q 2525 4250 2034 4250 
z
M 2034 4750 
Q 2819 4750 3233 4129 
Q 3647 3509 3647 2328 
Q 3647 1150 3233 529 
Q 2819 -91 2034 -91 
Q 1250 -91 836 529 
Q 422 1150 422 2328 
Q 422 3509 836 4129 
Q 1250 4750 2034 4750 
z
" transform="scale(0.015625)"/>
       </defs>
       <use xlink:href="#DejaVuSans-2212"/>
       <use xlink:href="#DejaVuSans-35" x="83.789062"/>
       <use xlink:href="#DejaVuSans-2e" x="147.412109"/>
       <use xlink:href="#DejaVuSans-30" x="179.199219"/>
      </g>
     </g>
    </g>
    <g id="xtick_3">
     <g id="line2d_3">
      <g>
       <use xlink:href="#m5755d4a316" x="232.147875" y="390.04" style="stroke: #000000; stroke-width: 0.8"/>
      </g>
     </g>
     <g id="text_3">
      <!-- −2.5 -->
      <g transform="translate(220.006469 404.638438) scale(0.1 -0.1)">
       <defs>
        <path id="DejaVuSans-32" d="M 1228 531 
L 3431 531 
L 3431 0 
L 469 0 
L 469 531 
Q 828 903 1448 1529 
Q 2069 2156 2228 2338 
Q 2531 2678 2651 2914 
Q 2772 3150 2772 3378 
Q 2772 3750 2511 3984 
Q 2250 4219 1831 4219 
Q 1534 4219 1204 4116 
Q 875 4013 500 3803 
L 500 4441 
Q 881 4594 1212 4672 
Q 1544 4750 1819 4750 
Q 2544 4750 2975 4387 
Q 3406 4025 3406 3419 
Q 3406 3131 3298 2873 
Q 3191 2616 2906 2266 
Q 2828 2175 2409 1742 
Q 1991 1309 1228 531 
z
" transform="scale(0.015625)"/>
       </defs>
       <use xlink:href="#DejaVuSans-2212"/>
       <use xlink:href="#DejaVuSans-32" x="83.789062"/>
       <use xlink:href="#DejaVuSans-2e" x="147.412109"/>
       <use xlink:href="#DejaVuSans-35" x="179.199219"/>
      </g>
     </g>
    </g>
    <g id="xtick_4">
     <g id="line2d_4">
      <g>
       <use xlink:href="#m5755d4a316" x="299.375376" y="390.04" style="stroke: #000000; stroke-width: 0.8"/>
      </g>
     </g>
     <g id="text_4">
      <!-- 0.0 -->
      <g transform="translate(291.423813 404.638438) scale(0.1 -0.1)">
       <use xlink:href="#DejaVuSans-30"/>
       <use xlink:href="#DejaVuSans-2e" x="63.623047"/>
       <use xlink:href="#DejaVuSans-30" x="95.410156"/>
      </g>
     </g>
    </g>
    <g id="xtick_5">
     <g id="line2d_5">
      <g>
       <use xlink:href="#m5755d4a316" x="366.602876" y="390.04" style="stroke: #000000; stroke-width: 0.8"/>
      </g>
     </g>
     <g id="text_5">
      <!-- 2.5 -->
      <g transform="translate(358.651314 404.638438) scale(0.1 -0.1)">
       <use xlink:href="#DejaVuSans-32"/>
       <use xlink:href="#DejaVuSans-2e" x="63.623047"/>
       <use xlink:href="#DejaVuSans-35" x="95.410156"/>
      </g>
     </g>
    </g>
    <g id="xtick_6">
     <g id="line2d_6">
      <g>
       <use xlink:href="#m5755d4a316" x="433.830377" y="390.04" style="stroke: #000000; stroke-width: 0.8"/>
      </g>
     </g>
     <g id="text_6">
      <!-- 5.0 -->
      <g transform="translate(425.878814 404.638438) scale(0.1 -0.1)">
       <use xlink:href="#DejaVuSans-35"/>
       <use xlink:href="#DejaVuSans-2e" x="63.623047"/>
       <use xlink:href="#DejaVuSans-30" x="95.410156"/>
      </g>
     </g>
    </g>
    <g id="xtick_7">
     <g id="line2d_7">
      <g>
       <use xlink:href="#m5755d4a316" x="501.057877" y="390.04" style="stroke: #000000; stroke-width: 0.8"/>
      </g>
     </g>
     <g id="text_7">
      <!-- 7.5 -->
      <g transform="translate(493.106315 404.638438) scale(0.1 -0.1)">
       <use xlink:href="#DejaVuSans-37"/>
       <use xlink:href="#DejaVuSans-2e" x="63.623047"/>
       <use xlink:href="#DejaVuSans-35" x="95.410156"/>
      </g>
     </g>
    </g>
    <g id="text_8">
     <!-- log2 Normalized Intensity -->
     <g transform="translate(245.51 418.316562) scale(0.1 -0.1)">
      <defs>
       <path id="DejaVuSans-6c" d="M 603 4863 
L 1178 4863 
L 1178 0 
L 603 0 
L 603 4863 
z
" transform="scale(0.015625)"/>
       <path id="DejaVuSans-6f" d="M 1959 3097 
Q 1497 3097 1228 2736 
Q 959 2375 959 1747 
Q 959 1119 1226 758 
Q 1494 397 1959 397 
Q 2419 397 2687 759 
Q 2956 1122 2956 1747 
Q 2956 2369 2687 2733 
Q 2419 3097 1959 3097 
z
M 1959 3584 
Q 2709 3584 3137 3096 
Q 3566 2609 3566 1747 
Q 3566 888 3137 398 
Q 2709 -91 1959 -91 
Q 1206 -91 779 398 
Q 353 888 353 1747 
Q 353 2609 779 3096 
Q 1206 3584 1959 3584 
z
" transform="scale(0.015625)"/>
       <path id="DejaVuSans-67" d="M 2906 1791 
Q 2906 2416 2648 2759 
Q 2391 3103 1925 3103 
Q 1463 3103 1205 2759 
Q 947 2416 947 1791 
Q 947 1169 1205 825 
Q 1463 481 1925 481 
Q 2391 481 2648 825 
Q 2906 1169 2906 1791 
z
M 3481 434 
Q 3481 -459 3084 -895 
Q 2688 -1331 1869 -1331 
Q 1566 -1331 1297 -1286 
Q 1028 -1241 775 -1147 
L 775 -588 
Q 1028 -725 1275 -790 
Q 1522 -856 1778 -856 
Q 2344 -856 2625 -561 
Q 2906 -266 2906 331 
L 2906 616 
Q 2728 306 2450 153 
Q 2172 0 1784 0 
Q 1141 0 747 490 
Q 353 981 353 1791 
Q 353 2603 747 3093 
Q 1141 3584 1784 3584 
Q 2172 3584 2450 3431 
Q 2728 3278 2906 2969 
L 2906 3500 
L 3481 3500 
L 3481 434 
z
" transform="scale(0.015625)"/>
       <path id="DejaVuSans-20" transform="scale(0.015625)"/>
       <path id="DejaVuSans-4e" d="M 628 4666 
L 1478 4666 
L 3547 763 
L 3547 4666 
L 4159 4666 
L 4159 0 
L 3309 0 
L 1241 3903 
L 1241 0 
L 628 0 
L 628 4666 
z
" transform="scale(0.015625)"/>
       <path id="DejaVuSans-72" d="M 2631 2963 
Q 2534 3019 2420 3045 
Q 2306 3072 2169 3072 
Q 1681 3072 1420 2755 
Q 1159 2438 1159 1844 
L 1159 0 
L 581 0 
L 581 3500 
L 1159 3500 
L 1159 2956 
Q 1341 3275 1631 3429 
Q 1922 3584 2338 3584 
Q 2397 3584 2469 3576 
Q 2541 3569 2628 3553 
L 2631 2963 
z
" transform="scale(0.015625)"/>
       <path id="DejaVuSans-6d" d="M 3328 2828 
Q 3544 3216 3844 3400 
Q 4144 3584 4550 3584 
Q 5097 3584 5394 3201 
Q 5691 2819 5691 2113 
L 5691 0 
L 5113 0 
L 5113 2094 
Q 5113 2597 4934 2840 
Q 4756 3084 4391 3084 
Q 3944 3084 3684 2787 
Q 3425 2491 3425 1978 
L 3425 0 
L 2847 0 
L 2847 2094 
Q 2847 2600 2669 2842 
Q 2491 3084 2119 3084 
Q 1678 3084 1418 2786 
Q 1159 2488 1159 1978 
L 1159 0 
L 581 0 
L 581 3500 
L 1159 3500 
L 1159 2956 
Q 1356 3278 1631 3431 
Q 1906 3584 2284 3584 
Q 2666 3584 2933 3390 
Q 3200 3197 3328 2828 
z
" transform="scale(0.015625)"/>
       <path id="DejaVuSans-61" d="M 2194 1759 
Q 1497 1759 1228 1600 
Q 959 1441 959 1056 
Q 959 750 1161 570 
Q 1363 391 1709 391 
Q 2188 391 2477 730 
Q 2766 1069 2766 1631 
L 2766 1759 
L 2194 1759 
z
M 3341 1997 
L 3341 0 
L 2766 0 
L 2766 531 
Q 2569 213 2275 61 
Q 1981 -91 1556 -91 
Q 1019 -91 701 211 
Q 384 513 384 1019 
Q 384 1609 779 1909 
Q 1175 2209 1959 2209 
L 2766 2209 
L 2766 2266 
Q 2766 2663 2505 2880 
Q 2244 3097 1772 3097 
Q 1472 3097 1187 3025 
Q 903 2953 641 2809 
L 641 3341 
Q 956 3463 1253 3523 
Q 1550 3584 1831 3584 
Q 2591 3584 2966 3190 
Q 3341 2797 3341 1997 
z
" transform="scale(0.015625)"/>
       <path id="DejaVuSans-69" d="M 603 3500 
L 1178 3500 
L 1178 0 
L 603 0 
L 603 3500 
z
M 603 4863 
L 1178 4863 
L 1178 4134 
L 603 4134 
L 603 4863 
z
" transform="scale(0.015625)"/>
       <path id="DejaVuSans-7a" d="M 353 3500 
L 3084 3500 
L 3084 2975 
L 922 459 
L 3084 459 
L 3084 0 
L 275 0 
L 275 525 
L 2438 3041 
L 353 3041 
L 353 3500 
z
" transform="scale(0.015625)"/>
       <path id="DejaVuSans-65" d="M 3597 1894 
L 3597 1613 
L 953 1613 
Q 991 1019 1311 708 
Q 1631 397 2203 397 
Q 2534 397 2845 478 
Q 3156 559 3463 722 
L 3463 178 
Q 3153 47 2828 -22 
Q 2503 -91 2169 -91 
Q 1331 -91 842 396 
Q 353 884 353 1716 
Q 353 2575 817 3079 
Q 1281 3584 2069 3584 
Q 2775 3584 3186 3129 
Q 3597 2675 3597 1894 
z
M 3022 2063 
Q 3016 2534 2758 2815 
Q 2500 3097 2075 3097 
Q 1594 3097 1305 2825 
Q 1016 2553 972 2059 
L 3022 2063 
z
" transform="scale(0.015625)"/>
       <path id="DejaVuSans-64" d="M 2906 2969 
L 2906 4863 
L 3481 4863 
L 3481 0 
L 2906 0 
L 2906 525 
Q 2725 213 2448 61 
Q 2172 -91 1784 -91 
Q 1150 -91 751 415 
Q 353 922 353 1747 
Q 353 2572 751 3078 
Q 1150 3584 1784 3584 
Q 2172 3584 2448 3432 
Q 2725 3281 2906 2969 
z
M 947 1747 
Q 947 1113 1208 752 
Q 1469 391 1925 391 
Q 2381 391 2643 752 
Q 2906 1113 2906 1747 
Q 2906 2381 2643 2742 
Q 2381 3103 1925 3103 
Q 1469 3103 1208 2742 
Q 947 2381 947 1747 
z
" transform="scale(0.015625)"/>
       <path id="DejaVuSans-49" d="M 628 4666 
L 1259 4666 
L 1259 0 
L 628 0 
L 628 4666 
z
" transform="scale(0.015625)"/>
       <path id="DejaVuSans-6e" d="M 3513 2113 
L 3513 0 
L 2938 0 
L 2938 2094 
Q 2938 2591 2744 2837 
Q 2550 3084 2163 3084 
Q 1697 3084 1428 2787 
Q 1159 2491 1159 1978 
L 1159 0 
L 581 0 
L 581 3500 
L 1159 3500 
L 1159 2956 
Q 1366 3272 1645 3428 
Q 1925 3584 2291 3584 
Q 2894 3584 3203 3211 
Q 3513 2838 3513 2113 
z
" transform="scale(0.015625)"/>
       <path id="DejaVuSans-74" d="M 1172 4494 
L 1172 3500 
L 2356 3500 
L 2356 3053 
L 1172 3053 
L 1172 1153 
Q 1172 725 1289 603 
Q 1406 481 1766 481 
L 2356 481 
L 2356 0 
L 1766 0 
Q 1100 0 847 248 
Q 594 497 594 1153 
L 594 3053 
L 172 3053 
L 172 3500 
L 594 3500 
L 594 4494 
L 1172 4494 
z
" transform="scale(0.015625)"/>
       <path id="DejaVuSans-73" d="M 2834 3397 
L 2834 2853 
Q 2591 2978 2328 3040 
Q 2066 3103 1784 3103 
Q 1356 3103 1142 2972 
Q 928 2841 928 2578 
Q 928 2378 1081 2264 
Q 1234 2150 1697 2047 
L 1894 2003 
Q 2506 1872 2764 1633 
Q 3022 1394 3022 966 
Q 3022 478 2636 193 
Q 2250 -91 1575 -91 
Q 1294 -91 989 -36 
Q 684 19 347 128 
L 347 722 
Q 666 556 975 473 
Q 1284 391 1588 391 
Q 1994 391 2212 530 
Q 2431 669 2431 922 
Q 2431 1156 2273 1281 
Q 2116 1406 1581 1522 
L 1381 1569 
Q 847 1681 609 1914 
Q 372 2147 372 2553 
Q 372 3047 722 3315 
Q 1072 3584 1716 3584 
Q 2034 3584 2315 3537 
Q 2597 3491 2834 3397 
z
" transform="scale(0.015625)"/>
       <path id="DejaVuSans-79" d="M 2059 -325 
Q 1816 -950 1584 -1140 
Q 1353 -1331 966 -1331 
L 506 -1331 
L 506 -850 
L 844 -850 
Q 1081 -850 1212 -737 
Q 1344 -625 1503 -206 
L 1606 56 
L 191 3500 
L 800 3500 
L 1894 763 
L 2988 3500 
L 3597 3500 
L 2059 -325 
z
" transform="scale(0.015625)"/>
      </defs>
      <use xlink:href="#DejaVuSans-6c"/>
      <use xlink:href="#DejaVuSans-6f" x="27.783203"/>
      <use xlink:href="#DejaVuSans-67" x="88.964844"/>
      <use xlink:href="#DejaVuSans-32" x="152.441406"/>
      <use xlink:href="#DejaVuSans-20" x="216.064453"/>
      <use xlink:href="#DejaVuSans-4e" x="247.851562"/>
      <use xlink:href="#DejaVuSans-6f" x="322.65625"/>
      <use xlink:href="#DejaVuSans-72" x="383.837891"/>
      <use xlink:href="#DejaVuSans-6d" x="423.201172"/>
      <use xlink:href="#DejaVuSans-61" x="520.613281"/>
      <use xlink:href="#DejaVuSans-6c" x="581.892578"/>
      <use xlink:href="#DejaVuSans-69" x="609.675781"/>
      <use xlink:href="#DejaVuSans-7a" x="637.458984"/>
      <use xlink:href="#DejaVuSans-65" x="689.949219"/>
      <use xlink:href="#DejaVuSans-64" x="751.472656"/>
      <use xlink:href="#DejaVuSans-20" x="814.949219"/>
      <use xlink:href="#DejaVuSans-49" x="846.736328"/>
      <use xlink:href="#DejaVuSans-6e" x="876.228516"/>
      <use xlink:href="#DejaVuSans-74" x="939.607422"/>
      <use xlink:href="#DejaVuSans-65" x="978.816406"/>
      <use xlink:href="#DejaVuSans-6e" x="1040.339844"/>
      <use xlink:href="#DejaVuSans-73" x="1103.71875"/>
      <use xlink:href="#DejaVuSans-69" x="1155.818359"/>
      <use xlink:href="#DejaVuSans-74" x="1183.601562"/>
      <use xlink:href="#DejaVuSans-79" x="1222.810547"/>
     </g>
    </g>
   </g>
   <g id="matplotlib.axis_2">
    <g id="ytick_1">
     <g id="line2d_8">
      <defs>
       <path id="ma7234946b5" d="M 0 0 
L -3.5 0 
" style="stroke: #000000; stroke-width: 0.8"/>
      </defs>
      <g>
       <use xlink:href="#ma7234946b5" x="54.02" y="390.04" style="stroke: #000000; stroke-width: 0.8"/>
      </g>
     </g>
     <g id="text_9">
      <!-- 0.00 -->
      <g transform="translate(24.754375 393.839219) scale(0.1 -0.1)">
       <use xlink:href="#DejaVuSans-30"/>
       <use xlink:href="#DejaVuSans-2e" x="63.623047"/>
       <use xlink:href="#DejaVuSans-30" x="95.410156"/>
       <use xlink:href="#DejaVuSans-30" x="159.033203"/>
      </g>
     </g>
    </g>
    <g id="ytick_2">
     <g id="line2d_9">
      <g>
       <use xlink:href="#ma7234946b5" x="54.02" y="329.683661" style="stroke: #000000; stroke-width: 0.8"/>
      </g>
     </g>
     <g id="text_10">
      <!-- 0.05 -->
      <g transform="translate(24.754375 333.48288) scale(0.1 -0.1)">
       <use xlink:href="#DejaVuSans-30"/>
       <use xlink:href="#DejaVuSans-2e" x="63.623047"/>
       <use xlink:href="#DejaVuSans-30" x="95.410156"/>
       <use xlink:href="#DejaVuSans-35" x="159.033203"/>
      </g>
     </g>
    </g>
    <g id="ytick_3">
     <g id="line2d_10">
      <g>
       <use xlink:href="#ma7234946b5" x="54.02" y="269.327322" style="stroke: #000000; stroke-width: 0.8"/>
      </g>
     </g>
     <g id="text_11">
      <!-- 0.10 -->
      <g transform="translate(24.754375 273.126541) scale(0.1 -0.1)">
       <defs>
        <path id="DejaVuSans-31" d="M 794 531 
L 1825 531 
L 1825 4091 
L 703 3866 
L 703 4441 
L 1819 4666 
L 2450 4666 
L 2450 531 
L 3481 531 
L 3481 0 
L 794 0 
L 794 531 
z
" transform="scale(0.015625)"/>
       </defs>
       <use xlink:href="#DejaVuSans-30"/>
       <use xlink:href="#DejaVuSans-2e" x="63.623047"/>
       <use xlink:href="#DejaVuSans-31" x="95.410156"/>
       <use xlink:href="#DejaVuSans-30" x="159.033203"/>
      </g>
     </g>
    </g>
    <g id="ytick_4">
     <g id="line2d_11">
      <g>
       <use xlink:href="#ma7234946b5" x="54.02" y="208.970984" style="stroke: #000000; stroke-width: 0.8"/>
      </g>
     </g>
     <g id="text_12">
      <!-- 0.15 -->
      <g transform="translate(24.754375 212.770202) scale(0.1 -0.1)">
       <use xlink:href="#DejaVuSans-30"/>
       <use xlink:href="#DejaVuSans-2e" x="63.623047"/>
       <use xlink:href="#DejaVuSans-31" x="95.410156"/>
       <use xlink:href="#DejaVuSans-35" x="159.033203"/>
      </g>
     </g>
    </g>
    <g id="ytick_5">
     <g id="line2d_12">
      <g>
       <use xlink:href="#ma7234946b5" x="54.02" y="148.614645" style="stroke: #000000; stroke-width: 0.8"/>
      </g>
     </g>
     <g id="text_13">
      <!-- 0.20 -->
      <g transform="translate(24.754375 152.413864) scale(0.1 -0.1)">
       <use xlink:href="#DejaVuSans-30"/>
       <use xlink:href="#DejaVuSans-2e" x="63.623047"/>
       <use xlink:href="#DejaVuSans-32" x="95.410156"/>
       <use xlink:href="#DejaVuSans-30" x="159.033203"/>
      </g>
     </g>
    </g>
    <g id="ytick_6">
     <g id="line2d_13">
      <g>
       <use xlink:href="#ma7234946b5" x="54.02" y="88.258306" style="stroke: #000000; stroke-width: 0.8"/>
      </g>
     </g>
     <g id="text_14">
      <!-- 0.25 -->
      <g transform="translate(24.754375 92.057525) scale(0.1 -0.1)">
       <use xlink:href="#DejaVuSans-30"/>
       <use xlink:href="#DejaVuSans-2e" x="63.623047"/>
       <use xlink:href="#DejaVuSans-32" x="95.410156"/>
       <use xlink:href="#DejaVuSans-35" x="159.033203"/>
      </g>
     </g>
    </g>
    <g id="ytick_7">
     <g id="line2d_14">
      <g>
       <use xlink:href="#ma7234946b5" x="54.02" y="27.901967" style="stroke: #000000; stroke-width: 0.8"/>
      </g>
     </g>
     <g id="text_15">
      <!-- 0.30 -->
      <g transform="translate(24.754375 31.701186) scale(0.1 -0.1)">
       <defs>
        <path id="DejaVuSans-33" d="M 2597 2516 
Q 3050 2419 3304 2112 
Q 3559 1806 3559 1356 
Q 3559 666 3084 287 
Q 2609 -91 1734 -91 
Q 1441 -91 1130 -33 
Q 819 25 488 141 
L 488 750 
Q 750 597 1062 519 
Q 1375 441 1716 441 
Q 2309 441 2620 675 
Q 2931 909 2931 1356 
Q 2931 1769 2642 2001 
Q 2353 2234 1838 2234 
L 1294 2234 
L 1294 2753 
L 1863 2753 
Q 2328 2753 2575 2939 
Q 2822 3125 2822 3475 
Q 2822 3834 2567 4026 
Q 2313 4219 1838 4219 
Q 1578 4219 1281 4162 
Q 984 4106 628 3988 
L 628 4550 
Q 988 4650 1302 4700 
Q 1616 4750 1894 4750 
Q 2613 4750 3031 4423 
Q 3450 4097 3450 3541 
Q 3450 3153 3228 2886 
Q 3006 2619 2597 2516 
z
" transform="scale(0.015625)"/>
       </defs>
       <use xlink:href="#DejaVuSans-30"/>
       <use xlink:href="#DejaVuSans-2e" x="63.623047"/>
       <use xlink:href="#DejaVuSans-33" x="95.410156"/>
       <use xlink:href="#DejaVuSans-30" x="159.033203"/>
      </g>
     </g>
    </g>
    <g id="text_16">
     <!-- Density -->
     <g transform="translate(18.674688 227.468594) rotate(-90) scale(0.1 -0.1)">
      <defs>
       <path id="DejaVuSans-44" d="M 1259 4147 
L 1259 519 
L 2022 519 
Q 2988 519 3436 956 
Q 3884 1394 3884 2338 
Q 3884 3275 3436 3711 
Q 2988 4147 2022 4147 
L 1259 4147 
z
M 628 4666 
L 1925 4666 
Q 3281 4666 3915 4102 
Q 4550 3538 4550 2338 
Q 4550 1131 3912 565 
Q 3275 0 1925 0 
L 628 0 
L 628 4666 
z
" transform="scale(0.015625)"/>
      </defs>
      <use xlink:href="#DejaVuSans-44"/>
      <use xlink:href="#DejaVuSans-65" x="77.001953"/>
      <use xlink:href="#DejaVuSans-6e" x="138.525391"/>
      <use xlink:href="#DejaVuSans-73" x="201.904297"/>
      <use xlink:href="#DejaVuSans-69" x="254.003906"/>
      <use xlink:href="#DejaVuSans-74" x="281.787109"/>
      <use xlink:href="#DejaVuSans-79" x="320.996094"/>
     </g>
    </g>
   </g>
   <g id="patch_3">
    <path d="M 54.02 390.04 
L 54.02 26.88 
" style="fill: none; stroke: #000000; stroke-width: 0.8; stroke-linejoin: miter; stroke-linecap: square"/>
   </g>
   <g id="patch_4">
    <path d="M 565.2 390.04 
L 565.2 26.88 
" style="fill: none; stroke: #000000; stroke-width: 0.8; stroke-linejoin: miter; stroke-linecap: square"/>
   </g>
   <g id="patch_5">
    <path d="M 54.02 390.04 
L 565.2 390.04 
" style="fill: none; stroke: #000000; stroke-width: 0.8; stroke-linejoin: miter; stroke-linecap: square"/>
   </g>
   <g id="patch_6">
    <path d="M 54.02 26.88 
L 565.2 26.88 
" style="fill: none; stroke: #000000; stroke-width: 0.8; stroke-linejoin: miter; stroke-linecap: square"/>
   </g>
   <g id="text_17">
    <!-- FragPipe diaTracer DIANN: Peptide Intensity Distribution -->
    <g transform="translate(141.89125 20.88) scale(0.12 -0.12)">
     <defs>
      <path id="DejaVuSans-46" d="M 628 4666 
L 3309 4666 
L 3309 4134 
L 1259 4134 
L 1259 2759 
L 3109 2759 
L 3109 2228 
L 1259 2228 
L 1259 0 
L 628 0 
L 628 4666 
z
" transform="scale(0.015625)"/>
      <path id="DejaVuSans-50" d="M 1259 4147 
L 1259 2394 
L 2053 2394 
Q 2494 2394 2734 2622 
Q 2975 2850 2975 3272 
Q 2975 3691 2734 3919 
Q 2494 4147 2053 4147 
L 1259 4147 
z
M 628 4666 
L 2053 4666 
Q 2838 4666 3239 4311 
Q 3641 3956 3641 3272 
Q 3641 2581 3239 2228 
Q 2838 1875 2053 1875 
L 1259 1875 
L 1259 0 
L 628 0 
L 628 4666 
z
" transform="scale(0.015625)"/>
      <path id="DejaVuSans-70" d="M 1159 525 
L 1159 -1331 
L 581 -1331 
L 581 3500 
L 1159 3500 
L 1159 2969 
Q 1341 3281 1617 3432 
Q 1894 3584 2278 3584 
Q 2916 3584 3314 3078 
Q 3713 2572 3713 1747 
Q 3713 922 3314 415 
Q 2916 -91 2278 -91 
Q 1894 -91 1617 61 
Q 1341 213 1159 525 
z
M 3116 1747 
Q 3116 2381 2855 2742 
Q 2594 3103 2138 3103 
Q 1681 3103 1420 2742 
Q 1159 2381 1159 1747 
Q 1159 1113 1420 752 
Q 1681 391 2138 391 
Q 2594 391 2855 752 
Q 3116 1113 3116 1747 
z
" transform="scale(0.015625)"/>
      <path id="DejaVuSans-54" d="M -19 4666 
L 3928 4666 
L 3928 4134 
L 2272 4134 
L 2272 0 
L 1638 0 
L 1638 4134 
L -19 4134 
L -19 4666 
z
" transform="scale(0.015625)"/>
      <path id="DejaVuSans-63" d="M 3122 3366 
L 3122 2828 
Q 2878 2963 2633 3030 
Q 2388 3097 2138 3097 
Q 1578 3097 1268 2742 
Q 959 2388 959 1747 
Q 959 1106 1268 751 
Q 1578 397 2138 397 
Q 2388 397 2633 464 
Q 2878 531 3122 666 
L 3122 134 
Q 2881 22 2623 -34 
Q 2366 -91 2075 -91 
Q 1284 -91 818 406 
Q 353 903 353 1747 
Q 353 2603 823 3093 
Q 1294 3584 2113 3584 
Q 2378 3584 2631 3529 
Q 2884 3475 3122 3366 
z
" transform="scale(0.015625)"/>
      <path id="DejaVuSans-41" d="M 2188 4044 
L 1331 1722 
L 3047 1722 
L 2188 4044 
z
M 1831 4666 
L 2547 4666 
L 4325 0 
L 3669 0 
L 3244 1197 
L 1141 1197 
L 716 0 
L 50 0 
L 1831 4666 
z
" transform="scale(0.015625)"/>
      <path id="DejaVuSans-3a" d="M 750 794 
L 1409 794 
L 1409 0 
L 750 0 
L 750 794 
z
M 750 3309 
L 1409 3309 
L 1409 2516 
L 750 2516 
L 750 3309 
z
" transform="scale(0.015625)"/>
      <path id="DejaVuSans-62" d="M 3116 1747 
Q 3116 2381 2855 2742 
Q 2594 3103 2138 3103 
Q 1681 3103 1420 2742 
Q 1159 2381 1159 1747 
Q 1159 1113 1420 752 
Q 1681 391 2138 391 
Q 2594 391 2855 752 
Q 3116 1113 3116 1747 
z
M 1159 2969 
Q 1341 3281 1617 3432 
Q 1894 3584 2278 3584 
Q 2916 3584 3314 3078 
Q 3713 2572 3713 1747 
Q 3713 922 3314 415 
Q 2916 -91 2278 -91 
Q 1894 -91 1617 61 
Q 1341 213 1159 525 
L 1159 0 
L 581 0 
L 581 4863 
L 1159 4863 
L 1159 2969 
z
" transform="scale(0.015625)"/>
      <path id="DejaVuSans-75" d="M 544 1381 
L 544 3500 
L 1119 3500 
L 1119 1403 
Q 1119 906 1312 657 
Q 1506 409 1894 409 
Q 2359 409 2629 706 
Q 2900 1003 2900 1516 
L 2900 3500 
L 3475 3500 
L 3475 0 
L 2900 0 
L 2900 538 
Q 2691 219 2414 64 
Q 2138 -91 1772 -91 
Q 1169 -91 856 284 
Q 544 659 544 1381 
z
M 1991 3584 
L 1991 3584 
z
" transform="scale(0.015625)"/>
     </defs>
     <use xlink:href="#DejaVuSans-46"/>
     <use xlink:href="#DejaVuSans-72" x="50.269531"/>
     <use xlink:href="#DejaVuSans-61" x="91.382812"/>
     <use xlink:href="#DejaVuSans-67" x="152.662109"/>
     <use xlink:href="#DejaVuSans-50" x="216.138672"/>
     <use xlink:href="#DejaVuSans-69" x="274.191406"/>
     <use xlink:href="#DejaVuSans-70" x="301.974609"/>
     <use xlink:href="#DejaVuSans-65" x="365.451172"/>
     <use xlink:href="#DejaVuSans-20" x="426.974609"/>
     <use xlink:href="#DejaVuSans-64" x="458.761719"/>
     <use xlink:href="#DejaVuSans-69" x="522.238281"/>
     <use xlink:href="#DejaVuSans-61" x="550.021484"/>
     <use xlink:href="#DejaVuSans-54" x="611.300781"/>
     <use xlink:href="#DejaVuSans-72" x="657.634766"/>
     <use xlink:href="#DejaVuSans-61" x="698.748047"/>
     <use xlink:href="#DejaVuSans-63" x="760.027344"/>
     <use xlink:href="#DejaVuSans-65" x="815.007812"/>
     <use xlink:href="#DejaVuSans-72" x="876.53125"/>
     <use xlink:href="#DejaVuSans-20" x="917.644531"/>
     <use xlink:href="#DejaVuSans-44" x="949.431641"/>
     <use xlink:href="#DejaVuSans-49" x="1026.433594"/>
     <use xlink:href="#DejaVuSans-41" x="1055.925781"/>
     <use xlink:href="#DejaVuSans-4e" x="1124.333984"/>
     <use xlink:href="#DejaVuSans-4e" x="1199.138672"/>
     <use xlink:href="#DejaVuSans-3a" x="1273.943359"/>
     <use xlink:href="#DejaVuSans-20" x="1307.634766"/>
     <use xlink:href="#DejaVuSans-50" x="1339.421875"/>
     <use xlink:href="#DejaVuSans-65" x="1396.099609"/>
     <use xlink:href="#DejaVuSans-70" x="1457.623047"/>
     <use xlink:href="#DejaVuSans-74" x="1521.099609"/>
     <use xlink:href="#DejaVuSans-69" x="1560.308594"/>
     <use xlink:href="#DejaVuSans-64" x="1588.091797"/>
     <use xlink:href="#DejaVuSans-65" x="1651.568359"/>
     <use xlink:href="#DejaVuSans-20" x="1713.091797"/>
     <use xlink:href="#DejaVuSans-49" x="1744.878906"/>
     <use xlink:href="#DejaVuSans-6e" x="1774.371094"/>
     <use xlink:href="#DejaVuSans-74" x="1837.75"/>
     <use xlink:href="#DejaVuSans-65" x="1876.958984"/>
     <use xlink:href="#DejaVuSans-6e" x="1938.482422"/>
     <use xlink:href="#DejaVuSans-73" x="2001.861328"/>
     <use xlink:href="#DejaVuSans-69" x="2053.960938"/>
     <use xlink:href="#DejaVuSans-74" x="2081.744141"/>
     <use xlink:href="#DejaVuSans-79" x="2120.953125"/>
     <use xlink:href="#DejaVuSans-20" x="2180.132812"/>
     <use xlink:href="#DejaVuSans-44" x="2211.919922"/>
     <use xlink:href="#DejaVuSans-69" x="2288.921875"/>
     <use xlink:href="#DejaVuSans-73" x="2316.705078"/>
     <use xlink:href="#DejaVuSans-74" x="2368.804688"/>
     <use xlink:href="#DejaVuSans-72" x="2408.013672"/>
     <use xlink:href="#DejaVuSans-69" x="2449.126953"/>
     <use xlink:href="#DejaVuSans-62" x="2476.910156"/>
     <use xlink:href="#DejaVuSans-75" x="2540.386719"/>
     <use xlink:href="#DejaVuSans-74" x="2603.765625"/>
     <use xlink:href="#DejaVuSans-69" x="2642.974609"/>
     <use xlink:href="#DejaVuSans-6f" x="2670.757812"/>
     <use xlink:href="#DejaVuSans-6e" x="2731.939453"/>
    </g>
   </g>
   <g id="legend_1">
    <g id="patch_7">
     <path d="M 472.489062 64.23625 
L 558.2 64.23625 
Q 560.2 64.23625 560.2 62.23625 
L 560.2 33.88 
Q 560.2 31.88 558.2 31.88 
L 472.489062 31.88 
Q 470.489062 31.88 470.489062 33.88 
L 470.489062 62.23625 
Q 470.489062 64.23625 472.489062 64.23625 
z
" style="fill: #ffffff; opacity: 0.8; stroke: #cccccc; stroke-linejoin: miter"/>
    </g>
    <g id="patch_8">
     <path d="M 474.489062 43.478437 
L 494.489062 43.478437 
L 494.489062 36.478437 
L 474.489062 36.478437 
z
" style="fill: #1e90ff; fill-opacity: 0.2; stroke: #1e90ff; stroke-width: 2; stroke-linejoin: miter"/>
    </g>
    <g id="text_18">
     <!-- DIA &amp; DDA -->
     <g transform="translate(502.489062 43.478437) scale(0.1 -0.1)">
      <defs>
       <path id="DejaVuSans-26" d="M 1556 2509 
Q 1272 2256 1139 2004 
Q 1006 1753 1006 1478 
Q 1006 1022 1337 719 
Q 1669 416 2169 416 
Q 2466 416 2725 514 
Q 2984 613 3213 813 
L 1556 2509 
z
M 1997 2859 
L 3584 1234 
Q 3769 1513 3872 1830 
Q 3975 2147 3994 2503 
L 4575 2503 
Q 4538 2091 4375 1687 
Q 4213 1284 3922 891 
L 4794 0 
L 4006 0 
L 3559 459 
Q 3234 181 2878 45 
Q 2522 -91 2113 -91 
Q 1359 -91 881 339 
Q 403 769 403 1441 
Q 403 1841 612 2192 
Q 822 2544 1241 2853 
Q 1091 3050 1012 3245 
Q 934 3441 934 3628 
Q 934 4134 1281 4442 
Q 1628 4750 2203 4750 
Q 2463 4750 2720 4694 
Q 2978 4638 3244 4525 
L 3244 3956 
Q 2972 4103 2725 4179 
Q 2478 4256 2266 4256 
Q 1938 4256 1733 4082 
Q 1528 3909 1528 3634 
Q 1528 3475 1620 3314 
Q 1713 3153 1997 2859 
z
" transform="scale(0.015625)"/>
      </defs>
      <use xlink:href="#DejaVuSans-44"/>
      <use xlink:href="#DejaVuSans-49" x="77.001953"/>
      <use xlink:href="#DejaVuSans-41" x="106.494141"/>
      <use xlink:href="#DejaVuSans-20" x="174.902344"/>
      <use xlink:href="#DejaVuSans-26" x="206.689453"/>
      <use xlink:href="#DejaVuSans-20" x="284.667969"/>
      <use xlink:href="#DejaVuSans-44" x="316.455078"/>
      <use xlink:href="#DejaVuSans-44" x="393.457031"/>
      <use xlink:href="#DejaVuSans-41" x="468.708984"/>
     </g>
    </g>
    <g id="patch_9">
     <path d="M 474.489062 58.156563 
L 494.489062 58.156563 
L 494.489062 51.156563 
L 474.489062 51.156563 
z
" style="fill: #b22222; fill-opacity: 0.2; stroke: #b22222; stroke-width: 2; stroke-linejoin: miter"/>
    </g>
    <g id="text_19">
     <!-- DIA-only -->
     <g transform="translate(502.489062 58.156563) scale(0.1 -0.1)">
      <defs>
       <path id="DejaVuSans-2d" d="M 313 2009 
L 1997 2009 
L 1997 1497 
L 313 1497 
L 313 2009 
z
" transform="scale(0.015625)"/>
      </defs>
      <use xlink:href="#DejaVuSans-44"/>
      <use xlink:href="#DejaVuSans-49" x="77.001953"/>
      <use xlink:href="#DejaVuSans-41" x="106.494141"/>
      <use xlink:href="#DejaVuSans-2d" x="172.652344"/>
      <use xlink:href="#DejaVuSans-6f" x="210.611328"/>
      <use xlink:href="#DejaVuSans-6e" x="271.792969"/>
      <use xlink:href="#DejaVuSans-6c" x="335.171875"/>
      <use xlink:href="#DejaVuSans-79" x="362.955078"/>
     </g>
    </g>
   </g>
  </g>
 </g>
 <defs>
  <clipPath id="pd780ffd1a2">
   <rect x="54.02" y="26.88" width="511.18" height="363.16"/>
  </clipPath>
 </defs>
</svg>
