<?xml version="1.0" encoding="utf-8" standalone="no"?>
<!DOCTYPE svg PUBLIC "-//W3C//DTD SVG 1.1//EN"
  "http://www.w3.org/Graphics/SVG/1.1/DTD/svg11.dtd">
<svg xmlns:xlink="http://www.w3.org/1999/xlink" width="576pt" height="432pt" viewBox="0 0 576 432" xmlns="http://www.w3.org/2000/svg" version="1.1">
 <metadata>
  <rdf:RDF xmlns:dc="http://purl.org/dc/elements/1.1/" xmlns:cc="http://creativecommons.org/ns#" xmlns:rdf="http://www.w3.org/1999/02/22-rdf-syntax-ns#">
   <cc:Work>
    <dc:type rdf:resource="http://purl.org/dc/dcmitype/StillImage"/>
    <dc:date>2025-05-02T12:00:25.933250</dc:date>
    <dc:format>image/svg+xml</dc:format>
    <dc:creator>
     <cc:Agent>
      <dc:title>Matplotlib v3.7.2, https://matplotlib.org/</dc:title>
     </cc:Agent>
    </dc:creator>
   </cc:Work>
  </rdf:RDF>
 </metadata>
 <defs>
  <style type="text/css">*{stroke-linejoin: round; stroke-linecap: butt}</style>
 </defs>
 <g id="figure_1">
  <g id="patch_1">
   <path d="M 0 432 
L 576 432 
L 576 0 
L 0 0 
z
" style="fill: #ffffff"/>
  </g>
  <g id="axes_1">
   <g id="patch_2">
    <path d="M 54.02 390.04 
L 565.2 390.04 
L 565.2 26.88 
L 54.02 26.88 
z
" style="fill: #ffffff"/>
   </g>
   <g id="PolyCollection_1">
    <defs>
     <path id="m1e4e7af64b" d="M 106.714738 -41.961174 
L 106.714738 -41.96 
L 108.901923 -41.96 
L 111.089107 -41.96 
L 113.276292 -41.96 
L 115.463477 -41.96 
L 117.650662 -41.96 
L 119.837847 -41.96 
L 122.025032 -41.96 
L 124.212217 -41.96 
L 126.399402 -41.96 
L 128.586587 -41.96 
L 130.773772 -41.96 
L 132.960957 -41.96 
L 135.148142 -41.96 
L 137.335327 -41.96 
L 139.522512 -41.96 
L 141.709697 -41.96 
L 143.896882 -41.96 
L 146.084067 -41.96 
L 148.271252 -41.96 
L 150.458437 -41.96 
L 152.645622 -41.96 
L 154.832807 -41.96 
L 157.019992 -41.96 
L 159.207177 -41.96 
L 161.394362 -41.96 
L 163.581547 -41.96 
L 165.768732 -41.96 
L 167.955917 -41.96 
L 170.143102 -41.96 
L 172.330286 -41.96 
L 174.517471 -41.96 
L 176.704656 -41.96 
L 178.891841 -41.96 
L 181.079026 -41.96 
L 183.266211 -41.96 
L 185.453396 -41.96 
L 187.640581 -41.96 
L 189.827766 -41.96 
L 192.014951 -41.96 
L 194.202136 -41.96 
L 196.389321 -41.96 
L 198.576506 -41.96 
L 200.763691 -41.96 
L 202.950876 -41.96 
L 205.138061 -41.96 
L 207.325246 -41.96 
L 209.512431 -41.96 
L 211.699616 -41.96 
L 213.886801 -41.96 
L 216.073986 -41.96 
L 218.261171 -41.96 
L 220.448356 -41.96 
L 222.635541 -41.96 
L 224.822726 -41.96 
L 227.009911 -41.96 
L 229.197096 -41.96 
L 231.384281 -41.96 
L 233.571465 -41.96 
L 235.75865 -41.96 
L 237.945835 -41.96 
L 240.13302 -41.96 
L 242.320205 -41.96 
L 244.50739 -41.96 
L 246.694575 -41.96 
L 248.88176 -41.96 
L 251.068945 -41.96 
L 253.25613 -41.96 
L 255.443315 -41.96 
L 257.6305 -41.96 
L 259.817685 -41.96 
L 262.00487 -41.96 
L 264.192055 -41.96 
L 266.37924 -41.96 
L 268.566425 -41.96 
L 270.75361 -41.96 
L 272.940795 -41.96 
L 275.12798 -41.96 
L 277.315165 -41.96 
L 279.50235 -41.96 
L 281.689535 -41.96 
L 283.87672 -41.96 
L 286.063905 -41.96 
L 288.25109 -41.96 
L 290.438275 -41.96 
L 292.62546 -41.96 
L 294.812644 -41.96 
L 296.999829 -41.96 
L 299.187014 -41.96 
L 301.374199 -41.96 
L 303.561384 -41.96 
L 305.748569 -41.96 
L 307.935754 -41.96 
L 310.122939 -41.96 
L 312.310124 -41.96 
L 314.497309 -41.96 
L 316.684494 -41.96 
L 318.871679 -41.96 
L 321.058864 -41.96 
L 323.246049 -41.96 
L 325.433234 -41.96 
L 327.620419 -41.96 
L 329.807604 -41.96 
L 331.994789 -41.96 
L 334.181974 -41.96 
L 336.369159 -41.96 
L 338.556344 -41.96 
L 340.743529 -41.96 
L 342.930714 -41.96 
L 345.117899 -41.96 
L 347.305084 -41.96 
L 349.492269 -41.96 
L 351.679454 -41.96 
L 353.866639 -41.96 
L 356.053823 -41.96 
L 358.241008 -41.96 
L 360.428193 -41.96 
L 362.615378 -41.96 
L 364.802563 -41.96 
L 366.989748 -41.96 
L 369.176933 -41.96 
L 371.364118 -41.96 
L 373.551303 -41.96 
L 375.738488 -41.96 
L 377.925673 -41.96 
L 380.112858 -41.96 
L 382.300043 -41.96 
L 384.487228 -41.96 
L 386.674413 -41.96 
L 388.861598 -41.96 
L 391.048783 -41.96 
L 393.235968 -41.96 
L 395.423153 -41.96 
L 397.610338 -41.96 
L 399.797523 -41.96 
L 401.984708 -41.96 
L 404.171893 -41.96 
L 406.359078 -41.96 
L 408.546263 -41.96 
L 410.733448 -41.96 
L 412.920633 -41.96 
L 415.107818 -41.96 
L 417.295002 -41.96 
L 419.482187 -41.96 
L 421.669372 -41.96 
L 423.856557 -41.96 
L 426.043742 -41.96 
L 428.230927 -41.96 
L 430.418112 -41.96 
L 432.605297 -41.96 
L 434.792482 -41.96 
L 436.979667 -41.96 
L 439.166852 -41.96 
L 441.354037 -41.96 
L 443.541222 -41.96 
L 445.728407 -41.96 
L 447.915592 -41.96 
L 450.102777 -41.96 
L 452.289962 -41.96 
L 454.477147 -41.96 
L 456.664332 -41.96 
L 458.851517 -41.96 
L 461.038702 -41.96 
L 463.225887 -41.96 
L 465.413072 -41.96 
L 467.600257 -41.96 
L 469.787442 -41.96 
L 471.974627 -41.96 
L 474.161812 -41.96 
L 476.348997 -41.96 
L 478.536181 -41.96 
L 480.723366 -41.96 
L 482.910551 -41.96 
L 485.097736 -41.96 
L 487.284921 -41.96 
L 489.472106 -41.96 
L 491.659291 -41.96 
L 493.846476 -41.96 
L 496.033661 -41.96 
L 498.220846 -41.96 
L 500.408031 -41.96 
L 502.595216 -41.96 
L 504.782401 -41.96 
L 506.969586 -41.96 
L 509.156771 -41.96 
L 511.343956 -41.96 
L 513.531141 -41.96 
L 515.718326 -41.96 
L 517.905511 -41.96 
L 520.092696 -41.96 
L 522.279881 -41.96 
L 524.467066 -41.96 
L 526.654251 -41.96 
L 528.841436 -41.96 
L 531.028621 -41.96 
L 533.215806 -41.96 
L 535.402991 -41.96 
L 537.590176 -41.96 
L 539.77736 -41.96 
L 541.964545 -41.96 
L 541.964545 -41.961034 
L 541.964545 -41.961034 
L 539.77736 -41.96274 
L 537.590176 -41.966604 
L 535.402991 -41.974508 
L 533.215806 -41.989125 
L 531.028621 -42.013616 
L 528.841436 -42.050952 
L 526.654251 -42.103174 
L 524.467066 -42.171223 
L 522.279881 -42.255922 
L 520.092696 -42.360037 
L 517.905511 -42.490344 
L 515.718326 -42.658054 
L 513.531141 -42.876589 
L 511.343956 -43.157438 
L 509.156771 -43.506508 
L 506.969586 -43.92354 
L 504.782401 -44.405188 
L 502.595216 -44.949361 
L 500.408031 -45.556872 
L 498.220846 -46.228086 
L 496.033661 -46.956601 
L 493.846476 -47.725576 
L 491.659291 -48.511508 
L 489.472106 -49.29476 
L 487.284921 -50.070175 
L 485.097736 -50.850294 
L 482.910551 -51.658971 
L 480.723366 -52.520112 
L 478.536181 -53.448581 
L 476.348997 -54.447166 
L 474.161812 -55.508824 
L 471.974627 -56.621423 
L 469.787442 -57.77315 
L 467.600257 -58.958092 
L 465.413072 -60.181723 
L 463.225887 -61.465228 
L 461.038702 -62.846344 
L 458.851517 -64.373559 
L 456.664332 -66.091938 
L 454.477147 -68.023627 
L 452.289962 -70.151831 
L 450.102777 -72.41854 
L 447.915592 -74.740791 
L 445.728407 -77.040953 
L 443.541222 -79.279059 
L 441.354037 -81.4731 
L 439.166852 -83.696865 
L 436.979667 -86.05369 
L 434.792482 -88.636224 
L 432.605297 -91.491745 
L 430.418112 -94.612284 
L 428.230927 -97.955405 
L 426.043742 -101.481138 
L 423.856557 -105.177875 
L 421.669372 -109.057588 
L 419.482187 -113.125532 
L 417.295002 -117.351688 
L 415.107818 -121.670259 
L 412.920633 -126.009149 
L 410.733448 -130.325532 
L 408.546263 -134.619748 
L 406.359078 -138.919518 
L 404.171893 -143.249939 
L 401.984708 -147.611463 
L 399.797523 -151.976851 
L 397.610338 -156.303446 
L 395.423153 -160.551627 
L 393.235968 -164.703056 
L 391.048783 -168.775669 
L 388.861598 -172.832296 
L 386.674413 -176.97805 
L 384.487228 -181.341281 
L 382.300043 -186.037018 
L 380.112858 -191.122615 
L 377.925673 -196.568811 
L 375.738488 -202.27159 
L 373.551303 -208.109349 
L 371.364118 -214.01496 
L 369.176933 -220.013119 
L 366.989748 -226.192525 
L 364.802563 -232.628803 
L 362.615378 -239.309556 
L 360.428193 -246.108573 
L 358.241008 -252.819607 
L 356.053823 -259.224012 
L 353.866639 -265.156422 
L 351.679454 -270.545537 
L 349.492269 -275.42306 
L 347.305084 -279.900215 
L 345.117899 -284.114057 
L 342.930714 -288.15647 
L 340.743529 -292.014633 
L 338.556344 -295.555571 
L 336.369159 -298.56717 
L 334.181974 -300.83505 
L 331.994789 -302.215055 
L 329.807604 -302.669682 
L 327.620419 -302.262586 
L 325.433234 -301.125338 
L 323.246049 -299.414054 
L 321.058864 -297.268012 
L 318.871679 -294.779339 
L 316.684494 -291.982322 
L 314.497309 -288.865462 
L 312.310124 -285.397646 
L 310.122939 -281.55126 
L 307.935754 -277.309704 
L 305.748569 -272.66195 
L 303.561384 -267.598222 
L 301.374199 -262.117107 
L 299.187014 -256.239599 
L 296.999829 -250.015831 
L 294.812644 -243.516399 
L 292.62546 -236.815751 
L 290.438275 -229.982832 
L 288.25109 -223.084835 
L 286.063905 -216.192931 
L 283.87672 -209.373002 
L 281.689535 -202.658054 
L 279.50235 -196.021108 
L 277.315165 -189.376384 
L 275.12798 -182.620862 
L 272.940795 -175.697207 
L 270.75361 -168.637833 
L 268.566425 -161.558505 
L 266.37924 -154.604864 
L 264.192055 -147.889308 
L 262.00487 -141.460252 
L 259.817685 -135.317004 
L 257.6305 -129.447065 
L 255.443315 -123.850355 
L 253.25613 -118.53497 
L 251.068945 -113.499169 
L 248.88176 -108.724836 
L 246.694575 -104.190693 
L 244.50739 -99.889193 
L 242.320205 -95.825809 
L 240.13302 -91.998822 
L 237.945835 -88.380483 
L 235.75865 -84.921775 
L 233.571465 -81.58049 
L 231.384281 -78.348999 
L 229.197096 -75.257394 
L 227.009911 -72.349479 
L 224.822726 -69.651732 
L 222.635541 -67.159049 
L 220.448356 -64.845654 
L 218.261171 -62.690092 
L 216.073986 -60.694466 
L 213.886801 -58.883911 
L 211.699616 -57.286879 
L 209.512431 -55.910174 
L 207.325246 -54.726352 
L 205.138061 -53.682597 
L 202.950876 -52.725209 
L 200.763691 -51.823153 
L 198.576506 -50.975625 
L 196.389321 -50.200871 
L 194.202136 -49.516401 
L 192.014951 -48.924684 
L 189.827766 -48.411584 
L 187.640581 -47.954606 
L 185.453396 -47.532597 
L 183.266211 -47.130638 
L 181.079026 -46.739503 
L 178.891841 -46.352918 
L 176.704656 -45.965808 
L 174.517471 -45.574548 
L 172.330286 -45.178426 
L 170.143102 -44.781054 
L 167.955917 -44.390751 
L 165.768732 -44.01938 
L 163.581547 -43.679633 
L 161.394362 -43.38152 
L 159.207177 -43.129471 
L 157.019992 -42.921393 
L 154.832807 -42.750093 
L 152.645622 -42.606303 
L 150.458437 -42.481853 
L 148.271252 -42.371773 
L 146.084067 -42.274841 
L 143.896882 -42.192784 
L 141.709697 -42.128681 
L 139.522512 -42.085109 
L 137.335327 -42.0625 
L 135.148142 -42.058088 
L 132.960957 -42.065843 
L 130.773772 -42.077613 
L 128.586587 -42.085336 
L 126.399402 -42.083526 
L 124.212217 -42.070869 
L 122.025032 -42.050067 
L 119.837847 -42.026068 
L 117.650662 -42.003719 
L 115.463477 -41.986089 
L 113.276292 -41.974037 
L 111.089107 -41.96681 
L 108.901923 -41.962978 
L 106.714738 -41.961174 
z
" style="stroke: #1e90ff; stroke-width: 2"/>
    </defs>
    <g clip-path="url(#p46113027ff)">
     <use xlink:href="#m1e4e7af64b" x="0" y="432" style="fill: #1e90ff; fill-opacity: 0.2; stroke: #1e90ff; stroke-width: 2"/>
    </g>
   </g>
   <g id="PolyCollection_2">
    <defs>
     <path id="mf6daa6f38f" d="M 77.255455 -41.961367 
L 77.255455 -41.96 
L 79.306422 -41.96 
L 81.35739 -41.96 
L 83.408358 -41.96 
L 85.459326 -41.96 
L 87.510294 -41.96 
L 89.561262 -41.96 
L 91.61223 -41.96 
L 93.663198 -41.96 
L 95.714166 -41.96 
L 97.765134 -41.96 
L 99.816102 -41.96 
L 101.867069 -41.96 
L 103.918037 -41.96 
L 105.969005 -41.96 
L 108.019973 -41.96 
L 110.070941 -41.96 
L 112.121909 -41.96 
L 114.172877 -41.96 
L 116.223845 -41.96 
L 118.274813 -41.96 
L 120.325781 -41.96 
L 122.376749 -41.96 
L 124.427717 -41.96 
L 126.478684 -41.96 
L 128.529652 -41.96 
L 130.58062 -41.96 
L 132.631588 -41.96 
L 134.682556 -41.96 
L 136.733524 -41.96 
L 138.784492 -41.96 
L 140.83546 -41.96 
L 142.886428 -41.96 
L 144.937396 -41.96 
L 146.988364 -41.96 
L 149.039331 -41.96 
L 151.090299 -41.96 
L 153.141267 -41.96 
L 155.192235 -41.96 
L 157.243203 -41.96 
L 159.294171 -41.96 
L 161.345139 -41.96 
L 163.396107 -41.96 
L 165.447075 -41.96 
L 167.498043 -41.96 
L 169.549011 -41.96 
L 171.599978 -41.96 
L 173.650946 -41.96 
L 175.701914 -41.96 
L 177.752882 -41.96 
L 179.80385 -41.96 
L 181.854818 -41.96 
L 183.905786 -41.96 
L 185.956754 -41.96 
L 188.007722 -41.96 
L 190.05869 -41.96 
L 192.109658 -41.96 
L 194.160626 -41.96 
L 196.211593 -41.96 
L 198.262561 -41.96 
L 200.313529 -41.96 
L 202.364497 -41.96 
L 204.415465 -41.96 
L 206.466433 -41.96 
L 208.517401 -41.96 
L 210.568369 -41.96 
L 212.619337 -41.96 
L 214.670305 -41.96 
L 216.721273 -41.96 
L 218.77224 -41.96 
L 220.823208 -41.96 
L 222.874176 -41.96 
L 224.925144 -41.96 
L 226.976112 -41.96 
L 229.02708 -41.96 
L 231.078048 -41.96 
L 233.129016 -41.96 
L 235.179984 -41.96 
L 237.230952 -41.96 
L 239.28192 -41.96 
L 241.332887 -41.96 
L 243.383855 -41.96 
L 245.434823 -41.96 
L 247.485791 -41.96 
L 249.536759 -41.96 
L 251.587727 -41.96 
L 253.638695 -41.96 
L 255.689663 -41.96 
L 257.740631 -41.96 
L 259.791599 -41.96 
L 261.842567 -41.96 
L 263.893535 -41.96 
L 265.944502 -41.96 
L 267.99547 -41.96 
L 270.046438 -41.96 
L 272.097406 -41.96 
L 274.148374 -41.96 
L 276.199342 -41.96 
L 278.25031 -41.96 
L 280.301278 -41.96 
L 282.352246 -41.96 
L 284.403214 -41.96 
L 286.454182 -41.96 
L 288.505149 -41.96 
L 290.556117 -41.96 
L 292.607085 -41.96 
L 294.658053 -41.96 
L 296.709021 -41.96 
L 298.759989 -41.96 
L 300.810957 -41.96 
L 302.861925 -41.96 
L 304.912893 -41.96 
L 306.963861 -41.96 
L 309.014829 -41.96 
L 311.065796 -41.96 
L 313.116764 -41.96 
L 315.167732 -41.96 
L 317.2187 -41.96 
L 319.269668 -41.96 
L 321.320636 -41.96 
L 323.371604 -41.96 
L 325.422572 -41.96 
L 327.47354 -41.96 
L 329.524508 -41.96 
L 331.575476 -41.96 
L 333.626444 -41.96 
L 335.677411 -41.96 
L 337.728379 -41.96 
L 339.779347 -41.96 
L 341.830315 -41.96 
L 343.881283 -41.96 
L 345.932251 -41.96 
L 347.983219 -41.96 
L 350.034187 -41.96 
L 352.085155 -41.96 
L 354.136123 -41.96 
L 356.187091 -41.96 
L 358.238058 -41.96 
L 360.289026 -41.96 
L 362.339994 -41.96 
L 364.390962 -41.96 
L 366.44193 -41.96 
L 368.492898 -41.96 
L 370.543866 -41.96 
L 372.594834 -41.96 
L 374.645802 -41.96 
L 376.69677 -41.96 
L 378.747738 -41.96 
L 380.798705 -41.96 
L 382.849673 -41.96 
L 384.900641 -41.96 
L 386.951609 -41.96 
L 389.002577 -41.96 
L 391.053545 -41.96 
L 393.104513 -41.96 
L 395.155481 -41.96 
L 397.206449 -41.96 
L 399.257417 -41.96 
L 401.308385 -41.96 
L 403.359353 -41.96 
L 405.41032 -41.96 
L 407.461288 -41.96 
L 409.512256 -41.96 
L 411.563224 -41.96 
L 413.614192 -41.96 
L 415.66516 -41.96 
L 417.716128 -41.96 
L 419.767096 -41.96 
L 421.818064 -41.96 
L 423.869032 -41.96 
L 425.92 -41.96 
L 427.970967 -41.96 
L 430.021935 -41.96 
L 432.072903 -41.96 
L 434.123871 -41.96 
L 436.174839 -41.96 
L 438.225807 -41.96 
L 440.276775 -41.96 
L 442.327743 -41.96 
L 444.378711 -41.96 
L 446.429679 -41.96 
L 448.480647 -41.96 
L 450.531614 -41.96 
L 452.582582 -41.96 
L 454.63355 -41.96 
L 456.684518 -41.96 
L 458.735486 -41.96 
L 460.786454 -41.96 
L 462.837422 -41.96 
L 464.88839 -41.96 
L 466.939358 -41.96 
L 468.990326 -41.96 
L 471.041294 -41.96 
L 473.092262 -41.96 
L 475.143229 -41.96 
L 477.194197 -41.96 
L 479.245165 -41.96 
L 481.296133 -41.96 
L 483.347101 -41.96 
L 485.398069 -41.96 
L 485.398069 -41.961716 
L 485.398069 -41.961716 
L 483.347101 -41.965083 
L 481.296133 -41.973178 
L 479.245165 -41.989931 
L 477.194197 -42.019665 
L 475.143229 -42.064636 
L 473.092262 -42.122014 
L 471.041294 -42.182618 
L 468.990326 -42.233462 
L 466.939358 -42.263463 
L 464.88839 -42.268861 
L 462.837422 -42.255134 
L 460.786454 -42.235102 
L 458.735486 -42.225081 
L 456.684518 -42.240479 
L 454.63355 -42.291535 
L 452.582582 -42.380786 
L 450.531614 -42.504078 
L 448.480647 -42.654245 
L 446.429679 -42.823594 
L 444.378711 -43.002838 
L 442.327743 -43.179411 
L 440.276775 -43.34041 
L 438.225807 -43.480742 
L 436.174839 -43.609804 
L 434.123871 -43.748858 
L 432.072903 -43.918599 
L 430.021935 -44.125293 
L 427.970967 -44.356013 
L 425.92 -44.58723 
L 423.869032 -44.802144 
L 421.818064 -45.00668 
L 419.767096 -45.234409 
L 417.716128 -45.536527 
L 415.66516 -45.9613 
L 413.614192 -46.533816 
L 411.563224 -47.247693 
L 409.512256 -48.075163 
L 407.461288 -48.991563 
L 405.41032 -49.99804 
L 403.359353 -51.121893 
L 401.308385 -52.38865 
L 399.257417 -53.787857 
L 397.206449 -55.266998 
L 395.155481 -56.763803 
L 393.104513 -58.247281 
L 391.053545 -59.72849 
L 389.002577 -61.235836 
L 386.951609 -62.785309 
L 384.900641 -64.371815 
L 382.849673 -65.976101 
L 380.798705 -67.567665 
L 378.747738 -69.101207 
L 376.69677 -70.523425 
L 374.645802 -71.803152 
L 372.594834 -72.977956 
L 370.543866 -74.191 
L 368.492898 -75.681168 
L 366.44193 -77.70208 
L 364.390962 -80.397275 
L 362.339994 -83.719335 
L 360.289026 -87.474596 
L 358.238058 -91.47475 
L 356.187091 -95.672721 
L 354.136123 -100.174038 
L 352.085155 -105.139807 
L 350.034187 -110.691598 
L 347.983219 -116.892684 
L 345.932251 -123.778039 
L 343.881283 -131.366203 
L 341.830315 -139.635543 
L 339.779347 -148.501612 
L 337.728379 -157.826083 
L 335.677411 -167.446913 
L 333.626444 -177.204771 
L 331.575476 -186.965646 
L 329.524508 -196.660859 
L 327.47354 -206.34355 
L 325.422572 -216.213461 
L 323.371604 -226.55196 
L 321.320636 -237.570688 
L 319.269668 -249.262578 
L 317.2187 -261.366444 
L 315.167732 -273.483274 
L 313.116764 -285.27014 
L 311.065796 -296.574671 
L 309.014829 -307.409211 
L 306.963861 -317.783038 
L 304.912893 -327.534707 
L 302.861925 -336.33053 
L 300.810957 -343.871119 
L 298.759989 -350.156233 
L 296.709021 -355.570845 
L 294.658053 -360.680406 
L 292.607085 -365.872031 
L 290.556117 -371.121432 
L 288.505149 -376.059283 
L 286.454182 -380.25653 
L 284.403214 -383.485113 
L 282.352246 -385.766928 
L 280.301278 -387.215239 
L 278.25031 -387.826667 
L 276.199342 -387.397858 
L 274.148374 -385.631918 
L 272.097406 -382.350701 
L 270.046438 -377.646525 
L 267.99547 -371.854388 
L 265.944502 -365.364793 
L 263.893535 -358.412339 
L 261.842567 -350.981325 
L 259.791599 -342.87732 
L 257.740631 -333.898278 
L 255.689663 -323.981615 
L 253.638695 -313.245935 
L 251.587727 -301.944737 
L 249.536759 -290.39897 
L 247.485791 -278.930083 
L 245.434823 -267.760652 
L 243.383855 -256.888441 
L 241.332887 -246.033558 
L 239.28192 -234.765369 
L 237.230952 -222.783739 
L 235.179984 -210.173686 
L 233.129016 -197.430485 
L 231.078048 -185.205169 
L 229.02708 -173.938279 
L 226.976112 -163.649467 
L 224.925144 -154.026827 
L 222.874176 -144.711933 
L 220.823208 -135.539585 
L 218.77224 -126.584014 
L 216.721273 -118.054564 
L 214.670305 -110.166954 
L 212.619337 -103.056836 
L 210.568369 -96.731245 
L 208.517401 -91.058106 
L 206.466433 -85.820352 
L 204.415465 -80.831679 
L 202.364497 -76.047046 
L 200.313529 -71.586122 
L 198.262561 -67.649966 
L 196.211593 -64.390585 
L 194.160626 -61.818263 
L 192.109658 -59.792792 
L 190.05869 -58.087034 
L 188.007722 -56.478457 
L 185.956754 -54.825734 
L 183.905786 -53.105368 
L 181.854818 -51.400622 
L 179.80385 -49.84926 
L 177.752882 -48.572247 
L 175.701914 -47.616302 
L 173.650946 -46.936849 
L 171.599978 -46.425093 
L 169.549011 -45.960137 
L 167.498043 -45.458392 
L 165.447075 -44.898558 
L 163.396107 -44.314871 
L 161.345139 -43.767167 
L 159.294171 -43.306705 
L 157.243203 -42.955555 
L 155.192235 -42.706294 
L 153.141267 -42.536047 
L 151.090299 -42.42263 
L 149.039331 -42.352746 
L 146.988364 -42.319858 
L 144.937396 -42.317133 
L 142.886428 -42.333304 
L 140.83546 -42.35481 
L 138.784492 -42.370787 
L 136.733524 -42.375517 
L 134.682556 -42.366995 
L 132.631588 -42.344683 
L 130.58062 -42.309449 
L 128.529652 -42.265189 
L 126.478684 -42.219242 
L 124.427717 -42.179716 
L 122.376749 -42.150976 
L 120.325781 -42.130914 
L 118.274813 -42.112717 
L 116.223845 -42.090081 
L 114.172877 -42.061645 
L 112.121909 -42.03133 
L 110.070941 -42.005137 
L 108.019973 -41.987765 
L 105.969005 -41.981462 
L 103.918037 -41.986737 
L 101.867069 -42.002911 
L 99.816102 -42.027344 
L 97.765134 -42.054283 
L 95.714166 -42.075405 
L 93.663198 -42.083016 
L 91.61223 -42.074105 
L 89.561262 -42.052086 
L 87.510294 -42.024657 
L 85.459326 -41.999497 
L 83.408358 -41.980992 
L 81.35739 -41.969706 
L 79.306422 -41.963905 
L 77.255455 -41.961367 
z
" style="stroke: #b22222; stroke-width: 2"/>
    </defs>
    <g clip-path="url(#p46113027ff)">
     <use xlink:href="#mf6daa6f38f" x="0" y="432" style="fill: #b22222; fill-opacity: 0.2; stroke: #b22222; stroke-width: 2"/>
    </g>
   </g>
   <g id="matplotlib.axis_1">
    <g id="xtick_1">
     <g id="line2d_1">
      <defs>
       <path id="m2ddfae2954" d="M 0 0 
L 0 3.5 
" style="stroke: #000000; stroke-width: 0.8"/>
      </defs>
      <g>
       <use xlink:href="#m2ddfae2954" x="115.422806" y="390.04" style="stroke: #000000; stroke-width: 0.8"/>
      </g>
     </g>
     <g id="text_1">
      <!-- −7.5 -->
      <g transform="translate(103.2814 404.638438) scale(0.1 -0.1)">
       <defs>
        <path id="DejaVuSans-2212" d="M 678 2272 
L 4684 2272 
L 4684 1741 
L 678 1741 
L 678 2272 
z
" transform="scale(0.015625)"/>
        <path id="DejaVuSans-37" d="M 525 4666 
L 3525 4666 
L 3525 4397 
L 1831 0 
L 1172 0 
L 2766 4134 
L 525 4134 
L 525 4666 
z
" transform="scale(0.015625)"/>
        <path id="DejaVuSans-2e" d="M 684 794 
L 1344 794 
L 1344 0 
L 684 0 
L 684 794 
z
" transform="scale(0.015625)"/>
        <path id="DejaVuSans-35" d="M 691 4666 
L 3169 4666 
L 3169 4134 
L 1269 4134 
L 1269 2991 
Q 1406 3038 1543 3061 
Q 1681 3084 1819 3084 
Q 2600 3084 3056 2656 
Q 3513 2228 3513 1497 
Q 3513 744 3044 326 
Q 2575 -91 1722 -91 
Q 1428 -91 1123 -41 
Q 819 9 494 109 
L 494 744 
Q 775 591 1075 516 
Q 1375 441 1709 441 
Q 2250 441 2565 725 
Q 2881 1009 2881 1497 
Q 2881 1984 2565 2268 
Q 2250 2553 1709 2553 
Q 1456 2553 1204 2497 
Q 953 2441 691 2322 
L 691 4666 
z
" transform="scale(0.015625)"/>
       </defs>
       <use xlink:href="#DejaVuSans-2212"/>
       <use xlink:href="#DejaVuSans-37" x="83.789062"/>
       <use xlink:href="#DejaVuSans-2e" x="147.412109"/>
       <use xlink:href="#DejaVuSans-35" x="179.199219"/>
      </g>
     </g>
    </g>
    <g id="xtick_2">
     <g id="line2d_2">
      <g>
       <use xlink:href="#m2ddfae2954" x="180.472204" y="390.04" style="stroke: #000000; stroke-width: 0.8"/>
      </g>
     </g>
     <g id="text_2">
      <!-- −5.0 -->
      <g transform="translate(168.330798 404.638438) scale(0.1 -0.1)">
       <defs>
        <path id="DejaVuSans-30" d="M 2034 4250 
Q 1547 4250 1301 3770 
Q 1056 3291 1056 2328 
Q 1056 1369 1301 889 
Q 1547 409 2034 409 
Q 2525 409 2770 889 
Q 3016 1369 3016 2328 
Q 3016 3291 2770 3770 
Q 2525 4250 2034 4250 
z
M 2034 4750 
Q 2819 4750 3233 4129 
Q 3647 3509 3647 2328 
Q 3647 1150 3233 529 
Q 2819 -91 2034 -91 
Q 1250 -91 836 529 
Q 422 1150 422 2328 
Q 422 3509 836 4129 
Q 1250 4750 2034 4750 
z
" transform="scale(0.015625)"/>
       </defs>
       <use xlink:href="#DejaVuSans-2212"/>
       <use xlink:href="#DejaVuSans-35" x="83.789062"/>
       <use xlink:href="#DejaVuSans-2e" x="147.412109"/>
       <use xlink:href="#DejaVuSans-30" x="179.199219"/>
      </g>
     </g>
    </g>
    <g id="xtick_3">
     <g id="line2d_3">
      <g>
       <use xlink:href="#m2ddfae2954" x="245.521602" y="390.04" style="stroke: #000000; stroke-width: 0.8"/>
      </g>
     </g>
     <g id="text_3">
      <!-- −2.5 -->
      <g transform="translate(233.380196 404.638438) scale(0.1 -0.1)">
       <defs>
        <path id="DejaVuSans-32" d="M 1228 531 
L 3431 531 
L 3431 0 
L 469 0 
L 469 531 
Q 828 903 1448 1529 
Q 2069 2156 2228 2338 
Q 2531 2678 2651 2914 
Q 2772 3150 2772 3378 
Q 2772 3750 2511 3984 
Q 2250 4219 1831 4219 
Q 1534 4219 1204 4116 
Q 875 4013 500 3803 
L 500 4441 
Q 881 4594 1212 4672 
Q 1544 4750 1819 4750 
Q 2544 4750 2975 4387 
Q 3406 4025 3406 3419 
Q 3406 3131 3298 2873 
Q 3191 2616 2906 2266 
Q 2828 2175 2409 1742 
Q 1991 1309 1228 531 
z
" transform="scale(0.015625)"/>
       </defs>
       <use xlink:href="#DejaVuSans-2212"/>
       <use xlink:href="#DejaVuSans-32" x="83.789062"/>
       <use xlink:href="#DejaVuSans-2e" x="147.412109"/>
       <use xlink:href="#DejaVuSans-35" x="179.199219"/>
      </g>
     </g>
    </g>
    <g id="xtick_4">
     <g id="line2d_4">
      <g>
       <use xlink:href="#m2ddfae2954" x="310.571" y="390.04" style="stroke: #000000; stroke-width: 0.8"/>
      </g>
     </g>
     <g id="text_4">
      <!-- 0.0 -->
      <g transform="translate(302.619438 404.638438) scale(0.1 -0.1)">
       <use xlink:href="#DejaVuSans-30"/>
       <use xlink:href="#DejaVuSans-2e" x="63.623047"/>
       <use xlink:href="#DejaVuSans-30" x="95.410156"/>
      </g>
     </g>
    </g>
    <g id="xtick_5">
     <g id="line2d_5">
      <g>
       <use xlink:href="#m2ddfae2954" x="375.620398" y="390.04" style="stroke: #000000; stroke-width: 0.8"/>
      </g>
     </g>
     <g id="text_5">
      <!-- 2.5 -->
      <g transform="translate(367.668836 404.638438) scale(0.1 -0.1)">
       <use xlink:href="#DejaVuSans-32"/>
       <use xlink:href="#DejaVuSans-2e" x="63.623047"/>
       <use xlink:href="#DejaVuSans-35" x="95.410156"/>
      </g>
     </g>
    </g>
    <g id="xtick_6">
     <g id="line2d_6">
      <g>
       <use xlink:href="#m2ddfae2954" x="440.669796" y="390.04" style="stroke: #000000; stroke-width: 0.8"/>
      </g>
     </g>
     <g id="text_6">
      <!-- 5.0 -->
      <g transform="translate(432.718234 404.638438) scale(0.1 -0.1)">
       <use xlink:href="#DejaVuSans-35"/>
       <use xlink:href="#DejaVuSans-2e" x="63.623047"/>
       <use xlink:href="#DejaVuSans-30" x="95.410156"/>
      </g>
     </g>
    </g>
    <g id="xtick_7">
     <g id="line2d_7">
      <g>
       <use xlink:href="#m2ddfae2954" x="505.719195" y="390.04" style="stroke: #000000; stroke-width: 0.8"/>
      </g>
     </g>
     <g id="text_7">
      <!-- 7.5 -->
      <g transform="translate(497.767632 404.638438) scale(0.1 -0.1)">
       <use xlink:href="#DejaVuSans-37"/>
       <use xlink:href="#DejaVuSans-2e" x="63.623047"/>
       <use xlink:href="#DejaVuSans-35" x="95.410156"/>
      </g>
     </g>
    </g>
    <g id="text_8">
     <!-- log2 Normalized Intensity -->
     <g transform="translate(245.51 418.316562) scale(0.1 -0.1)">
      <defs>
       <path id="DejaVuSans-6c" d="M 603 4863 
L 1178 4863 
L 1178 0 
L 603 0 
L 603 4863 
z
" transform="scale(0.015625)"/>
       <path id="DejaVuSans-6f" d="M 1959 3097 
Q 1497 3097 1228 2736 
Q 959 2375 959 1747 
Q 959 1119 1226 758 
Q 1494 397 1959 397 
Q 2419 397 2687 759 
Q 2956 1122 2956 1747 
Q 2956 2369 2687 2733 
Q 2419 3097 1959 3097 
z
M 1959 3584 
Q 2709 3584 3137 3096 
Q 3566 2609 3566 1747 
Q 3566 888 3137 398 
Q 2709 -91 1959 -91 
Q 1206 -91 779 398 
Q 353 888 353 1747 
Q 353 2609 779 3096 
Q 1206 3584 1959 3584 
z
" transform="scale(0.015625)"/>
       <path id="DejaVuSans-67" d="M 2906 1791 
Q 2906 2416 2648 2759 
Q 2391 3103 1925 3103 
Q 1463 3103 1205 2759 
Q 947 2416 947 1791 
Q 947 1169 1205 825 
Q 1463 481 1925 481 
Q 2391 481 2648 825 
Q 2906 1169 2906 1791 
z
M 3481 434 
Q 3481 -459 3084 -895 
Q 2688 -1331 1869 -1331 
Q 1566 -1331 1297 -1286 
Q 1028 -1241 775 -1147 
L 775 -588 
Q 1028 -725 1275 -790 
Q 1522 -856 1778 -856 
Q 2344 -856 2625 -561 
Q 2906 -266 2906 331 
L 2906 616 
Q 2728 306 2450 153 
Q 2172 0 1784 0 
Q 1141 0 747 490 
Q 353 981 353 1791 
Q 353 2603 747 3093 
Q 1141 3584 1784 3584 
Q 2172 3584 2450 3431 
Q 2728 3278 2906 2969 
L 2906 3500 
L 3481 3500 
L 3481 434 
z
" transform="scale(0.015625)"/>
       <path id="DejaVuSans-20" transform="scale(0.015625)"/>
       <path id="DejaVuSans-4e" d="M 628 4666 
L 1478 4666 
L 3547 763 
L 3547 4666 
L 4159 4666 
L 4159 0 
L 3309 0 
L 1241 3903 
L 1241 0 
L 628 0 
L 628 4666 
z
" transform="scale(0.015625)"/>
       <path id="DejaVuSans-72" d="M 2631 2963 
Q 2534 3019 2420 3045 
Q 2306 3072 2169 3072 
Q 1681 3072 1420 2755 
Q 1159 2438 1159 1844 
L 1159 0 
L 581 0 
L 581 3500 
L 1159 3500 
L 1159 2956 
Q 1341 3275 1631 3429 
Q 1922 3584 2338 3584 
Q 2397 3584 2469 3576 
Q 2541 3569 2628 3553 
L 2631 2963 
z
" transform="scale(0.015625)"/>
       <path id="DejaVuSans-6d" d="M 3328 2828 
Q 3544 3216 3844 3400 
Q 4144 3584 4550 3584 
Q 5097 3584 5394 3201 
Q 5691 2819 5691 2113 
L 5691 0 
L 5113 0 
L 5113 2094 
Q 5113 2597 4934 2840 
Q 4756 3084 4391 3084 
Q 3944 3084 3684 2787 
Q 3425 2491 3425 1978 
L 3425 0 
L 2847 0 
L 2847 2094 
Q 2847 2600 2669 2842 
Q 2491 3084 2119 3084 
Q 1678 3084 1418 2786 
Q 1159 2488 1159 1978 
L 1159 0 
L 581 0 
L 581 3500 
L 1159 3500 
L 1159 2956 
Q 1356 3278 1631 3431 
Q 1906 3584 2284 3584 
Q 2666 3584 2933 3390 
Q 3200 3197 3328 2828 
z
" transform="scale(0.015625)"/>
       <path id="DejaVuSans-61" d="M 2194 1759 
Q 1497 1759 1228 1600 
Q 959 1441 959 1056 
Q 959 750 1161 570 
Q 1363 391 1709 391 
Q 2188 391 2477 730 
Q 2766 1069 2766 1631 
L 2766 1759 
L 2194 1759 
z
M 3341 1997 
L 3341 0 
L 2766 0 
L 2766 531 
Q 2569 213 2275 61 
Q 1981 -91 1556 -91 
Q 1019 -91 701 211 
Q 384 513 384 1019 
Q 384 1609 779 1909 
Q 1175 2209 1959 2209 
L 2766 2209 
L 2766 2266 
Q 2766 2663 2505 2880 
Q 2244 3097 1772 3097 
Q 1472 3097 1187 3025 
Q 903 2953 641 2809 
L 641 3341 
Q 956 3463 1253 3523 
Q 1550 3584 1831 3584 
Q 2591 3584 2966 3190 
Q 3341 2797 3341 1997 
z
" transform="scale(0.015625)"/>
       <path id="DejaVuSans-69" d="M 603 3500 
L 1178 3500 
L 1178 0 
L 603 0 
L 603 3500 
z
M 603 4863 
L 1178 4863 
L 1178 4134 
L 603 4134 
L 603 4863 
z
" transform="scale(0.015625)"/>
       <path id="DejaVuSans-7a" d="M 353 3500 
L 3084 3500 
L 3084 2975 
L 922 459 
L 3084 459 
L 3084 0 
L 275 0 
L 275 525 
L 2438 3041 
L 353 3041 
L 353 3500 
z
" transform="scale(0.015625)"/>
       <path id="DejaVuSans-65" d="M 3597 1894 
L 3597 1613 
L 953 1613 
Q 991 1019 1311 708 
Q 1631 397 2203 397 
Q 2534 397 2845 478 
Q 3156 559 3463 722 
L 3463 178 
Q 3153 47 2828 -22 
Q 2503 -91 2169 -91 
Q 1331 -91 842 396 
Q 353 884 353 1716 
Q 353 2575 817 3079 
Q 1281 3584 2069 3584 
Q 2775 3584 3186 3129 
Q 3597 2675 3597 1894 
z
M 3022 2063 
Q 3016 2534 2758 2815 
Q 2500 3097 2075 3097 
Q 1594 3097 1305 2825 
Q 1016 2553 972 2059 
L 3022 2063 
z
" transform="scale(0.015625)"/>
       <path id="DejaVuSans-64" d="M 2906 2969 
L 2906 4863 
L 3481 4863 
L 3481 0 
L 2906 0 
L 2906 525 
Q 2725 213 2448 61 
Q 2172 -91 1784 -91 
Q 1150 -91 751 415 
Q 353 922 353 1747 
Q 353 2572 751 3078 
Q 1150 3584 1784 3584 
Q 2172 3584 2448 3432 
Q 2725 3281 2906 2969 
z
M 947 1747 
Q 947 1113 1208 752 
Q 1469 391 1925 391 
Q 2381 391 2643 752 
Q 2906 1113 2906 1747 
Q 2906 2381 2643 2742 
Q 2381 3103 1925 3103 
Q 1469 3103 1208 2742 
Q 947 2381 947 1747 
z
" transform="scale(0.015625)"/>
       <path id="DejaVuSans-49" d="M 628 4666 
L 1259 4666 
L 1259 0 
L 628 0 
L 628 4666 
z
" transform="scale(0.015625)"/>
       <path id="DejaVuSans-6e" d="M 3513 2113 
L 3513 0 
L 2938 0 
L 2938 2094 
Q 2938 2591 2744 2837 
Q 2550 3084 2163 3084 
Q 1697 3084 1428 2787 
Q 1159 2491 1159 1978 
L 1159 0 
L 581 0 
L 581 3500 
L 1159 3500 
L 1159 2956 
Q 1366 3272 1645 3428 
Q 1925 3584 2291 3584 
Q 2894 3584 3203 3211 
Q 3513 2838 3513 2113 
z
" transform="scale(0.015625)"/>
       <path id="DejaVuSans-74" d="M 1172 4494 
L 1172 3500 
L 2356 3500 
L 2356 3053 
L 1172 3053 
L 1172 1153 
Q 1172 725 1289 603 
Q 1406 481 1766 481 
L 2356 481 
L 2356 0 
L 1766 0 
Q 1100 0 847 248 
Q 594 497 594 1153 
L 594 3053 
L 172 3053 
L 172 3500 
L 594 3500 
L 594 4494 
L 1172 4494 
z
" transform="scale(0.015625)"/>
       <path id="DejaVuSans-73" d="M 2834 3397 
L 2834 2853 
Q 2591 2978 2328 3040 
Q 2066 3103 1784 3103 
Q 1356 3103 1142 2972 
Q 928 2841 928 2578 
Q 928 2378 1081 2264 
Q 1234 2150 1697 2047 
L 1894 2003 
Q 2506 1872 2764 1633 
Q 3022 1394 3022 966 
Q 3022 478 2636 193 
Q 2250 -91 1575 -91 
Q 1294 -91 989 -36 
Q 684 19 347 128 
L 347 722 
Q 666 556 975 473 
Q 1284 391 1588 391 
Q 1994 391 2212 530 
Q 2431 669 2431 922 
Q 2431 1156 2273 1281 
Q 2116 1406 1581 1522 
L 1381 1569 
Q 847 1681 609 1914 
Q 372 2147 372 2553 
Q 372 3047 722 3315 
Q 1072 3584 1716 3584 
Q 2034 3584 2315 3537 
Q 2597 3491 2834 3397 
z
" transform="scale(0.015625)"/>
       <path id="DejaVuSans-79" d="M 2059 -325 
Q 1816 -950 1584 -1140 
Q 1353 -1331 966 -1331 
L 506 -1331 
L 506 -850 
L 844 -850 
Q 1081 -850 1212 -737 
Q 1344 -625 1503 -206 
L 1606 56 
L 191 3500 
L 800 3500 
L 1894 763 
L 2988 3500 
L 3597 3500 
L 2059 -325 
z
" transform="scale(0.015625)"/>
      </defs>
      <use xlink:href="#DejaVuSans-6c"/>
      <use xlink:href="#DejaVuSans-6f" x="27.783203"/>
      <use xlink:href="#DejaVuSans-67" x="88.964844"/>
      <use xlink:href="#DejaVuSans-32" x="152.441406"/>
      <use xlink:href="#DejaVuSans-20" x="216.064453"/>
      <use xlink:href="#DejaVuSans-4e" x="247.851562"/>
      <use xlink:href="#DejaVuSans-6f" x="322.65625"/>
      <use xlink:href="#DejaVuSans-72" x="383.837891"/>
      <use xlink:href="#DejaVuSans-6d" x="423.201172"/>
      <use xlink:href="#DejaVuSans-61" x="520.613281"/>
      <use xlink:href="#DejaVuSans-6c" x="581.892578"/>
      <use xlink:href="#DejaVuSans-69" x="609.675781"/>
      <use xlink:href="#DejaVuSans-7a" x="637.458984"/>
      <use xlink:href="#DejaVuSans-65" x="689.949219"/>
      <use xlink:href="#DejaVuSans-64" x="751.472656"/>
      <use xlink:href="#DejaVuSans-20" x="814.949219"/>
      <use xlink:href="#DejaVuSans-49" x="846.736328"/>
      <use xlink:href="#DejaVuSans-6e" x="876.228516"/>
      <use xlink:href="#DejaVuSans-74" x="939.607422"/>
      <use xlink:href="#DejaVuSans-65" x="978.816406"/>
      <use xlink:href="#DejaVuSans-6e" x="1040.339844"/>
      <use xlink:href="#DejaVuSans-73" x="1103.71875"/>
      <use xlink:href="#DejaVuSans-69" x="1155.818359"/>
      <use xlink:href="#DejaVuSans-74" x="1183.601562"/>
      <use xlink:href="#DejaVuSans-79" x="1222.810547"/>
     </g>
    </g>
   </g>
   <g id="matplotlib.axis_2">
    <g id="ytick_1">
     <g id="line2d_8">
      <defs>
       <path id="ma36365d477" d="M 0 0 
L -3.5 0 
" style="stroke: #000000; stroke-width: 0.8"/>
      </defs>
      <g>
       <use xlink:href="#ma36365d477" x="54.02" y="390.04" style="stroke: #000000; stroke-width: 0.8"/>
      </g>
     </g>
     <g id="text_9">
      <!-- 0.00 -->
      <g transform="translate(24.754375 393.839219) scale(0.1 -0.1)">
       <use xlink:href="#DejaVuSans-30"/>
       <use xlink:href="#DejaVuSans-2e" x="63.623047"/>
       <use xlink:href="#DejaVuSans-30" x="95.410156"/>
       <use xlink:href="#DejaVuSans-30" x="159.033203"/>
      </g>
     </g>
    </g>
    <g id="ytick_2">
     <g id="line2d_9">
      <g>
       <use xlink:href="#ma36365d477" x="54.02" y="325.762741" style="stroke: #000000; stroke-width: 0.8"/>
      </g>
     </g>
     <g id="text_10">
      <!-- 0.05 -->
      <g transform="translate(24.754375 329.56196) scale(0.1 -0.1)">
       <use xlink:href="#DejaVuSans-30"/>
       <use xlink:href="#DejaVuSans-2e" x="63.623047"/>
       <use xlink:href="#DejaVuSans-30" x="95.410156"/>
       <use xlink:href="#DejaVuSans-35" x="159.033203"/>
      </g>
     </g>
    </g>
    <g id="ytick_3">
     <g id="line2d_10">
      <g>
       <use xlink:href="#ma36365d477" x="54.02" y="261.485482" style="stroke: #000000; stroke-width: 0.8"/>
      </g>
     </g>
     <g id="text_11">
      <!-- 0.10 -->
      <g transform="translate(24.754375 265.284701) scale(0.1 -0.1)">
       <defs>
        <path id="DejaVuSans-31" d="M 794 531 
L 1825 531 
L 1825 4091 
L 703 3866 
L 703 4441 
L 1819 4666 
L 2450 4666 
L 2450 531 
L 3481 531 
L 3481 0 
L 794 0 
L 794 531 
z
" transform="scale(0.015625)"/>
       </defs>
       <use xlink:href="#DejaVuSans-30"/>
       <use xlink:href="#DejaVuSans-2e" x="63.623047"/>
       <use xlink:href="#DejaVuSans-31" x="95.410156"/>
       <use xlink:href="#DejaVuSans-30" x="159.033203"/>
      </g>
     </g>
    </g>
    <g id="ytick_4">
     <g id="line2d_11">
      <g>
       <use xlink:href="#ma36365d477" x="54.02" y="197.208223" style="stroke: #000000; stroke-width: 0.8"/>
      </g>
     </g>
     <g id="text_12">
      <!-- 0.15 -->
      <g transform="translate(24.754375 201.007442) scale(0.1 -0.1)">
       <use xlink:href="#DejaVuSans-30"/>
       <use xlink:href="#DejaVuSans-2e" x="63.623047"/>
       <use xlink:href="#DejaVuSans-31" x="95.410156"/>
       <use xlink:href="#DejaVuSans-35" x="159.033203"/>
      </g>
     </g>
    </g>
    <g id="ytick_5">
     <g id="line2d_12">
      <g>
       <use xlink:href="#ma36365d477" x="54.02" y="132.930964" style="stroke: #000000; stroke-width: 0.8"/>
      </g>
     </g>
     <g id="text_13">
      <!-- 0.20 -->
      <g transform="translate(24.754375 136.730183) scale(0.1 -0.1)">
       <use xlink:href="#DejaVuSans-30"/>
       <use xlink:href="#DejaVuSans-2e" x="63.623047"/>
       <use xlink:href="#DejaVuSans-32" x="95.410156"/>
       <use xlink:href="#DejaVuSans-30" x="159.033203"/>
      </g>
     </g>
    </g>
    <g id="ytick_6">
     <g id="line2d_13">
      <g>
       <use xlink:href="#ma36365d477" x="54.02" y="68.653706" style="stroke: #000000; stroke-width: 0.8"/>
      </g>
     </g>
     <g id="text_14">
      <!-- 0.25 -->
      <g transform="translate(24.754375 72.452924) scale(0.1 -0.1)">
       <use xlink:href="#DejaVuSans-30"/>
       <use xlink:href="#DejaVuSans-2e" x="63.623047"/>
       <use xlink:href="#DejaVuSans-32" x="95.410156"/>
       <use xlink:href="#DejaVuSans-35" x="159.033203"/>
      </g>
     </g>
    </g>
    <g id="text_15">
     <!-- Density -->
     <g transform="translate(18.674688 227.468594) rotate(-90) scale(0.1 -0.1)">
      <defs>
       <path id="DejaVuSans-44" d="M 1259 4147 
L 1259 519 
L 2022 519 
Q 2988 519 3436 956 
Q 3884 1394 3884 2338 
Q 3884 3275 3436 3711 
Q 2988 4147 2022 4147 
L 1259 4147 
z
M 628 4666 
L 1925 4666 
Q 3281 4666 3915 4102 
Q 4550 3538 4550 2338 
Q 4550 1131 3912 565 
Q 3275 0 1925 0 
L 628 0 
L 628 4666 
z
" transform="scale(0.015625)"/>
      </defs>
      <use xlink:href="#DejaVuSans-44"/>
      <use xlink:href="#DejaVuSans-65" x="77.001953"/>
      <use xlink:href="#DejaVuSans-6e" x="138.525391"/>
      <use xlink:href="#DejaVuSans-73" x="201.904297"/>
      <use xlink:href="#DejaVuSans-69" x="254.003906"/>
      <use xlink:href="#DejaVuSans-74" x="281.787109"/>
      <use xlink:href="#DejaVuSans-79" x="320.996094"/>
     </g>
    </g>
   </g>
   <g id="patch_3">
    <path d="M 54.02 390.04 
L 54.02 26.88 
" style="fill: none; stroke: #000000; stroke-width: 0.8; stroke-linejoin: miter; stroke-linecap: square"/>
   </g>
   <g id="patch_4">
    <path d="M 565.2 390.04 
L 565.2 26.88 
" style="fill: none; stroke: #000000; stroke-width: 0.8; stroke-linejoin: miter; stroke-linecap: square"/>
   </g>
   <g id="patch_5">
    <path d="M 54.02 390.04 
L 565.2 390.04 
" style="fill: none; stroke: #000000; stroke-width: 0.8; stroke-linejoin: miter; stroke-linecap: square"/>
   </g>
   <g id="patch_6">
    <path d="M 54.02 26.88 
L 565.2 26.88 
" style="fill: none; stroke: #000000; stroke-width: 0.8; stroke-linejoin: miter; stroke-linecap: square"/>
   </g>
   <g id="text_16">
    <!-- Pipeline diaTracer DIANN: Peptide Intensity Distribution -->
    <g transform="translate(144.031563 20.88) scale(0.12 -0.12)">
     <defs>
      <path id="DejaVuSans-50" d="M 1259 4147 
L 1259 2394 
L 2053 2394 
Q 2494 2394 2734 2622 
Q 2975 2850 2975 3272 
Q 2975 3691 2734 3919 
Q 2494 4147 2053 4147 
L 1259 4147 
z
M 628 4666 
L 2053 4666 
Q 2838 4666 3239 4311 
Q 3641 3956 3641 3272 
Q 3641 2581 3239 2228 
Q 2838 1875 2053 1875 
L 1259 1875 
L 1259 0 
L 628 0 
L 628 4666 
z
" transform="scale(0.015625)"/>
      <path id="DejaVuSans-70" d="M 1159 525 
L 1159 -1331 
L 581 -1331 
L 581 3500 
L 1159 3500 
L 1159 2969 
Q 1341 3281 1617 3432 
Q 1894 3584 2278 3584 
Q 2916 3584 3314 3078 
Q 3713 2572 3713 1747 
Q 3713 922 3314 415 
Q 2916 -91 2278 -91 
Q 1894 -91 1617 61 
Q 1341 213 1159 525 
z
M 3116 1747 
Q 3116 2381 2855 2742 
Q 2594 3103 2138 3103 
Q 1681 3103 1420 2742 
Q 1159 2381 1159 1747 
Q 1159 1113 1420 752 
Q 1681 391 2138 391 
Q 2594 391 2855 752 
Q 3116 1113 3116 1747 
z
" transform="scale(0.015625)"/>
      <path id="DejaVuSans-54" d="M -19 4666 
L 3928 4666 
L 3928 4134 
L 2272 4134 
L 2272 0 
L 1638 0 
L 1638 4134 
L -19 4134 
L -19 4666 
z
" transform="scale(0.015625)"/>
      <path id="DejaVuSans-63" d="M 3122 3366 
L 3122 2828 
Q 2878 2963 2633 3030 
Q 2388 3097 2138 3097 
Q 1578 3097 1268 2742 
Q 959 2388 959 1747 
Q 959 1106 1268 751 
Q 1578 397 2138 397 
Q 2388 397 2633 464 
Q 2878 531 3122 666 
L 3122 134 
Q 2881 22 2623 -34 
Q 2366 -91 2075 -91 
Q 1284 -91 818 406 
Q 353 903 353 1747 
Q 353 2603 823 3093 
Q 1294 3584 2113 3584 
Q 2378 3584 2631 3529 
Q 2884 3475 3122 3366 
z
" transform="scale(0.015625)"/>
      <path id="DejaVuSans-41" d="M 2188 4044 
L 1331 1722 
L 3047 1722 
L 2188 4044 
z
M 1831 4666 
L 2547 4666 
L 4325 0 
L 3669 0 
L 3244 1197 
L 1141 1197 
L 716 0 
L 50 0 
L 1831 4666 
z
" transform="scale(0.015625)"/>
      <path id="DejaVuSans-3a" d="M 750 794 
L 1409 794 
L 1409 0 
L 750 0 
L 750 794 
z
M 750 3309 
L 1409 3309 
L 1409 2516 
L 750 2516 
L 750 3309 
z
" transform="scale(0.015625)"/>
      <path id="DejaVuSans-62" d="M 3116 1747 
Q 3116 2381 2855 2742 
Q 2594 3103 2138 3103 
Q 1681 3103 1420 2742 
Q 1159 2381 1159 1747 
Q 1159 1113 1420 752 
Q 1681 391 2138 391 
Q 2594 391 2855 752 
Q 3116 1113 3116 1747 
z
M 1159 2969 
Q 1341 3281 1617 3432 
Q 1894 3584 2278 3584 
Q 2916 3584 3314 3078 
Q 3713 2572 3713 1747 
Q 3713 922 3314 415 
Q 2916 -91 2278 -91 
Q 1894 -91 1617 61 
Q 1341 213 1159 525 
L 1159 0 
L 581 0 
L 581 4863 
L 1159 4863 
L 1159 2969 
z
" transform="scale(0.015625)"/>
      <path id="DejaVuSans-75" d="M 544 1381 
L 544 3500 
L 1119 3500 
L 1119 1403 
Q 1119 906 1312 657 
Q 1506 409 1894 409 
Q 2359 409 2629 706 
Q 2900 1003 2900 1516 
L 2900 3500 
L 3475 3500 
L 3475 0 
L 2900 0 
L 2900 538 
Q 2691 219 2414 64 
Q 2138 -91 1772 -91 
Q 1169 -91 856 284 
Q 544 659 544 1381 
z
M 1991 3584 
L 1991 3584 
z
" transform="scale(0.015625)"/>
     </defs>
     <use xlink:href="#DejaVuSans-50"/>
     <use xlink:href="#DejaVuSans-69" x="58.052734"/>
     <use xlink:href="#DejaVuSans-70" x="85.835938"/>
     <use xlink:href="#DejaVuSans-65" x="149.3125"/>
     <use xlink:href="#DejaVuSans-6c" x="210.835938"/>
     <use xlink:href="#DejaVuSans-69" x="238.619141"/>
     <use xlink:href="#DejaVuSans-6e" x="266.402344"/>
     <use xlink:href="#DejaVuSans-65" x="329.78125"/>
     <use xlink:href="#DejaVuSans-20" x="391.304688"/>
     <use xlink:href="#DejaVuSans-64" x="423.091797"/>
     <use xlink:href="#DejaVuSans-69" x="486.568359"/>
     <use xlink:href="#DejaVuSans-61" x="514.351562"/>
     <use xlink:href="#DejaVuSans-54" x="575.630859"/>
     <use xlink:href="#DejaVuSans-72" x="621.964844"/>
     <use xlink:href="#DejaVuSans-61" x="663.078125"/>
     <use xlink:href="#DejaVuSans-63" x="724.357422"/>
     <use xlink:href="#DejaVuSans-65" x="779.337891"/>
     <use xlink:href="#DejaVuSans-72" x="840.861328"/>
     <use xlink:href="#DejaVuSans-20" x="881.974609"/>
     <use xlink:href="#DejaVuSans-44" x="913.761719"/>
     <use xlink:href="#DejaVuSans-49" x="990.763672"/>
     <use xlink:href="#DejaVuSans-41" x="1020.255859"/>
     <use xlink:href="#DejaVuSans-4e" x="1088.664062"/>
     <use xlink:href="#DejaVuSans-4e" x="1163.46875"/>
     <use xlink:href="#DejaVuSans-3a" x="1238.273438"/>
     <use xlink:href="#DejaVuSans-20" x="1271.964844"/>
     <use xlink:href="#DejaVuSans-50" x="1303.751953"/>
     <use xlink:href="#DejaVuSans-65" x="1360.429688"/>
     <use xlink:href="#DejaVuSans-70" x="1421.953125"/>
     <use xlink:href="#DejaVuSans-74" x="1485.429688"/>
     <use xlink:href="#DejaVuSans-69" x="1524.638672"/>
     <use xlink:href="#DejaVuSans-64" x="1552.421875"/>
     <use xlink:href="#DejaVuSans-65" x="1615.898438"/>
     <use xlink:href="#DejaVuSans-20" x="1677.421875"/>
     <use xlink:href="#DejaVuSans-49" x="1709.208984"/>
     <use xlink:href="#DejaVuSans-6e" x="1738.701172"/>
     <use xlink:href="#DejaVuSans-74" x="1802.080078"/>
     <use xlink:href="#DejaVuSans-65" x="1841.289062"/>
     <use xlink:href="#DejaVuSans-6e" x="1902.8125"/>
     <use xlink:href="#DejaVuSans-73" x="1966.191406"/>
     <use xlink:href="#DejaVuSans-69" x="2018.291016"/>
     <use xlink:href="#DejaVuSans-74" x="2046.074219"/>
     <use xlink:href="#DejaVuSans-79" x="2085.283203"/>
     <use xlink:href="#DejaVuSans-20" x="2144.462891"/>
     <use xlink:href="#DejaVuSans-44" x="2176.25"/>
     <use xlink:href="#DejaVuSans-69" x="2253.251953"/>
     <use xlink:href="#DejaVuSans-73" x="2281.035156"/>
     <use xlink:href="#DejaVuSans-74" x="2333.134766"/>
     <use xlink:href="#DejaVuSans-72" x="2372.34375"/>
     <use xlink:href="#DejaVuSans-69" x="2413.457031"/>
     <use xlink:href="#DejaVuSans-62" x="2441.240234"/>
     <use xlink:href="#DejaVuSans-75" x="2504.716797"/>
     <use xlink:href="#DejaVuSans-74" x="2568.095703"/>
     <use xlink:href="#DejaVuSans-69" x="2607.304688"/>
     <use xlink:href="#DejaVuSans-6f" x="2635.087891"/>
     <use xlink:href="#DejaVuSans-6e" x="2696.269531"/>
    </g>
   </g>
   <g id="legend_1">
    <g id="patch_7">
     <path d="M 472.489062 64.23625 
L 558.2 64.23625 
Q 560.2 64.23625 560.2 62.23625 
L 560.2 33.88 
Q 560.2 31.88 558.2 31.88 
L 472.489062 31.88 
Q 470.489062 31.88 470.489062 33.88 
L 470.489062 62.23625 
Q 470.489062 64.23625 472.489062 64.23625 
z
" style="fill: #ffffff; opacity: 0.8; stroke: #cccccc; stroke-linejoin: miter"/>
    </g>
    <g id="patch_8">
     <path d="M 474.489062 43.478437 
L 494.489062 43.478437 
L 494.489062 36.478437 
L 474.489062 36.478437 
z
" style="fill: #1e90ff; fill-opacity: 0.2; stroke: #1e90ff; stroke-width: 2; stroke-linejoin: miter"/>
    </g>
    <g id="text_17">
     <!-- DIA &amp; DDA -->
     <g transform="translate(502.489062 43.478437) scale(0.1 -0.1)">
      <defs>
       <path id="DejaVuSans-26" d="M 1556 2509 
Q 1272 2256 1139 2004 
Q 1006 1753 1006 1478 
Q 1006 1022 1337 719 
Q 1669 416 2169 416 
Q 2466 416 2725 514 
Q 2984 613 3213 813 
L 1556 2509 
z
M 1997 2859 
L 3584 1234 
Q 3769 1513 3872 1830 
Q 3975 2147 3994 2503 
L 4575 2503 
Q 4538 2091 4375 1687 
Q 4213 1284 3922 891 
L 4794 0 
L 4006 0 
L 3559 459 
Q 3234 181 2878 45 
Q 2522 -91 2113 -91 
Q 1359 -91 881 339 
Q 403 769 403 1441 
Q 403 1841 612 2192 
Q 822 2544 1241 2853 
Q 1091 3050 1012 3245 
Q 934 3441 934 3628 
Q 934 4134 1281 4442 
Q 1628 4750 2203 4750 
Q 2463 4750 2720 4694 
Q 2978 4638 3244 4525 
L 3244 3956 
Q 2972 4103 2725 4179 
Q 2478 4256 2266 4256 
Q 1938 4256 1733 4082 
Q 1528 3909 1528 3634 
Q 1528 3475 1620 3314 
Q 1713 3153 1997 2859 
z
" transform="scale(0.015625)"/>
      </defs>
      <use xlink:href="#DejaVuSans-44"/>
      <use xlink:href="#DejaVuSans-49" x="77.001953"/>
      <use xlink:href="#DejaVuSans-41" x="106.494141"/>
      <use xlink:href="#DejaVuSans-20" x="174.902344"/>
      <use xlink:href="#DejaVuSans-26" x="206.689453"/>
      <use xlink:href="#DejaVuSans-20" x="284.667969"/>
      <use xlink:href="#DejaVuSans-44" x="316.455078"/>
      <use xlink:href="#DejaVuSans-44" x="393.457031"/>
      <use xlink:href="#DejaVuSans-41" x="468.708984"/>
     </g>
    </g>
    <g id="patch_9">
     <path d="M 474.489062 58.156563 
L 494.489062 58.156563 
L 494.489062 51.156563 
L 474.489062 51.156563 
z
" style="fill: #b22222; fill-opacity: 0.2; stroke: #b22222; stroke-width: 2; stroke-linejoin: miter"/>
    </g>
    <g id="text_18">
     <!-- DIA-only -->
     <g transform="translate(502.489062 58.156563) scale(0.1 -0.1)">
      <defs>
       <path id="DejaVuSans-2d" d="M 313 2009 
L 1997 2009 
L 1997 1497 
L 313 1497 
L 313 2009 
z
" transform="scale(0.015625)"/>
      </defs>
      <use xlink:href="#DejaVuSans-44"/>
      <use xlink:href="#DejaVuSans-49" x="77.001953"/>
      <use xlink:href="#DejaVuSans-41" x="106.494141"/>
      <use xlink:href="#DejaVuSans-2d" x="172.652344"/>
      <use xlink:href="#DejaVuSans-6f" x="210.611328"/>
      <use xlink:href="#DejaVuSans-6e" x="271.792969"/>
      <use xlink:href="#DejaVuSans-6c" x="335.171875"/>
      <use xlink:href="#DejaVuSans-79" x="362.955078"/>
     </g>
    </g>
   </g>
  </g>
 </g>
 <defs>
  <clipPath id="p46113027ff">
   <rect x="54.02" y="26.88" width="511.18" height="363.16"/>
  </clipPath>
 </defs>
</svg>
