<?xml version="1.0" encoding="utf-8" standalone="no"?>
<!DOCTYPE svg PUBLIC "-//W3C//DTD SVG 1.1//EN"
  "http://www.w3.org/Graphics/SVG/1.1/DTD/svg11.dtd">
<svg xmlns:xlink="http://www.w3.org/1999/xlink" width="576pt" height="432pt" viewBox="0 0 576 432" xmlns="http://www.w3.org/2000/svg" version="1.1">
 <metadata>
  <rdf:RDF xmlns:dc="http://purl.org/dc/elements/1.1/" xmlns:cc="http://creativecommons.org/ns#" xmlns:rdf="http://www.w3.org/1999/02/22-rdf-syntax-ns#">
   <cc:Work>
    <dc:type rdf:resource="http://purl.org/dc/dcmitype/StillImage"/>
    <dc:date>2025-05-02T11:06:06.223944</dc:date>
    <dc:format>image/svg+xml</dc:format>
    <dc:creator>
     <cc:Agent>
      <dc:title>Matplotlib v3.7.2, https://matplotlib.org/</dc:title>
     </cc:Agent>
    </dc:creator>
   </cc:Work>
  </rdf:RDF>
 </metadata>
 <defs>
  <style type="text/css">*{stroke-linejoin: round; stroke-linecap: butt}</style>
 </defs>
 <g id="figure_1">
  <g id="patch_1">
   <path d="M 0 432 
L 576 432 
L 576 0 
L 0 0 
z
" style="fill: #ffffff"/>
  </g>
  <g id="axes_1">
   <g id="patch_2">
    <path d="M 54.02 390.04 
L 560.533991 390.04 
L 560.533991 26.88 
L 54.02 26.88 
z
" style="fill: #ffffff"/>
   </g>
   <g id="PolyCollection_1">
    <defs>
     <path id="mdf7f81bf32" d="M 77.043363 -41.962142 
L 77.043363 -41.96 
L 79.357269 -41.96 
L 81.671175 -41.96 
L 83.985081 -41.96 
L 86.298987 -41.96 
L 88.612893 -41.96 
L 90.926798 -41.96 
L 93.240704 -41.96 
L 95.55461 -41.96 
L 97.868516 -41.96 
L 100.182422 -41.96 
L 102.496328 -41.96 
L 104.810233 -41.96 
L 107.124139 -41.96 
L 109.438045 -41.96 
L 111.751951 -41.96 
L 114.065857 -41.96 
L 116.379763 -41.96 
L 118.693669 -41.96 
L 121.007574 -41.96 
L 123.32148 -41.96 
L 125.635386 -41.96 
L 127.949292 -41.96 
L 130.263198 -41.96 
L 132.577104 -41.96 
L 134.89101 -41.96 
L 137.204915 -41.96 
L 139.518821 -41.96 
L 141.832727 -41.96 
L 144.146633 -41.96 
L 146.460539 -41.96 
L 148.774445 -41.96 
L 151.088351 -41.96 
L 153.402256 -41.96 
L 155.716162 -41.96 
L 158.030068 -41.96 
L 160.343974 -41.96 
L 162.65788 -41.96 
L 164.971786 -41.96 
L 167.285692 -41.96 
L 169.599597 -41.96 
L 171.913503 -41.96 
L 174.227409 -41.96 
L 176.541315 -41.96 
L 178.855221 -41.96 
L 181.169127 -41.96 
L 183.483032 -41.96 
L 185.796938 -41.96 
L 188.110844 -41.96 
L 190.42475 -41.96 
L 192.738656 -41.96 
L 195.052562 -41.96 
L 197.366468 -41.96 
L 199.680373 -41.96 
L 201.994279 -41.96 
L 204.308185 -41.96 
L 206.622091 -41.96 
L 208.935997 -41.96 
L 211.249903 -41.96 
L 213.563809 -41.96 
L 215.877714 -41.96 
L 218.19162 -41.96 
L 220.505526 -41.96 
L 222.819432 -41.96 
L 225.133338 -41.96 
L 227.447244 -41.96 
L 229.76115 -41.96 
L 232.075055 -41.96 
L 234.388961 -41.96 
L 236.702867 -41.96 
L 239.016773 -41.96 
L 241.330679 -41.96 
L 243.644585 -41.96 
L 245.958491 -41.96 
L 248.272396 -41.96 
L 250.586302 -41.96 
L 252.900208 -41.96 
L 255.214114 -41.96 
L 257.52802 -41.96 
L 259.841926 -41.96 
L 262.155831 -41.96 
L 264.469737 -41.96 
L 266.783643 -41.96 
L 269.097549 -41.96 
L 271.411455 -41.96 
L 273.725361 -41.96 
L 276.039267 -41.96 
L 278.353172 -41.96 
L 280.667078 -41.96 
L 282.980984 -41.96 
L 285.29489 -41.96 
L 287.608796 -41.96 
L 289.922702 -41.96 
L 292.236608 -41.96 
L 294.550513 -41.96 
L 296.864419 -41.96 
L 299.178325 -41.96 
L 301.492231 -41.96 
L 303.806137 -41.96 
L 306.120043 -41.96 
L 308.433949 -41.96 
L 310.747854 -41.96 
L 313.06176 -41.96 
L 315.375666 -41.96 
L 317.689572 -41.96 
L 320.003478 -41.96 
L 322.317384 -41.96 
L 324.63129 -41.96 
L 326.945195 -41.96 
L 329.259101 -41.96 
L 331.573007 -41.96 
L 333.886913 -41.96 
L 336.200819 -41.96 
L 338.514725 -41.96 
L 340.82863 -41.96 
L 343.142536 -41.96 
L 345.456442 -41.96 
L 347.770348 -41.96 
L 350.084254 -41.96 
L 352.39816 -41.96 
L 354.712066 -41.96 
L 357.025971 -41.96 
L 359.339877 -41.96 
L 361.653783 -41.96 
L 363.967689 -41.96 
L 366.281595 -41.96 
L 368.595501 -41.96 
L 370.909407 -41.96 
L 373.223312 -41.96 
L 375.537218 -41.96 
L 377.851124 -41.96 
L 380.16503 -41.96 
L 382.478936 -41.96 
L 384.792842 -41.96 
L 387.106748 -41.96 
L 389.420653 -41.96 
L 391.734559 -41.96 
L 394.048465 -41.96 
L 396.362371 -41.96 
L 398.676277 -41.96 
L 400.990183 -41.96 
L 403.304089 -41.96 
L 405.617994 -41.96 
L 407.9319 -41.96 
L 410.245806 -41.96 
L 412.559712 -41.96 
L 414.873618 -41.96 
L 417.187524 -41.96 
L 419.501429 -41.96 
L 421.815335 -41.96 
L 424.129241 -41.96 
L 426.443147 -41.96 
L 428.757053 -41.96 
L 431.070959 -41.96 
L 433.384865 -41.96 
L 435.69877 -41.96 
L 438.012676 -41.96 
L 440.326582 -41.96 
L 442.640488 -41.96 
L 444.954394 -41.96 
L 447.2683 -41.96 
L 449.582206 -41.96 
L 451.896111 -41.96 
L 454.210017 -41.96 
L 456.523923 -41.96 
L 458.837829 -41.96 
L 461.151735 -41.96 
L 463.465641 -41.96 
L 465.779547 -41.96 
L 468.093452 -41.96 
L 470.407358 -41.96 
L 472.721264 -41.96 
L 475.03517 -41.96 
L 477.349076 -41.96 
L 479.662982 -41.96 
L 481.976888 -41.96 
L 484.290793 -41.96 
L 486.604699 -41.96 
L 488.918605 -41.96 
L 491.232511 -41.96 
L 493.546417 -41.96 
L 495.860323 -41.96 
L 498.174229 -41.96 
L 500.488134 -41.96 
L 502.80204 -41.96 
L 505.115946 -41.96 
L 507.429852 -41.96 
L 509.743758 -41.96 
L 512.057664 -41.96 
L 514.371569 -41.96 
L 516.685475 -41.96 
L 518.999381 -41.96 
L 521.313287 -41.96 
L 523.627193 -41.96 
L 525.941099 -41.96 
L 528.255005 -41.96 
L 530.56891 -41.96 
L 532.882816 -41.96 
L 535.196722 -41.96 
L 537.510628 -41.96 
L 537.510628 -41.960753 
L 537.510628 -41.960753 
L 535.196722 -41.962018 
L 532.882816 -41.964863 
L 530.56891 -41.970561 
L 528.255005 -41.980757 
L 525.941099 -41.997121 
L 523.627193 -42.020839 
L 521.313287 -42.052198 
L 518.999381 -42.09056 
L 516.685475 -42.134658 
L 514.371569 -42.182783 
L 512.057664 -42.232395 
L 509.743758 -42.27923 
L 507.429852 -42.316754 
L 505.115946 -42.337026 
L 502.80204 -42.333327 
L 500.488134 -42.303495 
L 498.174229 -42.25204 
L 495.860323 -42.189502 
L 493.546417 -42.129189 
L 491.232511 -42.083167 
L 488.918605 -42.059744 
L 486.604699 -42.063674 
L 484.290793 -42.098562 
L 481.976888 -42.169731 
L 479.662982 -42.285504 
L 477.349076 -42.455717 
L 475.03517 -42.68803 
L 472.721264 -42.984484 
L 470.407358 -43.340921 
L 468.093452 -43.749773 
L 465.779547 -44.203706 
L 463.465641 -44.697004 
L 461.151735 -45.224088 
L 458.837829 -45.777814 
L 456.523923 -46.350395 
L 454.210017 -46.936952 
L 451.896111 -47.538826 
L 449.582206 -48.163527 
L 447.2683 -48.820754 
L 444.954394 -49.517135 
L 442.640488 -50.253785 
L 440.326582 -51.028709 
L 438.012676 -51.841482 
L 435.69877 -52.695036 
L 433.384865 -53.592447 
L 431.070959 -54.532751 
L 428.757053 -55.511902 
L 426.443147 -56.529793 
L 424.129241 -57.597248 
L 421.815335 -58.73587 
L 419.501429 -59.969349 
L 417.187524 -61.311355 
L 414.873618 -62.75686 
L 412.559712 -64.280811 
L 410.245806 -65.844065 
L 407.9319 -67.404523 
L 405.617994 -68.931809 
L 403.304089 -70.423669 
L 400.990183 -71.918307 
L 398.676277 -73.491714 
L 396.362371 -75.232107 
L 394.048465 -77.19938 
L 391.734559 -79.394523 
L 389.420653 -81.762841 
L 387.106748 -84.230949 
L 384.792842 -86.751098 
L 382.478936 -89.322313 
L 380.16503 -91.979585 
L 377.851124 -94.768272 
L 375.537218 -97.727748 
L 373.223312 -100.893004 
L 370.909407 -104.302316 
L 368.595501 -107.992565 
L 366.281595 -111.976572 
L 363.967689 -116.216593 
L 361.653783 -120.616999 
L 359.339877 -125.048169 
L 357.025971 -129.391059 
L 354.712066 -133.575904 
L 352.39816 -137.592776 
L 350.084254 -141.473746 
L 347.770348 -145.267131 
L 345.456442 -149.024092 
L 343.142536 -152.79746 
L 340.82863 -156.636503 
L 338.514725 -160.570752 
L 336.200819 -164.600837 
L 333.886913 -168.720714 
L 331.573007 -172.967556 
L 329.259101 -177.458625 
L 326.945195 -182.37084 
L 324.63129 -187.860485 
L 322.317384 -193.972989 
L 320.003478 -200.607636 
L 317.689572 -207.563458 
L 315.375666 -214.632685 
L 313.06176 -221.677555 
L 310.747854 -228.647954 
L 308.433949 -235.546756 
L 306.120043 -242.381286 
L 303.806137 -249.130591 
L 301.492231 -255.729404 
L 299.178325 -262.057086 
L 296.864419 -267.935566 
L 294.550513 -273.158241 
L 292.236608 -277.558557 
L 289.922702 -281.084584 
L 287.608796 -283.818689 
L 285.29489 -285.911813 
L 282.980984 -287.475231 
L 280.667078 -288.520251 
L 278.353172 -289.002445 
L 276.039267 -288.933514 
L 273.725361 -288.45622 
L 271.411455 -287.80134 
L 269.097549 -287.141445 
L 266.783643 -286.44222 
L 264.469737 -285.420478 
L 262.155831 -283.648673 
L 259.841926 -280.751805 
L 257.52802 -276.58513 
L 255.214114 -271.29352 
L 252.900208 -265.22584 
L 250.586302 -258.761867 
L 248.272396 -252.150164 
L 245.958491 -245.43435 
L 243.644585 -238.488606 
L 241.330679 -231.129633 
L 239.016773 -223.242285 
L 236.702867 -214.855781 
L 234.388961 -206.137039 
L 232.075055 -197.315243 
L 229.76115 -188.58797 
L 227.447244 -180.060521 
L 225.133338 -171.741166 
L 222.819432 -163.581663 
L 220.505526 -155.534238 
L 218.19162 -147.596052 
L 215.877714 -139.824497 
L 213.563809 -132.323978 
L 211.249903 -125.217618 
L 208.935997 -118.617293 
L 206.622091 -112.59675 
L 204.308185 -107.168183 
L 201.994279 -102.268487 
L 199.680373 -97.767198 
L 197.366468 -93.501999 
L 195.052562 -89.33213 
L 192.738656 -85.187966 
L 190.42475 -81.094561 
L 188.110844 -77.157078 
L 185.796938 -73.512316 
L 183.483032 -70.267447 
L 181.169127 -67.455211 
L 178.855221 -65.026726 
L 176.541315 -62.882273 
L 174.227409 -60.920235 
L 171.913503 -59.077009 
L 169.599597 -57.338465 
L 167.285692 -55.721329 
L 164.971786 -54.240766 
L 162.65788 -52.887936 
L 160.343974 -51.632404 
L 158.030068 -50.444807 
L 155.716162 -49.319919 
L 153.402256 -48.281212 
L 151.088351 -47.363726 
L 148.774445 -46.589187 
L 146.460539 -45.952068 
L 144.146633 -45.424873 
L 141.832727 -44.97556 
L 139.518821 -44.58277 
L 137.204915 -44.239777 
L 134.89101 -43.948489 
L 132.577104 -43.710752 
L 130.263198 -43.52274 
L 127.949292 -43.373928 
L 125.635386 -43.249563 
L 123.32148 -43.135188 
L 121.007574 -43.02146 
L 118.693669 -42.906881 
L 116.379763 -42.796697 
L 114.065857 -42.698485 
L 111.751951 -42.617274 
L 109.438045 -42.55307 
L 107.124139 -42.501524 
L 104.810233 -42.45622 
L 102.496328 -42.410783 
L 100.182422 -42.36022 
L 97.868516 -42.302002 
L 95.55461 -42.237011 
L 93.240704 -42.169674 
L 90.926798 -42.106525 
L 88.612893 -42.053629 
L 86.298987 -42.014309 
L 83.985081 -41.988443 
L 81.671175 -41.973399 
L 79.357269 -41.965662 
L 77.043363 -41.962142 
z
" style="stroke: #1e90ff; stroke-width: 2"/>
    </defs>
    <g clip-path="url(#pde0da392f3)">
     <use xlink:href="#mdf7f81bf32" x="0" y="432" style="fill: #1e90ff; fill-opacity: 0.2; stroke: #1e90ff; stroke-width: 2"/>
    </g>
   </g>
   <g id="PolyCollection_2">
    <defs>
     <path id="m2c825a6cb7" d="M 80.100913 -41.962793 
L 80.100913 -41.96 
L 81.993247 -41.96 
L 83.88558 -41.96 
L 85.777913 -41.96 
L 87.670246 -41.96 
L 89.56258 -41.96 
L 91.454913 -41.96 
L 93.347246 -41.96 
L 95.239579 -41.96 
L 97.131913 -41.96 
L 99.024246 -41.96 
L 100.916579 -41.96 
L 102.808912 -41.96 
L 104.701246 -41.96 
L 106.593579 -41.96 
L 108.485912 -41.96 
L 110.378245 -41.96 
L 112.270578 -41.96 
L 114.162912 -41.96 
L 116.055245 -41.96 
L 117.947578 -41.96 
L 119.839911 -41.96 
L 121.732245 -41.96 
L 123.624578 -41.96 
L 125.516911 -41.96 
L 127.409244 -41.96 
L 129.301578 -41.96 
L 131.193911 -41.96 
L 133.086244 -41.96 
L 134.978577 -41.96 
L 136.870911 -41.96 
L 138.763244 -41.96 
L 140.655577 -41.96 
L 142.54791 -41.96 
L 144.440243 -41.96 
L 146.332577 -41.96 
L 148.22491 -41.96 
L 150.117243 -41.96 
L 152.009576 -41.96 
L 153.90191 -41.96 
L 155.794243 -41.96 
L 157.686576 -41.96 
L 159.578909 -41.96 
L 161.471243 -41.96 
L 163.363576 -41.96 
L 165.255909 -41.96 
L 167.148242 -41.96 
L 169.040576 -41.96 
L 170.932909 -41.96 
L 172.825242 -41.96 
L 174.717575 -41.96 
L 176.609908 -41.96 
L 178.502242 -41.96 
L 180.394575 -41.96 
L 182.286908 -41.96 
L 184.179241 -41.96 
L 186.071575 -41.96 
L 187.963908 -41.96 
L 189.856241 -41.96 
L 191.748574 -41.96 
L 193.640908 -41.96 
L 195.533241 -41.96 
L 197.425574 -41.96 
L 199.317907 -41.96 
L 201.210241 -41.96 
L 203.102574 -41.96 
L 204.994907 -41.96 
L 206.88724 -41.96 
L 208.779574 -41.96 
L 210.671907 -41.96 
L 212.56424 -41.96 
L 214.456573 -41.96 
L 216.348906 -41.96 
L 218.24124 -41.96 
L 220.133573 -41.96 
L 222.025906 -41.96 
L 223.918239 -41.96 
L 225.810573 -41.96 
L 227.702906 -41.96 
L 229.595239 -41.96 
L 231.487572 -41.96 
L 233.379906 -41.96 
L 235.272239 -41.96 
L 237.164572 -41.96 
L 239.056905 -41.96 
L 240.949239 -41.96 
L 242.841572 -41.96 
L 244.733905 -41.96 
L 246.626238 -41.96 
L 248.518571 -41.96 
L 250.410905 -41.96 
L 252.303238 -41.96 
L 254.195571 -41.96 
L 256.087904 -41.96 
L 257.980238 -41.96 
L 259.872571 -41.96 
L 261.764904 -41.96 
L 263.657237 -41.96 
L 265.549571 -41.96 
L 267.441904 -41.96 
L 269.334237 -41.96 
L 271.22657 -41.96 
L 273.118904 -41.96 
L 275.011237 -41.96 
L 276.90357 -41.96 
L 278.795903 -41.96 
L 280.688236 -41.96 
L 282.58057 -41.96 
L 284.472903 -41.96 
L 286.365236 -41.96 
L 288.257569 -41.96 
L 290.149903 -41.96 
L 292.042236 -41.96 
L 293.934569 -41.96 
L 295.826902 -41.96 
L 297.719236 -41.96 
L 299.611569 -41.96 
L 301.503902 -41.96 
L 303.396235 -41.96 
L 305.288569 -41.96 
L 307.180902 -41.96 
L 309.073235 -41.96 
L 310.965568 -41.96 
L 312.857901 -41.96 
L 314.750235 -41.96 
L 316.642568 -41.96 
L 318.534901 -41.96 
L 320.427234 -41.96 
L 322.319568 -41.96 
L 324.211901 -41.96 
L 326.104234 -41.96 
L 327.996567 -41.96 
L 329.888901 -41.96 
L 331.781234 -41.96 
L 333.673567 -41.96 
L 335.5659 -41.96 
L 337.458234 -41.96 
L 339.350567 -41.96 
L 341.2429 -41.96 
L 343.135233 -41.96 
L 345.027567 -41.96 
L 346.9199 -41.96 
L 348.812233 -41.96 
L 350.704566 -41.96 
L 352.596899 -41.96 
L 354.489233 -41.96 
L 356.381566 -41.96 
L 358.273899 -41.96 
L 360.166232 -41.96 
L 362.058566 -41.96 
L 363.950899 -41.96 
L 365.843232 -41.96 
L 367.735565 -41.96 
L 369.627899 -41.96 
L 371.520232 -41.96 
L 373.412565 -41.96 
L 375.304898 -41.96 
L 377.197232 -41.96 
L 379.089565 -41.96 
L 380.981898 -41.96 
L 382.874231 -41.96 
L 384.766564 -41.96 
L 386.658898 -41.96 
L 388.551231 -41.96 
L 390.443564 -41.96 
L 392.335897 -41.96 
L 394.228231 -41.96 
L 396.120564 -41.96 
L 398.012897 -41.96 
L 399.90523 -41.96 
L 401.797564 -41.96 
L 403.689897 -41.96 
L 405.58223 -41.96 
L 407.474563 -41.96 
L 409.366897 -41.96 
L 411.25923 -41.96 
L 413.151563 -41.96 
L 415.043896 -41.96 
L 416.936229 -41.96 
L 418.828563 -41.96 
L 420.720896 -41.96 
L 422.613229 -41.96 
L 424.505562 -41.96 
L 426.397896 -41.96 
L 428.290229 -41.96 
L 430.182562 -41.96 
L 432.074895 -41.96 
L 433.967229 -41.96 
L 435.859562 -41.96 
L 437.751895 -41.96 
L 439.644228 -41.96 
L 441.536562 -41.96 
L 443.428895 -41.96 
L 445.321228 -41.96 
L 447.213561 -41.96 
L 449.105894 -41.96 
L 450.998228 -41.96 
L 452.890561 -41.96 
L 454.782894 -41.96 
L 456.675227 -41.96 
L 456.675227 -41.961877 
L 456.675227 -41.961877 
L 454.782894 -41.964965 
L 452.890561 -41.971813 
L 450.998228 -41.985293 
L 449.105894 -42.00879 
L 447.213561 -42.044923 
L 445.321228 -42.0937 
L 443.428895 -42.151149 
L 441.536562 -42.209805 
L 439.644228 -42.261679 
L 437.751895 -42.302587 
L 435.859562 -42.335291 
L 433.967229 -42.369253 
L 432.074895 -42.416944 
L 430.182562 -42.488866 
L 428.290229 -42.590049 
L 426.397896 -42.71941 
L 424.505562 -42.871274 
L 422.613229 -43.037161 
L 420.720896 -43.20634 
L 418.828563 -43.365363 
L 416.936229 -43.498399 
L 415.043896 -43.59037 
L 413.151563 -43.632988 
L 411.25923 -43.631021 
L 409.366897 -43.604489 
L 407.474563 -43.583749 
L 405.58223 -43.598198 
L 403.689897 -43.663866 
L 401.797564 -43.776993 
L 399.90523 -43.91799 
L 398.012897 -44.063683 
L 396.120564 -44.199907 
L 394.228231 -44.325834 
L 392.335897 -44.447388 
L 390.443564 -44.565852 
L 388.551231 -44.672417 
L 386.658898 -44.755237 
L 384.766564 -44.814753 
L 382.874231 -44.874612 
L 380.981898 -44.977523 
L 379.089565 -45.167085 
L 377.197232 -45.4679 
L 375.304898 -45.877199 
L 373.412565 -46.371452 
L 371.520232 -46.920322 
L 369.627899 -47.497562 
L 367.735565 -48.084632 
L 365.843232 -48.670307 
L 363.950899 -49.250983 
L 362.058566 -49.832034 
L 360.166232 -50.426578 
L 358.273899 -51.048723 
L 356.381566 -51.702939 
L 354.489233 -52.375778 
L 352.596899 -53.037692 
L 350.704566 -53.658709 
L 348.812233 -54.232137 
L 346.9199 -54.790876 
L 345.027567 -55.401656 
L 343.135233 -56.137912 
L 341.2429 -57.050572 
L 339.350567 -58.158775 
L 337.458234 -59.464094 
L 335.5659 -60.969598 
L 333.673567 -62.681807 
L 331.781234 -64.593043 
L 329.888901 -66.664484 
L 327.996567 -68.834128 
L 326.104234 -71.054381 
L 324.211901 -73.337156 
L 322.319568 -75.772303 
L 320.427234 -78.498986 
L 318.534901 -81.641437 
L 316.642568 -85.247056 
L 314.750235 -89.264894 
L 312.857901 -93.575142 
L 310.965568 -98.047424 
L 309.073235 -102.592635 
L 307.180902 -107.18503 
L 305.288569 -111.852483 
L 303.396235 -116.646439 
L 301.503902 -121.606631 
L 299.611569 -126.736106 
L 297.719236 -132.001776 
L 295.826902 -137.368295 
L 293.934569 -142.853834 
L 292.042236 -148.573715 
L 290.149903 -154.732535 
L 288.257569 -161.552055 
L 286.365236 -169.168742 
L 284.472903 -177.565275 
L 282.58057 -186.585077 
L 280.688236 -196.025663 
L 278.795903 -205.753555 
L 276.90357 -215.766994 
L 275.011237 -226.162719 
L 273.118904 -237.022735 
L 271.22657 -248.290407 
L 269.334237 -259.714337 
L 267.441904 -270.892799 
L 265.549571 -281.387323 
L 263.657237 -290.845124 
L 261.764904 -299.090354 
L 259.872571 -306.174821 
L 257.980238 -312.38221 
L 256.087904 -318.169005 
L 254.195571 -324.039711 
L 252.303238 -330.396805 
L 250.410905 -337.432569 
L 248.518571 -345.105092 
L 246.626238 -353.184213 
L 244.733905 -361.317916 
L 242.841572 -369.082433 
L 240.949239 -376.017295 
L 239.056905 -381.668244 
L 237.164572 -385.650288 
L 235.272239 -387.719072 
L 233.379906 -387.826667 
L 231.487572 -386.1409 
L 229.595239 -383.012817 
L 227.702906 -378.883591 
L 225.810573 -374.144401 
L 223.918239 -368.999952 
L 222.025906 -363.406906 
L 220.133573 -357.131003 
L 218.24124 -349.900521 
L 216.348906 -341.575098 
L 214.456573 -332.238198 
L 212.56424 -322.164263 
L 210.671907 -311.682345 
L 208.779574 -301.018074 
L 206.88724 -290.208223 
L 204.994907 -279.133633 
L 203.102574 -267.635716 
L 201.210241 -255.629458 
L 199.317907 -243.144452 
L 197.425574 -230.296024 
L 195.533241 -217.243334 
L 193.640908 -204.180837 
L 191.748574 -191.353269 
L 189.856241 -179.04778 
L 187.963908 -167.538355 
L 186.071575 -157.009302 
L 184.179241 -147.509918 
L 182.286908 -138.968606 
L 180.394575 -131.250297 
L 178.502242 -124.21687 
L 176.609908 -117.759451 
L 174.717575 -111.796727 
L 172.825242 -106.252825 
L 170.932909 -101.034819 
L 169.040576 -96.02763 
L 167.148242 -91.116465 
L 165.255909 -86.232541 
L 163.363576 -81.399396 
L 161.471243 -76.747273 
L 159.578909 -72.475227 
L 157.686576 -68.772313 
L 155.794243 -65.737965 
L 153.90191 -63.344243 
L 152.009576 -61.456732 
L 150.117243 -59.896894 
L 148.22491 -58.509577 
L 146.332577 -57.203328 
L 144.440243 -55.950747 
L 142.54791 -54.758625 
L 140.655577 -53.631951 
L 138.763244 -52.555269 
L 136.870911 -51.500206 
L 134.978577 -50.448897 
L 133.086244 -49.413042 
L 131.193911 -48.4338 
L 129.301578 -47.562931 
L 127.409244 -46.837999 
L 125.516911 -46.265922 
L 123.624578 -45.821552 
L 121.732245 -45.459063 
L 119.839911 -45.12914 
L 117.947578 -44.794667 
L 116.055245 -44.439631 
L 114.162912 -44.069122 
L 112.270578 -43.702083 
L 110.378245 -43.361335 
L 108.485912 -43.06565 
L 106.593579 -42.826002 
L 104.701246 -42.64498 
L 102.808912 -42.517284 
L 100.916579 -42.430645 
L 99.024246 -42.368271 
L 97.131913 -42.313561 
L 95.239579 -42.255536 
L 93.347246 -42.191856 
L 91.454913 -42.127481 
L 89.56258 -42.070084 
L 87.670246 -42.025389 
L 85.777913 -41.994962 
L 83.88558 -41.97679 
L 81.993247 -41.967233 
L 80.100913 -41.962793 
z
" style="stroke: #b22222; stroke-width: 2"/>
    </defs>
    <g clip-path="url(#pde0da392f3)">
     <use xlink:href="#m2c825a6cb7" x="0" y="432" style="fill: #b22222; fill-opacity: 0.2; stroke: #b22222; stroke-width: 2"/>
    </g>
   </g>
   <g id="matplotlib.axis_1">
    <g id="xtick_1">
     <g id="line2d_1">
      <defs>
       <path id="ma81238e691" d="M 0 0 
L 0 3.5 
" style="stroke: #000000; stroke-width: 0.8"/>
      </defs>
      <g>
       <use xlink:href="#ma81238e691" x="90.901366" y="390.04" style="stroke: #000000; stroke-width: 0.8"/>
      </g>
     </g>
     <g id="text_1">
      <!-- −7.5 -->
      <g transform="translate(78.759959 404.638438) scale(0.1 -0.1)">
       <defs>
        <path id="DejaVuSans-2212" d="M 678 2272 
L 4684 2272 
L 4684 1741 
L 678 1741 
L 678 2272 
z
" transform="scale(0.015625)"/>
        <path id="DejaVuSans-37" d="M 525 4666 
L 3525 4666 
L 3525 4397 
L 1831 0 
L 1172 0 
L 2766 4134 
L 525 4134 
L 525 4666 
z
" transform="scale(0.015625)"/>
        <path id="DejaVuSans-2e" d="M 684 794 
L 1344 794 
L 1344 0 
L 684 0 
L 684 794 
z
" transform="scale(0.015625)"/>
        <path id="DejaVuSans-35" d="M 691 4666 
L 3169 4666 
L 3169 4134 
L 1269 4134 
L 1269 2991 
Q 1406 3038 1543 3061 
Q 1681 3084 1819 3084 
Q 2600 3084 3056 2656 
Q 3513 2228 3513 1497 
Q 3513 744 3044 326 
Q 2575 -91 1722 -91 
Q 1428 -91 1123 -41 
Q 819 9 494 109 
L 494 744 
Q 775 591 1075 516 
Q 1375 441 1709 441 
Q 2250 441 2565 725 
Q 2881 1009 2881 1497 
Q 2881 1984 2565 2268 
Q 2250 2553 1709 2553 
Q 1456 2553 1204 2497 
Q 953 2441 691 2322 
L 691 4666 
z
" transform="scale(0.015625)"/>
       </defs>
       <use xlink:href="#DejaVuSans-2212"/>
       <use xlink:href="#DejaVuSans-37" x="83.789062"/>
       <use xlink:href="#DejaVuSans-2e" x="147.412109"/>
       <use xlink:href="#DejaVuSans-35" x="179.199219"/>
      </g>
     </g>
    </g>
    <g id="xtick_2">
     <g id="line2d_2">
      <g>
       <use xlink:href="#ma81238e691" x="148.697147" y="390.04" style="stroke: #000000; stroke-width: 0.8"/>
      </g>
     </g>
     <g id="text_2">
      <!-- −5.0 -->
      <g transform="translate(136.55574 404.638438) scale(0.1 -0.1)">
       <defs>
        <path id="DejaVuSans-30" d="M 2034 4250 
Q 1547 4250 1301 3770 
Q 1056 3291 1056 2328 
Q 1056 1369 1301 889 
Q 1547 409 2034 409 
Q 2525 409 2770 889 
Q 3016 1369 3016 2328 
Q 3016 3291 2770 3770 
Q 2525 4250 2034 4250 
z
M 2034 4750 
Q 2819 4750 3233 4129 
Q 3647 3509 3647 2328 
Q 3647 1150 3233 529 
Q 2819 -91 2034 -91 
Q 1250 -91 836 529 
Q 422 1150 422 2328 
Q 422 3509 836 4129 
Q 1250 4750 2034 4750 
z
" transform="scale(0.015625)"/>
       </defs>
       <use xlink:href="#DejaVuSans-2212"/>
       <use xlink:href="#DejaVuSans-35" x="83.789062"/>
       <use xlink:href="#DejaVuSans-2e" x="147.412109"/>
       <use xlink:href="#DejaVuSans-30" x="179.199219"/>
      </g>
     </g>
    </g>
    <g id="xtick_3">
     <g id="line2d_3">
      <g>
       <use xlink:href="#ma81238e691" x="206.492928" y="390.04" style="stroke: #000000; stroke-width: 0.8"/>
      </g>
     </g>
     <g id="text_3">
      <!-- −2.5 -->
      <g transform="translate(194.351521 404.638438) scale(0.1 -0.1)">
       <defs>
        <path id="DejaVuSans-32" d="M 1228 531 
L 3431 531 
L 3431 0 
L 469 0 
L 469 531 
Q 828 903 1448 1529 
Q 2069 2156 2228 2338 
Q 2531 2678 2651 2914 
Q 2772 3150 2772 3378 
Q 2772 3750 2511 3984 
Q 2250 4219 1831 4219 
Q 1534 4219 1204 4116 
Q 875 4013 500 3803 
L 500 4441 
Q 881 4594 1212 4672 
Q 1544 4750 1819 4750 
Q 2544 4750 2975 4387 
Q 3406 4025 3406 3419 
Q 3406 3131 3298 2873 
Q 3191 2616 2906 2266 
Q 2828 2175 2409 1742 
Q 1991 1309 1228 531 
z
" transform="scale(0.015625)"/>
       </defs>
       <use xlink:href="#DejaVuSans-2212"/>
       <use xlink:href="#DejaVuSans-32" x="83.789062"/>
       <use xlink:href="#DejaVuSans-2e" x="147.412109"/>
       <use xlink:href="#DejaVuSans-35" x="179.199219"/>
      </g>
     </g>
    </g>
    <g id="xtick_4">
     <g id="line2d_4">
      <g>
       <use xlink:href="#ma81238e691" x="264.288708" y="390.04" style="stroke: #000000; stroke-width: 0.8"/>
      </g>
     </g>
     <g id="text_4">
      <!-- 0.0 -->
      <g transform="translate(256.337146 404.638438) scale(0.1 -0.1)">
       <use xlink:href="#DejaVuSans-30"/>
       <use xlink:href="#DejaVuSans-2e" x="63.623047"/>
       <use xlink:href="#DejaVuSans-30" x="95.410156"/>
      </g>
     </g>
    </g>
    <g id="xtick_5">
     <g id="line2d_5">
      <g>
       <use xlink:href="#ma81238e691" x="322.084489" y="390.04" style="stroke: #000000; stroke-width: 0.8"/>
      </g>
     </g>
     <g id="text_5">
      <!-- 2.5 -->
      <g transform="translate(314.132927 404.638438) scale(0.1 -0.1)">
       <use xlink:href="#DejaVuSans-32"/>
       <use xlink:href="#DejaVuSans-2e" x="63.623047"/>
       <use xlink:href="#DejaVuSans-35" x="95.410156"/>
      </g>
     </g>
    </g>
    <g id="xtick_6">
     <g id="line2d_6">
      <g>
       <use xlink:href="#ma81238e691" x="379.88027" y="390.04" style="stroke: #000000; stroke-width: 0.8"/>
      </g>
     </g>
     <g id="text_6">
      <!-- 5.0 -->
      <g transform="translate(371.928708 404.638438) scale(0.1 -0.1)">
       <use xlink:href="#DejaVuSans-35"/>
       <use xlink:href="#DejaVuSans-2e" x="63.623047"/>
       <use xlink:href="#DejaVuSans-30" x="95.410156"/>
      </g>
     </g>
    </g>
    <g id="xtick_7">
     <g id="line2d_7">
      <g>
       <use xlink:href="#ma81238e691" x="437.676051" y="390.04" style="stroke: #000000; stroke-width: 0.8"/>
      </g>
     </g>
     <g id="text_7">
      <!-- 7.5 -->
      <g transform="translate(429.724489 404.638438) scale(0.1 -0.1)">
       <use xlink:href="#DejaVuSans-37"/>
       <use xlink:href="#DejaVuSans-2e" x="63.623047"/>
       <use xlink:href="#DejaVuSans-35" x="95.410156"/>
      </g>
     </g>
    </g>
    <g id="xtick_8">
     <g id="line2d_8">
      <g>
       <use xlink:href="#ma81238e691" x="495.471832" y="390.04" style="stroke: #000000; stroke-width: 0.8"/>
      </g>
     </g>
     <g id="text_8">
      <!-- 10.0 -->
      <g transform="translate(484.33902 404.638438) scale(0.1 -0.1)">
       <defs>
        <path id="DejaVuSans-31" d="M 794 531 
L 1825 531 
L 1825 4091 
L 703 3866 
L 703 4441 
L 1819 4666 
L 2450 4666 
L 2450 531 
L 3481 531 
L 3481 0 
L 794 0 
L 794 531 
z
" transform="scale(0.015625)"/>
       </defs>
       <use xlink:href="#DejaVuSans-31"/>
       <use xlink:href="#DejaVuSans-30" x="63.623047"/>
       <use xlink:href="#DejaVuSans-2e" x="127.246094"/>
       <use xlink:href="#DejaVuSans-30" x="159.033203"/>
      </g>
     </g>
    </g>
    <g id="xtick_9">
     <g id="line2d_9">
      <g>
       <use xlink:href="#ma81238e691" x="553.267613" y="390.04" style="stroke: #000000; stroke-width: 0.8"/>
      </g>
     </g>
     <g id="text_9">
      <!-- 12.5 -->
      <g transform="translate(542.134801 404.638438) scale(0.1 -0.1)">
       <use xlink:href="#DejaVuSans-31"/>
       <use xlink:href="#DejaVuSans-32" x="63.623047"/>
       <use xlink:href="#DejaVuSans-2e" x="127.246094"/>
       <use xlink:href="#DejaVuSans-35" x="159.033203"/>
      </g>
     </g>
    </g>
    <g id="text_10">
     <!-- log2 Normalized Intensity -->
     <g transform="translate(243.176996 418.316562) scale(0.1 -0.1)">
      <defs>
       <path id="DejaVuSans-6c" d="M 603 4863 
L 1178 4863 
L 1178 0 
L 603 0 
L 603 4863 
z
" transform="scale(0.015625)"/>
       <path id="DejaVuSans-6f" d="M 1959 3097 
Q 1497 3097 1228 2736 
Q 959 2375 959 1747 
Q 959 1119 1226 758 
Q 1494 397 1959 397 
Q 2419 397 2687 759 
Q 2956 1122 2956 1747 
Q 2956 2369 2687 2733 
Q 2419 3097 1959 3097 
z
M 1959 3584 
Q 2709 3584 3137 3096 
Q 3566 2609 3566 1747 
Q 3566 888 3137 398 
Q 2709 -91 1959 -91 
Q 1206 -91 779 398 
Q 353 888 353 1747 
Q 353 2609 779 3096 
Q 1206 3584 1959 3584 
z
" transform="scale(0.015625)"/>
       <path id="DejaVuSans-67" d="M 2906 1791 
Q 2906 2416 2648 2759 
Q 2391 3103 1925 3103 
Q 1463 3103 1205 2759 
Q 947 2416 947 1791 
Q 947 1169 1205 825 
Q 1463 481 1925 481 
Q 2391 481 2648 825 
Q 2906 1169 2906 1791 
z
M 3481 434 
Q 3481 -459 3084 -895 
Q 2688 -1331 1869 -1331 
Q 1566 -1331 1297 -1286 
Q 1028 -1241 775 -1147 
L 775 -588 
Q 1028 -725 1275 -790 
Q 1522 -856 1778 -856 
Q 2344 -856 2625 -561 
Q 2906 -266 2906 331 
L 2906 616 
Q 2728 306 2450 153 
Q 2172 0 1784 0 
Q 1141 0 747 490 
Q 353 981 353 1791 
Q 353 2603 747 3093 
Q 1141 3584 1784 3584 
Q 2172 3584 2450 3431 
Q 2728 3278 2906 2969 
L 2906 3500 
L 3481 3500 
L 3481 434 
z
" transform="scale(0.015625)"/>
       <path id="DejaVuSans-20" transform="scale(0.015625)"/>
       <path id="DejaVuSans-4e" d="M 628 4666 
L 1478 4666 
L 3547 763 
L 3547 4666 
L 4159 4666 
L 4159 0 
L 3309 0 
L 1241 3903 
L 1241 0 
L 628 0 
L 628 4666 
z
" transform="scale(0.015625)"/>
       <path id="DejaVuSans-72" d="M 2631 2963 
Q 2534 3019 2420 3045 
Q 2306 3072 2169 3072 
Q 1681 3072 1420 2755 
Q 1159 2438 1159 1844 
L 1159 0 
L 581 0 
L 581 3500 
L 1159 3500 
L 1159 2956 
Q 1341 3275 1631 3429 
Q 1922 3584 2338 3584 
Q 2397 3584 2469 3576 
Q 2541 3569 2628 3553 
L 2631 2963 
z
" transform="scale(0.015625)"/>
       <path id="DejaVuSans-6d" d="M 3328 2828 
Q 3544 3216 3844 3400 
Q 4144 3584 4550 3584 
Q 5097 3584 5394 3201 
Q 5691 2819 5691 2113 
L 5691 0 
L 5113 0 
L 5113 2094 
Q 5113 2597 4934 2840 
Q 4756 3084 4391 3084 
Q 3944 3084 3684 2787 
Q 3425 2491 3425 1978 
L 3425 0 
L 2847 0 
L 2847 2094 
Q 2847 2600 2669 2842 
Q 2491 3084 2119 3084 
Q 1678 3084 1418 2786 
Q 1159 2488 1159 1978 
L 1159 0 
L 581 0 
L 581 3500 
L 1159 3500 
L 1159 2956 
Q 1356 3278 1631 3431 
Q 1906 3584 2284 3584 
Q 2666 3584 2933 3390 
Q 3200 3197 3328 2828 
z
" transform="scale(0.015625)"/>
       <path id="DejaVuSans-61" d="M 2194 1759 
Q 1497 1759 1228 1600 
Q 959 1441 959 1056 
Q 959 750 1161 570 
Q 1363 391 1709 391 
Q 2188 391 2477 730 
Q 2766 1069 2766 1631 
L 2766 1759 
L 2194 1759 
z
M 3341 1997 
L 3341 0 
L 2766 0 
L 2766 531 
Q 2569 213 2275 61 
Q 1981 -91 1556 -91 
Q 1019 -91 701 211 
Q 384 513 384 1019 
Q 384 1609 779 1909 
Q 1175 2209 1959 2209 
L 2766 2209 
L 2766 2266 
Q 2766 2663 2505 2880 
Q 2244 3097 1772 3097 
Q 1472 3097 1187 3025 
Q 903 2953 641 2809 
L 641 3341 
Q 956 3463 1253 3523 
Q 1550 3584 1831 3584 
Q 2591 3584 2966 3190 
Q 3341 2797 3341 1997 
z
" transform="scale(0.015625)"/>
       <path id="DejaVuSans-69" d="M 603 3500 
L 1178 3500 
L 1178 0 
L 603 0 
L 603 3500 
z
M 603 4863 
L 1178 4863 
L 1178 4134 
L 603 4134 
L 603 4863 
z
" transform="scale(0.015625)"/>
       <path id="DejaVuSans-7a" d="M 353 3500 
L 3084 3500 
L 3084 2975 
L 922 459 
L 3084 459 
L 3084 0 
L 275 0 
L 275 525 
L 2438 3041 
L 353 3041 
L 353 3500 
z
" transform="scale(0.015625)"/>
       <path id="DejaVuSans-65" d="M 3597 1894 
L 3597 1613 
L 953 1613 
Q 991 1019 1311 708 
Q 1631 397 2203 397 
Q 2534 397 2845 478 
Q 3156 559 3463 722 
L 3463 178 
Q 3153 47 2828 -22 
Q 2503 -91 2169 -91 
Q 1331 -91 842 396 
Q 353 884 353 1716 
Q 353 2575 817 3079 
Q 1281 3584 2069 3584 
Q 2775 3584 3186 3129 
Q 3597 2675 3597 1894 
z
M 3022 2063 
Q 3016 2534 2758 2815 
Q 2500 3097 2075 3097 
Q 1594 3097 1305 2825 
Q 1016 2553 972 2059 
L 3022 2063 
z
" transform="scale(0.015625)"/>
       <path id="DejaVuSans-64" d="M 2906 2969 
L 2906 4863 
L 3481 4863 
L 3481 0 
L 2906 0 
L 2906 525 
Q 2725 213 2448 61 
Q 2172 -91 1784 -91 
Q 1150 -91 751 415 
Q 353 922 353 1747 
Q 353 2572 751 3078 
Q 1150 3584 1784 3584 
Q 2172 3584 2448 3432 
Q 2725 3281 2906 2969 
z
M 947 1747 
Q 947 1113 1208 752 
Q 1469 391 1925 391 
Q 2381 391 2643 752 
Q 2906 1113 2906 1747 
Q 2906 2381 2643 2742 
Q 2381 3103 1925 3103 
Q 1469 3103 1208 2742 
Q 947 2381 947 1747 
z
" transform="scale(0.015625)"/>
       <path id="DejaVuSans-49" d="M 628 4666 
L 1259 4666 
L 1259 0 
L 628 0 
L 628 4666 
z
" transform="scale(0.015625)"/>
       <path id="DejaVuSans-6e" d="M 3513 2113 
L 3513 0 
L 2938 0 
L 2938 2094 
Q 2938 2591 2744 2837 
Q 2550 3084 2163 3084 
Q 1697 3084 1428 2787 
Q 1159 2491 1159 1978 
L 1159 0 
L 581 0 
L 581 3500 
L 1159 3500 
L 1159 2956 
Q 1366 3272 1645 3428 
Q 1925 3584 2291 3584 
Q 2894 3584 3203 3211 
Q 3513 2838 3513 2113 
z
" transform="scale(0.015625)"/>
       <path id="DejaVuSans-74" d="M 1172 4494 
L 1172 3500 
L 2356 3500 
L 2356 3053 
L 1172 3053 
L 1172 1153 
Q 1172 725 1289 603 
Q 1406 481 1766 481 
L 2356 481 
L 2356 0 
L 1766 0 
Q 1100 0 847 248 
Q 594 497 594 1153 
L 594 3053 
L 172 3053 
L 172 3500 
L 594 3500 
L 594 4494 
L 1172 4494 
z
" transform="scale(0.015625)"/>
       <path id="DejaVuSans-73" d="M 2834 3397 
L 2834 2853 
Q 2591 2978 2328 3040 
Q 2066 3103 1784 3103 
Q 1356 3103 1142 2972 
Q 928 2841 928 2578 
Q 928 2378 1081 2264 
Q 1234 2150 1697 2047 
L 1894 2003 
Q 2506 1872 2764 1633 
Q 3022 1394 3022 966 
Q 3022 478 2636 193 
Q 2250 -91 1575 -91 
Q 1294 -91 989 -36 
Q 684 19 347 128 
L 347 722 
Q 666 556 975 473 
Q 1284 391 1588 391 
Q 1994 391 2212 530 
Q 2431 669 2431 922 
Q 2431 1156 2273 1281 
Q 2116 1406 1581 1522 
L 1381 1569 
Q 847 1681 609 1914 
Q 372 2147 372 2553 
Q 372 3047 722 3315 
Q 1072 3584 1716 3584 
Q 2034 3584 2315 3537 
Q 2597 3491 2834 3397 
z
" transform="scale(0.015625)"/>
       <path id="DejaVuSans-79" d="M 2059 -325 
Q 1816 -950 1584 -1140 
Q 1353 -1331 966 -1331 
L 506 -1331 
L 506 -850 
L 844 -850 
Q 1081 -850 1212 -737 
Q 1344 -625 1503 -206 
L 1606 56 
L 191 3500 
L 800 3500 
L 1894 763 
L 2988 3500 
L 3597 3500 
L 2059 -325 
z
" transform="scale(0.015625)"/>
      </defs>
      <use xlink:href="#DejaVuSans-6c"/>
      <use xlink:href="#DejaVuSans-6f" x="27.783203"/>
      <use xlink:href="#DejaVuSans-67" x="88.964844"/>
      <use xlink:href="#DejaVuSans-32" x="152.441406"/>
      <use xlink:href="#DejaVuSans-20" x="216.064453"/>
      <use xlink:href="#DejaVuSans-4e" x="247.851562"/>
      <use xlink:href="#DejaVuSans-6f" x="322.65625"/>
      <use xlink:href="#DejaVuSans-72" x="383.837891"/>
      <use xlink:href="#DejaVuSans-6d" x="423.201172"/>
      <use xlink:href="#DejaVuSans-61" x="520.613281"/>
      <use xlink:href="#DejaVuSans-6c" x="581.892578"/>
      <use xlink:href="#DejaVuSans-69" x="609.675781"/>
      <use xlink:href="#DejaVuSans-7a" x="637.458984"/>
      <use xlink:href="#DejaVuSans-65" x="689.949219"/>
      <use xlink:href="#DejaVuSans-64" x="751.472656"/>
      <use xlink:href="#DejaVuSans-20" x="814.949219"/>
      <use xlink:href="#DejaVuSans-49" x="846.736328"/>
      <use xlink:href="#DejaVuSans-6e" x="876.228516"/>
      <use xlink:href="#DejaVuSans-74" x="939.607422"/>
      <use xlink:href="#DejaVuSans-65" x="978.816406"/>
      <use xlink:href="#DejaVuSans-6e" x="1040.339844"/>
      <use xlink:href="#DejaVuSans-73" x="1103.71875"/>
      <use xlink:href="#DejaVuSans-69" x="1155.818359"/>
      <use xlink:href="#DejaVuSans-74" x="1183.601562"/>
      <use xlink:href="#DejaVuSans-79" x="1222.810547"/>
     </g>
    </g>
   </g>
   <g id="matplotlib.axis_2">
    <g id="ytick_1">
     <g id="line2d_10">
      <defs>
       <path id="m2d6c566bcb" d="M 0 0 
L -3.5 0 
" style="stroke: #000000; stroke-width: 0.8"/>
      </defs>
      <g>
       <use xlink:href="#m2d6c566bcb" x="54.02" y="390.04" style="stroke: #000000; stroke-width: 0.8"/>
      </g>
     </g>
     <g id="text_11">
      <!-- 0.00 -->
      <g transform="translate(24.754375 393.839219) scale(0.1 -0.1)">
       <use xlink:href="#DejaVuSans-30"/>
       <use xlink:href="#DejaVuSans-2e" x="63.623047"/>
       <use xlink:href="#DejaVuSans-30" x="95.410156"/>
       <use xlink:href="#DejaVuSans-30" x="159.033203"/>
      </g>
     </g>
    </g>
    <g id="ytick_2">
     <g id="line2d_11">
      <g>
       <use xlink:href="#m2d6c566bcb" x="54.02" y="322.523289" style="stroke: #000000; stroke-width: 0.8"/>
      </g>
     </g>
     <g id="text_12">
      <!-- 0.05 -->
      <g transform="translate(24.754375 326.322508) scale(0.1 -0.1)">
       <use xlink:href="#DejaVuSans-30"/>
       <use xlink:href="#DejaVuSans-2e" x="63.623047"/>
       <use xlink:href="#DejaVuSans-30" x="95.410156"/>
       <use xlink:href="#DejaVuSans-35" x="159.033203"/>
      </g>
     </g>
    </g>
    <g id="ytick_3">
     <g id="line2d_12">
      <g>
       <use xlink:href="#m2d6c566bcb" x="54.02" y="255.006578" style="stroke: #000000; stroke-width: 0.8"/>
      </g>
     </g>
     <g id="text_13">
      <!-- 0.10 -->
      <g transform="translate(24.754375 258.805797) scale(0.1 -0.1)">
       <use xlink:href="#DejaVuSans-30"/>
       <use xlink:href="#DejaVuSans-2e" x="63.623047"/>
       <use xlink:href="#DejaVuSans-31" x="95.410156"/>
       <use xlink:href="#DejaVuSans-30" x="159.033203"/>
      </g>
     </g>
    </g>
    <g id="ytick_4">
     <g id="line2d_13">
      <g>
       <use xlink:href="#m2d6c566bcb" x="54.02" y="187.489867" style="stroke: #000000; stroke-width: 0.8"/>
      </g>
     </g>
     <g id="text_14">
      <!-- 0.15 -->
      <g transform="translate(24.754375 191.289085) scale(0.1 -0.1)">
       <use xlink:href="#DejaVuSans-30"/>
       <use xlink:href="#DejaVuSans-2e" x="63.623047"/>
       <use xlink:href="#DejaVuSans-31" x="95.410156"/>
       <use xlink:href="#DejaVuSans-35" x="159.033203"/>
      </g>
     </g>
    </g>
    <g id="ytick_5">
     <g id="line2d_14">
      <g>
       <use xlink:href="#m2d6c566bcb" x="54.02" y="119.973156" style="stroke: #000000; stroke-width: 0.8"/>
      </g>
     </g>
     <g id="text_15">
      <!-- 0.20 -->
      <g transform="translate(24.754375 123.772374) scale(0.1 -0.1)">
       <use xlink:href="#DejaVuSans-30"/>
       <use xlink:href="#DejaVuSans-2e" x="63.623047"/>
       <use xlink:href="#DejaVuSans-32" x="95.410156"/>
       <use xlink:href="#DejaVuSans-30" x="159.033203"/>
      </g>
     </g>
    </g>
    <g id="ytick_6">
     <g id="line2d_15">
      <g>
       <use xlink:href="#m2d6c566bcb" x="54.02" y="52.456445" style="stroke: #000000; stroke-width: 0.8"/>
      </g>
     </g>
     <g id="text_16">
      <!-- 0.25 -->
      <g transform="translate(24.754375 56.255663) scale(0.1 -0.1)">
       <use xlink:href="#DejaVuSans-30"/>
       <use xlink:href="#DejaVuSans-2e" x="63.623047"/>
       <use xlink:href="#DejaVuSans-32" x="95.410156"/>
       <use xlink:href="#DejaVuSans-35" x="159.033203"/>
      </g>
     </g>
    </g>
    <g id="text_17">
     <!-- Density -->
     <g transform="translate(18.674688 227.468594) rotate(-90) scale(0.1 -0.1)">
      <defs>
       <path id="DejaVuSans-44" d="M 1259 4147 
L 1259 519 
L 2022 519 
Q 2988 519 3436 956 
Q 3884 1394 3884 2338 
Q 3884 3275 3436 3711 
Q 2988 4147 2022 4147 
L 1259 4147 
z
M 628 4666 
L 1925 4666 
Q 3281 4666 3915 4102 
Q 4550 3538 4550 2338 
Q 4550 1131 3912 565 
Q 3275 0 1925 0 
L 628 0 
L 628 4666 
z
" transform="scale(0.015625)"/>
      </defs>
      <use xlink:href="#DejaVuSans-44"/>
      <use xlink:href="#DejaVuSans-65" x="77.001953"/>
      <use xlink:href="#DejaVuSans-6e" x="138.525391"/>
      <use xlink:href="#DejaVuSans-73" x="201.904297"/>
      <use xlink:href="#DejaVuSans-69" x="254.003906"/>
      <use xlink:href="#DejaVuSans-74" x="281.787109"/>
      <use xlink:href="#DejaVuSans-79" x="320.996094"/>
     </g>
    </g>
   </g>
   <g id="patch_3">
    <path d="M 54.02 390.04 
L 54.02 26.88 
" style="fill: none; stroke: #000000; stroke-width: 0.8; stroke-linejoin: miter; stroke-linecap: square"/>
   </g>
   <g id="patch_4">
    <path d="M 560.533991 390.04 
L 560.533991 26.88 
" style="fill: none; stroke: #000000; stroke-width: 0.8; stroke-linejoin: miter; stroke-linecap: square"/>
   </g>
   <g id="patch_5">
    <path d="M 54.02 390.04 
L 560.533991 390.04 
" style="fill: none; stroke: #000000; stroke-width: 0.8; stroke-linejoin: miter; stroke-linecap: square"/>
   </g>
   <g id="patch_6">
    <path d="M 54.02 26.88 
L 560.533991 26.88 
" style="fill: none; stroke: #000000; stroke-width: 0.8; stroke-linejoin: miter; stroke-linecap: square"/>
   </g>
   <g id="text_18">
    <!-- Spectronaut directDIA: Peptide Intensity Distribution -->
    <g transform="translate(149.951371 20.88) scale(0.12 -0.12)">
     <defs>
      <path id="DejaVuSans-53" d="M 3425 4513 
L 3425 3897 
Q 3066 4069 2747 4153 
Q 2428 4238 2131 4238 
Q 1616 4238 1336 4038 
Q 1056 3838 1056 3469 
Q 1056 3159 1242 3001 
Q 1428 2844 1947 2747 
L 2328 2669 
Q 3034 2534 3370 2195 
Q 3706 1856 3706 1288 
Q 3706 609 3251 259 
Q 2797 -91 1919 -91 
Q 1588 -91 1214 -16 
Q 841 59 441 206 
L 441 856 
Q 825 641 1194 531 
Q 1563 422 1919 422 
Q 2459 422 2753 634 
Q 3047 847 3047 1241 
Q 3047 1584 2836 1778 
Q 2625 1972 2144 2069 
L 1759 2144 
Q 1053 2284 737 2584 
Q 422 2884 422 3419 
Q 422 4038 858 4394 
Q 1294 4750 2059 4750 
Q 2388 4750 2728 4690 
Q 3069 4631 3425 4513 
z
" transform="scale(0.015625)"/>
      <path id="DejaVuSans-70" d="M 1159 525 
L 1159 -1331 
L 581 -1331 
L 581 3500 
L 1159 3500 
L 1159 2969 
Q 1341 3281 1617 3432 
Q 1894 3584 2278 3584 
Q 2916 3584 3314 3078 
Q 3713 2572 3713 1747 
Q 3713 922 3314 415 
Q 2916 -91 2278 -91 
Q 1894 -91 1617 61 
Q 1341 213 1159 525 
z
M 3116 1747 
Q 3116 2381 2855 2742 
Q 2594 3103 2138 3103 
Q 1681 3103 1420 2742 
Q 1159 2381 1159 1747 
Q 1159 1113 1420 752 
Q 1681 391 2138 391 
Q 2594 391 2855 752 
Q 3116 1113 3116 1747 
z
" transform="scale(0.015625)"/>
      <path id="DejaVuSans-63" d="M 3122 3366 
L 3122 2828 
Q 2878 2963 2633 3030 
Q 2388 3097 2138 3097 
Q 1578 3097 1268 2742 
Q 959 2388 959 1747 
Q 959 1106 1268 751 
Q 1578 397 2138 397 
Q 2388 397 2633 464 
Q 2878 531 3122 666 
L 3122 134 
Q 2881 22 2623 -34 
Q 2366 -91 2075 -91 
Q 1284 -91 818 406 
Q 353 903 353 1747 
Q 353 2603 823 3093 
Q 1294 3584 2113 3584 
Q 2378 3584 2631 3529 
Q 2884 3475 3122 3366 
z
" transform="scale(0.015625)"/>
      <path id="DejaVuSans-75" d="M 544 1381 
L 544 3500 
L 1119 3500 
L 1119 1403 
Q 1119 906 1312 657 
Q 1506 409 1894 409 
Q 2359 409 2629 706 
Q 2900 1003 2900 1516 
L 2900 3500 
L 3475 3500 
L 3475 0 
L 2900 0 
L 2900 538 
Q 2691 219 2414 64 
Q 2138 -91 1772 -91 
Q 1169 -91 856 284 
Q 544 659 544 1381 
z
M 1991 3584 
L 1991 3584 
z
" transform="scale(0.015625)"/>
      <path id="DejaVuSans-41" d="M 2188 4044 
L 1331 1722 
L 3047 1722 
L 2188 4044 
z
M 1831 4666 
L 2547 4666 
L 4325 0 
L 3669 0 
L 3244 1197 
L 1141 1197 
L 716 0 
L 50 0 
L 1831 4666 
z
" transform="scale(0.015625)"/>
      <path id="DejaVuSans-3a" d="M 750 794 
L 1409 794 
L 1409 0 
L 750 0 
L 750 794 
z
M 750 3309 
L 1409 3309 
L 1409 2516 
L 750 2516 
L 750 3309 
z
" transform="scale(0.015625)"/>
      <path id="DejaVuSans-50" d="M 1259 4147 
L 1259 2394 
L 2053 2394 
Q 2494 2394 2734 2622 
Q 2975 2850 2975 3272 
Q 2975 3691 2734 3919 
Q 2494 4147 2053 4147 
L 1259 4147 
z
M 628 4666 
L 2053 4666 
Q 2838 4666 3239 4311 
Q 3641 3956 3641 3272 
Q 3641 2581 3239 2228 
Q 2838 1875 2053 1875 
L 1259 1875 
L 1259 0 
L 628 0 
L 628 4666 
z
" transform="scale(0.015625)"/>
      <path id="DejaVuSans-62" d="M 3116 1747 
Q 3116 2381 2855 2742 
Q 2594 3103 2138 3103 
Q 1681 3103 1420 2742 
Q 1159 2381 1159 1747 
Q 1159 1113 1420 752 
Q 1681 391 2138 391 
Q 2594 391 2855 752 
Q 3116 1113 3116 1747 
z
M 1159 2969 
Q 1341 3281 1617 3432 
Q 1894 3584 2278 3584 
Q 2916 3584 3314 3078 
Q 3713 2572 3713 1747 
Q 3713 922 3314 415 
Q 2916 -91 2278 -91 
Q 1894 -91 1617 61 
Q 1341 213 1159 525 
L 1159 0 
L 581 0 
L 581 4863 
L 1159 4863 
L 1159 2969 
z
" transform="scale(0.015625)"/>
     </defs>
     <use xlink:href="#DejaVuSans-53"/>
     <use xlink:href="#DejaVuSans-70" x="63.476562"/>
     <use xlink:href="#DejaVuSans-65" x="126.953125"/>
     <use xlink:href="#DejaVuSans-63" x="188.476562"/>
     <use xlink:href="#DejaVuSans-74" x="243.457031"/>
     <use xlink:href="#DejaVuSans-72" x="282.666016"/>
     <use xlink:href="#DejaVuSans-6f" x="321.529297"/>
     <use xlink:href="#DejaVuSans-6e" x="382.710938"/>
     <use xlink:href="#DejaVuSans-61" x="446.089844"/>
     <use xlink:href="#DejaVuSans-75" x="507.369141"/>
     <use xlink:href="#DejaVuSans-74" x="570.748047"/>
     <use xlink:href="#DejaVuSans-20" x="609.957031"/>
     <use xlink:href="#DejaVuSans-64" x="641.744141"/>
     <use xlink:href="#DejaVuSans-69" x="705.220703"/>
     <use xlink:href="#DejaVuSans-72" x="733.003906"/>
     <use xlink:href="#DejaVuSans-65" x="771.867188"/>
     <use xlink:href="#DejaVuSans-63" x="833.390625"/>
     <use xlink:href="#DejaVuSans-74" x="888.371094"/>
     <use xlink:href="#DejaVuSans-44" x="927.580078"/>
     <use xlink:href="#DejaVuSans-49" x="1004.582031"/>
     <use xlink:href="#DejaVuSans-41" x="1034.074219"/>
     <use xlink:href="#DejaVuSans-3a" x="1100.732422"/>
     <use xlink:href="#DejaVuSans-20" x="1134.423828"/>
     <use xlink:href="#DejaVuSans-50" x="1166.210938"/>
     <use xlink:href="#DejaVuSans-65" x="1222.888672"/>
     <use xlink:href="#DejaVuSans-70" x="1284.412109"/>
     <use xlink:href="#DejaVuSans-74" x="1347.888672"/>
     <use xlink:href="#DejaVuSans-69" x="1387.097656"/>
     <use xlink:href="#DejaVuSans-64" x="1414.880859"/>
     <use xlink:href="#DejaVuSans-65" x="1478.357422"/>
     <use xlink:href="#DejaVuSans-20" x="1539.880859"/>
     <use xlink:href="#DejaVuSans-49" x="1571.667969"/>
     <use xlink:href="#DejaVuSans-6e" x="1601.160156"/>
     <use xlink:href="#DejaVuSans-74" x="1664.539062"/>
     <use xlink:href="#DejaVuSans-65" x="1703.748047"/>
     <use xlink:href="#DejaVuSans-6e" x="1765.271484"/>
     <use xlink:href="#DejaVuSans-73" x="1828.650391"/>
     <use xlink:href="#DejaVuSans-69" x="1880.75"/>
     <use xlink:href="#DejaVuSans-74" x="1908.533203"/>
     <use xlink:href="#DejaVuSans-79" x="1947.742188"/>
     <use xlink:href="#DejaVuSans-20" x="2006.921875"/>
     <use xlink:href="#DejaVuSans-44" x="2038.708984"/>
     <use xlink:href="#DejaVuSans-69" x="2115.710938"/>
     <use xlink:href="#DejaVuSans-73" x="2143.494141"/>
     <use xlink:href="#DejaVuSans-74" x="2195.59375"/>
     <use xlink:href="#DejaVuSans-72" x="2234.802734"/>
     <use xlink:href="#DejaVuSans-69" x="2275.916016"/>
     <use xlink:href="#DejaVuSans-62" x="2303.699219"/>
     <use xlink:href="#DejaVuSans-75" x="2367.175781"/>
     <use xlink:href="#DejaVuSans-74" x="2430.554688"/>
     <use xlink:href="#DejaVuSans-69" x="2469.763672"/>
     <use xlink:href="#DejaVuSans-6f" x="2497.546875"/>
     <use xlink:href="#DejaVuSans-6e" x="2558.728516"/>
    </g>
   </g>
   <g id="legend_1">
    <g id="patch_7">
     <path d="M 467.823054 64.23625 
L 553.533991 64.23625 
Q 555.533991 64.23625 555.533991 62.23625 
L 555.533991 33.88 
Q 555.533991 31.88 553.533991 31.88 
L 467.823054 31.88 
Q 465.823054 31.88 465.823054 33.88 
L 465.823054 62.23625 
Q 465.823054 64.23625 467.823054 64.23625 
z
" style="fill: #ffffff; opacity: 0.8; stroke: #cccccc; stroke-linejoin: miter"/>
    </g>
    <g id="patch_8">
     <path d="M 469.823054 43.478437 
L 489.823054 43.478437 
L 489.823054 36.478437 
L 469.823054 36.478437 
z
" style="fill: #1e90ff; fill-opacity: 0.2; stroke: #1e90ff; stroke-width: 2; stroke-linejoin: miter"/>
    </g>
    <g id="text_19">
     <!-- DIA &amp; DDA -->
     <g transform="translate(497.823054 43.478437) scale(0.1 -0.1)">
      <defs>
       <path id="DejaVuSans-26" d="M 1556 2509 
Q 1272 2256 1139 2004 
Q 1006 1753 1006 1478 
Q 1006 1022 1337 719 
Q 1669 416 2169 416 
Q 2466 416 2725 514 
Q 2984 613 3213 813 
L 1556 2509 
z
M 1997 2859 
L 3584 1234 
Q 3769 1513 3872 1830 
Q 3975 2147 3994 2503 
L 4575 2503 
Q 4538 2091 4375 1687 
Q 4213 1284 3922 891 
L 4794 0 
L 4006 0 
L 3559 459 
Q 3234 181 2878 45 
Q 2522 -91 2113 -91 
Q 1359 -91 881 339 
Q 403 769 403 1441 
Q 403 1841 612 2192 
Q 822 2544 1241 2853 
Q 1091 3050 1012 3245 
Q 934 3441 934 3628 
Q 934 4134 1281 4442 
Q 1628 4750 2203 4750 
Q 2463 4750 2720 4694 
Q 2978 4638 3244 4525 
L 3244 3956 
Q 2972 4103 2725 4179 
Q 2478 4256 2266 4256 
Q 1938 4256 1733 4082 
Q 1528 3909 1528 3634 
Q 1528 3475 1620 3314 
Q 1713 3153 1997 2859 
z
" transform="scale(0.015625)"/>
      </defs>
      <use xlink:href="#DejaVuSans-44"/>
      <use xlink:href="#DejaVuSans-49" x="77.001953"/>
      <use xlink:href="#DejaVuSans-41" x="106.494141"/>
      <use xlink:href="#DejaVuSans-20" x="174.902344"/>
      <use xlink:href="#DejaVuSans-26" x="206.689453"/>
      <use xlink:href="#DejaVuSans-20" x="284.667969"/>
      <use xlink:href="#DejaVuSans-44" x="316.455078"/>
      <use xlink:href="#DejaVuSans-44" x="393.457031"/>
      <use xlink:href="#DejaVuSans-41" x="468.708984"/>
     </g>
    </g>
    <g id="patch_9">
     <path d="M 469.823054 58.156563 
L 489.823054 58.156563 
L 489.823054 51.156563 
L 469.823054 51.156563 
z
" style="fill: #b22222; fill-opacity: 0.2; stroke: #b22222; stroke-width: 2; stroke-linejoin: miter"/>
    </g>
    <g id="text_20">
     <!-- DIA-only -->
     <g transform="translate(497.823054 58.156563) scale(0.1 -0.1)">
      <defs>
       <path id="DejaVuSans-2d" d="M 313 2009 
L 1997 2009 
L 1997 1497 
L 313 1497 
L 313 2009 
z
" transform="scale(0.015625)"/>
      </defs>
      <use xlink:href="#DejaVuSans-44"/>
      <use xlink:href="#DejaVuSans-49" x="77.001953"/>
      <use xlink:href="#DejaVuSans-41" x="106.494141"/>
      <use xlink:href="#DejaVuSans-2d" x="172.652344"/>
      <use xlink:href="#DejaVuSans-6f" x="210.611328"/>
      <use xlink:href="#DejaVuSans-6e" x="271.792969"/>
      <use xlink:href="#DejaVuSans-6c" x="335.171875"/>
      <use xlink:href="#DejaVuSans-79" x="362.955078"/>
     </g>
    </g>
   </g>
  </g>
 </g>
 <defs>
  <clipPath id="pde0da392f3">
   <rect x="54.02" y="26.88" width="506.513991" height="363.16"/>
  </clipPath>
 </defs>
</svg>
