<?xml version="1.0" encoding="utf-8" standalone="no"?>
<!DOCTYPE svg PUBLIC "-//W3C//DTD SVG 1.1//EN"
  "http://www.w3.org/Graphics/SVG/1.1/DTD/svg11.dtd">
<svg xmlns:xlink="http://www.w3.org/1999/xlink" width="576pt" height="432pt" viewBox="0 0 576 432" xmlns="http://www.w3.org/2000/svg" version="1.1">
 <metadata>
  <rdf:RDF xmlns:dc="http://purl.org/dc/elements/1.1/" xmlns:cc="http://creativecommons.org/ns#" xmlns:rdf="http://www.w3.org/1999/02/22-rdf-syntax-ns#">
   <cc:Work>
    <dc:type rdf:resource="http://purl.org/dc/dcmitype/StillImage"/>
    <dc:date>2025-04-01T20:17:35.137187</dc:date>
    <dc:format>image/svg+xml</dc:format>
    <dc:creator>
     <cc:Agent>
      <dc:title>Matplotlib v3.7.2, https://matplotlib.org/</dc:title>
     </cc:Agent>
    </dc:creator>
   </cc:Work>
  </rdf:RDF>
 </metadata>
 <defs>
  <style type="text/css">*{stroke-linejoin: round; stroke-linecap: butt}</style>
 </defs>
 <g id="figure_1">
  <g id="patch_1">
   <path d="M 0 432 
L 576 432 
L 576 0 
L 0 0 
z
" style="fill: #ffffff"/>
  </g>
  <g id="axes_1">
   <g id="patch_2">
    <path d="M 72 384.48 
L 518.4 384.48 
L 518.4 51.84 
L 72 51.84 
z
" style="fill: #ffffff"/>
   </g>
   <g id="PolyCollection_1">
    <defs>
     <path id="m1850251084" d="M 92.290909 -47.520745 
L 92.290909 -47.52 
L 94.330196 -47.52 
L 96.369484 -47.52 
L 98.408771 -47.52 
L 100.448058 -47.52 
L 102.487346 -47.52 
L 104.526633 -47.52 
L 106.565921 -47.52 
L 108.605208 -47.52 
L 110.644495 -47.52 
L 112.683783 -47.52 
L 114.72307 -47.52 
L 116.762357 -47.52 
L 118.801645 -47.52 
L 120.840932 -47.52 
L 122.880219 -47.52 
L 124.919507 -47.52 
L 126.958794 -47.52 
L 128.998081 -47.52 
L 131.037369 -47.52 
L 133.076656 -47.52 
L 135.115943 -47.52 
L 137.155231 -47.52 
L 139.194518 -47.52 
L 141.233805 -47.52 
L 143.273093 -47.52 
L 145.31238 -47.52 
L 147.351667 -47.52 
L 149.390955 -47.52 
L 151.430242 -47.52 
L 153.469529 -47.52 
L 155.508817 -47.52 
L 157.548104 -47.52 
L 159.587392 -47.52 
L 161.626679 -47.52 
L 163.665966 -47.52 
L 165.705254 -47.52 
L 167.744541 -47.52 
L 169.783828 -47.52 
L 171.823116 -47.52 
L 173.862403 -47.52 
L 175.90169 -47.52 
L 177.940978 -47.52 
L 179.980265 -47.52 
L 182.019552 -47.52 
L 184.05884 -47.52 
L 186.098127 -47.52 
L 188.137414 -47.52 
L 190.176702 -47.52 
L 192.215989 -47.52 
L 194.255276 -47.52 
L 196.294564 -47.52 
L 198.333851 -47.52 
L 200.373138 -47.52 
L 202.412426 -47.52 
L 204.451713 -47.52 
L 206.491 -47.52 
L 208.530288 -47.52 
L 210.569575 -47.52 
L 212.608862 -47.52 
L 214.64815 -47.52 
L 216.687437 -47.52 
L 218.726725 -47.52 
L 220.766012 -47.52 
L 222.805299 -47.52 
L 224.844587 -47.52 
L 226.883874 -47.52 
L 228.923161 -47.52 
L 230.962449 -47.52 
L 233.001736 -47.52 
L 235.041023 -47.52 
L 237.080311 -47.52 
L 239.119598 -47.52 
L 241.158885 -47.52 
L 243.198173 -47.52 
L 245.23746 -47.52 
L 247.276747 -47.52 
L 249.316035 -47.52 
L 251.355322 -47.52 
L 253.394609 -47.52 
L 255.433897 -47.52 
L 257.473184 -47.52 
L 259.512471 -47.52 
L 261.551759 -47.52 
L 263.591046 -47.52 
L 265.630333 -47.52 
L 267.669621 -47.52 
L 269.708908 -47.52 
L 271.748196 -47.52 
L 273.787483 -47.52 
L 275.82677 -47.52 
L 277.866058 -47.52 
L 279.905345 -47.52 
L 281.944632 -47.52 
L 283.98392 -47.52 
L 286.023207 -47.52 
L 288.062494 -47.52 
L 290.101782 -47.52 
L 292.141069 -47.52 
L 294.180356 -47.52 
L 296.219644 -47.52 
L 298.258931 -47.52 
L 300.298218 -47.52 
L 302.337506 -47.52 
L 304.376793 -47.52 
L 306.41608 -47.52 
L 308.455368 -47.52 
L 310.494655 -47.52 
L 312.533942 -47.52 
L 314.57323 -47.52 
L 316.612517 -47.52 
L 318.651804 -47.52 
L 320.691092 -47.52 
L 322.730379 -47.52 
L 324.769667 -47.52 
L 326.808954 -47.52 
L 328.848241 -47.52 
L 330.887529 -47.52 
L 332.926816 -47.52 
L 334.966103 -47.52 
L 337.005391 -47.52 
L 339.044678 -47.52 
L 341.083965 -47.52 
L 343.123253 -47.52 
L 345.16254 -47.52 
L 347.201827 -47.52 
L 349.241115 -47.52 
L 351.280402 -47.52 
L 353.319689 -47.52 
L 355.358977 -47.52 
L 357.398264 -47.52 
L 359.437551 -47.52 
L 361.476839 -47.52 
L 363.516126 -47.52 
L 365.555413 -47.52 
L 367.594701 -47.52 
L 369.633988 -47.52 
L 371.673275 -47.52 
L 373.712563 -47.52 
L 375.75185 -47.52 
L 377.791138 -47.52 
L 379.830425 -47.52 
L 381.869712 -47.52 
L 383.909 -47.52 
L 385.948287 -47.52 
L 387.987574 -47.52 
L 390.026862 -47.52 
L 392.066149 -47.52 
L 394.105436 -47.52 
L 396.144724 -47.52 
L 398.184011 -47.52 
L 400.223298 -47.52 
L 402.262586 -47.52 
L 404.301873 -47.52 
L 406.34116 -47.52 
L 408.380448 -47.52 
L 410.419735 -47.52 
L 412.459022 -47.52 
L 414.49831 -47.52 
L 416.537597 -47.52 
L 418.576884 -47.52 
L 420.616172 -47.52 
L 422.655459 -47.52 
L 424.694746 -47.52 
L 426.734034 -47.52 
L 428.773321 -47.52 
L 430.812608 -47.52 
L 432.851896 -47.52 
L 434.891183 -47.52 
L 436.930471 -47.52 
L 438.969758 -47.52 
L 441.009045 -47.52 
L 443.048333 -47.52 
L 445.08762 -47.52 
L 447.126907 -47.52 
L 449.166195 -47.52 
L 451.205482 -47.52 
L 453.244769 -47.52 
L 455.284057 -47.52 
L 457.323344 -47.52 
L 459.362631 -47.52 
L 461.401919 -47.52 
L 463.441206 -47.52 
L 465.480493 -47.52 
L 467.519781 -47.52 
L 469.559068 -47.52 
L 471.598355 -47.52 
L 473.637643 -47.52 
L 475.67693 -47.52 
L 477.716217 -47.52 
L 479.755505 -47.52 
L 481.794792 -47.52 
L 483.834079 -47.52 
L 485.873367 -47.52 
L 487.912654 -47.52 
L 489.951942 -47.52 
L 491.991229 -47.52 
L 494.030516 -47.52 
L 496.069804 -47.52 
L 498.109091 -47.52 
L 498.109091 -47.52068 
L 498.109091 -47.52068 
L 496.069804 -47.521709 
L 494.030516 -47.523899 
L 491.991229 -47.528093 
L 489.951942 -47.53535 
L 487.912654 -47.546741 
L 485.873367 -47.563098 
L 483.834079 -47.584836 
L 481.794792 -47.612015 
L 479.755505 -47.644659 
L 477.716217 -47.683314 
L 475.67693 -47.729971 
L 473.637643 -47.789679 
L 471.598355 -47.872999 
L 469.559068 -47.998652 
L 467.519781 -48.194653 
L 465.480493 -48.495857 
L 463.441206 -48.936864 
L 461.401919 -49.541584 
L 459.362631 -50.313371 
L 457.323344 -51.23063 
L 455.284057 -52.250882 
L 453.244769 -53.32183 
L 451.205482 -54.393888 
L 449.166195 -55.428435 
L 447.126907 -56.399983 
L 445.08762 -57.295001 
L 443.048333 -58.111053 
L 441.009045 -58.857073 
L 438.969758 -59.552399 
L 436.930471 -60.221964 
L 434.891183 -60.888018 
L 432.851896 -61.562563 
L 430.812608 -62.246424 
L 428.773321 -62.93843 
L 426.734034 -63.651892 
L 424.694746 -64.429287 
L 422.655459 -65.34481 
L 420.616172 -66.490285 
L 418.576884 -67.949268 
L 416.537597 -69.771075 
L 414.49831 -71.95658 
L 412.459022 -74.460912 
L 410.419735 -77.208828 
L 408.380448 -80.112772 
L 406.34116 -83.085573 
L 404.301873 -86.047382 
L 402.262586 -88.93241 
L 400.223298 -91.699722 
L 398.184011 -94.34534 
L 396.144724 -96.907757 
L 394.105436 -99.460814 
L 392.066149 -102.095246 
L 390.026862 -104.89644 
L 387.987574 -107.926216 
L 385.948287 -111.211391 
L 383.909 -114.737205 
L 381.869712 -118.444368 
L 379.830425 -122.233432 
L 377.791138 -125.982449 
L 375.75185 -129.578282 
L 373.712563 -132.951868 
L 371.673275 -136.102337 
L 369.633988 -139.099501 
L 367.594701 -142.064707 
L 365.555413 -145.138491 
L 363.516126 -148.445982 
L 361.476839 -152.06929 
L 359.437551 -156.032957 
L 357.398264 -160.304921 
L 355.358977 -164.812253 
L 353.319689 -169.467916 
L 351.280402 -174.200796 
L 349.241115 -178.976394 
L 347.201827 -183.795767 
L 345.16254 -188.671701 
L 343.123253 -193.599206 
L 341.083965 -198.545428 
L 339.044678 -203.470353 
L 337.005391 -208.36337 
L 334.966103 -213.266 
L 332.926816 -218.261614 
L 330.887529 -223.438043 
L 328.848241 -228.845541 
L 326.808954 -234.469259 
L 324.769667 -240.221773 
L 322.730379 -245.95259 
L 320.691092 -251.471908 
L 318.651804 -256.58612 
L 316.612517 -261.136269 
L 314.57323 -265.023488 
L 312.533942 -268.208384 
L 310.494655 -270.686261 
L 308.455368 -272.456269 
L 306.41608 -273.506858 
L 304.376793 -273.828328 
L 302.337506 -273.443301 
L 300.298218 -272.430483 
L 298.258931 -270.917786 
L 296.219644 -269.040708 
L 294.180356 -266.889023 
L 292.141069 -264.476732 
L 290.101782 -261.753168 
L 288.062494 -258.640335 
L 286.023207 -255.064516 
L 283.98392 -250.965074 
L 281.944632 -246.29216 
L 279.905345 -241.015345 
L 277.866058 -235.147818 
L 275.82677 -228.76782 
L 273.787483 -222.015757 
L 271.748196 -215.062866 
L 269.708908 -208.066572 
L 267.669621 -201.13438 
L 265.630333 -194.312483 
L 263.591046 -187.603457 
L 261.551759 -181.002893 
L 259.512471 -174.532508 
L 257.473184 -168.246717 
L 255.433897 -162.206134 
L 253.394609 -156.43555 
L 251.355322 -150.896212 
L 249.316035 -145.492101 
L 247.276747 -140.106535 
L 245.23746 -134.648036 
L 243.198173 -129.083735 
L 241.158885 -123.449702 
L 239.119598 -117.839454 
L 237.080311 -112.378638 
L 235.041023 -107.195785 
L 233.001736 -102.39735 
L 230.962449 -98.050923 
L 228.923161 -94.176427 
L 226.883874 -90.744614 
L 224.844587 -87.684668 
L 222.805299 -84.90299 
L 220.766012 -82.310174 
L 218.726725 -79.846323 
L 216.687437 -77.493152 
L 214.64815 -75.267505 
L 212.608862 -73.200831 
L 210.569575 -71.315827 
L 208.530288 -69.611389 
L 206.491 -68.061393 
L 204.451713 -66.62569 
L 202.412426 -65.266544 
L 200.373138 -63.962423 
L 198.333851 -62.71343 
L 196.294564 -61.536954 
L 194.255276 -60.456224 
L 192.215989 -59.486829 
L 190.176702 -58.626629 
L 188.137414 -57.853192 
L 186.098127 -57.130017 
L 184.05884 -56.419236 
L 182.019552 -55.695322 
L 179.980265 -54.953538 
L 177.940978 -54.209286 
L 175.90169 -53.489206 
L 173.862403 -52.819251 
L 171.823116 -52.215838 
L 169.783828 -51.683195 
L 167.744541 -51.215571 
L 165.705254 -50.800955 
L 163.665966 -50.424366 
L 161.626679 -50.071052 
L 159.587392 -49.730305 
L 157.548104 -49.398879 
L 155.508817 -49.081936 
L 153.469529 -48.790511 
L 151.430242 -48.536732 
L 149.390955 -48.329296 
L 147.351667 -48.171009 
L 145.31238 -48.05869 
L 143.273093 -47.984622 
L 141.233805 -47.938518 
L 139.194518 -47.909372 
L 137.155231 -47.88694 
L 135.115943 -47.862951 
L 133.076656 -47.832146 
L 131.037369 -47.793093 
L 128.998081 -47.748386 
L 126.958794 -47.703754 
L 124.919507 -47.666003 
L 122.880219 -47.640404 
L 120.840932 -47.628633 
L 118.801645 -47.628148 
L 116.762357 -47.633268 
L 114.72307 -47.637399 
L 112.683783 -47.635432 
L 110.644495 -47.625317 
L 108.605208 -47.608252 
L 106.565921 -47.587603 
L 104.526633 -47.567228 
L 102.487346 -47.550047 
L 100.448058 -47.537391 
L 98.408771 -47.529149 
L 96.369484 -47.524371 
L 94.330196 -47.521895 
L 92.290909 -47.520745 
z
" style="stroke: #0000ff"/>
    </defs>
    <g clip-path="url(#p353db9966c)">
     <use xlink:href="#m1850251084" x="0" y="432" style="fill: #0000ff; fill-opacity: 0.25; stroke: #0000ff"/>
    </g>
   </g>
   <g id="PolyCollection_2">
    <defs>
     <path id="mc1b674bdd0" d="M 105.000667 -47.521287 
L 105.000667 -47.52 
L 106.737185 -47.52 
L 108.473704 -47.52 
L 110.210222 -47.52 
L 111.94674 -47.52 
L 113.683258 -47.52 
L 115.419776 -47.52 
L 117.156294 -47.52 
L 118.892813 -47.52 
L 120.629331 -47.52 
L 122.365849 -47.52 
L 124.102367 -47.52 
L 125.838885 -47.52 
L 127.575403 -47.52 
L 129.311922 -47.52 
L 131.04844 -47.52 
L 132.784958 -47.52 
L 134.521476 -47.52 
L 136.257994 -47.52 
L 137.994512 -47.52 
L 139.731031 -47.52 
L 141.467549 -47.52 
L 143.204067 -47.52 
L 144.940585 -47.52 
L 146.677103 -47.52 
L 148.413621 -47.52 
L 150.15014 -47.52 
L 151.886658 -47.52 
L 153.623176 -47.52 
L 155.359694 -47.52 
L 157.096212 -47.52 
L 158.83273 -47.52 
L 160.569249 -47.52 
L 162.305767 -47.52 
L 164.042285 -47.52 
L 165.778803 -47.52 
L 167.515321 -47.52 
L 169.251839 -47.52 
L 170.988358 -47.52 
L 172.724876 -47.52 
L 174.461394 -47.52 
L 176.197912 -47.52 
L 177.93443 -47.52 
L 179.670948 -47.52 
L 181.407467 -47.52 
L 183.143985 -47.52 
L 184.880503 -47.52 
L 186.617021 -47.52 
L 188.353539 -47.52 
L 190.090057 -47.52 
L 191.826576 -47.52 
L 193.563094 -47.52 
L 195.299612 -47.52 
L 197.03613 -47.52 
L 198.772648 -47.52 
L 200.509166 -47.52 
L 202.245685 -47.52 
L 203.982203 -47.52 
L 205.718721 -47.52 
L 207.455239 -47.52 
L 209.191757 -47.52 
L 210.928275 -47.52 
L 212.664794 -47.52 
L 214.401312 -47.52 
L 216.13783 -47.52 
L 217.874348 -47.52 
L 219.610866 -47.52 
L 221.347384 -47.52 
L 223.083903 -47.52 
L 224.820421 -47.52 
L 226.556939 -47.52 
L 228.293457 -47.52 
L 230.029975 -47.52 
L 231.766493 -47.52 
L 233.503012 -47.52 
L 235.23953 -47.52 
L 236.976048 -47.52 
L 238.712566 -47.52 
L 240.449084 -47.52 
L 242.185602 -47.52 
L 243.922121 -47.52 
L 245.658639 -47.52 
L 247.395157 -47.52 
L 249.131675 -47.52 
L 250.868193 -47.52 
L 252.604711 -47.52 
L 254.34123 -47.52 
L 256.077748 -47.52 
L 257.814266 -47.52 
L 259.550784 -47.52 
L 261.287302 -47.52 
L 263.02382 -47.52 
L 264.760339 -47.52 
L 266.496857 -47.52 
L 268.233375 -47.52 
L 269.969893 -47.52 
L 271.706411 -47.52 
L 273.442929 -47.52 
L 275.179448 -47.52 
L 276.915966 -47.52 
L 278.652484 -47.52 
L 280.389002 -47.52 
L 282.12552 -47.52 
L 283.862038 -47.52 
L 285.598557 -47.52 
L 287.335075 -47.52 
L 289.071593 -47.52 
L 290.808111 -47.52 
L 292.544629 -47.52 
L 294.281147 -47.52 
L 296.017666 -47.52 
L 297.754184 -47.52 
L 299.490702 -47.52 
L 301.22722 -47.52 
L 302.963738 -47.52 
L 304.700256 -47.52 
L 306.436775 -47.52 
L 308.173293 -47.52 
L 309.909811 -47.52 
L 311.646329 -47.52 
L 313.382847 -47.52 
L 315.119365 -47.52 
L 316.855884 -47.52 
L 318.592402 -47.52 
L 320.32892 -47.52 
L 322.065438 -47.52 
L 323.801956 -47.52 
L 325.538474 -47.52 
L 327.274993 -47.52 
L 329.011511 -47.52 
L 330.748029 -47.52 
L 332.484547 -47.52 
L 334.221065 -47.52 
L 335.957583 -47.52 
L 337.694102 -47.52 
L 339.43062 -47.52 
L 341.167138 -47.52 
L 342.903656 -47.52 
L 344.640174 -47.52 
L 346.376692 -47.52 
L 348.113211 -47.52 
L 349.849729 -47.52 
L 351.586247 -47.52 
L 353.322765 -47.52 
L 355.059283 -47.52 
L 356.795801 -47.52 
L 358.53232 -47.52 
L 360.268838 -47.52 
L 362.005356 -47.52 
L 363.741874 -47.52 
L 365.478392 -47.52 
L 367.214911 -47.52 
L 368.951429 -47.52 
L 370.687947 -47.52 
L 372.424465 -47.52 
L 374.160983 -47.52 
L 375.897501 -47.52 
L 377.63402 -47.52 
L 379.370538 -47.52 
L 381.107056 -47.52 
L 382.843574 -47.52 
L 384.580092 -47.52 
L 386.31661 -47.52 
L 388.053129 -47.52 
L 389.789647 -47.52 
L 391.526165 -47.52 
L 393.262683 -47.52 
L 394.999201 -47.52 
L 396.735719 -47.52 
L 398.472238 -47.52 
L 400.208756 -47.52 
L 401.945274 -47.52 
L 403.681792 -47.52 
L 405.41831 -47.52 
L 407.154828 -47.52 
L 408.891347 -47.52 
L 410.627865 -47.52 
L 412.364383 -47.52 
L 414.100901 -47.52 
L 415.837419 -47.52 
L 417.573937 -47.52 
L 419.310456 -47.52 
L 421.046974 -47.52 
L 422.783492 -47.52 
L 424.52001 -47.52 
L 426.256528 -47.52 
L 427.993046 -47.52 
L 429.729565 -47.52 
L 431.466083 -47.52 
L 433.202601 -47.52 
L 434.939119 -47.52 
L 436.675637 -47.52 
L 438.412155 -47.52 
L 440.148674 -47.52 
L 441.885192 -47.52 
L 443.62171 -47.52 
L 445.358228 -47.52 
L 447.094746 -47.52 
L 448.831264 -47.52 
L 450.567783 -47.52 
L 450.567783 -47.521358 
L 450.567783 -47.521358 
L 448.831264 -47.523708 
L 447.094746 -47.529096 
L 445.358228 -47.540158 
L 443.62171 -47.560662 
L 441.885192 -47.595355 
L 440.148674 -47.649688 
L 438.412155 -47.729563 
L 436.675637 -47.840867 
L 434.939119 -47.988171 
L 433.202601 -48.172094 
L 431.466083 -48.385938 
L 429.729565 -48.613389 
L 427.993046 -48.829288 
L 426.256528 -49.004468 
L 424.52001 -49.113825 
L 422.783492 -49.144817 
L 421.046974 -49.102314 
L 419.310456 -49.006666 
L 417.573937 -48.885478 
L 415.837419 -48.763607 
L 414.100901 -48.656975 
L 412.364383 -48.572908 
L 410.627865 -48.514967 
L 408.891347 -48.487295 
L 407.154828 -48.494406 
L 405.41831 -48.536759 
L 403.681792 -48.60695 
L 401.945274 -48.691735 
L 400.208756 -48.780359 
L 398.472238 -48.873832 
L 396.735719 -48.988332 
L 394.999201 -49.150046 
L 393.262683 -49.384139 
L 391.526165 -49.702675 
L 389.789647 -50.095468 
L 388.053129 -50.5273 
L 386.31661 -50.944902 
L 384.580092 -51.294303 
L 382.843574 -51.543112 
L 381.107056 -51.697889 
L 379.370538 -51.808331 
L 377.63402 -51.955691 
L 375.897501 -52.228384 
L 374.160983 -52.692109 
L 372.424465 -53.365599 
L 370.687947 -54.213407 
L 368.951429 -55.160567 
L 367.214911 -56.123242 
L 365.478392 -57.041593 
L 363.741874 -57.900419 
L 362.005356 -58.728925 
L 360.268838 -59.581186 
L 358.53232 -60.509175 
L 356.795801 -61.543409 
L 355.059283 -62.688077 
L 353.322765 -63.92522 
L 351.586247 -65.218794 
L 349.849729 -66.517543 
L 348.113211 -67.764799 
L 346.376692 -68.921579 
L 344.640174 -69.996643 
L 342.903656 -71.064698 
L 341.167138 -72.253965 
L 339.43062 -73.700427 
L 337.694102 -75.489414 
L 335.957583 -77.618516 
L 334.221065 -80.007138 
L 332.484547 -82.551401 
L 330.748029 -85.195089 
L 329.011511 -87.974853 
L 327.274993 -91.009545 
L 325.538474 -94.436508 
L 323.801956 -98.334417 
L 322.065438 -102.686621 
L 320.32892 -107.415626 
L 318.592402 -112.47015 
L 316.855884 -117.904028 
L 315.119365 -123.882427 
L 313.382847 -130.593585 
L 311.646329 -138.110189 
L 309.909811 -146.287977 
L 308.173293 -154.774693 
L 306.436775 -163.136516 
L 304.700256 -171.038422 
L 302.963738 -178.387988 
L 301.22722 -185.380203 
L 299.490702 -192.435372 
L 297.754184 -200.064148 
L 296.017666 -208.706587 
L 294.281147 -218.588817 
L 292.544629 -229.63916 
L 290.808111 -241.499588 
L 289.071593 -253.638255 
L 287.335075 -265.518898 
L 285.598557 -276.75133 
L 283.862038 -287.162381 
L 282.12552 -296.771709 
L 280.389002 -305.696984 
L 278.652484 -314.037842 
L 276.915966 -321.801896 
L 275.179448 -328.922734 
L 273.442929 -335.358928 
L 271.706411 -341.185796 
L 269.969893 -346.576796 
L 268.233375 -351.658719 
L 266.496857 -356.347228 
L 264.760339 -360.306308 
L 263.02382 -363.081834 
L 261.287302 -364.32 
L 259.550784 -363.921996 
L 257.814266 -362.049087 
L 256.077748 -359.007566 
L 254.34123 -355.109407 
L 252.604711 -350.582039 
L 250.868193 -345.535839 
L 249.131675 -339.965304 
L 247.395157 -333.779136 
L 245.658639 -326.872354 
L 243.922121 -319.222398 
L 242.185602 -310.943327 
L 240.449084 -302.241915 
L 238.712566 -293.29804 
L 236.976048 -284.161168 
L 235.23953 -274.741953 
L 233.503012 -264.900979 
L 231.766493 -254.573405 
L 230.029975 -243.861604 
L 228.293457 -233.054817 
L 226.556939 -222.562252 
L 224.820421 -212.774203 
L 223.083903 -203.903804 
L 221.347384 -195.888678 
L 219.610866 -188.412715 
L 217.874348 -181.043333 
L 216.13783 -173.412903 
L 214.401312 -165.352 
L 212.664794 -156.917675 
L 210.928275 -148.324157 
L 209.191757 -139.833918 
L 207.455239 -131.674343 
L 205.718721 -124.009818 
L 203.982203 -116.951513 
L 202.245685 -110.566076 
L 200.509166 -104.862991 
L 198.772648 -99.775547 
L 197.03613 -95.166057 
L 195.299612 -90.868554 
L 193.563094 -86.750819 
L 191.826576 -82.76132 
L 190.090057 -78.936518 
L 188.353539 -75.368253 
L 186.617021 -72.151701 
L 184.880503 -69.341706 
L 183.143985 -66.9379 
L 181.407467 -64.900864 
L 179.670948 -63.182353 
L 177.93443 -61.745177 
L 176.197912 -60.559246 
L 174.461394 -59.581319 
L 172.724876 -58.739755 
L 170.988358 -57.941359 
L 169.251839 -57.099703 
L 167.515321 -56.167898 
L 165.778803 -55.155545 
L 164.042285 -54.12046 
L 162.305767 -53.14122 
L 160.569249 -52.285542 
L 158.83273 -51.588604 
L 157.096212 -51.048453 
L 155.359694 -50.637367 
L 153.623176 -50.320759 
L 151.886658 -50.072144 
L 150.15014 -49.876444 
L 148.413621 -49.722786 
L 146.677103 -49.595065 
L 144.940585 -49.468837 
L 143.204067 -49.317752 
L 141.467549 -49.125885 
L 139.731031 -48.897738 
L 137.994512 -48.658083 
L 136.257994 -48.44004 
L 134.521476 -48.268312 
L 132.784958 -48.148298 
L 131.04844 -48.067333 
L 129.311922 -48.005425 
L 127.575403 -47.947054 
L 125.838885 -47.886737 
L 124.102367 -47.826861 
L 122.365849 -47.771713 
L 120.629331 -47.723057 
L 118.892813 -47.679816 
L 117.156294 -47.640471 
L 115.419776 -47.605089 
L 113.683258 -47.575249 
L 111.94674 -47.55253 
L 110.210222 -47.537215 
L 108.473704 -47.528144 
L 106.737185 -47.523433 
L 105.000667 -47.521287 
z
" style="stroke: #ff0000"/>
    </defs>
    <g clip-path="url(#p353db9966c)">
     <use xlink:href="#mc1b674bdd0" x="0" y="432" style="fill: #ff0000; fill-opacity: 0.25; stroke: #ff0000"/>
    </g>
   </g>
   <g id="matplotlib.axis_1">
    <g id="xtick_1">
     <g id="line2d_1">
      <defs>
       <path id="m9aeccdb471" d="M 0 0 
L 0 3.5 
" style="stroke: #000000; stroke-width: 0.8"/>
      </defs>
      <g>
       <use xlink:href="#m9aeccdb471" x="110.138368" y="384.48" style="stroke: #000000; stroke-width: 0.8"/>
      </g>
     </g>
     <g id="text_1">
      <!-- −7.5 -->
      <g transform="translate(97.996962 399.078438) scale(0.1 -0.1)">
       <defs>
        <path id="DejaVuSans-2212" d="M 678 2272 
L 4684 2272 
L 4684 1741 
L 678 1741 
L 678 2272 
z
" transform="scale(0.015625)"/>
        <path id="DejaVuSans-37" d="M 525 4666 
L 3525 4666 
L 3525 4397 
L 1831 0 
L 1172 0 
L 2766 4134 
L 525 4134 
L 525 4666 
z
" transform="scale(0.015625)"/>
        <path id="DejaVuSans-2e" d="M 684 794 
L 1344 794 
L 1344 0 
L 684 0 
L 684 794 
z
" transform="scale(0.015625)"/>
        <path id="DejaVuSans-35" d="M 691 4666 
L 3169 4666 
L 3169 4134 
L 1269 4134 
L 1269 2991 
Q 1406 3038 1543 3061 
Q 1681 3084 1819 3084 
Q 2600 3084 3056 2656 
Q 3513 2228 3513 1497 
Q 3513 744 3044 326 
Q 2575 -91 1722 -91 
Q 1428 -91 1123 -41 
Q 819 9 494 109 
L 494 744 
Q 775 591 1075 516 
Q 1375 441 1709 441 
Q 2250 441 2565 725 
Q 2881 1009 2881 1497 
Q 2881 1984 2565 2268 
Q 2250 2553 1709 2553 
Q 1456 2553 1204 2497 
Q 953 2441 691 2322 
L 691 4666 
z
" transform="scale(0.015625)"/>
       </defs>
       <use xlink:href="#DejaVuSans-2212"/>
       <use xlink:href="#DejaVuSans-37" x="83.789062"/>
       <use xlink:href="#DejaVuSans-2e" x="147.412109"/>
       <use xlink:href="#DejaVuSans-35" x="179.199219"/>
      </g>
     </g>
    </g>
    <g id="xtick_2">
     <g id="line2d_2">
      <g>
       <use xlink:href="#m9aeccdb471" x="168.84637" y="384.48" style="stroke: #000000; stroke-width: 0.8"/>
      </g>
     </g>
     <g id="text_2">
      <!-- −5.0 -->
      <g transform="translate(156.704963 399.078438) scale(0.1 -0.1)">
       <defs>
        <path id="DejaVuSans-30" d="M 2034 4250 
Q 1547 4250 1301 3770 
Q 1056 3291 1056 2328 
Q 1056 1369 1301 889 
Q 1547 409 2034 409 
Q 2525 409 2770 889 
Q 3016 1369 3016 2328 
Q 3016 3291 2770 3770 
Q 2525 4250 2034 4250 
z
M 2034 4750 
Q 2819 4750 3233 4129 
Q 3647 3509 3647 2328 
Q 3647 1150 3233 529 
Q 2819 -91 2034 -91 
Q 1250 -91 836 529 
Q 422 1150 422 2328 
Q 422 3509 836 4129 
Q 1250 4750 2034 4750 
z
" transform="scale(0.015625)"/>
       </defs>
       <use xlink:href="#DejaVuSans-2212"/>
       <use xlink:href="#DejaVuSans-35" x="83.789062"/>
       <use xlink:href="#DejaVuSans-2e" x="147.412109"/>
       <use xlink:href="#DejaVuSans-30" x="179.199219"/>
      </g>
     </g>
    </g>
    <g id="xtick_3">
     <g id="line2d_3">
      <g>
       <use xlink:href="#m9aeccdb471" x="227.554371" y="384.48" style="stroke: #000000; stroke-width: 0.8"/>
      </g>
     </g>
     <g id="text_3">
      <!-- −2.5 -->
      <g transform="translate(215.412965 399.078438) scale(0.1 -0.1)">
       <defs>
        <path id="DejaVuSans-32" d="M 1228 531 
L 3431 531 
L 3431 0 
L 469 0 
L 469 531 
Q 828 903 1448 1529 
Q 2069 2156 2228 2338 
Q 2531 2678 2651 2914 
Q 2772 3150 2772 3378 
Q 2772 3750 2511 3984 
Q 2250 4219 1831 4219 
Q 1534 4219 1204 4116 
Q 875 4013 500 3803 
L 500 4441 
Q 881 4594 1212 4672 
Q 1544 4750 1819 4750 
Q 2544 4750 2975 4387 
Q 3406 4025 3406 3419 
Q 3406 3131 3298 2873 
Q 3191 2616 2906 2266 
Q 2828 2175 2409 1742 
Q 1991 1309 1228 531 
z
" transform="scale(0.015625)"/>
       </defs>
       <use xlink:href="#DejaVuSans-2212"/>
       <use xlink:href="#DejaVuSans-32" x="83.789062"/>
       <use xlink:href="#DejaVuSans-2e" x="147.412109"/>
       <use xlink:href="#DejaVuSans-35" x="179.199219"/>
      </g>
     </g>
    </g>
    <g id="xtick_4">
     <g id="line2d_4">
      <g>
       <use xlink:href="#m9aeccdb471" x="286.262373" y="384.48" style="stroke: #000000; stroke-width: 0.8"/>
      </g>
     </g>
     <g id="text_4">
      <!-- 0.0 -->
      <g transform="translate(278.31081 399.078438) scale(0.1 -0.1)">
       <use xlink:href="#DejaVuSans-30"/>
       <use xlink:href="#DejaVuSans-2e" x="63.623047"/>
       <use xlink:href="#DejaVuSans-30" x="95.410156"/>
      </g>
     </g>
    </g>
    <g id="xtick_5">
     <g id="line2d_5">
      <g>
       <use xlink:href="#m9aeccdb471" x="344.970374" y="384.48" style="stroke: #000000; stroke-width: 0.8"/>
      </g>
     </g>
     <g id="text_5">
      <!-- 2.5 -->
      <g transform="translate(337.018812 399.078438) scale(0.1 -0.1)">
       <use xlink:href="#DejaVuSans-32"/>
       <use xlink:href="#DejaVuSans-2e" x="63.623047"/>
       <use xlink:href="#DejaVuSans-35" x="95.410156"/>
      </g>
     </g>
    </g>
    <g id="xtick_6">
     <g id="line2d_6">
      <g>
       <use xlink:href="#m9aeccdb471" x="403.678376" y="384.48" style="stroke: #000000; stroke-width: 0.8"/>
      </g>
     </g>
     <g id="text_6">
      <!-- 5.0 -->
      <g transform="translate(395.726813 399.078438) scale(0.1 -0.1)">
       <use xlink:href="#DejaVuSans-35"/>
       <use xlink:href="#DejaVuSans-2e" x="63.623047"/>
       <use xlink:href="#DejaVuSans-30" x="95.410156"/>
      </g>
     </g>
    </g>
    <g id="xtick_7">
     <g id="line2d_7">
      <g>
       <use xlink:href="#m9aeccdb471" x="462.386377" y="384.48" style="stroke: #000000; stroke-width: 0.8"/>
      </g>
     </g>
     <g id="text_7">
      <!-- 7.5 -->
      <g transform="translate(454.434815 399.078438) scale(0.1 -0.1)">
       <use xlink:href="#DejaVuSans-37"/>
       <use xlink:href="#DejaVuSans-2e" x="63.623047"/>
       <use xlink:href="#DejaVuSans-35" x="95.410156"/>
      </g>
     </g>
    </g>
    <g id="text_8">
     <!-- log2 Normalized intensity -->
     <g transform="translate(231.185937 412.756563) scale(0.1 -0.1)">
      <defs>
       <path id="DejaVuSans-6c" d="M 603 4863 
L 1178 4863 
L 1178 0 
L 603 0 
L 603 4863 
z
" transform="scale(0.015625)"/>
       <path id="DejaVuSans-6f" d="M 1959 3097 
Q 1497 3097 1228 2736 
Q 959 2375 959 1747 
Q 959 1119 1226 758 
Q 1494 397 1959 397 
Q 2419 397 2687 759 
Q 2956 1122 2956 1747 
Q 2956 2369 2687 2733 
Q 2419 3097 1959 3097 
z
M 1959 3584 
Q 2709 3584 3137 3096 
Q 3566 2609 3566 1747 
Q 3566 888 3137 398 
Q 2709 -91 1959 -91 
Q 1206 -91 779 398 
Q 353 888 353 1747 
Q 353 2609 779 3096 
Q 1206 3584 1959 3584 
z
" transform="scale(0.015625)"/>
       <path id="DejaVuSans-67" d="M 2906 1791 
Q 2906 2416 2648 2759 
Q 2391 3103 1925 3103 
Q 1463 3103 1205 2759 
Q 947 2416 947 1791 
Q 947 1169 1205 825 
Q 1463 481 1925 481 
Q 2391 481 2648 825 
Q 2906 1169 2906 1791 
z
M 3481 434 
Q 3481 -459 3084 -895 
Q 2688 -1331 1869 -1331 
Q 1566 -1331 1297 -1286 
Q 1028 -1241 775 -1147 
L 775 -588 
Q 1028 -725 1275 -790 
Q 1522 -856 1778 -856 
Q 2344 -856 2625 -561 
Q 2906 -266 2906 331 
L 2906 616 
Q 2728 306 2450 153 
Q 2172 0 1784 0 
Q 1141 0 747 490 
Q 353 981 353 1791 
Q 353 2603 747 3093 
Q 1141 3584 1784 3584 
Q 2172 3584 2450 3431 
Q 2728 3278 2906 2969 
L 2906 3500 
L 3481 3500 
L 3481 434 
z
" transform="scale(0.015625)"/>
       <path id="DejaVuSans-20" transform="scale(0.015625)"/>
       <path id="DejaVuSans-4e" d="M 628 4666 
L 1478 4666 
L 3547 763 
L 3547 4666 
L 4159 4666 
L 4159 0 
L 3309 0 
L 1241 3903 
L 1241 0 
L 628 0 
L 628 4666 
z
" transform="scale(0.015625)"/>
       <path id="DejaVuSans-72" d="M 2631 2963 
Q 2534 3019 2420 3045 
Q 2306 3072 2169 3072 
Q 1681 3072 1420 2755 
Q 1159 2438 1159 1844 
L 1159 0 
L 581 0 
L 581 3500 
L 1159 3500 
L 1159 2956 
Q 1341 3275 1631 3429 
Q 1922 3584 2338 3584 
Q 2397 3584 2469 3576 
Q 2541 3569 2628 3553 
L 2631 2963 
z
" transform="scale(0.015625)"/>
       <path id="DejaVuSans-6d" d="M 3328 2828 
Q 3544 3216 3844 3400 
Q 4144 3584 4550 3584 
Q 5097 3584 5394 3201 
Q 5691 2819 5691 2113 
L 5691 0 
L 5113 0 
L 5113 2094 
Q 5113 2597 4934 2840 
Q 4756 3084 4391 3084 
Q 3944 3084 3684 2787 
Q 3425 2491 3425 1978 
L 3425 0 
L 2847 0 
L 2847 2094 
Q 2847 2600 2669 2842 
Q 2491 3084 2119 3084 
Q 1678 3084 1418 2786 
Q 1159 2488 1159 1978 
L 1159 0 
L 581 0 
L 581 3500 
L 1159 3500 
L 1159 2956 
Q 1356 3278 1631 3431 
Q 1906 3584 2284 3584 
Q 2666 3584 2933 3390 
Q 3200 3197 3328 2828 
z
" transform="scale(0.015625)"/>
       <path id="DejaVuSans-61" d="M 2194 1759 
Q 1497 1759 1228 1600 
Q 959 1441 959 1056 
Q 959 750 1161 570 
Q 1363 391 1709 391 
Q 2188 391 2477 730 
Q 2766 1069 2766 1631 
L 2766 1759 
L 2194 1759 
z
M 3341 1997 
L 3341 0 
L 2766 0 
L 2766 531 
Q 2569 213 2275 61 
Q 1981 -91 1556 -91 
Q 1019 -91 701 211 
Q 384 513 384 1019 
Q 384 1609 779 1909 
Q 1175 2209 1959 2209 
L 2766 2209 
L 2766 2266 
Q 2766 2663 2505 2880 
Q 2244 3097 1772 3097 
Q 1472 3097 1187 3025 
Q 903 2953 641 2809 
L 641 3341 
Q 956 3463 1253 3523 
Q 1550 3584 1831 3584 
Q 2591 3584 2966 3190 
Q 3341 2797 3341 1997 
z
" transform="scale(0.015625)"/>
       <path id="DejaVuSans-69" d="M 603 3500 
L 1178 3500 
L 1178 0 
L 603 0 
L 603 3500 
z
M 603 4863 
L 1178 4863 
L 1178 4134 
L 603 4134 
L 603 4863 
z
" transform="scale(0.015625)"/>
       <path id="DejaVuSans-7a" d="M 353 3500 
L 3084 3500 
L 3084 2975 
L 922 459 
L 3084 459 
L 3084 0 
L 275 0 
L 275 525 
L 2438 3041 
L 353 3041 
L 353 3500 
z
" transform="scale(0.015625)"/>
       <path id="DejaVuSans-65" d="M 3597 1894 
L 3597 1613 
L 953 1613 
Q 991 1019 1311 708 
Q 1631 397 2203 397 
Q 2534 397 2845 478 
Q 3156 559 3463 722 
L 3463 178 
Q 3153 47 2828 -22 
Q 2503 -91 2169 -91 
Q 1331 -91 842 396 
Q 353 884 353 1716 
Q 353 2575 817 3079 
Q 1281 3584 2069 3584 
Q 2775 3584 3186 3129 
Q 3597 2675 3597 1894 
z
M 3022 2063 
Q 3016 2534 2758 2815 
Q 2500 3097 2075 3097 
Q 1594 3097 1305 2825 
Q 1016 2553 972 2059 
L 3022 2063 
z
" transform="scale(0.015625)"/>
       <path id="DejaVuSans-64" d="M 2906 2969 
L 2906 4863 
L 3481 4863 
L 3481 0 
L 2906 0 
L 2906 525 
Q 2725 213 2448 61 
Q 2172 -91 1784 -91 
Q 1150 -91 751 415 
Q 353 922 353 1747 
Q 353 2572 751 3078 
Q 1150 3584 1784 3584 
Q 2172 3584 2448 3432 
Q 2725 3281 2906 2969 
z
M 947 1747 
Q 947 1113 1208 752 
Q 1469 391 1925 391 
Q 2381 391 2643 752 
Q 2906 1113 2906 1747 
Q 2906 2381 2643 2742 
Q 2381 3103 1925 3103 
Q 1469 3103 1208 2742 
Q 947 2381 947 1747 
z
" transform="scale(0.015625)"/>
       <path id="DejaVuSans-6e" d="M 3513 2113 
L 3513 0 
L 2938 0 
L 2938 2094 
Q 2938 2591 2744 2837 
Q 2550 3084 2163 3084 
Q 1697 3084 1428 2787 
Q 1159 2491 1159 1978 
L 1159 0 
L 581 0 
L 581 3500 
L 1159 3500 
L 1159 2956 
Q 1366 3272 1645 3428 
Q 1925 3584 2291 3584 
Q 2894 3584 3203 3211 
Q 3513 2838 3513 2113 
z
" transform="scale(0.015625)"/>
       <path id="DejaVuSans-74" d="M 1172 4494 
L 1172 3500 
L 2356 3500 
L 2356 3053 
L 1172 3053 
L 1172 1153 
Q 1172 725 1289 603 
Q 1406 481 1766 481 
L 2356 481 
L 2356 0 
L 1766 0 
Q 1100 0 847 248 
Q 594 497 594 1153 
L 594 3053 
L 172 3053 
L 172 3500 
L 594 3500 
L 594 4494 
L 1172 4494 
z
" transform="scale(0.015625)"/>
       <path id="DejaVuSans-73" d="M 2834 3397 
L 2834 2853 
Q 2591 2978 2328 3040 
Q 2066 3103 1784 3103 
Q 1356 3103 1142 2972 
Q 928 2841 928 2578 
Q 928 2378 1081 2264 
Q 1234 2150 1697 2047 
L 1894 2003 
Q 2506 1872 2764 1633 
Q 3022 1394 3022 966 
Q 3022 478 2636 193 
Q 2250 -91 1575 -91 
Q 1294 -91 989 -36 
Q 684 19 347 128 
L 347 722 
Q 666 556 975 473 
Q 1284 391 1588 391 
Q 1994 391 2212 530 
Q 2431 669 2431 922 
Q 2431 1156 2273 1281 
Q 2116 1406 1581 1522 
L 1381 1569 
Q 847 1681 609 1914 
Q 372 2147 372 2553 
Q 372 3047 722 3315 
Q 1072 3584 1716 3584 
Q 2034 3584 2315 3537 
Q 2597 3491 2834 3397 
z
" transform="scale(0.015625)"/>
       <path id="DejaVuSans-79" d="M 2059 -325 
Q 1816 -950 1584 -1140 
Q 1353 -1331 966 -1331 
L 506 -1331 
L 506 -850 
L 844 -850 
Q 1081 -850 1212 -737 
Q 1344 -625 1503 -206 
L 1606 56 
L 191 3500 
L 800 3500 
L 1894 763 
L 2988 3500 
L 3597 3500 
L 2059 -325 
z
" transform="scale(0.015625)"/>
      </defs>
      <use xlink:href="#DejaVuSans-6c"/>
      <use xlink:href="#DejaVuSans-6f" x="27.783203"/>
      <use xlink:href="#DejaVuSans-67" x="88.964844"/>
      <use xlink:href="#DejaVuSans-32" x="152.441406"/>
      <use xlink:href="#DejaVuSans-20" x="216.064453"/>
      <use xlink:href="#DejaVuSans-4e" x="247.851562"/>
      <use xlink:href="#DejaVuSans-6f" x="322.65625"/>
      <use xlink:href="#DejaVuSans-72" x="383.837891"/>
      <use xlink:href="#DejaVuSans-6d" x="423.201172"/>
      <use xlink:href="#DejaVuSans-61" x="520.613281"/>
      <use xlink:href="#DejaVuSans-6c" x="581.892578"/>
      <use xlink:href="#DejaVuSans-69" x="609.675781"/>
      <use xlink:href="#DejaVuSans-7a" x="637.458984"/>
      <use xlink:href="#DejaVuSans-65" x="689.949219"/>
      <use xlink:href="#DejaVuSans-64" x="751.472656"/>
      <use xlink:href="#DejaVuSans-20" x="814.949219"/>
      <use xlink:href="#DejaVuSans-69" x="846.736328"/>
      <use xlink:href="#DejaVuSans-6e" x="874.519531"/>
      <use xlink:href="#DejaVuSans-74" x="937.898438"/>
      <use xlink:href="#DejaVuSans-65" x="977.107422"/>
      <use xlink:href="#DejaVuSans-6e" x="1038.630859"/>
      <use xlink:href="#DejaVuSans-73" x="1102.009766"/>
      <use xlink:href="#DejaVuSans-69" x="1154.109375"/>
      <use xlink:href="#DejaVuSans-74" x="1181.892578"/>
      <use xlink:href="#DejaVuSans-79" x="1221.101562"/>
     </g>
    </g>
   </g>
   <g id="matplotlib.axis_2">
    <g id="ytick_1">
     <g id="line2d_8">
      <defs>
       <path id="m6f0f1939a5" d="M 0 0 
L -3.5 0 
" style="stroke: #000000; stroke-width: 0.8"/>
      </defs>
      <g>
       <use xlink:href="#m6f0f1939a5" x="72" y="384.48" style="stroke: #000000; stroke-width: 0.8"/>
      </g>
     </g>
     <g id="text_9">
      <!-- 0.00 -->
      <g transform="translate(42.734375 388.279219) scale(0.1 -0.1)">
       <use xlink:href="#DejaVuSans-30"/>
       <use xlink:href="#DejaVuSans-2e" x="63.623047"/>
       <use xlink:href="#DejaVuSans-30" x="95.410156"/>
       <use xlink:href="#DejaVuSans-30" x="159.033203"/>
      </g>
     </g>
    </g>
    <g id="ytick_2">
     <g id="line2d_9">
      <g>
       <use xlink:href="#m6f0f1939a5" x="72" y="329.196014" style="stroke: #000000; stroke-width: 0.8"/>
      </g>
     </g>
     <g id="text_10">
      <!-- 0.05 -->
      <g transform="translate(42.734375 332.995232) scale(0.1 -0.1)">
       <use xlink:href="#DejaVuSans-30"/>
       <use xlink:href="#DejaVuSans-2e" x="63.623047"/>
       <use xlink:href="#DejaVuSans-30" x="95.410156"/>
       <use xlink:href="#DejaVuSans-35" x="159.033203"/>
      </g>
     </g>
    </g>
    <g id="ytick_3">
     <g id="line2d_10">
      <g>
       <use xlink:href="#m6f0f1939a5" x="72" y="273.912027" style="stroke: #000000; stroke-width: 0.8"/>
      </g>
     </g>
     <g id="text_11">
      <!-- 0.10 -->
      <g transform="translate(42.734375 277.711246) scale(0.1 -0.1)">
       <defs>
        <path id="DejaVuSans-31" d="M 794 531 
L 1825 531 
L 1825 4091 
L 703 3866 
L 703 4441 
L 1819 4666 
L 2450 4666 
L 2450 531 
L 3481 531 
L 3481 0 
L 794 0 
L 794 531 
z
" transform="scale(0.015625)"/>
       </defs>
       <use xlink:href="#DejaVuSans-30"/>
       <use xlink:href="#DejaVuSans-2e" x="63.623047"/>
       <use xlink:href="#DejaVuSans-31" x="95.410156"/>
       <use xlink:href="#DejaVuSans-30" x="159.033203"/>
      </g>
     </g>
    </g>
    <g id="ytick_4">
     <g id="line2d_11">
      <g>
       <use xlink:href="#m6f0f1939a5" x="72" y="218.628041" style="stroke: #000000; stroke-width: 0.8"/>
      </g>
     </g>
     <g id="text_12">
      <!-- 0.15 -->
      <g transform="translate(42.734375 222.427259) scale(0.1 -0.1)">
       <use xlink:href="#DejaVuSans-30"/>
       <use xlink:href="#DejaVuSans-2e" x="63.623047"/>
       <use xlink:href="#DejaVuSans-31" x="95.410156"/>
       <use xlink:href="#DejaVuSans-35" x="159.033203"/>
      </g>
     </g>
    </g>
    <g id="ytick_5">
     <g id="line2d_12">
      <g>
       <use xlink:href="#m6f0f1939a5" x="72" y="163.344054" style="stroke: #000000; stroke-width: 0.8"/>
      </g>
     </g>
     <g id="text_13">
      <!-- 0.20 -->
      <g transform="translate(42.734375 167.143273) scale(0.1 -0.1)">
       <use xlink:href="#DejaVuSans-30"/>
       <use xlink:href="#DejaVuSans-2e" x="63.623047"/>
       <use xlink:href="#DejaVuSans-32" x="95.410156"/>
       <use xlink:href="#DejaVuSans-30" x="159.033203"/>
      </g>
     </g>
    </g>
    <g id="ytick_6">
     <g id="line2d_13">
      <g>
       <use xlink:href="#m6f0f1939a5" x="72" y="108.060068" style="stroke: #000000; stroke-width: 0.8"/>
      </g>
     </g>
     <g id="text_14">
      <!-- 0.25 -->
      <g transform="translate(42.734375 111.859286) scale(0.1 -0.1)">
       <use xlink:href="#DejaVuSans-30"/>
       <use xlink:href="#DejaVuSans-2e" x="63.623047"/>
       <use xlink:href="#DejaVuSans-32" x="95.410156"/>
       <use xlink:href="#DejaVuSans-35" x="159.033203"/>
      </g>
     </g>
    </g>
    <g id="ytick_7">
     <g id="line2d_14">
      <g>
       <use xlink:href="#m6f0f1939a5" x="72" y="52.776081" style="stroke: #000000; stroke-width: 0.8"/>
      </g>
     </g>
     <g id="text_15">
      <!-- 0.30 -->
      <g transform="translate(42.734375 56.5753) scale(0.1 -0.1)">
       <defs>
        <path id="DejaVuSans-33" d="M 2597 2516 
Q 3050 2419 3304 2112 
Q 3559 1806 3559 1356 
Q 3559 666 3084 287 
Q 2609 -91 1734 -91 
Q 1441 -91 1130 -33 
Q 819 25 488 141 
L 488 750 
Q 750 597 1062 519 
Q 1375 441 1716 441 
Q 2309 441 2620 675 
Q 2931 909 2931 1356 
Q 2931 1769 2642 2001 
Q 2353 2234 1838 2234 
L 1294 2234 
L 1294 2753 
L 1863 2753 
Q 2328 2753 2575 2939 
Q 2822 3125 2822 3475 
Q 2822 3834 2567 4026 
Q 2313 4219 1838 4219 
Q 1578 4219 1281 4162 
Q 984 4106 628 3988 
L 628 4550 
Q 988 4650 1302 4700 
Q 1616 4750 1894 4750 
Q 2613 4750 3031 4423 
Q 3450 4097 3450 3541 
Q 3450 3153 3228 2886 
Q 3006 2619 2597 2516 
z
" transform="scale(0.015625)"/>
       </defs>
       <use xlink:href="#DejaVuSans-30"/>
       <use xlink:href="#DejaVuSans-2e" x="63.623047"/>
       <use xlink:href="#DejaVuSans-33" x="95.410156"/>
       <use xlink:href="#DejaVuSans-30" x="159.033203"/>
      </g>
     </g>
    </g>
    <g id="text_16">
     <!-- Density -->
     <g transform="translate(36.654687 237.168594) rotate(-90) scale(0.1 -0.1)">
      <defs>
       <path id="DejaVuSans-44" d="M 1259 4147 
L 1259 519 
L 2022 519 
Q 2988 519 3436 956 
Q 3884 1394 3884 2338 
Q 3884 3275 3436 3711 
Q 2988 4147 2022 4147 
L 1259 4147 
z
M 628 4666 
L 1925 4666 
Q 3281 4666 3915 4102 
Q 4550 3538 4550 2338 
Q 4550 1131 3912 565 
Q 3275 0 1925 0 
L 628 0 
L 628 4666 
z
" transform="scale(0.015625)"/>
      </defs>
      <use xlink:href="#DejaVuSans-44"/>
      <use xlink:href="#DejaVuSans-65" x="77.001953"/>
      <use xlink:href="#DejaVuSans-6e" x="138.525391"/>
      <use xlink:href="#DejaVuSans-73" x="201.904297"/>
      <use xlink:href="#DejaVuSans-69" x="254.003906"/>
      <use xlink:href="#DejaVuSans-74" x="281.787109"/>
      <use xlink:href="#DejaVuSans-79" x="320.996094"/>
     </g>
    </g>
   </g>
   <g id="patch_3">
    <path d="M 72 384.48 
L 72 51.84 
" style="fill: none; stroke: #000000; stroke-width: 0.8; stroke-linejoin: miter; stroke-linecap: square"/>
   </g>
   <g id="patch_4">
    <path d="M 518.4 384.48 
L 518.4 51.84 
" style="fill: none; stroke: #000000; stroke-width: 0.8; stroke-linejoin: miter; stroke-linecap: square"/>
   </g>
   <g id="patch_5">
    <path d="M 72 384.48 
L 518.4 384.48 
" style="fill: none; stroke: #000000; stroke-width: 0.8; stroke-linejoin: miter; stroke-linecap: square"/>
   </g>
   <g id="patch_6">
    <path d="M 72 51.84 
L 518.4 51.84 
" style="fill: none; stroke: #000000; stroke-width: 0.8; stroke-linejoin: miter; stroke-linecap: square"/>
   </g>
   <g id="text_17">
    <!-- FragPipe-DIANN 2.0.2 - precursor intensities -->
    <g transform="translate(163.276875 45.84) scale(0.12 -0.12)">
     <defs>
      <path id="DejaVuSans-46" d="M 628 4666 
L 3309 4666 
L 3309 4134 
L 1259 4134 
L 1259 2759 
L 3109 2759 
L 3109 2228 
L 1259 2228 
L 1259 0 
L 628 0 
L 628 4666 
z
" transform="scale(0.015625)"/>
      <path id="DejaVuSans-50" d="M 1259 4147 
L 1259 2394 
L 2053 2394 
Q 2494 2394 2734 2622 
Q 2975 2850 2975 3272 
Q 2975 3691 2734 3919 
Q 2494 4147 2053 4147 
L 1259 4147 
z
M 628 4666 
L 2053 4666 
Q 2838 4666 3239 4311 
Q 3641 3956 3641 3272 
Q 3641 2581 3239 2228 
Q 2838 1875 2053 1875 
L 1259 1875 
L 1259 0 
L 628 0 
L 628 4666 
z
" transform="scale(0.015625)"/>
      <path id="DejaVuSans-70" d="M 1159 525 
L 1159 -1331 
L 581 -1331 
L 581 3500 
L 1159 3500 
L 1159 2969 
Q 1341 3281 1617 3432 
Q 1894 3584 2278 3584 
Q 2916 3584 3314 3078 
Q 3713 2572 3713 1747 
Q 3713 922 3314 415 
Q 2916 -91 2278 -91 
Q 1894 -91 1617 61 
Q 1341 213 1159 525 
z
M 3116 1747 
Q 3116 2381 2855 2742 
Q 2594 3103 2138 3103 
Q 1681 3103 1420 2742 
Q 1159 2381 1159 1747 
Q 1159 1113 1420 752 
Q 1681 391 2138 391 
Q 2594 391 2855 752 
Q 3116 1113 3116 1747 
z
" transform="scale(0.015625)"/>
      <path id="DejaVuSans-2d" d="M 313 2009 
L 1997 2009 
L 1997 1497 
L 313 1497 
L 313 2009 
z
" transform="scale(0.015625)"/>
      <path id="DejaVuSans-49" d="M 628 4666 
L 1259 4666 
L 1259 0 
L 628 0 
L 628 4666 
z
" transform="scale(0.015625)"/>
      <path id="DejaVuSans-41" d="M 2188 4044 
L 1331 1722 
L 3047 1722 
L 2188 4044 
z
M 1831 4666 
L 2547 4666 
L 4325 0 
L 3669 0 
L 3244 1197 
L 1141 1197 
L 716 0 
L 50 0 
L 1831 4666 
z
" transform="scale(0.015625)"/>
      <path id="DejaVuSans-63" d="M 3122 3366 
L 3122 2828 
Q 2878 2963 2633 3030 
Q 2388 3097 2138 3097 
Q 1578 3097 1268 2742 
Q 959 2388 959 1747 
Q 959 1106 1268 751 
Q 1578 397 2138 397 
Q 2388 397 2633 464 
Q 2878 531 3122 666 
L 3122 134 
Q 2881 22 2623 -34 
Q 2366 -91 2075 -91 
Q 1284 -91 818 406 
Q 353 903 353 1747 
Q 353 2603 823 3093 
Q 1294 3584 2113 3584 
Q 2378 3584 2631 3529 
Q 2884 3475 3122 3366 
z
" transform="scale(0.015625)"/>
      <path id="DejaVuSans-75" d="M 544 1381 
L 544 3500 
L 1119 3500 
L 1119 1403 
Q 1119 906 1312 657 
Q 1506 409 1894 409 
Q 2359 409 2629 706 
Q 2900 1003 2900 1516 
L 2900 3500 
L 3475 3500 
L 3475 0 
L 2900 0 
L 2900 538 
Q 2691 219 2414 64 
Q 2138 -91 1772 -91 
Q 1169 -91 856 284 
Q 544 659 544 1381 
z
M 1991 3584 
L 1991 3584 
z
" transform="scale(0.015625)"/>
     </defs>
     <use xlink:href="#DejaVuSans-46"/>
     <use xlink:href="#DejaVuSans-72" x="50.269531"/>
     <use xlink:href="#DejaVuSans-61" x="91.382812"/>
     <use xlink:href="#DejaVuSans-67" x="152.662109"/>
     <use xlink:href="#DejaVuSans-50" x="216.138672"/>
     <use xlink:href="#DejaVuSans-69" x="274.191406"/>
     <use xlink:href="#DejaVuSans-70" x="301.974609"/>
     <use xlink:href="#DejaVuSans-65" x="365.451172"/>
     <use xlink:href="#DejaVuSans-2d" x="426.974609"/>
     <use xlink:href="#DejaVuSans-44" x="463.058594"/>
     <use xlink:href="#DejaVuSans-49" x="540.060547"/>
     <use xlink:href="#DejaVuSans-41" x="569.552734"/>
     <use xlink:href="#DejaVuSans-4e" x="637.960938"/>
     <use xlink:href="#DejaVuSans-4e" x="712.765625"/>
     <use xlink:href="#DejaVuSans-20" x="787.570312"/>
     <use xlink:href="#DejaVuSans-32" x="819.357422"/>
     <use xlink:href="#DejaVuSans-2e" x="882.980469"/>
     <use xlink:href="#DejaVuSans-30" x="914.767578"/>
     <use xlink:href="#DejaVuSans-2e" x="978.390625"/>
     <use xlink:href="#DejaVuSans-32" x="1010.177734"/>
     <use xlink:href="#DejaVuSans-20" x="1073.800781"/>
     <use xlink:href="#DejaVuSans-2d" x="1105.587891"/>
     <use xlink:href="#DejaVuSans-20" x="1141.671875"/>
     <use xlink:href="#DejaVuSans-70" x="1173.458984"/>
     <use xlink:href="#DejaVuSans-72" x="1236.935547"/>
     <use xlink:href="#DejaVuSans-65" x="1275.798828"/>
     <use xlink:href="#DejaVuSans-63" x="1337.322266"/>
     <use xlink:href="#DejaVuSans-75" x="1392.302734"/>
     <use xlink:href="#DejaVuSans-72" x="1455.681641"/>
     <use xlink:href="#DejaVuSans-73" x="1496.794922"/>
     <use xlink:href="#DejaVuSans-6f" x="1548.894531"/>
     <use xlink:href="#DejaVuSans-72" x="1610.076172"/>
     <use xlink:href="#DejaVuSans-20" x="1651.189453"/>
     <use xlink:href="#DejaVuSans-69" x="1682.976562"/>
     <use xlink:href="#DejaVuSans-6e" x="1710.759766"/>
     <use xlink:href="#DejaVuSans-74" x="1774.138672"/>
     <use xlink:href="#DejaVuSans-65" x="1813.347656"/>
     <use xlink:href="#DejaVuSans-6e" x="1874.871094"/>
     <use xlink:href="#DejaVuSans-73" x="1938.25"/>
     <use xlink:href="#DejaVuSans-69" x="1990.349609"/>
     <use xlink:href="#DejaVuSans-74" x="2018.132812"/>
     <use xlink:href="#DejaVuSans-69" x="2057.341797"/>
     <use xlink:href="#DejaVuSans-65" x="2085.125"/>
     <use xlink:href="#DejaVuSans-73" x="2146.648438"/>
    </g>
   </g>
   <g id="legend_1">
    <g id="patch_7">
     <path d="M 425.689062 89.19625 
L 511.4 89.19625 
Q 513.4 89.19625 513.4 87.19625 
L 513.4 58.84 
Q 513.4 56.84 511.4 56.84 
L 425.689062 56.84 
Q 423.689062 56.84 423.689062 58.84 
L 423.689062 87.19625 
Q 423.689062 89.19625 425.689062 89.19625 
z
" style="fill: #ffffff; opacity: 0.8; stroke: #cccccc; stroke-linejoin: miter"/>
    </g>
    <g id="patch_8">
     <path d="M 427.689062 68.438437 
L 447.689062 68.438437 
L 447.689062 61.438437 
L 427.689062 61.438437 
z
" style="fill: #0000ff; fill-opacity: 0.25; stroke: #0000ff; stroke-linejoin: miter"/>
    </g>
    <g id="text_18">
     <!-- DIA &amp; DDA -->
     <g transform="translate(455.689062 68.438437) scale(0.1 -0.1)">
      <defs>
       <path id="DejaVuSans-26" d="M 1556 2509 
Q 1272 2256 1139 2004 
Q 1006 1753 1006 1478 
Q 1006 1022 1337 719 
Q 1669 416 2169 416 
Q 2466 416 2725 514 
Q 2984 613 3213 813 
L 1556 2509 
z
M 1997 2859 
L 3584 1234 
Q 3769 1513 3872 1830 
Q 3975 2147 3994 2503 
L 4575 2503 
Q 4538 2091 4375 1687 
Q 4213 1284 3922 891 
L 4794 0 
L 4006 0 
L 3559 459 
Q 3234 181 2878 45 
Q 2522 -91 2113 -91 
Q 1359 -91 881 339 
Q 403 769 403 1441 
Q 403 1841 612 2192 
Q 822 2544 1241 2853 
Q 1091 3050 1012 3245 
Q 934 3441 934 3628 
Q 934 4134 1281 4442 
Q 1628 4750 2203 4750 
Q 2463 4750 2720 4694 
Q 2978 4638 3244 4525 
L 3244 3956 
Q 2972 4103 2725 4179 
Q 2478 4256 2266 4256 
Q 1938 4256 1733 4082 
Q 1528 3909 1528 3634 
Q 1528 3475 1620 3314 
Q 1713 3153 1997 2859 
z
" transform="scale(0.015625)"/>
      </defs>
      <use xlink:href="#DejaVuSans-44"/>
      <use xlink:href="#DejaVuSans-49" x="77.001953"/>
      <use xlink:href="#DejaVuSans-41" x="106.494141"/>
      <use xlink:href="#DejaVuSans-20" x="174.902344"/>
      <use xlink:href="#DejaVuSans-26" x="206.689453"/>
      <use xlink:href="#DejaVuSans-20" x="284.667969"/>
      <use xlink:href="#DejaVuSans-44" x="316.455078"/>
      <use xlink:href="#DejaVuSans-44" x="393.457031"/>
      <use xlink:href="#DejaVuSans-41" x="468.708984"/>
     </g>
    </g>
    <g id="patch_9">
     <path d="M 427.689062 83.116562 
L 447.689062 83.116562 
L 447.689062 76.116562 
L 427.689062 76.116562 
z
" style="fill: #ff0000; fill-opacity: 0.25; stroke: #ff0000; stroke-linejoin: miter"/>
    </g>
    <g id="text_19">
     <!-- DIA-only -->
     <g transform="translate(455.689062 83.116562) scale(0.1 -0.1)">
      <use xlink:href="#DejaVuSans-44"/>
      <use xlink:href="#DejaVuSans-49" x="77.001953"/>
      <use xlink:href="#DejaVuSans-41" x="106.494141"/>
      <use xlink:href="#DejaVuSans-2d" x="172.652344"/>
      <use xlink:href="#DejaVuSans-6f" x="210.611328"/>
      <use xlink:href="#DejaVuSans-6e" x="271.792969"/>
      <use xlink:href="#DejaVuSans-6c" x="335.171875"/>
      <use xlink:href="#DejaVuSans-79" x="362.955078"/>
     </g>
    </g>
   </g>
  </g>
 </g>
 <defs>
  <clipPath id="p353db9966c">
   <rect x="72" y="51.84" width="446.4" height="332.64"/>
  </clipPath>
 </defs>
</svg>
