<?xml version="1.0" encoding="utf-8" standalone="no"?>
<!DOCTYPE svg PUBLIC "-//W3C//DTD SVG 1.1//EN"
  "http://www.w3.org/Graphics/SVG/1.1/DTD/svg11.dtd">
<svg xmlns:xlink="http://www.w3.org/1999/xlink" width="576pt" height="432pt" viewBox="0 0 576 432" xmlns="http://www.w3.org/2000/svg" version="1.1">
 <metadata>
  <rdf:RDF xmlns:dc="http://purl.org/dc/elements/1.1/" xmlns:cc="http://creativecommons.org/ns#" xmlns:rdf="http://www.w3.org/1999/02/22-rdf-syntax-ns#">
   <cc:Work>
    <dc:type rdf:resource="http://purl.org/dc/dcmitype/StillImage"/>
    <dc:date>2025-04-01T20:17:22.818785</dc:date>
    <dc:format>image/svg+xml</dc:format>
    <dc:creator>
     <cc:Agent>
      <dc:title>Matplotlib v3.7.2, https://matplotlib.org/</dc:title>
     </cc:Agent>
    </dc:creator>
   </cc:Work>
  </rdf:RDF>
 </metadata>
 <defs>
  <style type="text/css">*{stroke-linejoin: round; stroke-linecap: butt}</style>
 </defs>
 <g id="figure_1">
  <g id="patch_1">
   <path d="M 0 432 
L 576 432 
L 576 0 
L 0 0 
z
" style="fill: #ffffff"/>
  </g>
  <g id="axes_1">
   <g id="patch_2">
    <path d="M 72 384.48 
L 518.4 384.48 
L 518.4 51.84 
L 72 51.84 
z
" style="fill: #ffffff"/>
   </g>
   <g id="PolyCollection_1">
    <defs>
     <path id="m8b0dbf45af" d="M 92.290909 -47.521962 
L 92.290909 -47.52 
L 94.330196 -47.52 
L 96.369484 -47.52 
L 98.408771 -47.52 
L 100.448058 -47.52 
L 102.487346 -47.52 
L 104.526633 -47.52 
L 106.565921 -47.52 
L 108.605208 -47.52 
L 110.644495 -47.52 
L 112.683783 -47.52 
L 114.72307 -47.52 
L 116.762357 -47.52 
L 118.801645 -47.52 
L 120.840932 -47.52 
L 122.880219 -47.52 
L 124.919507 -47.52 
L 126.958794 -47.52 
L 128.998081 -47.52 
L 131.037369 -47.52 
L 133.076656 -47.52 
L 135.115943 -47.52 
L 137.155231 -47.52 
L 139.194518 -47.52 
L 141.233805 -47.52 
L 143.273093 -47.52 
L 145.31238 -47.52 
L 147.351667 -47.52 
L 149.390955 -47.52 
L 151.430242 -47.52 
L 153.469529 -47.52 
L 155.508817 -47.52 
L 157.548104 -47.52 
L 159.587392 -47.52 
L 161.626679 -47.52 
L 163.665966 -47.52 
L 165.705254 -47.52 
L 167.744541 -47.52 
L 169.783828 -47.52 
L 171.823116 -47.52 
L 173.862403 -47.52 
L 175.90169 -47.52 
L 177.940978 -47.52 
L 179.980265 -47.52 
L 182.019552 -47.52 
L 184.05884 -47.52 
L 186.098127 -47.52 
L 188.137414 -47.52 
L 190.176702 -47.52 
L 192.215989 -47.52 
L 194.255276 -47.52 
L 196.294564 -47.52 
L 198.333851 -47.52 
L 200.373138 -47.52 
L 202.412426 -47.52 
L 204.451713 -47.52 
L 206.491 -47.52 
L 208.530288 -47.52 
L 210.569575 -47.52 
L 212.608862 -47.52 
L 214.64815 -47.52 
L 216.687437 -47.52 
L 218.726725 -47.52 
L 220.766012 -47.52 
L 222.805299 -47.52 
L 224.844587 -47.52 
L 226.883874 -47.52 
L 228.923161 -47.52 
L 230.962449 -47.52 
L 233.001736 -47.52 
L 235.041023 -47.52 
L 237.080311 -47.52 
L 239.119598 -47.52 
L 241.158885 -47.52 
L 243.198173 -47.52 
L 245.23746 -47.52 
L 247.276747 -47.52 
L 249.316035 -47.52 
L 251.355322 -47.52 
L 253.394609 -47.52 
L 255.433897 -47.52 
L 257.473184 -47.52 
L 259.512471 -47.52 
L 261.551759 -47.52 
L 263.591046 -47.52 
L 265.630333 -47.52 
L 267.669621 -47.52 
L 269.708908 -47.52 
L 271.748196 -47.52 
L 273.787483 -47.52 
L 275.82677 -47.52 
L 277.866058 -47.52 
L 279.905345 -47.52 
L 281.944632 -47.52 
L 283.98392 -47.52 
L 286.023207 -47.52 
L 288.062494 -47.52 
L 290.101782 -47.52 
L 292.141069 -47.52 
L 294.180356 -47.52 
L 296.219644 -47.52 
L 298.258931 -47.52 
L 300.298218 -47.52 
L 302.337506 -47.52 
L 304.376793 -47.52 
L 306.41608 -47.52 
L 308.455368 -47.52 
L 310.494655 -47.52 
L 312.533942 -47.52 
L 314.57323 -47.52 
L 316.612517 -47.52 
L 318.651804 -47.52 
L 320.691092 -47.52 
L 322.730379 -47.52 
L 324.769667 -47.52 
L 326.808954 -47.52 
L 328.848241 -47.52 
L 330.887529 -47.52 
L 332.926816 -47.52 
L 334.966103 -47.52 
L 337.005391 -47.52 
L 339.044678 -47.52 
L 341.083965 -47.52 
L 343.123253 -47.52 
L 345.16254 -47.52 
L 347.201827 -47.52 
L 349.241115 -47.52 
L 351.280402 -47.52 
L 353.319689 -47.52 
L 355.358977 -47.52 
L 357.398264 -47.52 
L 359.437551 -47.52 
L 361.476839 -47.52 
L 363.516126 -47.52 
L 365.555413 -47.52 
L 367.594701 -47.52 
L 369.633988 -47.52 
L 371.673275 -47.52 
L 373.712563 -47.52 
L 375.75185 -47.52 
L 377.791138 -47.52 
L 379.830425 -47.52 
L 381.869712 -47.52 
L 383.909 -47.52 
L 385.948287 -47.52 
L 387.987574 -47.52 
L 390.026862 -47.52 
L 392.066149 -47.52 
L 394.105436 -47.52 
L 396.144724 -47.52 
L 398.184011 -47.52 
L 400.223298 -47.52 
L 402.262586 -47.52 
L 404.301873 -47.52 
L 406.34116 -47.52 
L 408.380448 -47.52 
L 410.419735 -47.52 
L 412.459022 -47.52 
L 414.49831 -47.52 
L 416.537597 -47.52 
L 418.576884 -47.52 
L 420.616172 -47.52 
L 422.655459 -47.52 
L 424.694746 -47.52 
L 426.734034 -47.52 
L 428.773321 -47.52 
L 430.812608 -47.52 
L 432.851896 -47.52 
L 434.891183 -47.52 
L 436.930471 -47.52 
L 438.969758 -47.52 
L 441.009045 -47.52 
L 443.048333 -47.52 
L 445.08762 -47.52 
L 447.126907 -47.52 
L 449.166195 -47.52 
L 451.205482 -47.52 
L 453.244769 -47.52 
L 455.284057 -47.52 
L 457.323344 -47.52 
L 459.362631 -47.52 
L 461.401919 -47.52 
L 463.441206 -47.52 
L 465.480493 -47.52 
L 467.519781 -47.52 
L 469.559068 -47.52 
L 471.598355 -47.52 
L 473.637643 -47.52 
L 475.67693 -47.52 
L 477.716217 -47.52 
L 479.755505 -47.52 
L 481.794792 -47.52 
L 483.834079 -47.52 
L 485.873367 -47.52 
L 487.912654 -47.52 
L 489.951942 -47.52 
L 491.991229 -47.52 
L 494.030516 -47.52 
L 496.069804 -47.52 
L 498.109091 -47.52 
L 498.109091 -47.52069 
L 498.109091 -47.52069 
L 496.069804 -47.521849 
L 494.030516 -47.524454 
L 491.991229 -47.529673 
L 489.951942 -47.539012 
L 487.912654 -47.554002 
L 485.873367 -47.575726 
L 483.834079 -47.604449 
L 481.794792 -47.639588 
L 479.755505 -47.67998 
L 477.716217 -47.72406 
L 475.67693 -47.769503 
L 473.637643 -47.812402 
L 471.598355 -47.846772 
L 469.559068 -47.865341 
L 467.519781 -47.861953 
L 465.480493 -47.834627 
L 463.441206 -47.787497 
L 461.401919 -47.730214 
L 459.362631 -47.674971 
L 457.323344 -47.632816 
L 455.284057 -47.611362 
L 453.244769 -47.614961 
L 451.205482 -47.646917 
L 449.166195 -47.712105 
L 447.126907 -47.818149 
L 445.08762 -47.974057 
L 443.048333 -48.186846 
L 441.009045 -48.458386 
L 438.969758 -48.784869 
L 436.930471 -49.15936 
L 434.891183 -49.575145 
L 432.851896 -50.026986 
L 430.812608 -50.509773 
L 428.773321 -51.016965 
L 426.734034 -51.541425 
L 424.694746 -52.078688 
L 422.655459 -52.629981 
L 420.616172 -53.202182 
L 418.576884 -53.804175 
L 416.537597 -54.442032 
L 414.49831 -55.116775 
L 412.459022 -55.826574 
L 410.419735 -56.571041 
L 408.380448 -57.352863 
L 406.34116 -58.174855 
L 404.301873 -59.036135 
L 402.262586 -59.932999 
L 400.223298 -60.865346 
L 398.184011 -61.843093 
L 396.144724 -62.886024 
L 394.105436 -64.015841 
L 392.066149 -65.245065 
L 390.026862 -66.56909 
L 387.987574 -67.964968 
L 385.948287 -69.396846 
L 383.909 -70.826163 
L 381.869712 -72.225095 
L 379.830425 -73.59158 
L 377.791138 -74.960608 
L 375.75185 -76.401786 
L 373.712563 -77.995916 
L 371.673275 -79.797859 
L 369.633988 -81.808522 
L 367.594701 -83.977806 
L 365.555413 -86.238495 
L 363.516126 -88.54685 
L 361.476839 -90.90198 
L 359.437551 -93.335935 
L 357.398264 -95.89026 
L 355.358977 -98.601021 
L 353.319689 -101.500269 
L 351.280402 -104.623062 
L 349.241115 -108.003182 
L 347.201827 -111.652372 
L 345.16254 -115.536062 
L 343.123253 -119.566658 
L 341.083965 -123.625431 
L 339.044678 -127.603344 
L 337.005391 -131.436495 
L 334.966103 -135.115789 
L 332.926816 -138.670601 
L 330.887529 -142.14519 
L 328.848241 -145.586416 
L 326.808954 -149.04267 
L 324.769667 -152.559079 
L 322.730379 -156.162693 
L 320.691092 -159.85409 
L 318.651804 -163.627732 
L 316.612517 -167.517669 
L 314.57323 -171.631308 
L 312.533942 -176.1307 
L 310.494655 -181.158995 
L 308.455368 -186.757804 
L 306.41608 -192.834874 
L 304.376793 -199.206128 
L 302.337506 -205.681256 
L 300.298218 -212.134075 
L 298.258931 -218.518681 
L 296.219644 -224.837708 
L 294.180356 -231.097862 
L 292.141069 -237.279955 
L 290.101782 -243.324204 
L 288.062494 -249.120106 
L 286.023207 -254.504559 
L 283.98392 -259.288319 
L 281.944632 -263.318833 
L 279.905345 -266.548532 
L 277.866058 -269.052862 
L 275.82677 -270.97008 
L 273.787483 -272.402108 
L 271.748196 -273.359305 
L 269.708908 -273.800975 
L 267.669621 -273.737837 
L 265.630333 -273.300655 
L 263.591046 -272.700811 
L 261.551759 -272.096374 
L 259.512471 -271.455912 
L 257.473184 -270.520037 
L 255.433897 -268.897135 
L 253.394609 -266.243719 
L 251.355322 -262.427212 
L 249.316035 -257.580309 
L 247.276747 -252.022558 
L 245.23746 -246.101818 
L 243.198173 -240.045764 
L 241.158885 -233.894347 
L 239.119598 -227.532324 
L 237.080311 -220.791799 
L 235.041023 -213.567305 
L 233.001736 -205.885603 
L 230.962449 -197.899586 
L 228.923161 -189.819174 
L 226.883874 -181.825342 
L 224.844587 -174.014541 
L 222.805299 -166.394345 
L 220.766012 -158.920567 
L 218.726725 -151.549448 
L 216.687437 -144.278389 
L 214.64815 -137.159955 
L 212.608862 -130.289781 
L 210.569575 -123.78064 
L 208.530288 -117.735007 
L 206.491 -112.220431 
L 204.451713 -107.248081 
L 202.412426 -102.760157 
L 200.373138 -98.637156 
L 198.333851 -94.730404 
L 196.294564 -90.910972 
L 194.255276 -87.115083 
L 192.215989 -83.365689 
L 190.176702 -79.759112 
L 188.137414 -76.420656 
L 186.098127 -73.448487 
L 184.05884 -70.872591 
L 182.019552 -68.648197 
L 179.980265 -66.683963 
L 177.940978 -64.886815 
L 175.90169 -63.198494 
L 173.862403 -61.606057 
L 171.823116 -60.124826 
L 169.783828 -58.768689 
L 167.744541 -57.529551 
L 165.705254 -56.379534 
L 163.665966 -55.291743 
L 161.626679 -54.26139 
L 159.587392 -53.309977 
L 157.548104 -52.469596 
L 155.508817 -51.76015 
L 153.469529 -51.176574 
L 151.430242 -50.693685 
L 149.390955 -50.282132 
L 147.351667 -49.922352 
L 145.31238 -49.608184 
L 143.273093 -49.341376 
L 141.233805 -49.123618 
L 139.194518 -48.951408 
L 137.155231 -48.815102 
L 135.115943 -48.701188 
L 133.076656 -48.596425 
L 131.037369 -48.492255 
L 128.998081 -48.387305 
L 126.958794 -48.286381 
L 124.919507 -48.196423 
L 122.880219 -48.122036 
L 120.840932 -48.063228 
L 118.801645 -48.016014 
L 116.762357 -47.974518 
L 114.72307 -47.932899 
L 112.683783 -47.886586 
L 110.644495 -47.83326 
L 108.605208 -47.773731 
L 106.565921 -47.712053 
L 104.526633 -47.654211 
L 102.487346 -47.605761 
L 100.448058 -47.569745 
L 98.408771 -47.546053 
L 96.369484 -47.532273 
L 94.330196 -47.525186 
L 92.290909 -47.521962 
z
" style="stroke: #0000ff"/>
    </defs>
    <g clip-path="url(#p0bea3a2d37)">
     <use xlink:href="#m8b0dbf45af" x="0" y="432" style="fill: #0000ff; fill-opacity: 0.25; stroke: #0000ff"/>
    </g>
   </g>
   <g id="PolyCollection_2">
    <defs>
     <path id="mdec1c387a8" d="M 94.985584 -47.522558 
L 94.985584 -47.52 
L 96.653331 -47.52 
L 98.321079 -47.52 
L 99.988827 -47.52 
L 101.656575 -47.52 
L 103.324322 -47.52 
L 104.99207 -47.52 
L 106.659818 -47.52 
L 108.327566 -47.52 
L 109.995313 -47.52 
L 111.663061 -47.52 
L 113.330809 -47.52 
L 114.998556 -47.52 
L 116.666304 -47.52 
L 118.334052 -47.52 
L 120.0018 -47.52 
L 121.669547 -47.52 
L 123.337295 -47.52 
L 125.005043 -47.52 
L 126.672791 -47.52 
L 128.340538 -47.52 
L 130.008286 -47.52 
L 131.676034 -47.52 
L 133.343781 -47.52 
L 135.011529 -47.52 
L 136.679277 -47.52 
L 138.347025 -47.52 
L 140.014772 -47.52 
L 141.68252 -47.52 
L 143.350268 -47.52 
L 145.018016 -47.52 
L 146.685763 -47.52 
L 148.353511 -47.52 
L 150.021259 -47.52 
L 151.689006 -47.52 
L 153.356754 -47.52 
L 155.024502 -47.52 
L 156.69225 -47.52 
L 158.359997 -47.52 
L 160.027745 -47.52 
L 161.695493 -47.52 
L 163.36324 -47.52 
L 165.030988 -47.52 
L 166.698736 -47.52 
L 168.366484 -47.52 
L 170.034231 -47.52 
L 171.701979 -47.52 
L 173.369727 -47.52 
L 175.037475 -47.52 
L 176.705222 -47.52 
L 178.37297 -47.52 
L 180.040718 -47.52 
L 181.708465 -47.52 
L 183.376213 -47.52 
L 185.043961 -47.52 
L 186.711709 -47.52 
L 188.379456 -47.52 
L 190.047204 -47.52 
L 191.714952 -47.52 
L 193.3827 -47.52 
L 195.050447 -47.52 
L 196.718195 -47.52 
L 198.385943 -47.52 
L 200.05369 -47.52 
L 201.721438 -47.52 
L 203.389186 -47.52 
L 205.056934 -47.52 
L 206.724681 -47.52 
L 208.392429 -47.52 
L 210.060177 -47.52 
L 211.727925 -47.52 
L 213.395672 -47.52 
L 215.06342 -47.52 
L 216.731168 -47.52 
L 218.398915 -47.52 
L 220.066663 -47.52 
L 221.734411 -47.52 
L 223.402159 -47.52 
L 225.069906 -47.52 
L 226.737654 -47.52 
L 228.405402 -47.52 
L 230.073149 -47.52 
L 231.740897 -47.52 
L 233.408645 -47.52 
L 235.076393 -47.52 
L 236.74414 -47.52 
L 238.411888 -47.52 
L 240.079636 -47.52 
L 241.747384 -47.52 
L 243.415131 -47.52 
L 245.082879 -47.52 
L 246.750627 -47.52 
L 248.418374 -47.52 
L 250.086122 -47.52 
L 251.75387 -47.52 
L 253.421618 -47.52 
L 255.089365 -47.52 
L 256.757113 -47.52 
L 258.424861 -47.52 
L 260.092609 -47.52 
L 261.760356 -47.52 
L 263.428104 -47.52 
L 265.095852 -47.52 
L 266.763599 -47.52 
L 268.431347 -47.52 
L 270.099095 -47.52 
L 271.766843 -47.52 
L 273.43459 -47.52 
L 275.102338 -47.52 
L 276.770086 -47.52 
L 278.437834 -47.52 
L 280.105581 -47.52 
L 281.773329 -47.52 
L 283.441077 -47.52 
L 285.108824 -47.52 
L 286.776572 -47.52 
L 288.44432 -47.52 
L 290.112068 -47.52 
L 291.779815 -47.52 
L 293.447563 -47.52 
L 295.115311 -47.52 
L 296.783058 -47.52 
L 298.450806 -47.52 
L 300.118554 -47.52 
L 301.786302 -47.52 
L 303.454049 -47.52 
L 305.121797 -47.52 
L 306.789545 -47.52 
L 308.457293 -47.52 
L 310.12504 -47.52 
L 311.792788 -47.52 
L 313.460536 -47.52 
L 315.128283 -47.52 
L 316.796031 -47.52 
L 318.463779 -47.52 
L 320.131527 -47.52 
L 321.799274 -47.52 
L 323.467022 -47.52 
L 325.13477 -47.52 
L 326.802518 -47.52 
L 328.470265 -47.52 
L 330.138013 -47.52 
L 331.805761 -47.52 
L 333.473508 -47.52 
L 335.141256 -47.52 
L 336.809004 -47.52 
L 338.476752 -47.52 
L 340.144499 -47.52 
L 341.812247 -47.52 
L 343.479995 -47.52 
L 345.147742 -47.52 
L 346.81549 -47.52 
L 348.483238 -47.52 
L 350.150986 -47.52 
L 351.818733 -47.52 
L 353.486481 -47.52 
L 355.154229 -47.52 
L 356.821977 -47.52 
L 358.489724 -47.52 
L 360.157472 -47.52 
L 361.82522 -47.52 
L 363.492967 -47.52 
L 365.160715 -47.52 
L 366.828463 -47.52 
L 368.496211 -47.52 
L 370.163958 -47.52 
L 371.831706 -47.52 
L 373.499454 -47.52 
L 375.167202 -47.52 
L 376.834949 -47.52 
L 378.502697 -47.52 
L 380.170445 -47.52 
L 381.838192 -47.52 
L 383.50594 -47.52 
L 385.173688 -47.52 
L 386.841436 -47.52 
L 388.509183 -47.52 
L 390.176931 -47.52 
L 391.844679 -47.52 
L 393.512427 -47.52 
L 395.180174 -47.52 
L 396.847922 -47.52 
L 398.51567 -47.52 
L 400.183417 -47.52 
L 401.851165 -47.52 
L 403.518913 -47.52 
L 405.186661 -47.52 
L 406.854408 -47.52 
L 408.522156 -47.52 
L 410.189904 -47.52 
L 411.857651 -47.52 
L 413.525399 -47.52 
L 415.193147 -47.52 
L 416.860895 -47.52 
L 418.528642 -47.52 
L 420.19639 -47.52 
L 421.864138 -47.52 
L 423.531886 -47.52 
L 425.199633 -47.52 
L 426.867381 -47.52 
L 426.867381 -47.521719 
L 426.867381 -47.521719 
L 425.199633 -47.524548 
L 423.531886 -47.53082 
L 421.864138 -47.543167 
L 420.19639 -47.56469 
L 418.528642 -47.597786 
L 416.860895 -47.642464 
L 415.193147 -47.695085 
L 413.525399 -47.748811 
L 411.857651 -47.796326 
L 410.189904 -47.833796 
L 408.522156 -47.863751 
L 406.854408 -47.894859 
L 405.186661 -47.938542 
L 403.518913 -48.00442 
L 401.851165 -48.097099 
L 400.183417 -48.215589 
L 398.51567 -48.35469 
L 396.847922 -48.506636 
L 395.180174 -48.661598 
L 393.512427 -48.807256 
L 391.844679 -48.929112 
L 390.176931 -49.013353 
L 388.509183 -49.05239 
L 386.841436 -49.050588 
L 385.173688 -49.026286 
L 383.50594 -49.007289 
L 381.838192 -49.020524 
L 380.170445 -49.080673 
L 378.502697 -49.184293 
L 376.834949 -49.313441 
L 375.167202 -49.446889 
L 373.499454 -49.571665 
L 371.831706 -49.687009 
L 370.163958 -49.798348 
L 368.496211 -49.906856 
L 366.828463 -50.004465 
L 365.160715 -50.080325 
L 363.492967 -50.134839 
L 361.82522 -50.189667 
L 360.157472 -50.28393 
L 358.489724 -50.457562 
L 356.821977 -50.733095 
L 355.154229 -51.107997 
L 353.486481 -51.560713 
L 351.818733 -52.063456 
L 350.150986 -52.592185 
L 348.483238 -53.129918 
L 346.81549 -53.666373 
L 345.147742 -54.198248 
L 343.479995 -54.730467 
L 341.812247 -55.275046 
L 340.144499 -55.844906 
L 338.476752 -56.444142 
L 336.809004 -57.060435 
L 335.141256 -57.666722 
L 333.473508 -58.235548 
L 331.805761 -58.760785 
L 330.138013 -59.272568 
L 328.470265 -59.832018 
L 326.802518 -60.506399 
L 325.13477 -61.342359 
L 323.467022 -62.357429 
L 321.799274 -63.553048 
L 320.131527 -64.932029 
L 318.463779 -66.500345 
L 316.796031 -68.25096 
L 315.128283 -70.148316 
L 313.460536 -72.135624 
L 311.792788 -74.169287 
L 310.12504 -76.260217 
L 308.457293 -78.490714 
L 306.789545 -80.988246 
L 305.121797 -83.866606 
L 303.454049 -87.169208 
L 301.786302 -90.849386 
L 300.118554 -94.797401 
L 298.450806 -98.893832 
L 296.783058 -103.057062 
L 295.115311 -107.263512 
L 293.447563 -111.538712 
L 291.779815 -115.929784 
L 290.112068 -120.473121 
L 288.44432 -125.171515 
L 286.776572 -129.994657 
L 285.108824 -134.910173 
L 283.441077 -139.934707 
L 281.773329 -145.173889 
L 280.105581 -150.815121 
L 278.437834 -157.061527 
L 276.770086 -164.038107 
L 275.102338 -171.728995 
L 273.43459 -179.990772 
L 271.766843 -188.637971 
L 270.099095 -197.54833 
L 268.431347 -206.720238 
L 266.763599 -216.242305 
L 265.095852 -226.189645 
L 263.428104 -236.510381 
L 261.760356 -246.974243 
L 260.092609 -257.213265 
L 258.424861 -266.825829 
L 256.757113 -275.488795 
L 255.089365 -283.041095 
L 253.421618 -289.530183 
L 251.75387 -295.215903 
L 250.086122 -300.516375 
L 248.418374 -305.893706 
L 246.750627 -311.716549 
L 245.082879 -318.161027 
L 243.415131 -325.18875 
L 241.747384 -332.588901 
L 240.079636 -340.039047 
L 238.411888 -347.151034 
L 236.74414 -353.503089 
L 235.076393 -358.679132 
L 233.408645 -362.326525 
L 231.740897 -364.221448 
L 230.073149 -364.32 
L 228.405402 -362.775905 
L 226.737654 -359.910707 
L 225.069906 -356.128502 
L 223.402159 -351.787593 
L 221.734411 -347.075484 
L 220.066663 -341.952478 
L 218.398915 -336.204002 
L 216.731168 -329.581171 
L 215.06342 -321.955417 
L 213.395672 -313.403192 
L 211.727925 -304.175871 
L 210.060177 -294.574854 
L 208.392429 -284.80681 
L 206.724681 -274.905419 
L 205.056934 -264.761539 
L 203.389186 -254.229908 
L 201.721438 -243.232657 
L 200.05369 -231.796892 
L 198.385943 -220.028247 
L 196.718195 -208.072506 
L 195.050447 -196.107783 
L 193.3827 -184.358244 
L 191.714952 -173.086911 
L 190.047204 -162.544739 
L 188.379456 -152.900548 
L 186.711709 -144.199493 
L 185.043961 -136.375994 
L 183.376213 -129.306333 
L 181.708465 -122.863995 
L 180.040718 -116.949258 
L 178.37297 -111.487642 
L 176.705222 -106.40965 
L 175.037475 -101.630166 
L 173.369727 -97.043781 
L 171.701979 -92.545351 
L 170.034231 -88.071872 
L 168.366484 -83.644906 
L 166.698736 -79.383747 
L 165.030988 -75.470724 
L 163.36324 -72.079003 
L 161.695493 -69.299663 
L 160.027745 -67.10711 
L 158.359997 -65.378225 
L 156.69225 -63.949476 
L 155.024502 -62.678749 
L 153.356754 -61.482277 
L 151.689006 -60.334963 
L 150.021259 -59.243027 
L 148.353511 -58.211039 
L 146.685763 -57.224842 
L 145.018016 -56.258447 
L 143.350268 -55.29549 
L 141.68252 -54.346688 
L 140.014772 -53.449742 
L 138.347025 -52.65206 
L 136.679277 -51.988052 
L 135.011529 -51.464052 
L 133.343781 -51.057027 
L 131.676034 -50.725001 
L 130.008286 -50.422805 
L 128.340538 -50.116442 
L 126.672791 -49.791242 
L 125.005043 -49.451871 
L 123.337295 -49.115678 
L 121.669547 -48.803567 
L 120.0018 -48.532731 
L 118.334052 -48.313223 
L 116.666304 -48.147415 
L 114.998556 -48.03045 
L 113.330809 -47.951092 
L 111.663061 -47.89396 
L 109.995313 -47.843848 
L 108.327566 -47.790699 
L 106.659818 -47.732371 
L 104.99207 -47.673405 
L 103.324322 -47.620832 
L 101.656575 -47.579894 
L 99.988827 -47.552024 
L 98.321079 -47.535379 
L 96.653331 -47.526625 
L 94.985584 -47.522558 
z
" style="stroke: #ff0000"/>
    </defs>
    <g clip-path="url(#p0bea3a2d37)">
     <use xlink:href="#mdec1c387a8" x="0" y="432" style="fill: #ff0000; fill-opacity: 0.25; stroke: #ff0000"/>
    </g>
   </g>
   <g id="matplotlib.axis_1">
    <g id="xtick_1">
     <g id="line2d_1">
      <defs>
       <path id="m6949350b73" d="M 0 0 
L 0 3.5 
" style="stroke: #000000; stroke-width: 0.8"/>
      </defs>
      <g>
       <use xlink:href="#m6949350b73" x="104.504219" y="384.48" style="stroke: #000000; stroke-width: 0.8"/>
      </g>
     </g>
     <g id="text_1">
      <!-- −7.5 -->
      <g transform="translate(92.362813 399.078438) scale(0.1 -0.1)">
       <defs>
        <path id="DejaVuSans-2212" d="M 678 2272 
L 4684 2272 
L 4684 1741 
L 678 1741 
L 678 2272 
z
" transform="scale(0.015625)"/>
        <path id="DejaVuSans-37" d="M 525 4666 
L 3525 4666 
L 3525 4397 
L 1831 0 
L 1172 0 
L 2766 4134 
L 525 4134 
L 525 4666 
z
" transform="scale(0.015625)"/>
        <path id="DejaVuSans-2e" d="M 684 794 
L 1344 794 
L 1344 0 
L 684 0 
L 684 794 
z
" transform="scale(0.015625)"/>
        <path id="DejaVuSans-35" d="M 691 4666 
L 3169 4666 
L 3169 4134 
L 1269 4134 
L 1269 2991 
Q 1406 3038 1543 3061 
Q 1681 3084 1819 3084 
Q 2600 3084 3056 2656 
Q 3513 2228 3513 1497 
Q 3513 744 3044 326 
Q 2575 -91 1722 -91 
Q 1428 -91 1123 -41 
Q 819 9 494 109 
L 494 744 
Q 775 591 1075 516 
Q 1375 441 1709 441 
Q 2250 441 2565 725 
Q 2881 1009 2881 1497 
Q 2881 1984 2565 2268 
Q 2250 2553 1709 2553 
Q 1456 2553 1204 2497 
Q 953 2441 691 2322 
L 691 4666 
z
" transform="scale(0.015625)"/>
       </defs>
       <use xlink:href="#DejaVuSans-2212"/>
       <use xlink:href="#DejaVuSans-37" x="83.789062"/>
       <use xlink:href="#DejaVuSans-2e" x="147.412109"/>
       <use xlink:href="#DejaVuSans-35" x="179.199219"/>
      </g>
     </g>
    </g>
    <g id="xtick_2">
     <g id="line2d_2">
      <g>
       <use xlink:href="#m6949350b73" x="155.440693" y="384.48" style="stroke: #000000; stroke-width: 0.8"/>
      </g>
     </g>
     <g id="text_2">
      <!-- −5.0 -->
      <g transform="translate(143.299286 399.078438) scale(0.1 -0.1)">
       <defs>
        <path id="DejaVuSans-30" d="M 2034 4250 
Q 1547 4250 1301 3770 
Q 1056 3291 1056 2328 
Q 1056 1369 1301 889 
Q 1547 409 2034 409 
Q 2525 409 2770 889 
Q 3016 1369 3016 2328 
Q 3016 3291 2770 3770 
Q 2525 4250 2034 4250 
z
M 2034 4750 
Q 2819 4750 3233 4129 
Q 3647 3509 3647 2328 
Q 3647 1150 3233 529 
Q 2819 -91 2034 -91 
Q 1250 -91 836 529 
Q 422 1150 422 2328 
Q 422 3509 836 4129 
Q 1250 4750 2034 4750 
z
" transform="scale(0.015625)"/>
       </defs>
       <use xlink:href="#DejaVuSans-2212"/>
       <use xlink:href="#DejaVuSans-35" x="83.789062"/>
       <use xlink:href="#DejaVuSans-2e" x="147.412109"/>
       <use xlink:href="#DejaVuSans-30" x="179.199219"/>
      </g>
     </g>
    </g>
    <g id="xtick_3">
     <g id="line2d_3">
      <g>
       <use xlink:href="#m6949350b73" x="206.377166" y="384.48" style="stroke: #000000; stroke-width: 0.8"/>
      </g>
     </g>
     <g id="text_3">
      <!-- −2.5 -->
      <g transform="translate(194.23576 399.078438) scale(0.1 -0.1)">
       <defs>
        <path id="DejaVuSans-32" d="M 1228 531 
L 3431 531 
L 3431 0 
L 469 0 
L 469 531 
Q 828 903 1448 1529 
Q 2069 2156 2228 2338 
Q 2531 2678 2651 2914 
Q 2772 3150 2772 3378 
Q 2772 3750 2511 3984 
Q 2250 4219 1831 4219 
Q 1534 4219 1204 4116 
Q 875 4013 500 3803 
L 500 4441 
Q 881 4594 1212 4672 
Q 1544 4750 1819 4750 
Q 2544 4750 2975 4387 
Q 3406 4025 3406 3419 
Q 3406 3131 3298 2873 
Q 3191 2616 2906 2266 
Q 2828 2175 2409 1742 
Q 1991 1309 1228 531 
z
" transform="scale(0.015625)"/>
       </defs>
       <use xlink:href="#DejaVuSans-2212"/>
       <use xlink:href="#DejaVuSans-32" x="83.789062"/>
       <use xlink:href="#DejaVuSans-2e" x="147.412109"/>
       <use xlink:href="#DejaVuSans-35" x="179.199219"/>
      </g>
     </g>
    </g>
    <g id="xtick_4">
     <g id="line2d_4">
      <g>
       <use xlink:href="#m6949350b73" x="257.31364" y="384.48" style="stroke: #000000; stroke-width: 0.8"/>
      </g>
     </g>
     <g id="text_4">
      <!-- 0.0 -->
      <g transform="translate(249.362078 399.078438) scale(0.1 -0.1)">
       <use xlink:href="#DejaVuSans-30"/>
       <use xlink:href="#DejaVuSans-2e" x="63.623047"/>
       <use xlink:href="#DejaVuSans-30" x="95.410156"/>
      </g>
     </g>
    </g>
    <g id="xtick_5">
     <g id="line2d_5">
      <g>
       <use xlink:href="#m6949350b73" x="308.250114" y="384.48" style="stroke: #000000; stroke-width: 0.8"/>
      </g>
     </g>
     <g id="text_5">
      <!-- 2.5 -->
      <g transform="translate(300.298551 399.078438) scale(0.1 -0.1)">
       <use xlink:href="#DejaVuSans-32"/>
       <use xlink:href="#DejaVuSans-2e" x="63.623047"/>
       <use xlink:href="#DejaVuSans-35" x="95.410156"/>
      </g>
     </g>
    </g>
    <g id="xtick_6">
     <g id="line2d_6">
      <g>
       <use xlink:href="#m6949350b73" x="359.186588" y="384.48" style="stroke: #000000; stroke-width: 0.8"/>
      </g>
     </g>
     <g id="text_6">
      <!-- 5.0 -->
      <g transform="translate(351.235025 399.078438) scale(0.1 -0.1)">
       <use xlink:href="#DejaVuSans-35"/>
       <use xlink:href="#DejaVuSans-2e" x="63.623047"/>
       <use xlink:href="#DejaVuSans-30" x="95.410156"/>
      </g>
     </g>
    </g>
    <g id="xtick_7">
     <g id="line2d_7">
      <g>
       <use xlink:href="#m6949350b73" x="410.123061" y="384.48" style="stroke: #000000; stroke-width: 0.8"/>
      </g>
     </g>
     <g id="text_7">
      <!-- 7.5 -->
      <g transform="translate(402.171499 399.078438) scale(0.1 -0.1)">
       <use xlink:href="#DejaVuSans-37"/>
       <use xlink:href="#DejaVuSans-2e" x="63.623047"/>
       <use xlink:href="#DejaVuSans-35" x="95.410156"/>
      </g>
     </g>
    </g>
    <g id="xtick_8">
     <g id="line2d_8">
      <g>
       <use xlink:href="#m6949350b73" x="461.059535" y="384.48" style="stroke: #000000; stroke-width: 0.8"/>
      </g>
     </g>
     <g id="text_8">
      <!-- 10.0 -->
      <g transform="translate(449.926723 399.078438) scale(0.1 -0.1)">
       <defs>
        <path id="DejaVuSans-31" d="M 794 531 
L 1825 531 
L 1825 4091 
L 703 3866 
L 703 4441 
L 1819 4666 
L 2450 4666 
L 2450 531 
L 3481 531 
L 3481 0 
L 794 0 
L 794 531 
z
" transform="scale(0.015625)"/>
       </defs>
       <use xlink:href="#DejaVuSans-31"/>
       <use xlink:href="#DejaVuSans-30" x="63.623047"/>
       <use xlink:href="#DejaVuSans-2e" x="127.246094"/>
       <use xlink:href="#DejaVuSans-30" x="159.033203"/>
      </g>
     </g>
    </g>
    <g id="xtick_9">
     <g id="line2d_9">
      <g>
       <use xlink:href="#m6949350b73" x="511.996009" y="384.48" style="stroke: #000000; stroke-width: 0.8"/>
      </g>
     </g>
     <g id="text_9">
      <!-- 12.5 -->
      <g transform="translate(500.863196 399.078438) scale(0.1 -0.1)">
       <use xlink:href="#DejaVuSans-31"/>
       <use xlink:href="#DejaVuSans-32" x="63.623047"/>
       <use xlink:href="#DejaVuSans-2e" x="127.246094"/>
       <use xlink:href="#DejaVuSans-35" x="159.033203"/>
      </g>
     </g>
    </g>
    <g id="text_10">
     <!-- log2 Normalized intensity -->
     <g transform="translate(231.185937 412.756563) scale(0.1 -0.1)">
      <defs>
       <path id="DejaVuSans-6c" d="M 603 4863 
L 1178 4863 
L 1178 0 
L 603 0 
L 603 4863 
z
" transform="scale(0.015625)"/>
       <path id="DejaVuSans-6f" d="M 1959 3097 
Q 1497 3097 1228 2736 
Q 959 2375 959 1747 
Q 959 1119 1226 758 
Q 1494 397 1959 397 
Q 2419 397 2687 759 
Q 2956 1122 2956 1747 
Q 2956 2369 2687 2733 
Q 2419 3097 1959 3097 
z
M 1959 3584 
Q 2709 3584 3137 3096 
Q 3566 2609 3566 1747 
Q 3566 888 3137 398 
Q 2709 -91 1959 -91 
Q 1206 -91 779 398 
Q 353 888 353 1747 
Q 353 2609 779 3096 
Q 1206 3584 1959 3584 
z
" transform="scale(0.015625)"/>
       <path id="DejaVuSans-67" d="M 2906 1791 
Q 2906 2416 2648 2759 
Q 2391 3103 1925 3103 
Q 1463 3103 1205 2759 
Q 947 2416 947 1791 
Q 947 1169 1205 825 
Q 1463 481 1925 481 
Q 2391 481 2648 825 
Q 2906 1169 2906 1791 
z
M 3481 434 
Q 3481 -459 3084 -895 
Q 2688 -1331 1869 -1331 
Q 1566 -1331 1297 -1286 
Q 1028 -1241 775 -1147 
L 775 -588 
Q 1028 -725 1275 -790 
Q 1522 -856 1778 -856 
Q 2344 -856 2625 -561 
Q 2906 -266 2906 331 
L 2906 616 
Q 2728 306 2450 153 
Q 2172 0 1784 0 
Q 1141 0 747 490 
Q 353 981 353 1791 
Q 353 2603 747 3093 
Q 1141 3584 1784 3584 
Q 2172 3584 2450 3431 
Q 2728 3278 2906 2969 
L 2906 3500 
L 3481 3500 
L 3481 434 
z
" transform="scale(0.015625)"/>
       <path id="DejaVuSans-20" transform="scale(0.015625)"/>
       <path id="DejaVuSans-4e" d="M 628 4666 
L 1478 4666 
L 3547 763 
L 3547 4666 
L 4159 4666 
L 4159 0 
L 3309 0 
L 1241 3903 
L 1241 0 
L 628 0 
L 628 4666 
z
" transform="scale(0.015625)"/>
       <path id="DejaVuSans-72" d="M 2631 2963 
Q 2534 3019 2420 3045 
Q 2306 3072 2169 3072 
Q 1681 3072 1420 2755 
Q 1159 2438 1159 1844 
L 1159 0 
L 581 0 
L 581 3500 
L 1159 3500 
L 1159 2956 
Q 1341 3275 1631 3429 
Q 1922 3584 2338 3584 
Q 2397 3584 2469 3576 
Q 2541 3569 2628 3553 
L 2631 2963 
z
" transform="scale(0.015625)"/>
       <path id="DejaVuSans-6d" d="M 3328 2828 
Q 3544 3216 3844 3400 
Q 4144 3584 4550 3584 
Q 5097 3584 5394 3201 
Q 5691 2819 5691 2113 
L 5691 0 
L 5113 0 
L 5113 2094 
Q 5113 2597 4934 2840 
Q 4756 3084 4391 3084 
Q 3944 3084 3684 2787 
Q 3425 2491 3425 1978 
L 3425 0 
L 2847 0 
L 2847 2094 
Q 2847 2600 2669 2842 
Q 2491 3084 2119 3084 
Q 1678 3084 1418 2786 
Q 1159 2488 1159 1978 
L 1159 0 
L 581 0 
L 581 3500 
L 1159 3500 
L 1159 2956 
Q 1356 3278 1631 3431 
Q 1906 3584 2284 3584 
Q 2666 3584 2933 3390 
Q 3200 3197 3328 2828 
z
" transform="scale(0.015625)"/>
       <path id="DejaVuSans-61" d="M 2194 1759 
Q 1497 1759 1228 1600 
Q 959 1441 959 1056 
Q 959 750 1161 570 
Q 1363 391 1709 391 
Q 2188 391 2477 730 
Q 2766 1069 2766 1631 
L 2766 1759 
L 2194 1759 
z
M 3341 1997 
L 3341 0 
L 2766 0 
L 2766 531 
Q 2569 213 2275 61 
Q 1981 -91 1556 -91 
Q 1019 -91 701 211 
Q 384 513 384 1019 
Q 384 1609 779 1909 
Q 1175 2209 1959 2209 
L 2766 2209 
L 2766 2266 
Q 2766 2663 2505 2880 
Q 2244 3097 1772 3097 
Q 1472 3097 1187 3025 
Q 903 2953 641 2809 
L 641 3341 
Q 956 3463 1253 3523 
Q 1550 3584 1831 3584 
Q 2591 3584 2966 3190 
Q 3341 2797 3341 1997 
z
" transform="scale(0.015625)"/>
       <path id="DejaVuSans-69" d="M 603 3500 
L 1178 3500 
L 1178 0 
L 603 0 
L 603 3500 
z
M 603 4863 
L 1178 4863 
L 1178 4134 
L 603 4134 
L 603 4863 
z
" transform="scale(0.015625)"/>
       <path id="DejaVuSans-7a" d="M 353 3500 
L 3084 3500 
L 3084 2975 
L 922 459 
L 3084 459 
L 3084 0 
L 275 0 
L 275 525 
L 2438 3041 
L 353 3041 
L 353 3500 
z
" transform="scale(0.015625)"/>
       <path id="DejaVuSans-65" d="M 3597 1894 
L 3597 1613 
L 953 1613 
Q 991 1019 1311 708 
Q 1631 397 2203 397 
Q 2534 397 2845 478 
Q 3156 559 3463 722 
L 3463 178 
Q 3153 47 2828 -22 
Q 2503 -91 2169 -91 
Q 1331 -91 842 396 
Q 353 884 353 1716 
Q 353 2575 817 3079 
Q 1281 3584 2069 3584 
Q 2775 3584 3186 3129 
Q 3597 2675 3597 1894 
z
M 3022 2063 
Q 3016 2534 2758 2815 
Q 2500 3097 2075 3097 
Q 1594 3097 1305 2825 
Q 1016 2553 972 2059 
L 3022 2063 
z
" transform="scale(0.015625)"/>
       <path id="DejaVuSans-64" d="M 2906 2969 
L 2906 4863 
L 3481 4863 
L 3481 0 
L 2906 0 
L 2906 525 
Q 2725 213 2448 61 
Q 2172 -91 1784 -91 
Q 1150 -91 751 415 
Q 353 922 353 1747 
Q 353 2572 751 3078 
Q 1150 3584 1784 3584 
Q 2172 3584 2448 3432 
Q 2725 3281 2906 2969 
z
M 947 1747 
Q 947 1113 1208 752 
Q 1469 391 1925 391 
Q 2381 391 2643 752 
Q 2906 1113 2906 1747 
Q 2906 2381 2643 2742 
Q 2381 3103 1925 3103 
Q 1469 3103 1208 2742 
Q 947 2381 947 1747 
z
" transform="scale(0.015625)"/>
       <path id="DejaVuSans-6e" d="M 3513 2113 
L 3513 0 
L 2938 0 
L 2938 2094 
Q 2938 2591 2744 2837 
Q 2550 3084 2163 3084 
Q 1697 3084 1428 2787 
Q 1159 2491 1159 1978 
L 1159 0 
L 581 0 
L 581 3500 
L 1159 3500 
L 1159 2956 
Q 1366 3272 1645 3428 
Q 1925 3584 2291 3584 
Q 2894 3584 3203 3211 
Q 3513 2838 3513 2113 
z
" transform="scale(0.015625)"/>
       <path id="DejaVuSans-74" d="M 1172 4494 
L 1172 3500 
L 2356 3500 
L 2356 3053 
L 1172 3053 
L 1172 1153 
Q 1172 725 1289 603 
Q 1406 481 1766 481 
L 2356 481 
L 2356 0 
L 1766 0 
Q 1100 0 847 248 
Q 594 497 594 1153 
L 594 3053 
L 172 3053 
L 172 3500 
L 594 3500 
L 594 4494 
L 1172 4494 
z
" transform="scale(0.015625)"/>
       <path id="DejaVuSans-73" d="M 2834 3397 
L 2834 2853 
Q 2591 2978 2328 3040 
Q 2066 3103 1784 3103 
Q 1356 3103 1142 2972 
Q 928 2841 928 2578 
Q 928 2378 1081 2264 
Q 1234 2150 1697 2047 
L 1894 2003 
Q 2506 1872 2764 1633 
Q 3022 1394 3022 966 
Q 3022 478 2636 193 
Q 2250 -91 1575 -91 
Q 1294 -91 989 -36 
Q 684 19 347 128 
L 347 722 
Q 666 556 975 473 
Q 1284 391 1588 391 
Q 1994 391 2212 530 
Q 2431 669 2431 922 
Q 2431 1156 2273 1281 
Q 2116 1406 1581 1522 
L 1381 1569 
Q 847 1681 609 1914 
Q 372 2147 372 2553 
Q 372 3047 722 3315 
Q 1072 3584 1716 3584 
Q 2034 3584 2315 3537 
Q 2597 3491 2834 3397 
z
" transform="scale(0.015625)"/>
       <path id="DejaVuSans-79" d="M 2059 -325 
Q 1816 -950 1584 -1140 
Q 1353 -1331 966 -1331 
L 506 -1331 
L 506 -850 
L 844 -850 
Q 1081 -850 1212 -737 
Q 1344 -625 1503 -206 
L 1606 56 
L 191 3500 
L 800 3500 
L 1894 763 
L 2988 3500 
L 3597 3500 
L 2059 -325 
z
" transform="scale(0.015625)"/>
      </defs>
      <use xlink:href="#DejaVuSans-6c"/>
      <use xlink:href="#DejaVuSans-6f" x="27.783203"/>
      <use xlink:href="#DejaVuSans-67" x="88.964844"/>
      <use xlink:href="#DejaVuSans-32" x="152.441406"/>
      <use xlink:href="#DejaVuSans-20" x="216.064453"/>
      <use xlink:href="#DejaVuSans-4e" x="247.851562"/>
      <use xlink:href="#DejaVuSans-6f" x="322.65625"/>
      <use xlink:href="#DejaVuSans-72" x="383.837891"/>
      <use xlink:href="#DejaVuSans-6d" x="423.201172"/>
      <use xlink:href="#DejaVuSans-61" x="520.613281"/>
      <use xlink:href="#DejaVuSans-6c" x="581.892578"/>
      <use xlink:href="#DejaVuSans-69" x="609.675781"/>
      <use xlink:href="#DejaVuSans-7a" x="637.458984"/>
      <use xlink:href="#DejaVuSans-65" x="689.949219"/>
      <use xlink:href="#DejaVuSans-64" x="751.472656"/>
      <use xlink:href="#DejaVuSans-20" x="814.949219"/>
      <use xlink:href="#DejaVuSans-69" x="846.736328"/>
      <use xlink:href="#DejaVuSans-6e" x="874.519531"/>
      <use xlink:href="#DejaVuSans-74" x="937.898438"/>
      <use xlink:href="#DejaVuSans-65" x="977.107422"/>
      <use xlink:href="#DejaVuSans-6e" x="1038.630859"/>
      <use xlink:href="#DejaVuSans-73" x="1102.009766"/>
      <use xlink:href="#DejaVuSans-69" x="1154.109375"/>
      <use xlink:href="#DejaVuSans-74" x="1181.892578"/>
      <use xlink:href="#DejaVuSans-79" x="1221.101562"/>
     </g>
    </g>
   </g>
   <g id="matplotlib.axis_2">
    <g id="ytick_1">
     <g id="line2d_10">
      <defs>
       <path id="m1475828fdf" d="M 0 0 
L -3.5 0 
" style="stroke: #000000; stroke-width: 0.8"/>
      </defs>
      <g>
       <use xlink:href="#m1475828fdf" x="72" y="384.48" style="stroke: #000000; stroke-width: 0.8"/>
      </g>
     </g>
     <g id="text_11">
      <!-- 0.00 -->
      <g transform="translate(42.734375 388.279219) scale(0.1 -0.1)">
       <use xlink:href="#DejaVuSans-30"/>
       <use xlink:href="#DejaVuSans-2e" x="63.623047"/>
       <use xlink:href="#DejaVuSans-30" x="95.410156"/>
       <use xlink:href="#DejaVuSans-30" x="159.033203"/>
      </g>
     </g>
    </g>
    <g id="ytick_2">
     <g id="line2d_11">
      <g>
       <use xlink:href="#m1475828fdf" x="72" y="322.6374" style="stroke: #000000; stroke-width: 0.8"/>
      </g>
     </g>
     <g id="text_12">
      <!-- 0.05 -->
      <g transform="translate(42.734375 326.436618) scale(0.1 -0.1)">
       <use xlink:href="#DejaVuSans-30"/>
       <use xlink:href="#DejaVuSans-2e" x="63.623047"/>
       <use xlink:href="#DejaVuSans-30" x="95.410156"/>
       <use xlink:href="#DejaVuSans-35" x="159.033203"/>
      </g>
     </g>
    </g>
    <g id="ytick_3">
     <g id="line2d_12">
      <g>
       <use xlink:href="#m1475828fdf" x="72" y="260.794799" style="stroke: #000000; stroke-width: 0.8"/>
      </g>
     </g>
     <g id="text_13">
      <!-- 0.10 -->
      <g transform="translate(42.734375 264.594018) scale(0.1 -0.1)">
       <use xlink:href="#DejaVuSans-30"/>
       <use xlink:href="#DejaVuSans-2e" x="63.623047"/>
       <use xlink:href="#DejaVuSans-31" x="95.410156"/>
       <use xlink:href="#DejaVuSans-30" x="159.033203"/>
      </g>
     </g>
    </g>
    <g id="ytick_4">
     <g id="line2d_13">
      <g>
       <use xlink:href="#m1475828fdf" x="72" y="198.952199" style="stroke: #000000; stroke-width: 0.8"/>
      </g>
     </g>
     <g id="text_14">
      <!-- 0.15 -->
      <g transform="translate(42.734375 202.751417) scale(0.1 -0.1)">
       <use xlink:href="#DejaVuSans-30"/>
       <use xlink:href="#DejaVuSans-2e" x="63.623047"/>
       <use xlink:href="#DejaVuSans-31" x="95.410156"/>
       <use xlink:href="#DejaVuSans-35" x="159.033203"/>
      </g>
     </g>
    </g>
    <g id="ytick_5">
     <g id="line2d_14">
      <g>
       <use xlink:href="#m1475828fdf" x="72" y="137.109598" style="stroke: #000000; stroke-width: 0.8"/>
      </g>
     </g>
     <g id="text_15">
      <!-- 0.20 -->
      <g transform="translate(42.734375 140.908817) scale(0.1 -0.1)">
       <use xlink:href="#DejaVuSans-30"/>
       <use xlink:href="#DejaVuSans-2e" x="63.623047"/>
       <use xlink:href="#DejaVuSans-32" x="95.410156"/>
       <use xlink:href="#DejaVuSans-30" x="159.033203"/>
      </g>
     </g>
    </g>
    <g id="ytick_6">
     <g id="line2d_15">
      <g>
       <use xlink:href="#m1475828fdf" x="72" y="75.266998" style="stroke: #000000; stroke-width: 0.8"/>
      </g>
     </g>
     <g id="text_16">
      <!-- 0.25 -->
      <g transform="translate(42.734375 79.066217) scale(0.1 -0.1)">
       <use xlink:href="#DejaVuSans-30"/>
       <use xlink:href="#DejaVuSans-2e" x="63.623047"/>
       <use xlink:href="#DejaVuSans-32" x="95.410156"/>
       <use xlink:href="#DejaVuSans-35" x="159.033203"/>
      </g>
     </g>
    </g>
    <g id="text_17">
     <!-- Density -->
     <g transform="translate(36.654687 237.168594) rotate(-90) scale(0.1 -0.1)">
      <defs>
       <path id="DejaVuSans-44" d="M 1259 4147 
L 1259 519 
L 2022 519 
Q 2988 519 3436 956 
Q 3884 1394 3884 2338 
Q 3884 3275 3436 3711 
Q 2988 4147 2022 4147 
L 1259 4147 
z
M 628 4666 
L 1925 4666 
Q 3281 4666 3915 4102 
Q 4550 3538 4550 2338 
Q 4550 1131 3912 565 
Q 3275 0 1925 0 
L 628 0 
L 628 4666 
z
" transform="scale(0.015625)"/>
      </defs>
      <use xlink:href="#DejaVuSans-44"/>
      <use xlink:href="#DejaVuSans-65" x="77.001953"/>
      <use xlink:href="#DejaVuSans-6e" x="138.525391"/>
      <use xlink:href="#DejaVuSans-73" x="201.904297"/>
      <use xlink:href="#DejaVuSans-69" x="254.003906"/>
      <use xlink:href="#DejaVuSans-74" x="281.787109"/>
      <use xlink:href="#DejaVuSans-79" x="320.996094"/>
     </g>
    </g>
   </g>
   <g id="patch_3">
    <path d="M 72 384.48 
L 72 51.84 
" style="fill: none; stroke: #000000; stroke-width: 0.8; stroke-linejoin: miter; stroke-linecap: square"/>
   </g>
   <g id="patch_4">
    <path d="M 518.4 384.48 
L 518.4 51.84 
" style="fill: none; stroke: #000000; stroke-width: 0.8; stroke-linejoin: miter; stroke-linecap: square"/>
   </g>
   <g id="patch_5">
    <path d="M 72 384.48 
L 518.4 384.48 
" style="fill: none; stroke: #000000; stroke-width: 0.8; stroke-linejoin: miter; stroke-linecap: square"/>
   </g>
   <g id="patch_6">
    <path d="M 72 51.84 
L 518.4 51.84 
" style="fill: none; stroke: #000000; stroke-width: 0.8; stroke-linejoin: miter; stroke-linecap: square"/>
   </g>
   <g id="text_18">
    <!-- Spectronaut - precursor intensities -->
    <g transform="translate(191.1075 45.84) scale(0.12 -0.12)">
     <defs>
      <path id="DejaVuSans-53" d="M 3425 4513 
L 3425 3897 
Q 3066 4069 2747 4153 
Q 2428 4238 2131 4238 
Q 1616 4238 1336 4038 
Q 1056 3838 1056 3469 
Q 1056 3159 1242 3001 
Q 1428 2844 1947 2747 
L 2328 2669 
Q 3034 2534 3370 2195 
Q 3706 1856 3706 1288 
Q 3706 609 3251 259 
Q 2797 -91 1919 -91 
Q 1588 -91 1214 -16 
Q 841 59 441 206 
L 441 856 
Q 825 641 1194 531 
Q 1563 422 1919 422 
Q 2459 422 2753 634 
Q 3047 847 3047 1241 
Q 3047 1584 2836 1778 
Q 2625 1972 2144 2069 
L 1759 2144 
Q 1053 2284 737 2584 
Q 422 2884 422 3419 
Q 422 4038 858 4394 
Q 1294 4750 2059 4750 
Q 2388 4750 2728 4690 
Q 3069 4631 3425 4513 
z
" transform="scale(0.015625)"/>
      <path id="DejaVuSans-70" d="M 1159 525 
L 1159 -1331 
L 581 -1331 
L 581 3500 
L 1159 3500 
L 1159 2969 
Q 1341 3281 1617 3432 
Q 1894 3584 2278 3584 
Q 2916 3584 3314 3078 
Q 3713 2572 3713 1747 
Q 3713 922 3314 415 
Q 2916 -91 2278 -91 
Q 1894 -91 1617 61 
Q 1341 213 1159 525 
z
M 3116 1747 
Q 3116 2381 2855 2742 
Q 2594 3103 2138 3103 
Q 1681 3103 1420 2742 
Q 1159 2381 1159 1747 
Q 1159 1113 1420 752 
Q 1681 391 2138 391 
Q 2594 391 2855 752 
Q 3116 1113 3116 1747 
z
" transform="scale(0.015625)"/>
      <path id="DejaVuSans-63" d="M 3122 3366 
L 3122 2828 
Q 2878 2963 2633 3030 
Q 2388 3097 2138 3097 
Q 1578 3097 1268 2742 
Q 959 2388 959 1747 
Q 959 1106 1268 751 
Q 1578 397 2138 397 
Q 2388 397 2633 464 
Q 2878 531 3122 666 
L 3122 134 
Q 2881 22 2623 -34 
Q 2366 -91 2075 -91 
Q 1284 -91 818 406 
Q 353 903 353 1747 
Q 353 2603 823 3093 
Q 1294 3584 2113 3584 
Q 2378 3584 2631 3529 
Q 2884 3475 3122 3366 
z
" transform="scale(0.015625)"/>
      <path id="DejaVuSans-75" d="M 544 1381 
L 544 3500 
L 1119 3500 
L 1119 1403 
Q 1119 906 1312 657 
Q 1506 409 1894 409 
Q 2359 409 2629 706 
Q 2900 1003 2900 1516 
L 2900 3500 
L 3475 3500 
L 3475 0 
L 2900 0 
L 2900 538 
Q 2691 219 2414 64 
Q 2138 -91 1772 -91 
Q 1169 -91 856 284 
Q 544 659 544 1381 
z
M 1991 3584 
L 1991 3584 
z
" transform="scale(0.015625)"/>
      <path id="DejaVuSans-2d" d="M 313 2009 
L 1997 2009 
L 1997 1497 
L 313 1497 
L 313 2009 
z
" transform="scale(0.015625)"/>
     </defs>
     <use xlink:href="#DejaVuSans-53"/>
     <use xlink:href="#DejaVuSans-70" x="63.476562"/>
     <use xlink:href="#DejaVuSans-65" x="126.953125"/>
     <use xlink:href="#DejaVuSans-63" x="188.476562"/>
     <use xlink:href="#DejaVuSans-74" x="243.457031"/>
     <use xlink:href="#DejaVuSans-72" x="282.666016"/>
     <use xlink:href="#DejaVuSans-6f" x="321.529297"/>
     <use xlink:href="#DejaVuSans-6e" x="382.710938"/>
     <use xlink:href="#DejaVuSans-61" x="446.089844"/>
     <use xlink:href="#DejaVuSans-75" x="507.369141"/>
     <use xlink:href="#DejaVuSans-74" x="570.748047"/>
     <use xlink:href="#DejaVuSans-20" x="609.957031"/>
     <use xlink:href="#DejaVuSans-2d" x="641.744141"/>
     <use xlink:href="#DejaVuSans-20" x="677.828125"/>
     <use xlink:href="#DejaVuSans-70" x="709.615234"/>
     <use xlink:href="#DejaVuSans-72" x="773.091797"/>
     <use xlink:href="#DejaVuSans-65" x="811.955078"/>
     <use xlink:href="#DejaVuSans-63" x="873.478516"/>
     <use xlink:href="#DejaVuSans-75" x="928.458984"/>
     <use xlink:href="#DejaVuSans-72" x="991.837891"/>
     <use xlink:href="#DejaVuSans-73" x="1032.951172"/>
     <use xlink:href="#DejaVuSans-6f" x="1085.050781"/>
     <use xlink:href="#DejaVuSans-72" x="1146.232422"/>
     <use xlink:href="#DejaVuSans-20" x="1187.345703"/>
     <use xlink:href="#DejaVuSans-69" x="1219.132812"/>
     <use xlink:href="#DejaVuSans-6e" x="1246.916016"/>
     <use xlink:href="#DejaVuSans-74" x="1310.294922"/>
     <use xlink:href="#DejaVuSans-65" x="1349.503906"/>
     <use xlink:href="#DejaVuSans-6e" x="1411.027344"/>
     <use xlink:href="#DejaVuSans-73" x="1474.40625"/>
     <use xlink:href="#DejaVuSans-69" x="1526.505859"/>
     <use xlink:href="#DejaVuSans-74" x="1554.289062"/>
     <use xlink:href="#DejaVuSans-69" x="1593.498047"/>
     <use xlink:href="#DejaVuSans-65" x="1621.28125"/>
     <use xlink:href="#DejaVuSans-73" x="1682.804688"/>
    </g>
   </g>
   <g id="legend_1">
    <g id="patch_7">
     <path d="M 425.689062 89.19625 
L 511.4 89.19625 
Q 513.4 89.19625 513.4 87.19625 
L 513.4 58.84 
Q 513.4 56.84 511.4 56.84 
L 425.689062 56.84 
Q 423.689062 56.84 423.689062 58.84 
L 423.689062 87.19625 
Q 423.689062 89.19625 425.689062 89.19625 
z
" style="fill: #ffffff; opacity: 0.8; stroke: #cccccc; stroke-linejoin: miter"/>
    </g>
    <g id="patch_8">
     <path d="M 427.689062 68.438437 
L 447.689062 68.438437 
L 447.689062 61.438437 
L 427.689062 61.438437 
z
" style="fill: #0000ff; fill-opacity: 0.25; stroke: #0000ff; stroke-linejoin: miter"/>
    </g>
    <g id="text_19">
     <!-- DIA &amp; DDA -->
     <g transform="translate(455.689062 68.438437) scale(0.1 -0.1)">
      <defs>
       <path id="DejaVuSans-49" d="M 628 4666 
L 1259 4666 
L 1259 0 
L 628 0 
L 628 4666 
z
" transform="scale(0.015625)"/>
       <path id="DejaVuSans-41" d="M 2188 4044 
L 1331 1722 
L 3047 1722 
L 2188 4044 
z
M 1831 4666 
L 2547 4666 
L 4325 0 
L 3669 0 
L 3244 1197 
L 1141 1197 
L 716 0 
L 50 0 
L 1831 4666 
z
" transform="scale(0.015625)"/>
       <path id="DejaVuSans-26" d="M 1556 2509 
Q 1272 2256 1139 2004 
Q 1006 1753 1006 1478 
Q 1006 1022 1337 719 
Q 1669 416 2169 416 
Q 2466 416 2725 514 
Q 2984 613 3213 813 
L 1556 2509 
z
M 1997 2859 
L 3584 1234 
Q 3769 1513 3872 1830 
Q 3975 2147 3994 2503 
L 4575 2503 
Q 4538 2091 4375 1687 
Q 4213 1284 3922 891 
L 4794 0 
L 4006 0 
L 3559 459 
Q 3234 181 2878 45 
Q 2522 -91 2113 -91 
Q 1359 -91 881 339 
Q 403 769 403 1441 
Q 403 1841 612 2192 
Q 822 2544 1241 2853 
Q 1091 3050 1012 3245 
Q 934 3441 934 3628 
Q 934 4134 1281 4442 
Q 1628 4750 2203 4750 
Q 2463 4750 2720 4694 
Q 2978 4638 3244 4525 
L 3244 3956 
Q 2972 4103 2725 4179 
Q 2478 4256 2266 4256 
Q 1938 4256 1733 4082 
Q 1528 3909 1528 3634 
Q 1528 3475 1620 3314 
Q 1713 3153 1997 2859 
z
" transform="scale(0.015625)"/>
      </defs>
      <use xlink:href="#DejaVuSans-44"/>
      <use xlink:href="#DejaVuSans-49" x="77.001953"/>
      <use xlink:href="#DejaVuSans-41" x="106.494141"/>
      <use xlink:href="#DejaVuSans-20" x="174.902344"/>
      <use xlink:href="#DejaVuSans-26" x="206.689453"/>
      <use xlink:href="#DejaVuSans-20" x="284.667969"/>
      <use xlink:href="#DejaVuSans-44" x="316.455078"/>
      <use xlink:href="#DejaVuSans-44" x="393.457031"/>
      <use xlink:href="#DejaVuSans-41" x="468.708984"/>
     </g>
    </g>
    <g id="patch_9">
     <path d="M 427.689062 83.116562 
L 447.689062 83.116562 
L 447.689062 76.116562 
L 427.689062 76.116562 
z
" style="fill: #ff0000; fill-opacity: 0.25; stroke: #ff0000; stroke-linejoin: miter"/>
    </g>
    <g id="text_20">
     <!-- DIA-only -->
     <g transform="translate(455.689062 83.116562) scale(0.1 -0.1)">
      <use xlink:href="#DejaVuSans-44"/>
      <use xlink:href="#DejaVuSans-49" x="77.001953"/>
      <use xlink:href="#DejaVuSans-41" x="106.494141"/>
      <use xlink:href="#DejaVuSans-2d" x="172.652344"/>
      <use xlink:href="#DejaVuSans-6f" x="210.611328"/>
      <use xlink:href="#DejaVuSans-6e" x="271.792969"/>
      <use xlink:href="#DejaVuSans-6c" x="335.171875"/>
      <use xlink:href="#DejaVuSans-79" x="362.955078"/>
     </g>
    </g>
   </g>
  </g>
 </g>
 <defs>
  <clipPath id="p0bea3a2d37">
   <rect x="72" y="51.84" width="446.4" height="332.64"/>
  </clipPath>
 </defs>
</svg>
