<?xml version="1.0" encoding="utf-8" standalone="no"?>
<!DOCTYPE svg PUBLIC "-//W3C//DTD SVG 1.1//EN"
  "http://www.w3.org/Graphics/SVG/1.1/DTD/svg11.dtd">
<svg xmlns:xlink="http://www.w3.org/1999/xlink" width="576pt" height="432pt" viewBox="0 0 576 432" xmlns="http://www.w3.org/2000/svg" version="1.1">
 <metadata>
  <rdf:RDF xmlns:dc="http://purl.org/dc/elements/1.1/" xmlns:cc="http://creativecommons.org/ns#" xmlns:rdf="http://www.w3.org/1999/02/22-rdf-syntax-ns#">
   <cc:Work>
    <dc:type rdf:resource="http://purl.org/dc/dcmitype/StillImage"/>
    <dc:date>2025-05-02T13:25:50.178181</dc:date>
    <dc:format>image/svg+xml</dc:format>
    <dc:creator>
     <cc:Agent>
      <dc:title>Matplotlib v3.7.2, https://matplotlib.org/</dc:title>
     </cc:Agent>
    </dc:creator>
   </cc:Work>
  </rdf:RDF>
 </metadata>
 <defs>
  <style type="text/css">*{stroke-linejoin: round; stroke-linecap: butt}</style>
 </defs>
 <g id="figure_1">
  <g id="patch_1">
   <path d="M 0 432 
L 576 432 
L 576 0 
L 0 0 
z
" style="fill: #ffffff"/>
  </g>
  <g id="axes_1">
   <g id="patch_2">
    <path d="M 54.02 390.04 
L 565.2 390.04 
L 565.2 26.88 
L 54.02 26.88 
z
" style="fill: #ffffff"/>
   </g>
   <g id="PolyCollection_1">
    <defs>
     <path id="md114c8300f" d="M 77.255455 -41.960796 
L 77.255455 -41.96 
L 79.590676 -41.96 
L 81.925898 -41.96 
L 84.261119 -41.96 
L 86.596341 -41.96 
L 88.931562 -41.96 
L 91.266784 -41.96 
L 93.602005 -41.96 
L 95.937227 -41.96 
L 98.272449 -41.96 
L 100.60767 -41.96 
L 102.942892 -41.96 
L 105.278113 -41.96 
L 107.613335 -41.96 
L 109.948556 -41.96 
L 112.283778 -41.96 
L 114.619 -41.96 
L 116.954221 -41.96 
L 119.289443 -41.96 
L 121.624664 -41.96 
L 123.959886 -41.96 
L 126.295107 -41.96 
L 128.630329 -41.96 
L 130.96555 -41.96 
L 133.300772 -41.96 
L 135.635994 -41.96 
L 137.971215 -41.96 
L 140.306437 -41.96 
L 142.641658 -41.96 
L 144.97688 -41.96 
L 147.312101 -41.96 
L 149.647323 -41.96 
L 151.982545 -41.96 
L 154.317766 -41.96 
L 156.652988 -41.96 
L 158.988209 -41.96 
L 161.323431 -41.96 
L 163.658652 -41.96 
L 165.993874 -41.96 
L 168.329095 -41.96 
L 170.664317 -41.96 
L 172.999539 -41.96 
L 175.33476 -41.96 
L 177.669982 -41.96 
L 180.005203 -41.96 
L 182.340425 -41.96 
L 184.675646 -41.96 
L 187.010868 -41.96 
L 189.34609 -41.96 
L 191.681311 -41.96 
L 194.016533 -41.96 
L 196.351754 -41.96 
L 198.686976 -41.96 
L 201.022197 -41.96 
L 203.357419 -41.96 
L 205.69264 -41.96 
L 208.027862 -41.96 
L 210.363084 -41.96 
L 212.698305 -41.96 
L 215.033527 -41.96 
L 217.368748 -41.96 
L 219.70397 -41.96 
L 222.039191 -41.96 
L 224.374413 -41.96 
L 226.709635 -41.96 
L 229.044856 -41.96 
L 231.380078 -41.96 
L 233.715299 -41.96 
L 236.050521 -41.96 
L 238.385742 -41.96 
L 240.720964 -41.96 
L 243.056185 -41.96 
L 245.391407 -41.96 
L 247.726629 -41.96 
L 250.06185 -41.96 
L 252.397072 -41.96 
L 254.732293 -41.96 
L 257.067515 -41.96 
L 259.402736 -41.96 
L 261.737958 -41.96 
L 264.07318 -41.96 
L 266.408401 -41.96 
L 268.743623 -41.96 
L 271.078844 -41.96 
L 273.414066 -41.96 
L 275.749287 -41.96 
L 278.084509 -41.96 
L 280.41973 -41.96 
L 282.754952 -41.96 
L 285.090174 -41.96 
L 287.425395 -41.96 
L 289.760617 -41.96 
L 292.095838 -41.96 
L 294.43106 -41.96 
L 296.766281 -41.96 
L 299.101503 -41.96 
L 301.436725 -41.96 
L 303.771946 -41.96 
L 306.107168 -41.96 
L 308.442389 -41.96 
L 310.777611 -41.96 
L 313.112832 -41.96 
L 315.448054 -41.96 
L 317.783275 -41.96 
L 320.118497 -41.96 
L 322.453719 -41.96 
L 324.78894 -41.96 
L 327.124162 -41.96 
L 329.459383 -41.96 
L 331.794605 -41.96 
L 334.129826 -41.96 
L 336.465048 -41.96 
L 338.80027 -41.96 
L 341.135491 -41.96 
L 343.470713 -41.96 
L 345.805934 -41.96 
L 348.141156 -41.96 
L 350.476377 -41.96 
L 352.811599 -41.96 
L 355.14682 -41.96 
L 357.482042 -41.96 
L 359.817264 -41.96 
L 362.152485 -41.96 
L 364.487707 -41.96 
L 366.822928 -41.96 
L 369.15815 -41.96 
L 371.493371 -41.96 
L 373.828593 -41.96 
L 376.163815 -41.96 
L 378.499036 -41.96 
L 380.834258 -41.96 
L 383.169479 -41.96 
L 385.504701 -41.96 
L 387.839922 -41.96 
L 390.175144 -41.96 
L 392.510365 -41.96 
L 394.845587 -41.96 
L 397.180809 -41.96 
L 399.51603 -41.96 
L 401.851252 -41.96 
L 404.186473 -41.96 
L 406.521695 -41.96 
L 408.856916 -41.96 
L 411.192138 -41.96 
L 413.52736 -41.96 
L 415.862581 -41.96 
L 418.197803 -41.96 
L 420.533024 -41.96 
L 422.868246 -41.96 
L 425.203467 -41.96 
L 427.538689 -41.96 
L 429.87391 -41.96 
L 432.209132 -41.96 
L 434.544354 -41.96 
L 436.879575 -41.96 
L 439.214797 -41.96 
L 441.550018 -41.96 
L 443.88524 -41.96 
L 446.220461 -41.96 
L 448.555683 -41.96 
L 450.890905 -41.96 
L 453.226126 -41.96 
L 455.561348 -41.96 
L 457.896569 -41.96 
L 460.231791 -41.96 
L 462.567012 -41.96 
L 464.902234 -41.96 
L 467.237455 -41.96 
L 469.572677 -41.96 
L 471.907899 -41.96 
L 474.24312 -41.96 
L 476.578342 -41.96 
L 478.913563 -41.96 
L 481.248785 -41.96 
L 483.584006 -41.96 
L 485.919228 -41.96 
L 488.25445 -41.96 
L 490.589671 -41.96 
L 492.924893 -41.96 
L 495.260114 -41.96 
L 497.595336 -41.96 
L 499.930557 -41.96 
L 502.265779 -41.96 
L 504.601 -41.96 
L 506.936222 -41.96 
L 509.271444 -41.96 
L 511.606665 -41.96 
L 513.941887 -41.96 
L 516.277108 -41.96 
L 518.61233 -41.96 
L 520.947551 -41.96 
L 523.282773 -41.96 
L 525.617995 -41.96 
L 527.953216 -41.96 
L 530.288438 -41.96 
L 532.623659 -41.96 
L 534.958881 -41.96 
L 537.294102 -41.96 
L 539.629324 -41.96 
L 541.964545 -41.96 
L 541.964545 -41.960737 
L 541.964545 -41.960737 
L 539.629324 -41.96182 
L 537.294102 -41.964067 
L 534.958881 -41.968228 
L 532.623659 -41.975091 
L 530.288438 -41.985145 
L 527.953216 -41.998187 
L 525.617995 -42.01317 
L 523.282773 -42.028562 
L 520.947551 -42.043288 
L 518.61233 -42.057924 
L 516.277108 -42.075634 
L 513.941887 -42.10245 
L 511.606665 -42.146835 
L 509.271444 -42.218668 
L 506.936222 -42.327858 
L 504.601 -42.482955 
L 502.265779 -42.690628 
L 499.930557 -42.956928 
L 497.595336 -43.290328 
L 495.260114 -43.704501 
L 492.924893 -44.217464 
L 490.589671 -44.844837 
L 488.25445 -45.588864 
L 485.919228 -46.429193 
L 483.584006 -47.322712 
L 481.248785 -48.215882 
L 478.913563 -49.065412 
L 476.578342 -49.85639 
L 474.24312 -50.606162 
L 471.907899 -51.349397 
L 469.572677 -52.111442 
L 467.237455 -52.886075 
L 464.902234 -53.63286 
L 462.567012 -54.297622 
L 460.231791 -54.844275 
L 457.896569 -55.278677 
L 455.561348 -55.651554 
L 453.226126 -56.042615 
L 450.890905 -56.539305 
L 448.555683 -57.222658 
L 446.220461 -58.162649 
L 443.88524 -59.416803 
L 441.550018 -61.0255 
L 439.214797 -63.00311 
L 436.879575 -65.328948 
L 434.544354 -67.942674 
L 432.209132 -70.747178 
L 429.87391 -73.620723 
L 427.538689 -76.438714 
L 425.203467 -79.101962 
L 422.868246 -81.563212 
L 420.533024 -83.84093 
L 418.197803 -86.012721 
L 415.862581 -88.189605 
L 413.52736 -90.481538 
L 411.192138 -92.967798 
L 408.856916 -95.681755 
L 406.521695 -98.611567 
L 404.186473 -101.711824 
L 401.851252 -104.918903 
L 399.51603 -108.164261 
L 397.180809 -111.383428 
L 394.845587 -114.522199 
L 392.510365 -117.543895 
L 390.175144 -120.440555 
L 387.839922 -123.245888 
L 385.504701 -126.041433 
L 383.169479 -128.945652 
L 380.834258 -132.082458 
L 378.499036 -135.538109 
L 376.163815 -139.325078 
L 373.828593 -143.37191 
L 371.493371 -147.548371 
L 369.15815 -151.718988 
L 366.822928 -155.801238 
L 364.487707 -159.796735 
L 362.152485 -163.774718 
L 359.817264 -167.816124 
L 357.482042 -171.955065 
L 355.14682 -176.158963 
L 352.811599 -180.362466 
L 350.476377 -184.532938 
L 348.141156 -188.724444 
L 345.805934 -193.085288 
L 343.470713 -197.81239 
L 341.135491 -203.074813 
L 338.80027 -208.942797 
L 336.465048 -215.35233 
L 334.129826 -222.114908 
L 331.794605 -228.961795 
L 329.459383 -235.603157 
L 327.124162 -241.784129 
L 324.78894 -247.324034 
L 322.453719 -252.128492 
L 320.118497 -256.172733 
L 317.783275 -259.46952 
L 315.448054 -262.045344 
L 313.112832 -263.940375 
L 310.777611 -265.224776 
L 308.442389 -266.007562 
L 306.107168 -266.420244 
L 303.771946 -266.578735 
L 301.436725 -266.542466 
L 299.101503 -266.288926 
L 296.766281 -265.713274 
L 294.43106 -264.656112 
L 292.095838 -262.955334 
L 289.760617 -260.503392 
L 287.425395 -257.278011 
L 285.090174 -253.322505 
L 282.754952 -248.686574 
L 280.41973 -243.37409 
L 278.084509 -237.34477 
L 275.749287 -230.57473 
L 273.414066 -223.130564 
L 271.078844 -215.197549 
L 268.743623 -207.037114 
L 266.408401 -198.900955 
L 264.07318 -190.95586 
L 261.737958 -183.257706 
L 259.402736 -175.775351 
L 257.067515 -168.437859 
L 254.732293 -161.176972 
L 252.397072 -153.952431 
L 250.06185 -146.762464 
L 247.726629 -139.645654 
L 245.391407 -132.67631 
L 243.056185 -125.951875 
L 240.720964 -119.573124 
L 238.385742 -113.623536 
L 236.050521 -108.15655 
L 233.715299 -103.194328 
L 231.380078 -98.733018 
L 229.044856 -94.745896 
L 226.709635 -91.181107 
L 224.374413 -87.959432 
L 222.039191 -84.9802 
L 219.70397 -82.137372 
L 217.368748 -79.339432 
L 215.033527 -76.5244 
L 212.698305 -73.666156 
L 210.363084 -70.774478 
L 208.027862 -67.892592 
L 205.69264 -65.09249 
L 203.357419 -62.46456 
L 201.022197 -60.098902 
L 198.686976 -58.061093 
L 196.351754 -56.37106 
L 194.016533 -54.995222 
L 191.681311 -53.857171 
L 189.34609 -52.863312 
L 187.010868 -51.932493 
L 184.675646 -51.017209 
L 182.340425 -50.1091 
L 180.005203 -49.229593 
L 177.669982 -48.412762 
L 175.33476 -47.688971 
L 172.999539 -47.075034 
L 170.664317 -46.572007 
L 168.329095 -46.168128 
L 165.993874 -45.843296 
L 163.658652 -45.572816 
L 161.323431 -45.33048 
L 158.988209 -45.092449 
L 156.652988 -44.842496 
L 154.317766 -44.576666 
L 151.982545 -44.303919 
L 149.647323 -44.040916 
L 147.312101 -43.803093 
L 144.97688 -43.597118 
L 142.641658 -43.419104 
L 140.306437 -43.259049 
L 137.971215 -43.108011 
L 135.635994 -42.963376 
L 133.300772 -42.829525 
L 130.96555 -42.714325 
L 128.630329 -42.6241 
L 126.295107 -42.56002 
L 123.959886 -42.517515 
L 121.624664 -42.488471 
L 119.289443 -42.464535 
L 116.954221 -42.43969 
L 114.619 -42.411054 
L 112.283778 -42.378099 
L 109.948556 -42.341293 
L 107.613335 -42.301153 
L 105.278113 -42.258097 
L 102.942892 -42.212808 
L 100.60767 -42.166613 
L 98.272449 -42.121518 
L 95.937227 -42.079879 
L 93.602005 -42.043863 
L 91.266784 -42.014914 
L 88.931562 -41.993443 
L 86.596341 -41.978835 
L 84.261119 -41.969762 
L 81.925898 -41.964638 
L 79.590676 -41.962013 
L 77.255455 -41.960796 
z
" style="stroke: #1e90ff; stroke-width: 2"/>
    </defs>
    <g clip-path="url(#p47f3de9c84)">
     <use xlink:href="#md114c8300f" x="0" y="432" style="fill: #1e90ff; fill-opacity: 0.2; stroke: #1e90ff; stroke-width: 2"/>
    </g>
   </g>
   <g id="PolyCollection_2">
    <defs>
     <path id="m19b202845f" d="M 105.219157 -41.964864 
L 105.219157 -41.96 
L 107.000108 -41.96 
L 108.781059 -41.96 
L 110.56201 -41.96 
L 112.342961 -41.96 
L 114.123912 -41.96 
L 115.904863 -41.96 
L 117.685814 -41.96 
L 119.466765 -41.96 
L 121.247716 -41.96 
L 123.028667 -41.96 
L 124.809618 -41.96 
L 126.590569 -41.96 
L 128.371519 -41.96 
L 130.15247 -41.96 
L 131.933421 -41.96 
L 133.714372 -41.96 
L 135.495323 -41.96 
L 137.276274 -41.96 
L 139.057225 -41.96 
L 140.838176 -41.96 
L 142.619127 -41.96 
L 144.400078 -41.96 
L 146.181029 -41.96 
L 147.96198 -41.96 
L 149.742931 -41.96 
L 151.523882 -41.96 
L 153.304833 -41.96 
L 155.085784 -41.96 
L 156.866734 -41.96 
L 158.647685 -41.96 
L 160.428636 -41.96 
L 162.209587 -41.96 
L 163.990538 -41.96 
L 165.771489 -41.96 
L 167.55244 -41.96 
L 169.333391 -41.96 
L 171.114342 -41.96 
L 172.895293 -41.96 
L 174.676244 -41.96 
L 176.457195 -41.96 
L 178.238146 -41.96 
L 180.019097 -41.96 
L 181.800048 -41.96 
L 183.580999 -41.96 
L 185.361949 -41.96 
L 187.1429 -41.96 
L 188.923851 -41.96 
L 190.704802 -41.96 
L 192.485753 -41.96 
L 194.266704 -41.96 
L 196.047655 -41.96 
L 197.828606 -41.96 
L 199.609557 -41.96 
L 201.390508 -41.96 
L 203.171459 -41.96 
L 204.95241 -41.96 
L 206.733361 -41.96 
L 208.514312 -41.96 
L 210.295263 -41.96 
L 212.076213 -41.96 
L 213.857164 -41.96 
L 215.638115 -41.96 
L 217.419066 -41.96 
L 219.200017 -41.96 
L 220.980968 -41.96 
L 222.761919 -41.96 
L 224.54287 -41.96 
L 226.323821 -41.96 
L 228.104772 -41.96 
L 229.885723 -41.96 
L 231.666674 -41.96 
L 233.447625 -41.96 
L 235.228576 -41.96 
L 237.009527 -41.96 
L 238.790478 -41.96 
L 240.571428 -41.96 
L 242.352379 -41.96 
L 244.13333 -41.96 
L 245.914281 -41.96 
L 247.695232 -41.96 
L 249.476183 -41.96 
L 251.257134 -41.96 
L 253.038085 -41.96 
L 254.819036 -41.96 
L 256.599987 -41.96 
L 258.380938 -41.96 
L 260.161889 -41.96 
L 261.94284 -41.96 
L 263.723791 -41.96 
L 265.504742 -41.96 
L 267.285692 -41.96 
L 269.066643 -41.96 
L 270.847594 -41.96 
L 272.628545 -41.96 
L 274.409496 -41.96 
L 276.190447 -41.96 
L 277.971398 -41.96 
L 279.752349 -41.96 
L 281.5333 -41.96 
L 283.314251 -41.96 
L 285.095202 -41.96 
L 286.876153 -41.96 
L 288.657104 -41.96 
L 290.438055 -41.96 
L 292.219006 -41.96 
L 293.999957 -41.96 
L 295.780907 -41.96 
L 297.561858 -41.96 
L 299.342809 -41.96 
L 301.12376 -41.96 
L 302.904711 -41.96 
L 304.685662 -41.96 
L 306.466613 -41.96 
L 308.247564 -41.96 
L 310.028515 -41.96 
L 311.809466 -41.96 
L 313.590417 -41.96 
L 315.371368 -41.96 
L 317.152319 -41.96 
L 318.93327 -41.96 
L 320.714221 -41.96 
L 322.495171 -41.96 
L 324.276122 -41.96 
L 326.057073 -41.96 
L 327.838024 -41.96 
L 329.618975 -41.96 
L 331.399926 -41.96 
L 333.180877 -41.96 
L 334.961828 -41.96 
L 336.742779 -41.96 
L 338.52373 -41.96 
L 340.304681 -41.96 
L 342.085632 -41.96 
L 343.866583 -41.96 
L 345.647534 -41.96 
L 347.428485 -41.96 
L 349.209436 -41.96 
L 350.990386 -41.96 
L 352.771337 -41.96 
L 354.552288 -41.96 
L 356.333239 -41.96 
L 358.11419 -41.96 
L 359.895141 -41.96 
L 361.676092 -41.96 
L 363.457043 -41.96 
L 365.237994 -41.96 
L 367.018945 -41.96 
L 368.799896 -41.96 
L 370.580847 -41.96 
L 372.361798 -41.96 
L 374.142749 -41.96 
L 375.9237 -41.96 
L 377.704651 -41.96 
L 379.485601 -41.96 
L 381.266552 -41.96 
L 383.047503 -41.96 
L 384.828454 -41.96 
L 386.609405 -41.96 
L 388.390356 -41.96 
L 390.171307 -41.96 
L 391.952258 -41.96 
L 393.733209 -41.96 
L 395.51416 -41.96 
L 397.295111 -41.96 
L 399.076062 -41.96 
L 400.857013 -41.96 
L 402.637964 -41.96 
L 404.418915 -41.96 
L 406.199865 -41.96 
L 407.980816 -41.96 
L 409.761767 -41.96 
L 411.542718 -41.96 
L 413.323669 -41.96 
L 415.10462 -41.96 
L 416.885571 -41.96 
L 418.666522 -41.96 
L 420.447473 -41.96 
L 422.228424 -41.96 
L 424.009375 -41.96 
L 425.790326 -41.96 
L 427.571277 -41.96 
L 429.352228 -41.96 
L 431.133179 -41.96 
L 432.91413 -41.96 
L 434.69508 -41.96 
L 436.476031 -41.96 
L 438.256982 -41.96 
L 440.037933 -41.96 
L 441.818884 -41.96 
L 443.599835 -41.96 
L 445.380786 -41.96 
L 447.161737 -41.96 
L 448.942688 -41.96 
L 450.723639 -41.96 
L 452.50459 -41.96 
L 454.285541 -41.96 
L 456.066492 -41.96 
L 457.847443 -41.96 
L 459.628394 -41.96 
L 459.628394 -41.963195 
L 459.628394 -41.963195 
L 457.847443 -41.967887 
L 456.066492 -41.977668 
L 454.285541 -41.995939 
L 452.50459 -42.026457 
L 450.723639 -42.071902 
L 448.942688 -42.132022 
L 447.161737 -42.202383 
L 445.380786 -42.274847 
L 443.599835 -42.340029 
L 441.818884 -42.390495 
L 440.037933 -42.422656 
L 438.256982 -42.436269 
L 436.476031 -42.432486 
L 434.69508 -42.41267 
L 432.91413 -42.379271 
L 431.133179 -42.337754 
L 429.352228 -42.297333 
L 427.571277 -42.269225 
L 425.790326 -42.263375 
L 424.009375 -42.285771 
L 422.228424 -42.337625 
L 420.447473 -42.41592 
L 418.666522 -42.51409 
L 416.885571 -42.622331 
L 415.10462 -42.728266 
L 413.323669 -42.818831 
L 411.542718 -42.88336 
L 409.761767 -42.916771 
L 407.980816 -42.921577 
L 406.199865 -42.907946 
L 404.418915 -42.891685 
L 402.637964 -42.890582 
L 400.857013 -42.920111 
L 399.076062 -42.989997 
L 397.295111 -43.102993 
L 395.51416 -43.256314 
L 393.733209 -43.444973 
L 391.952258 -43.665555 
L 390.171307 -43.919393 
L 388.390356 -44.214987 
L 386.609405 -44.569668 
L 384.828454 -45.009155 
L 383.047503 -45.562157 
L 381.266552 -46.248434 
L 379.485601 -47.064115 
L 377.704651 -47.973926 
L 375.9237 -48.919731 
L 374.142749 -49.845477 
L 372.361798 -50.726115 
L 370.580847 -51.582896 
L 368.799896 -52.474992 
L 367.018945 -53.472135 
L 365.237994 -54.62366 
L 363.457043 -55.939162 
L 361.676092 -57.387404 
L 359.895141 -58.910788 
L 358.11419 -60.44811 
L 356.333239 -61.958372 
L 354.552288 -63.439501 
L 352.771337 -64.935803 
L 350.990386 -66.528662 
L 349.209436 -68.309803 
L 347.428485 -70.345292 
L 345.647534 -72.646269 
L 343.866583 -75.162242 
L 342.085632 -77.802731 
L 340.304681 -80.477906 
L 338.52373 -83.138125 
L 336.742779 -85.793065 
L 334.961828 -88.503609 
L 333.180877 -91.355653 
L 331.399926 -94.433297 
L 329.618975 -97.803774 
L 327.838024 -101.51363 
L 326.057073 -105.588382 
L 324.276122 -110.033106 
L 322.495171 -114.841219 
L 320.714221 -120.017383 
L 318.93327 -125.604622 
L 317.152319 -131.691391 
L 315.371368 -138.381061 
L 313.590417 -145.732887 
L 311.809466 -153.707345 
L 310.028515 -162.14882 
L 308.247564 -170.816758 
L 306.466613 -179.452213 
L 304.685662 -187.855816 
L 302.904711 -195.954353 
L 301.12376 -203.836713 
L 299.342809 -211.742355 
L 297.561858 -219.993946 
L 295.780907 -228.887368 
L 293.999957 -238.579677 
L 292.219006 -249.026955 
L 290.438055 -260.001375 
L 288.657104 -271.169427 
L 286.876153 -282.177494 
L 285.095202 -292.699137 
L 283.314251 -302.443973 
L 281.5333 -311.166532 
L 279.752349 -318.706172 
L 277.971398 -325.043421 
L 276.190447 -330.322139 
L 274.409496 -334.800608 
L 272.628545 -338.748872 
L 270.847594 -342.35497 
L 269.066643 -345.697487 
L 267.285692 -348.789955 
L 265.504742 -351.647706 
L 263.723791 -354.314089 
L 261.94284 -356.820222 
L 260.161889 -359.11033 
L 258.380938 -360.997638 
L 256.599987 -362.197168 
L 254.819036 -362.424893 
L 253.038085 -361.500725 
L 251.257134 -359.386363 
L 249.476183 -356.134384 
L 247.695232 -351.789439 
L 245.914281 -346.317816 
L 244.13333 -339.621009 
L 242.352379 -331.626801 
L 240.571428 -322.39389 
L 238.790478 -312.155582 
L 237.009527 -301.270538 
L 235.228576 -290.111147 
L 233.447625 -278.957783 
L 231.666674 -267.95623 
L 229.885723 -257.148531 
L 228.104772 -246.541154 
L 226.323821 -236.160818 
L 224.54287 -226.070668 
L 222.761919 -216.352556 
L 220.980968 -207.076744 
L 219.200017 -198.274034 
L 217.419066 -189.915342 
L 215.638115 -181.905588 
L 213.857164 -174.104804 
L 212.076213 -166.38125 
L 210.295263 -158.676637 
L 208.514312 -151.044719 
L 206.733361 -143.634534 
L 204.95241 -136.624673 
L 203.171459 -130.146308 
L 201.390508 -124.235124 
L 199.609557 -118.827907 
L 197.828606 -113.792144 
L 196.047655 -108.966754 
L 194.266704 -104.199406 
L 192.485753 -99.377073 
L 190.704802 -94.449839 
L 188.923851 -89.443998 
L 187.1429 -84.457562 
L 185.361949 -79.635805 
L 183.580999 -75.133904 
L 181.800048 -71.080295 
L 180.019097 -67.55249 
L 178.238146 -64.569058 
L 176.457195 -62.094174 
L 174.676244 -60.049257 
L 172.895293 -58.328509 
L 171.114342 -56.817349 
L 169.333391 -55.412226 
L 167.55244 -54.038142 
L 165.771489 -52.659235 
L 163.990538 -51.279283 
L 162.209587 -49.932274 
L 160.428636 -48.666321 
L 158.647685 -47.52616 
L 156.866734 -46.53978 
L 155.085784 -45.71348 
L 153.304833 -45.036351 
L 151.523882 -44.490658 
L 149.742931 -44.061279 
L 147.96198 -43.738214 
L 146.181029 -43.511492 
L 144.400078 -43.363922 
L 142.619127 -43.269113 
L 140.838176 -43.197917 
L 139.057225 -43.129309 
L 137.276274 -43.057769 
L 135.495323 -42.991753 
L 133.714372 -42.944488 
L 131.933421 -42.923407 
L 130.15247 -42.92433 
L 128.371519 -42.932353 
L 126.590569 -42.927444 
L 124.809618 -42.891519 
L 123.028667 -42.814535 
L 121.247716 -42.697971 
L 119.466765 -42.554488 
L 117.685814 -42.403596 
L 115.904863 -42.264953 
L 114.123912 -42.152355 
L 112.342961 -42.070989 
L 110.56201 -42.018449 
L 108.781059 -41.988047 
L 107.000108 -41.972248 
L 105.219157 -41.964864 
z
" style="stroke: #228b22; stroke-width: 2"/>
    </defs>
    <g clip-path="url(#p47f3de9c84)">
     <use xlink:href="#m19b202845f" x="0" y="432" style="fill: #228b22; fill-opacity: 0.2; stroke: #228b22; stroke-width: 2"/>
    </g>
   </g>
   <g id="PolyCollection_3">
    <defs>
     <path id="m314c963944" d="M 89.017287 -41.962923 
L 89.017287 -41.96 
L 90.848558 -41.96 
L 92.679829 -41.96 
L 94.5111 -41.96 
L 96.34237 -41.96 
L 98.173641 -41.96 
L 100.004912 -41.96 
L 101.836182 -41.96 
L 103.667453 -41.96 
L 105.498724 -41.96 
L 107.329995 -41.96 
L 109.161265 -41.96 
L 110.992536 -41.96 
L 112.823807 -41.96 
L 114.655078 -41.96 
L 116.486348 -41.96 
L 118.317619 -41.96 
L 120.14889 -41.96 
L 121.98016 -41.96 
L 123.811431 -41.96 
L 125.642702 -41.96 
L 127.473973 -41.96 
L 129.305243 -41.96 
L 131.136514 -41.96 
L 132.967785 -41.96 
L 134.799055 -41.96 
L 136.630326 -41.96 
L 138.461597 -41.96 
L 140.292868 -41.96 
L 142.124138 -41.96 
L 143.955409 -41.96 
L 145.78668 -41.96 
L 147.617951 -41.96 
L 149.449221 -41.96 
L 151.280492 -41.96 
L 153.111763 -41.96 
L 154.943033 -41.96 
L 156.774304 -41.96 
L 158.605575 -41.96 
L 160.436846 -41.96 
L 162.268116 -41.96 
L 164.099387 -41.96 
L 165.930658 -41.96 
L 167.761928 -41.96 
L 169.593199 -41.96 
L 171.42447 -41.96 
L 173.255741 -41.96 
L 175.087011 -41.96 
L 176.918282 -41.96 
L 178.749553 -41.96 
L 180.580824 -41.96 
L 182.412094 -41.96 
L 184.243365 -41.96 
L 186.074636 -41.96 
L 187.905906 -41.96 
L 189.737177 -41.96 
L 191.568448 -41.96 
L 193.399719 -41.96 
L 195.230989 -41.96 
L 197.06226 -41.96 
L 198.893531 -41.96 
L 200.724801 -41.96 
L 202.556072 -41.96 
L 204.387343 -41.96 
L 206.218614 -41.96 
L 208.049884 -41.96 
L 209.881155 -41.96 
L 211.712426 -41.96 
L 213.543697 -41.96 
L 215.374967 -41.96 
L 217.206238 -41.96 
L 219.037509 -41.96 
L 220.868779 -41.96 
L 222.70005 -41.96 
L 224.531321 -41.96 
L 226.362592 -41.96 
L 228.193862 -41.96 
L 230.025133 -41.96 
L 231.856404 -41.96 
L 233.687674 -41.96 
L 235.518945 -41.96 
L 237.350216 -41.96 
L 239.181487 -41.96 
L 241.012757 -41.96 
L 242.844028 -41.96 
L 244.675299 -41.96 
L 246.50657 -41.96 
L 248.33784 -41.96 
L 250.169111 -41.96 
L 252.000382 -41.96 
L 253.831652 -41.96 
L 255.662923 -41.96 
L 257.494194 -41.96 
L 259.325465 -41.96 
L 261.156735 -41.96 
L 262.988006 -41.96 
L 264.819277 -41.96 
L 266.650548 -41.96 
L 268.481818 -41.96 
L 270.313089 -41.96 
L 272.14436 -41.96 
L 273.97563 -41.96 
L 275.806901 -41.96 
L 277.638172 -41.96 
L 279.469443 -41.96 
L 281.300713 -41.96 
L 283.131984 -41.96 
L 284.963255 -41.96 
L 286.794525 -41.96 
L 288.625796 -41.96 
L 290.457067 -41.96 
L 292.288338 -41.96 
L 294.119608 -41.96 
L 295.950879 -41.96 
L 297.78215 -41.96 
L 299.613421 -41.96 
L 301.444691 -41.96 
L 303.275962 -41.96 
L 305.107233 -41.96 
L 306.938503 -41.96 
L 308.769774 -41.96 
L 310.601045 -41.96 
L 312.432316 -41.96 
L 314.263586 -41.96 
L 316.094857 -41.96 
L 317.926128 -41.96 
L 319.757398 -41.96 
L 321.588669 -41.96 
L 323.41994 -41.96 
L 325.251211 -41.96 
L 327.082481 -41.96 
L 328.913752 -41.96 
L 330.745023 -41.96 
L 332.576294 -41.96 
L 334.407564 -41.96 
L 336.238835 -41.96 
L 338.070106 -41.96 
L 339.901376 -41.96 
L 341.732647 -41.96 
L 343.563918 -41.96 
L 345.395189 -41.96 
L 347.226459 -41.96 
L 349.05773 -41.96 
L 350.889001 -41.96 
L 352.720271 -41.96 
L 354.551542 -41.96 
L 356.382813 -41.96 
L 358.214084 -41.96 
L 360.045354 -41.96 
L 361.876625 -41.96 
L 363.707896 -41.96 
L 365.539167 -41.96 
L 367.370437 -41.96 
L 369.201708 -41.96 
L 371.032979 -41.96 
L 372.864249 -41.96 
L 374.69552 -41.96 
L 376.526791 -41.96 
L 378.358062 -41.96 
L 380.189332 -41.96 
L 382.020603 -41.96 
L 383.851874 -41.96 
L 385.683144 -41.96 
L 387.514415 -41.96 
L 389.345686 -41.96 
L 391.176957 -41.96 
L 393.008227 -41.96 
L 394.839498 -41.96 
L 396.670769 -41.96 
L 398.50204 -41.96 
L 400.33331 -41.96 
L 402.164581 -41.96 
L 403.995852 -41.96 
L 405.827122 -41.96 
L 407.658393 -41.96 
L 409.489664 -41.96 
L 411.320935 -41.96 
L 413.152205 -41.96 
L 414.983476 -41.96 
L 416.814747 -41.96 
L 418.646017 -41.96 
L 420.477288 -41.96 
L 422.308559 -41.96 
L 424.13983 -41.96 
L 425.9711 -41.96 
L 427.802371 -41.96 
L 429.633642 -41.96 
L 431.464913 -41.96 
L 433.296183 -41.96 
L 435.127454 -41.96 
L 436.958725 -41.96 
L 438.789995 -41.96 
L 440.621266 -41.96 
L 442.452537 -41.96 
L 444.283808 -41.96 
L 446.115078 -41.96 
L 447.946349 -41.96 
L 449.77762 -41.96 
L 451.60889 -41.96 
L 453.440161 -41.96 
L 453.440161 -41.965271 
L 453.440161 -41.965271 
L 451.60889 -41.972494 
L 449.77762 -41.987482 
L 447.946349 -42.016119 
L 446.115078 -42.066423 
L 444.283808 -42.147491 
L 442.452537 -42.267004 
L 440.621266 -42.427504 
L 438.789995 -42.622662 
L 436.958725 -42.835534 
L 435.127454 -43.040779 
L 433.296183 -43.211352 
L 431.464913 -43.327837 
L 429.633642 -43.386532 
L 427.802371 -43.402212 
L 425.9711 -43.403765 
L 424.13983 -43.424424 
L 422.308559 -43.49113 
L 420.477288 -43.617678 
L 418.646017 -43.803774 
L 416.814747 -44.038675 
L 414.983476 -44.306116 
L 413.152205 -44.587877 
L 411.320935 -44.865757 
L 409.489664 -45.123627 
L 407.658393 -45.35105 
L 405.827122 -45.54762 
L 403.995852 -45.724897 
L 402.164581 -45.902849 
L 400.33331 -46.100709 
L 398.50204 -46.326406 
L 396.670769 -46.570719 
L 394.839498 -46.810167 
L 393.008227 -47.017237 
L 391.176957 -47.171928 
L 389.345686 -47.26817 
L 387.514415 -47.312911 
L 385.683144 -47.320945 
L 383.851874 -47.31071 
L 382.020603 -47.303854 
L 380.189332 -47.326854 
L 378.358062 -47.410303 
L 376.526791 -47.583036 
L 374.69552 -47.862517 
L 372.864249 -48.246606 
L 371.032979 -48.712022 
L 369.201708 -49.221586 
L 367.370437 -49.737902 
L 365.539167 -50.238201 
L 363.707896 -50.724635 
L 361.876625 -51.225848 
L 360.045354 -51.788185 
L 358.214084 -52.45814 
L 356.382813 -53.261327 
L 354.551542 -54.186035 
L 352.720271 -55.179148 
L 350.889001 -56.157771 
L 349.05773 -57.033147 
L 347.226459 -57.738233 
L 345.395189 -58.249642 
L 343.563918 -58.597956 
L 341.732647 -58.864847 
L 339.901376 -59.168352 
L 338.070106 -59.639278 
L 336.238835 -60.393705 
L 334.407564 -61.508832 
L 332.576294 -63.009827 
L 330.745023 -64.871291 
L 328.913752 -67.029874 
L 327.082481 -69.399365 
L 325.251211 -71.881082 
L 323.41994 -74.3701 
L 321.588669 -76.76515 
L 319.757398 -78.989759 
L 317.926128 -81.022843 
L 316.094857 -82.925174 
L 314.263586 -84.843637 
L 312.432316 -86.983191 
L 310.601045 -89.553165 
L 308.769774 -92.709647 
L 306.938503 -96.519214 
L 305.107233 -100.958512 
L 303.275962 -105.945699 
L 301.444691 -111.384884 
L 299.613421 -117.202244 
L 297.78215 -123.362287 
L 295.950879 -129.866631 
L 294.119608 -136.745295 
L 292.288338 -144.04818 
L 290.457067 -151.836648 
L 288.625796 -160.170652 
L 286.794525 -169.090029 
L 284.963255 -178.596291 
L 283.131984 -188.645941 
L 281.300713 -199.162578 
L 279.469443 -210.064126 
L 277.638172 -221.290099 
L 275.806901 -232.810334 
L 273.97563 -244.605016 
L 272.14436 -256.623294 
L 270.313089 -268.744273 
L 268.481818 -280.768344 
L 266.650548 -292.453031 
L 264.819277 -303.581816 
L 262.988006 -314.032108 
L 261.156735 -323.805032 
L 259.325465 -332.99899 
L 257.494194 -341.739594 
L 255.662923 -350.101159 
L 253.831652 -358.056068 
L 252.000382 -365.46972 
L 250.169111 -372.134854 
L 248.33784 -377.82431 
L 246.50657 -382.340482 
L 244.675299 -385.547236 
L 242.844028 -387.378706 
L 241.012757 -387.826667 
L 239.181487 -386.915539 
L 237.350216 -384.680355 
L 235.518945 -381.162702 
L 233.687674 -376.428809 
L 231.856404 -370.597348 
L 230.025133 -363.854282 
L 228.193862 -356.437411 
L 226.362592 -348.591206 
L 224.531321 -340.509802 
L 222.70005 -332.291258 
L 220.868779 -323.918257 
L 219.037509 -315.268258 
L 217.206238 -306.148028 
L 215.374967 -296.345182 
L 213.543697 -285.688527 
L 211.712426 -274.106307 
L 209.881155 -261.667791 
L 208.049884 -248.593369 
L 206.218614 -235.224142 
L 204.387343 -221.953736 
L 202.556072 -209.139465 
L 200.724801 -197.021794 
L 198.893531 -185.683359 
L 197.06226 -175.065997 
L 195.230989 -165.037988 
L 193.399719 -155.476996 
L 191.568448 -146.325225 
L 189.737177 -137.591432 
L 187.905906 -129.309318 
L 186.074636 -121.488862 
L 184.243365 -114.096755 
L 182.412094 -107.076122 
L 180.580824 -100.385702 
L 178.749553 -94.027542 
L 176.918282 -88.045588 
L 175.087011 -82.501213 
L 173.255741 -77.44597 
L 171.42447 -72.90784 
L 169.593199 -68.892403 
L 167.761928 -65.389133 
L 165.930658 -62.373577 
L 164.099387 -59.804898 
L 162.268116 -57.625251 
L 160.436846 -55.766305 
L 158.605575 -54.161642 
L 156.774304 -52.758525 
L 154.943033 -51.523254 
L 153.111763 -50.438994 
L 151.280492 -49.499087 
L 149.449221 -48.699481 
L 147.617951 -48.03242 
L 145.78668 -47.482187 
L 143.955409 -47.023639 
L 142.124138 -46.624445 
L 140.292868 -46.251052 
L 138.461597 -45.876678 
L 136.630326 -45.488168 
L 134.799055 -45.088625 
L 132.967785 -44.694499 
L 131.136514 -44.328247 
L 129.305243 -44.009544 
L 127.473973 -43.748469 
L 125.642702 -43.542963 
L 123.811431 -43.380941 
L 121.98016 -43.245624 
L 120.14889 -43.121611 
L 118.317619 -42.99928 
L 116.486348 -42.876073 
L 114.655078 -42.754718 
L 112.823807 -42.639748 
L 110.992536 -42.534346 
L 109.161265 -42.439004 
L 107.329995 -42.352266 
L 105.498724 -42.272562 
L 103.667453 -42.19968 
L 101.836182 -42.135005 
L 100.004912 -42.080589 
L 98.173641 -42.037884 
L 96.34237 -42.00692 
L 94.5111 -41.986276 
L 92.679829 -41.973649 
L 90.848558 -41.966566 
L 89.017287 -41.962923 
z
" style="stroke: #b22222; stroke-width: 2"/>
    </defs>
    <g clip-path="url(#p47f3de9c84)">
     <use xlink:href="#m314c963944" x="0" y="432" style="fill: #b22222; fill-opacity: 0.2; stroke: #b22222; stroke-width: 2"/>
    </g>
   </g>
   <g id="matplotlib.axis_1">
    <g id="xtick_1">
     <g id="line2d_1">
      <defs>
       <path id="m7faaa34b75" d="M 0 0 
L 0 3.5 
" style="stroke: #000000; stroke-width: 0.8"/>
      </defs>
      <g>
       <use xlink:href="#m7faaa34b75" x="70.072374" y="390.04" style="stroke: #000000; stroke-width: 0.8"/>
      </g>
     </g>
     <g id="text_1">
      <!-- −7.5 -->
      <g transform="translate(57.930968 404.638438) scale(0.1 -0.1)">
       <defs>
        <path id="DejaVuSans-2212" d="M 678 2272 
L 4684 2272 
L 4684 1741 
L 678 1741 
L 678 2272 
z
" transform="scale(0.015625)"/>
        <path id="DejaVuSans-37" d="M 525 4666 
L 3525 4666 
L 3525 4397 
L 1831 0 
L 1172 0 
L 2766 4134 
L 525 4134 
L 525 4666 
z
" transform="scale(0.015625)"/>
        <path id="DejaVuSans-2e" d="M 684 794 
L 1344 794 
L 1344 0 
L 684 0 
L 684 794 
z
" transform="scale(0.015625)"/>
        <path id="DejaVuSans-35" d="M 691 4666 
L 3169 4666 
L 3169 4134 
L 1269 4134 
L 1269 2991 
Q 1406 3038 1543 3061 
Q 1681 3084 1819 3084 
Q 2600 3084 3056 2656 
Q 3513 2228 3513 1497 
Q 3513 744 3044 326 
Q 2575 -91 1722 -91 
Q 1428 -91 1123 -41 
Q 819 9 494 109 
L 494 744 
Q 775 591 1075 516 
Q 1375 441 1709 441 
Q 2250 441 2565 725 
Q 2881 1009 2881 1497 
Q 2881 1984 2565 2268 
Q 2250 2553 1709 2553 
Q 1456 2553 1204 2497 
Q 953 2441 691 2322 
L 691 4666 
z
" transform="scale(0.015625)"/>
       </defs>
       <use xlink:href="#DejaVuSans-2212"/>
       <use xlink:href="#DejaVuSans-37" x="83.789062"/>
       <use xlink:href="#DejaVuSans-2e" x="147.412109"/>
       <use xlink:href="#DejaVuSans-35" x="179.199219"/>
      </g>
     </g>
    </g>
    <g id="xtick_2">
     <g id="line2d_2">
      <g>
       <use xlink:href="#m7faaa34b75" x="140.844345" y="390.04" style="stroke: #000000; stroke-width: 0.8"/>
      </g>
     </g>
     <g id="text_2">
      <!-- −5.0 -->
      <g transform="translate(128.702939 404.638438) scale(0.1 -0.1)">
       <defs>
        <path id="DejaVuSans-30" d="M 2034 4250 
Q 1547 4250 1301 3770 
Q 1056 3291 1056 2328 
Q 1056 1369 1301 889 
Q 1547 409 2034 409 
Q 2525 409 2770 889 
Q 3016 1369 3016 2328 
Q 3016 3291 2770 3770 
Q 2525 4250 2034 4250 
z
M 2034 4750 
Q 2819 4750 3233 4129 
Q 3647 3509 3647 2328 
Q 3647 1150 3233 529 
Q 2819 -91 2034 -91 
Q 1250 -91 836 529 
Q 422 1150 422 2328 
Q 422 3509 836 4129 
Q 1250 4750 2034 4750 
z
" transform="scale(0.015625)"/>
       </defs>
       <use xlink:href="#DejaVuSans-2212"/>
       <use xlink:href="#DejaVuSans-35" x="83.789062"/>
       <use xlink:href="#DejaVuSans-2e" x="147.412109"/>
       <use xlink:href="#DejaVuSans-30" x="179.199219"/>
      </g>
     </g>
    </g>
    <g id="xtick_3">
     <g id="line2d_3">
      <g>
       <use xlink:href="#m7faaa34b75" x="211.616316" y="390.04" style="stroke: #000000; stroke-width: 0.8"/>
      </g>
     </g>
     <g id="text_3">
      <!-- −2.5 -->
      <g transform="translate(199.47491 404.638438) scale(0.1 -0.1)">
       <defs>
        <path id="DejaVuSans-32" d="M 1228 531 
L 3431 531 
L 3431 0 
L 469 0 
L 469 531 
Q 828 903 1448 1529 
Q 2069 2156 2228 2338 
Q 2531 2678 2651 2914 
Q 2772 3150 2772 3378 
Q 2772 3750 2511 3984 
Q 2250 4219 1831 4219 
Q 1534 4219 1204 4116 
Q 875 4013 500 3803 
L 500 4441 
Q 881 4594 1212 4672 
Q 1544 4750 1819 4750 
Q 2544 4750 2975 4387 
Q 3406 4025 3406 3419 
Q 3406 3131 3298 2873 
Q 3191 2616 2906 2266 
Q 2828 2175 2409 1742 
Q 1991 1309 1228 531 
z
" transform="scale(0.015625)"/>
       </defs>
       <use xlink:href="#DejaVuSans-2212"/>
       <use xlink:href="#DejaVuSans-32" x="83.789062"/>
       <use xlink:href="#DejaVuSans-2e" x="147.412109"/>
       <use xlink:href="#DejaVuSans-35" x="179.199219"/>
      </g>
     </g>
    </g>
    <g id="xtick_4">
     <g id="line2d_4">
      <g>
       <use xlink:href="#m7faaa34b75" x="282.388287" y="390.04" style="stroke: #000000; stroke-width: 0.8"/>
      </g>
     </g>
     <g id="text_4">
      <!-- 0.0 -->
      <g transform="translate(274.436725 404.638438) scale(0.1 -0.1)">
       <use xlink:href="#DejaVuSans-30"/>
       <use xlink:href="#DejaVuSans-2e" x="63.623047"/>
       <use xlink:href="#DejaVuSans-30" x="95.410156"/>
      </g>
     </g>
    </g>
    <g id="xtick_5">
     <g id="line2d_5">
      <g>
       <use xlink:href="#m7faaa34b75" x="353.160259" y="390.04" style="stroke: #000000; stroke-width: 0.8"/>
      </g>
     </g>
     <g id="text_5">
      <!-- 2.5 -->
      <g transform="translate(345.208696 404.638438) scale(0.1 -0.1)">
       <use xlink:href="#DejaVuSans-32"/>
       <use xlink:href="#DejaVuSans-2e" x="63.623047"/>
       <use xlink:href="#DejaVuSans-35" x="95.410156"/>
      </g>
     </g>
    </g>
    <g id="xtick_6">
     <g id="line2d_6">
      <g>
       <use xlink:href="#m7faaa34b75" x="423.93223" y="390.04" style="stroke: #000000; stroke-width: 0.8"/>
      </g>
     </g>
     <g id="text_6">
      <!-- 5.0 -->
      <g transform="translate(415.980667 404.638438) scale(0.1 -0.1)">
       <use xlink:href="#DejaVuSans-35"/>
       <use xlink:href="#DejaVuSans-2e" x="63.623047"/>
       <use xlink:href="#DejaVuSans-30" x="95.410156"/>
      </g>
     </g>
    </g>
    <g id="xtick_7">
     <g id="line2d_7">
      <g>
       <use xlink:href="#m7faaa34b75" x="494.704201" y="390.04" style="stroke: #000000; stroke-width: 0.8"/>
      </g>
     </g>
     <g id="text_7">
      <!-- 7.5 -->
      <g transform="translate(486.752638 404.638438) scale(0.1 -0.1)">
       <use xlink:href="#DejaVuSans-37"/>
       <use xlink:href="#DejaVuSans-2e" x="63.623047"/>
       <use xlink:href="#DejaVuSans-35" x="95.410156"/>
      </g>
     </g>
    </g>
    <g id="text_8">
     <!-- log2 Normalized Intensity -->
     <g transform="translate(245.51 418.316562) scale(0.1 -0.1)">
      <defs>
       <path id="DejaVuSans-6c" d="M 603 4863 
L 1178 4863 
L 1178 0 
L 603 0 
L 603 4863 
z
" transform="scale(0.015625)"/>
       <path id="DejaVuSans-6f" d="M 1959 3097 
Q 1497 3097 1228 2736 
Q 959 2375 959 1747 
Q 959 1119 1226 758 
Q 1494 397 1959 397 
Q 2419 397 2687 759 
Q 2956 1122 2956 1747 
Q 2956 2369 2687 2733 
Q 2419 3097 1959 3097 
z
M 1959 3584 
Q 2709 3584 3137 3096 
Q 3566 2609 3566 1747 
Q 3566 888 3137 398 
Q 2709 -91 1959 -91 
Q 1206 -91 779 398 
Q 353 888 353 1747 
Q 353 2609 779 3096 
Q 1206 3584 1959 3584 
z
" transform="scale(0.015625)"/>
       <path id="DejaVuSans-67" d="M 2906 1791 
Q 2906 2416 2648 2759 
Q 2391 3103 1925 3103 
Q 1463 3103 1205 2759 
Q 947 2416 947 1791 
Q 947 1169 1205 825 
Q 1463 481 1925 481 
Q 2391 481 2648 825 
Q 2906 1169 2906 1791 
z
M 3481 434 
Q 3481 -459 3084 -895 
Q 2688 -1331 1869 -1331 
Q 1566 -1331 1297 -1286 
Q 1028 -1241 775 -1147 
L 775 -588 
Q 1028 -725 1275 -790 
Q 1522 -856 1778 -856 
Q 2344 -856 2625 -561 
Q 2906 -266 2906 331 
L 2906 616 
Q 2728 306 2450 153 
Q 2172 0 1784 0 
Q 1141 0 747 490 
Q 353 981 353 1791 
Q 353 2603 747 3093 
Q 1141 3584 1784 3584 
Q 2172 3584 2450 3431 
Q 2728 3278 2906 2969 
L 2906 3500 
L 3481 3500 
L 3481 434 
z
" transform="scale(0.015625)"/>
       <path id="DejaVuSans-20" transform="scale(0.015625)"/>
       <path id="DejaVuSans-4e" d="M 628 4666 
L 1478 4666 
L 3547 763 
L 3547 4666 
L 4159 4666 
L 4159 0 
L 3309 0 
L 1241 3903 
L 1241 0 
L 628 0 
L 628 4666 
z
" transform="scale(0.015625)"/>
       <path id="DejaVuSans-72" d="M 2631 2963 
Q 2534 3019 2420 3045 
Q 2306 3072 2169 3072 
Q 1681 3072 1420 2755 
Q 1159 2438 1159 1844 
L 1159 0 
L 581 0 
L 581 3500 
L 1159 3500 
L 1159 2956 
Q 1341 3275 1631 3429 
Q 1922 3584 2338 3584 
Q 2397 3584 2469 3576 
Q 2541 3569 2628 3553 
L 2631 2963 
z
" transform="scale(0.015625)"/>
       <path id="DejaVuSans-6d" d="M 3328 2828 
Q 3544 3216 3844 3400 
Q 4144 3584 4550 3584 
Q 5097 3584 5394 3201 
Q 5691 2819 5691 2113 
L 5691 0 
L 5113 0 
L 5113 2094 
Q 5113 2597 4934 2840 
Q 4756 3084 4391 3084 
Q 3944 3084 3684 2787 
Q 3425 2491 3425 1978 
L 3425 0 
L 2847 0 
L 2847 2094 
Q 2847 2600 2669 2842 
Q 2491 3084 2119 3084 
Q 1678 3084 1418 2786 
Q 1159 2488 1159 1978 
L 1159 0 
L 581 0 
L 581 3500 
L 1159 3500 
L 1159 2956 
Q 1356 3278 1631 3431 
Q 1906 3584 2284 3584 
Q 2666 3584 2933 3390 
Q 3200 3197 3328 2828 
z
" transform="scale(0.015625)"/>
       <path id="DejaVuSans-61" d="M 2194 1759 
Q 1497 1759 1228 1600 
Q 959 1441 959 1056 
Q 959 750 1161 570 
Q 1363 391 1709 391 
Q 2188 391 2477 730 
Q 2766 1069 2766 1631 
L 2766 1759 
L 2194 1759 
z
M 3341 1997 
L 3341 0 
L 2766 0 
L 2766 531 
Q 2569 213 2275 61 
Q 1981 -91 1556 -91 
Q 1019 -91 701 211 
Q 384 513 384 1019 
Q 384 1609 779 1909 
Q 1175 2209 1959 2209 
L 2766 2209 
L 2766 2266 
Q 2766 2663 2505 2880 
Q 2244 3097 1772 3097 
Q 1472 3097 1187 3025 
Q 903 2953 641 2809 
L 641 3341 
Q 956 3463 1253 3523 
Q 1550 3584 1831 3584 
Q 2591 3584 2966 3190 
Q 3341 2797 3341 1997 
z
" transform="scale(0.015625)"/>
       <path id="DejaVuSans-69" d="M 603 3500 
L 1178 3500 
L 1178 0 
L 603 0 
L 603 3500 
z
M 603 4863 
L 1178 4863 
L 1178 4134 
L 603 4134 
L 603 4863 
z
" transform="scale(0.015625)"/>
       <path id="DejaVuSans-7a" d="M 353 3500 
L 3084 3500 
L 3084 2975 
L 922 459 
L 3084 459 
L 3084 0 
L 275 0 
L 275 525 
L 2438 3041 
L 353 3041 
L 353 3500 
z
" transform="scale(0.015625)"/>
       <path id="DejaVuSans-65" d="M 3597 1894 
L 3597 1613 
L 953 1613 
Q 991 1019 1311 708 
Q 1631 397 2203 397 
Q 2534 397 2845 478 
Q 3156 559 3463 722 
L 3463 178 
Q 3153 47 2828 -22 
Q 2503 -91 2169 -91 
Q 1331 -91 842 396 
Q 353 884 353 1716 
Q 353 2575 817 3079 
Q 1281 3584 2069 3584 
Q 2775 3584 3186 3129 
Q 3597 2675 3597 1894 
z
M 3022 2063 
Q 3016 2534 2758 2815 
Q 2500 3097 2075 3097 
Q 1594 3097 1305 2825 
Q 1016 2553 972 2059 
L 3022 2063 
z
" transform="scale(0.015625)"/>
       <path id="DejaVuSans-64" d="M 2906 2969 
L 2906 4863 
L 3481 4863 
L 3481 0 
L 2906 0 
L 2906 525 
Q 2725 213 2448 61 
Q 2172 -91 1784 -91 
Q 1150 -91 751 415 
Q 353 922 353 1747 
Q 353 2572 751 3078 
Q 1150 3584 1784 3584 
Q 2172 3584 2448 3432 
Q 2725 3281 2906 2969 
z
M 947 1747 
Q 947 1113 1208 752 
Q 1469 391 1925 391 
Q 2381 391 2643 752 
Q 2906 1113 2906 1747 
Q 2906 2381 2643 2742 
Q 2381 3103 1925 3103 
Q 1469 3103 1208 2742 
Q 947 2381 947 1747 
z
" transform="scale(0.015625)"/>
       <path id="DejaVuSans-49" d="M 628 4666 
L 1259 4666 
L 1259 0 
L 628 0 
L 628 4666 
z
" transform="scale(0.015625)"/>
       <path id="DejaVuSans-6e" d="M 3513 2113 
L 3513 0 
L 2938 0 
L 2938 2094 
Q 2938 2591 2744 2837 
Q 2550 3084 2163 3084 
Q 1697 3084 1428 2787 
Q 1159 2491 1159 1978 
L 1159 0 
L 581 0 
L 581 3500 
L 1159 3500 
L 1159 2956 
Q 1366 3272 1645 3428 
Q 1925 3584 2291 3584 
Q 2894 3584 3203 3211 
Q 3513 2838 3513 2113 
z
" transform="scale(0.015625)"/>
       <path id="DejaVuSans-74" d="M 1172 4494 
L 1172 3500 
L 2356 3500 
L 2356 3053 
L 1172 3053 
L 1172 1153 
Q 1172 725 1289 603 
Q 1406 481 1766 481 
L 2356 481 
L 2356 0 
L 1766 0 
Q 1100 0 847 248 
Q 594 497 594 1153 
L 594 3053 
L 172 3053 
L 172 3500 
L 594 3500 
L 594 4494 
L 1172 4494 
z
" transform="scale(0.015625)"/>
       <path id="DejaVuSans-73" d="M 2834 3397 
L 2834 2853 
Q 2591 2978 2328 3040 
Q 2066 3103 1784 3103 
Q 1356 3103 1142 2972 
Q 928 2841 928 2578 
Q 928 2378 1081 2264 
Q 1234 2150 1697 2047 
L 1894 2003 
Q 2506 1872 2764 1633 
Q 3022 1394 3022 966 
Q 3022 478 2636 193 
Q 2250 -91 1575 -91 
Q 1294 -91 989 -36 
Q 684 19 347 128 
L 347 722 
Q 666 556 975 473 
Q 1284 391 1588 391 
Q 1994 391 2212 530 
Q 2431 669 2431 922 
Q 2431 1156 2273 1281 
Q 2116 1406 1581 1522 
L 1381 1569 
Q 847 1681 609 1914 
Q 372 2147 372 2553 
Q 372 3047 722 3315 
Q 1072 3584 1716 3584 
Q 2034 3584 2315 3537 
Q 2597 3491 2834 3397 
z
" transform="scale(0.015625)"/>
       <path id="DejaVuSans-79" d="M 2059 -325 
Q 1816 -950 1584 -1140 
Q 1353 -1331 966 -1331 
L 506 -1331 
L 506 -850 
L 844 -850 
Q 1081 -850 1212 -737 
Q 1344 -625 1503 -206 
L 1606 56 
L 191 3500 
L 800 3500 
L 1894 763 
L 2988 3500 
L 3597 3500 
L 2059 -325 
z
" transform="scale(0.015625)"/>
      </defs>
      <use xlink:href="#DejaVuSans-6c"/>
      <use xlink:href="#DejaVuSans-6f" x="27.783203"/>
      <use xlink:href="#DejaVuSans-67" x="88.964844"/>
      <use xlink:href="#DejaVuSans-32" x="152.441406"/>
      <use xlink:href="#DejaVuSans-20" x="216.064453"/>
      <use xlink:href="#DejaVuSans-4e" x="247.851562"/>
      <use xlink:href="#DejaVuSans-6f" x="322.65625"/>
      <use xlink:href="#DejaVuSans-72" x="383.837891"/>
      <use xlink:href="#DejaVuSans-6d" x="423.201172"/>
      <use xlink:href="#DejaVuSans-61" x="520.613281"/>
      <use xlink:href="#DejaVuSans-6c" x="581.892578"/>
      <use xlink:href="#DejaVuSans-69" x="609.675781"/>
      <use xlink:href="#DejaVuSans-7a" x="637.458984"/>
      <use xlink:href="#DejaVuSans-65" x="689.949219"/>
      <use xlink:href="#DejaVuSans-64" x="751.472656"/>
      <use xlink:href="#DejaVuSans-20" x="814.949219"/>
      <use xlink:href="#DejaVuSans-49" x="846.736328"/>
      <use xlink:href="#DejaVuSans-6e" x="876.228516"/>
      <use xlink:href="#DejaVuSans-74" x="939.607422"/>
      <use xlink:href="#DejaVuSans-65" x="978.816406"/>
      <use xlink:href="#DejaVuSans-6e" x="1040.339844"/>
      <use xlink:href="#DejaVuSans-73" x="1103.71875"/>
      <use xlink:href="#DejaVuSans-69" x="1155.818359"/>
      <use xlink:href="#DejaVuSans-74" x="1183.601562"/>
      <use xlink:href="#DejaVuSans-79" x="1222.810547"/>
     </g>
    </g>
   </g>
   <g id="matplotlib.axis_2">
    <g id="ytick_1">
     <g id="line2d_8">
      <defs>
       <path id="m03bb984f4a" d="M 0 0 
L -3.5 0 
" style="stroke: #000000; stroke-width: 0.8"/>
      </defs>
      <g>
       <use xlink:href="#m03bb984f4a" x="54.02" y="390.04" style="stroke: #000000; stroke-width: 0.8"/>
      </g>
     </g>
     <g id="text_9">
      <!-- 0.00 -->
      <g transform="translate(24.754375 393.839219) scale(0.1 -0.1)">
       <use xlink:href="#DejaVuSans-30"/>
       <use xlink:href="#DejaVuSans-2e" x="63.623047"/>
       <use xlink:href="#DejaVuSans-30" x="95.410156"/>
       <use xlink:href="#DejaVuSans-30" x="159.033203"/>
      </g>
     </g>
    </g>
    <g id="ytick_2">
     <g id="line2d_9">
      <g>
       <use xlink:href="#m03bb984f4a" x="54.02" y="338.760666" style="stroke: #000000; stroke-width: 0.8"/>
      </g>
     </g>
     <g id="text_10">
      <!-- 0.05 -->
      <g transform="translate(24.754375 342.559885) scale(0.1 -0.1)">
       <use xlink:href="#DejaVuSans-30"/>
       <use xlink:href="#DejaVuSans-2e" x="63.623047"/>
       <use xlink:href="#DejaVuSans-30" x="95.410156"/>
       <use xlink:href="#DejaVuSans-35" x="159.033203"/>
      </g>
     </g>
    </g>
    <g id="ytick_3">
     <g id="line2d_10">
      <g>
       <use xlink:href="#m03bb984f4a" x="54.02" y="287.481333" style="stroke: #000000; stroke-width: 0.8"/>
      </g>
     </g>
     <g id="text_11">
      <!-- 0.10 -->
      <g transform="translate(24.754375 291.280552) scale(0.1 -0.1)">
       <defs>
        <path id="DejaVuSans-31" d="M 794 531 
L 1825 531 
L 1825 4091 
L 703 3866 
L 703 4441 
L 1819 4666 
L 2450 4666 
L 2450 531 
L 3481 531 
L 3481 0 
L 794 0 
L 794 531 
z
" transform="scale(0.015625)"/>
       </defs>
       <use xlink:href="#DejaVuSans-30"/>
       <use xlink:href="#DejaVuSans-2e" x="63.623047"/>
       <use xlink:href="#DejaVuSans-31" x="95.410156"/>
       <use xlink:href="#DejaVuSans-30" x="159.033203"/>
      </g>
     </g>
    </g>
    <g id="ytick_4">
     <g id="line2d_11">
      <g>
       <use xlink:href="#m03bb984f4a" x="54.02" y="236.201999" style="stroke: #000000; stroke-width: 0.8"/>
      </g>
     </g>
     <g id="text_12">
      <!-- 0.15 -->
      <g transform="translate(24.754375 240.001218) scale(0.1 -0.1)">
       <use xlink:href="#DejaVuSans-30"/>
       <use xlink:href="#DejaVuSans-2e" x="63.623047"/>
       <use xlink:href="#DejaVuSans-31" x="95.410156"/>
       <use xlink:href="#DejaVuSans-35" x="159.033203"/>
      </g>
     </g>
    </g>
    <g id="ytick_5">
     <g id="line2d_12">
      <g>
       <use xlink:href="#m03bb984f4a" x="54.02" y="184.922666" style="stroke: #000000; stroke-width: 0.8"/>
      </g>
     </g>
     <g id="text_13">
      <!-- 0.20 -->
      <g transform="translate(24.754375 188.721885) scale(0.1 -0.1)">
       <use xlink:href="#DejaVuSans-30"/>
       <use xlink:href="#DejaVuSans-2e" x="63.623047"/>
       <use xlink:href="#DejaVuSans-32" x="95.410156"/>
       <use xlink:href="#DejaVuSans-30" x="159.033203"/>
      </g>
     </g>
    </g>
    <g id="ytick_6">
     <g id="line2d_13">
      <g>
       <use xlink:href="#m03bb984f4a" x="54.02" y="133.643332" style="stroke: #000000; stroke-width: 0.8"/>
      </g>
     </g>
     <g id="text_14">
      <!-- 0.25 -->
      <g transform="translate(24.754375 137.442551) scale(0.1 -0.1)">
       <use xlink:href="#DejaVuSans-30"/>
       <use xlink:href="#DejaVuSans-2e" x="63.623047"/>
       <use xlink:href="#DejaVuSans-32" x="95.410156"/>
       <use xlink:href="#DejaVuSans-35" x="159.033203"/>
      </g>
     </g>
    </g>
    <g id="ytick_7">
     <g id="line2d_14">
      <g>
       <use xlink:href="#m03bb984f4a" x="54.02" y="82.363999" style="stroke: #000000; stroke-width: 0.8"/>
      </g>
     </g>
     <g id="text_15">
      <!-- 0.30 -->
      <g transform="translate(24.754375 86.163218) scale(0.1 -0.1)">
       <defs>
        <path id="DejaVuSans-33" d="M 2597 2516 
Q 3050 2419 3304 2112 
Q 3559 1806 3559 1356 
Q 3559 666 3084 287 
Q 2609 -91 1734 -91 
Q 1441 -91 1130 -33 
Q 819 25 488 141 
L 488 750 
Q 750 597 1062 519 
Q 1375 441 1716 441 
Q 2309 441 2620 675 
Q 2931 909 2931 1356 
Q 2931 1769 2642 2001 
Q 2353 2234 1838 2234 
L 1294 2234 
L 1294 2753 
L 1863 2753 
Q 2328 2753 2575 2939 
Q 2822 3125 2822 3475 
Q 2822 3834 2567 4026 
Q 2313 4219 1838 4219 
Q 1578 4219 1281 4162 
Q 984 4106 628 3988 
L 628 4550 
Q 988 4650 1302 4700 
Q 1616 4750 1894 4750 
Q 2613 4750 3031 4423 
Q 3450 4097 3450 3541 
Q 3450 3153 3228 2886 
Q 3006 2619 2597 2516 
z
" transform="scale(0.015625)"/>
       </defs>
       <use xlink:href="#DejaVuSans-30"/>
       <use xlink:href="#DejaVuSans-2e" x="63.623047"/>
       <use xlink:href="#DejaVuSans-33" x="95.410156"/>
       <use xlink:href="#DejaVuSans-30" x="159.033203"/>
      </g>
     </g>
    </g>
    <g id="ytick_8">
     <g id="line2d_15">
      <g>
       <use xlink:href="#m03bb984f4a" x="54.02" y="31.084665" style="stroke: #000000; stroke-width: 0.8"/>
      </g>
     </g>
     <g id="text_16">
      <!-- 0.35 -->
      <g transform="translate(24.754375 34.883884) scale(0.1 -0.1)">
       <use xlink:href="#DejaVuSans-30"/>
       <use xlink:href="#DejaVuSans-2e" x="63.623047"/>
       <use xlink:href="#DejaVuSans-33" x="95.410156"/>
       <use xlink:href="#DejaVuSans-35" x="159.033203"/>
      </g>
     </g>
    </g>
    <g id="text_17">
     <!-- Density -->
     <g transform="translate(18.674688 227.468594) rotate(-90) scale(0.1 -0.1)">
      <defs>
       <path id="DejaVuSans-44" d="M 1259 4147 
L 1259 519 
L 2022 519 
Q 2988 519 3436 956 
Q 3884 1394 3884 2338 
Q 3884 3275 3436 3711 
Q 2988 4147 2022 4147 
L 1259 4147 
z
M 628 4666 
L 1925 4666 
Q 3281 4666 3915 4102 
Q 4550 3538 4550 2338 
Q 4550 1131 3912 565 
Q 3275 0 1925 0 
L 628 0 
L 628 4666 
z
" transform="scale(0.015625)"/>
      </defs>
      <use xlink:href="#DejaVuSans-44"/>
      <use xlink:href="#DejaVuSans-65" x="77.001953"/>
      <use xlink:href="#DejaVuSans-6e" x="138.525391"/>
      <use xlink:href="#DejaVuSans-73" x="201.904297"/>
      <use xlink:href="#DejaVuSans-69" x="254.003906"/>
      <use xlink:href="#DejaVuSans-74" x="281.787109"/>
      <use xlink:href="#DejaVuSans-79" x="320.996094"/>
     </g>
    </g>
   </g>
   <g id="patch_3">
    <path d="M 54.02 390.04 
L 54.02 26.88 
" style="fill: none; stroke: #000000; stroke-width: 0.8; stroke-linejoin: miter; stroke-linecap: square"/>
   </g>
   <g id="patch_4">
    <path d="M 565.2 390.04 
L 565.2 26.88 
" style="fill: none; stroke: #000000; stroke-width: 0.8; stroke-linejoin: miter; stroke-linecap: square"/>
   </g>
   <g id="patch_5">
    <path d="M 54.02 390.04 
L 565.2 390.04 
" style="fill: none; stroke: #000000; stroke-width: 0.8; stroke-linejoin: miter; stroke-linecap: square"/>
   </g>
   <g id="patch_6">
    <path d="M 54.02 26.88 
L 565.2 26.88 
" style="fill: none; stroke: #000000; stroke-width: 0.8; stroke-linejoin: miter; stroke-linecap: square"/>
   </g>
   <g id="text_18">
    <!-- Pep-centric search DIANN: Peptide Intensity Distribution -->
    <g transform="translate(141.472188 20.88) scale(0.12 -0.12)">
     <defs>
      <path id="DejaVuSans-50" d="M 1259 4147 
L 1259 2394 
L 2053 2394 
Q 2494 2394 2734 2622 
Q 2975 2850 2975 3272 
Q 2975 3691 2734 3919 
Q 2494 4147 2053 4147 
L 1259 4147 
z
M 628 4666 
L 2053 4666 
Q 2838 4666 3239 4311 
Q 3641 3956 3641 3272 
Q 3641 2581 3239 2228 
Q 2838 1875 2053 1875 
L 1259 1875 
L 1259 0 
L 628 0 
L 628 4666 
z
" transform="scale(0.015625)"/>
      <path id="DejaVuSans-70" d="M 1159 525 
L 1159 -1331 
L 581 -1331 
L 581 3500 
L 1159 3500 
L 1159 2969 
Q 1341 3281 1617 3432 
Q 1894 3584 2278 3584 
Q 2916 3584 3314 3078 
Q 3713 2572 3713 1747 
Q 3713 922 3314 415 
Q 2916 -91 2278 -91 
Q 1894 -91 1617 61 
Q 1341 213 1159 525 
z
M 3116 1747 
Q 3116 2381 2855 2742 
Q 2594 3103 2138 3103 
Q 1681 3103 1420 2742 
Q 1159 2381 1159 1747 
Q 1159 1113 1420 752 
Q 1681 391 2138 391 
Q 2594 391 2855 752 
Q 3116 1113 3116 1747 
z
" transform="scale(0.015625)"/>
      <path id="DejaVuSans-2d" d="M 313 2009 
L 1997 2009 
L 1997 1497 
L 313 1497 
L 313 2009 
z
" transform="scale(0.015625)"/>
      <path id="DejaVuSans-63" d="M 3122 3366 
L 3122 2828 
Q 2878 2963 2633 3030 
Q 2388 3097 2138 3097 
Q 1578 3097 1268 2742 
Q 959 2388 959 1747 
Q 959 1106 1268 751 
Q 1578 397 2138 397 
Q 2388 397 2633 464 
Q 2878 531 3122 666 
L 3122 134 
Q 2881 22 2623 -34 
Q 2366 -91 2075 -91 
Q 1284 -91 818 406 
Q 353 903 353 1747 
Q 353 2603 823 3093 
Q 1294 3584 2113 3584 
Q 2378 3584 2631 3529 
Q 2884 3475 3122 3366 
z
" transform="scale(0.015625)"/>
      <path id="DejaVuSans-68" d="M 3513 2113 
L 3513 0 
L 2938 0 
L 2938 2094 
Q 2938 2591 2744 2837 
Q 2550 3084 2163 3084 
Q 1697 3084 1428 2787 
Q 1159 2491 1159 1978 
L 1159 0 
L 581 0 
L 581 4863 
L 1159 4863 
L 1159 2956 
Q 1366 3272 1645 3428 
Q 1925 3584 2291 3584 
Q 2894 3584 3203 3211 
Q 3513 2838 3513 2113 
z
" transform="scale(0.015625)"/>
      <path id="DejaVuSans-41" d="M 2188 4044 
L 1331 1722 
L 3047 1722 
L 2188 4044 
z
M 1831 4666 
L 2547 4666 
L 4325 0 
L 3669 0 
L 3244 1197 
L 1141 1197 
L 716 0 
L 50 0 
L 1831 4666 
z
" transform="scale(0.015625)"/>
      <path id="DejaVuSans-3a" d="M 750 794 
L 1409 794 
L 1409 0 
L 750 0 
L 750 794 
z
M 750 3309 
L 1409 3309 
L 1409 2516 
L 750 2516 
L 750 3309 
z
" transform="scale(0.015625)"/>
      <path id="DejaVuSans-62" d="M 3116 1747 
Q 3116 2381 2855 2742 
Q 2594 3103 2138 3103 
Q 1681 3103 1420 2742 
Q 1159 2381 1159 1747 
Q 1159 1113 1420 752 
Q 1681 391 2138 391 
Q 2594 391 2855 752 
Q 3116 1113 3116 1747 
z
M 1159 2969 
Q 1341 3281 1617 3432 
Q 1894 3584 2278 3584 
Q 2916 3584 3314 3078 
Q 3713 2572 3713 1747 
Q 3713 922 3314 415 
Q 2916 -91 2278 -91 
Q 1894 -91 1617 61 
Q 1341 213 1159 525 
L 1159 0 
L 581 0 
L 581 4863 
L 1159 4863 
L 1159 2969 
z
" transform="scale(0.015625)"/>
      <path id="DejaVuSans-75" d="M 544 1381 
L 544 3500 
L 1119 3500 
L 1119 1403 
Q 1119 906 1312 657 
Q 1506 409 1894 409 
Q 2359 409 2629 706 
Q 2900 1003 2900 1516 
L 2900 3500 
L 3475 3500 
L 3475 0 
L 2900 0 
L 2900 538 
Q 2691 219 2414 64 
Q 2138 -91 1772 -91 
Q 1169 -91 856 284 
Q 544 659 544 1381 
z
M 1991 3584 
L 1991 3584 
z
" transform="scale(0.015625)"/>
     </defs>
     <use xlink:href="#DejaVuSans-50"/>
     <use xlink:href="#DejaVuSans-65" x="56.677734"/>
     <use xlink:href="#DejaVuSans-70" x="118.201172"/>
     <use xlink:href="#DejaVuSans-2d" x="181.677734"/>
     <use xlink:href="#DejaVuSans-63" x="217.761719"/>
     <use xlink:href="#DejaVuSans-65" x="272.742188"/>
     <use xlink:href="#DejaVuSans-6e" x="334.265625"/>
     <use xlink:href="#DejaVuSans-74" x="397.644531"/>
     <use xlink:href="#DejaVuSans-72" x="436.853516"/>
     <use xlink:href="#DejaVuSans-69" x="477.966797"/>
     <use xlink:href="#DejaVuSans-63" x="505.75"/>
     <use xlink:href="#DejaVuSans-20" x="560.730469"/>
     <use xlink:href="#DejaVuSans-73" x="592.517578"/>
     <use xlink:href="#DejaVuSans-65" x="644.617188"/>
     <use xlink:href="#DejaVuSans-61" x="706.140625"/>
     <use xlink:href="#DejaVuSans-72" x="767.419922"/>
     <use xlink:href="#DejaVuSans-63" x="806.283203"/>
     <use xlink:href="#DejaVuSans-68" x="861.263672"/>
     <use xlink:href="#DejaVuSans-20" x="924.642578"/>
     <use xlink:href="#DejaVuSans-44" x="956.429688"/>
     <use xlink:href="#DejaVuSans-49" x="1033.431641"/>
     <use xlink:href="#DejaVuSans-41" x="1062.923828"/>
     <use xlink:href="#DejaVuSans-4e" x="1131.332031"/>
     <use xlink:href="#DejaVuSans-4e" x="1206.136719"/>
     <use xlink:href="#DejaVuSans-3a" x="1280.941406"/>
     <use xlink:href="#DejaVuSans-20" x="1314.632812"/>
     <use xlink:href="#DejaVuSans-50" x="1346.419922"/>
     <use xlink:href="#DejaVuSans-65" x="1403.097656"/>
     <use xlink:href="#DejaVuSans-70" x="1464.621094"/>
     <use xlink:href="#DejaVuSans-74" x="1528.097656"/>
     <use xlink:href="#DejaVuSans-69" x="1567.306641"/>
     <use xlink:href="#DejaVuSans-64" x="1595.089844"/>
     <use xlink:href="#DejaVuSans-65" x="1658.566406"/>
     <use xlink:href="#DejaVuSans-20" x="1720.089844"/>
     <use xlink:href="#DejaVuSans-49" x="1751.876953"/>
     <use xlink:href="#DejaVuSans-6e" x="1781.369141"/>
     <use xlink:href="#DejaVuSans-74" x="1844.748047"/>
     <use xlink:href="#DejaVuSans-65" x="1883.957031"/>
     <use xlink:href="#DejaVuSans-6e" x="1945.480469"/>
     <use xlink:href="#DejaVuSans-73" x="2008.859375"/>
     <use xlink:href="#DejaVuSans-69" x="2060.958984"/>
     <use xlink:href="#DejaVuSans-74" x="2088.742188"/>
     <use xlink:href="#DejaVuSans-79" x="2127.951172"/>
     <use xlink:href="#DejaVuSans-20" x="2187.130859"/>
     <use xlink:href="#DejaVuSans-44" x="2218.917969"/>
     <use xlink:href="#DejaVuSans-69" x="2295.919922"/>
     <use xlink:href="#DejaVuSans-73" x="2323.703125"/>
     <use xlink:href="#DejaVuSans-74" x="2375.802734"/>
     <use xlink:href="#DejaVuSans-72" x="2415.011719"/>
     <use xlink:href="#DejaVuSans-69" x="2456.125"/>
     <use xlink:href="#DejaVuSans-62" x="2483.908203"/>
     <use xlink:href="#DejaVuSans-75" x="2547.384766"/>
     <use xlink:href="#DejaVuSans-74" x="2610.763672"/>
     <use xlink:href="#DejaVuSans-69" x="2649.972656"/>
     <use xlink:href="#DejaVuSans-6f" x="2677.755859"/>
     <use xlink:href="#DejaVuSans-6e" x="2738.9375"/>
    </g>
   </g>
   <g id="legend_1">
    <g id="patch_7">
     <path d="M 439.8375 78.914375 
L 558.2 78.914375 
Q 560.2 78.914375 560.2 76.914375 
L 560.2 33.88 
Q 560.2 31.88 558.2 31.88 
L 439.8375 31.88 
Q 437.8375 31.88 437.8375 33.88 
L 437.8375 76.914375 
Q 437.8375 78.914375 439.8375 78.914375 
z
" style="fill: #ffffff; opacity: 0.8; stroke: #cccccc; stroke-linejoin: miter"/>
    </g>
    <g id="patch_8">
     <path d="M 441.8375 43.478437 
L 461.8375 43.478437 
L 461.8375 36.478437 
L 441.8375 36.478437 
z
" style="fill: #1e90ff; fill-opacity: 0.2; stroke: #1e90ff; stroke-width: 2; stroke-linejoin: miter"/>
    </g>
    <g id="text_19">
     <!-- DDA -->
     <g transform="translate(469.8375 43.478437) scale(0.1 -0.1)">
      <use xlink:href="#DejaVuSans-44"/>
      <use xlink:href="#DejaVuSans-44" x="77.001953"/>
      <use xlink:href="#DejaVuSans-41" x="152.253906"/>
     </g>
    </g>
    <g id="patch_9">
     <path d="M 441.8375 58.156563 
L 461.8375 58.156563 
L 461.8375 51.156563 
L 441.8375 51.156563 
z
" style="fill: #228b22; fill-opacity: 0.2; stroke: #228b22; stroke-width: 2; stroke-linejoin: miter"/>
    </g>
    <g id="text_20">
     <!-- Spectrum-centric -->
     <g transform="translate(469.8375 58.156563) scale(0.1 -0.1)">
      <defs>
       <path id="DejaVuSans-53" d="M 3425 4513 
L 3425 3897 
Q 3066 4069 2747 4153 
Q 2428 4238 2131 4238 
Q 1616 4238 1336 4038 
Q 1056 3838 1056 3469 
Q 1056 3159 1242 3001 
Q 1428 2844 1947 2747 
L 2328 2669 
Q 3034 2534 3370 2195 
Q 3706 1856 3706 1288 
Q 3706 609 3251 259 
Q 2797 -91 1919 -91 
Q 1588 -91 1214 -16 
Q 841 59 441 206 
L 441 856 
Q 825 641 1194 531 
Q 1563 422 1919 422 
Q 2459 422 2753 634 
Q 3047 847 3047 1241 
Q 3047 1584 2836 1778 
Q 2625 1972 2144 2069 
L 1759 2144 
Q 1053 2284 737 2584 
Q 422 2884 422 3419 
Q 422 4038 858 4394 
Q 1294 4750 2059 4750 
Q 2388 4750 2728 4690 
Q 3069 4631 3425 4513 
z
" transform="scale(0.015625)"/>
      </defs>
      <use xlink:href="#DejaVuSans-53"/>
      <use xlink:href="#DejaVuSans-70" x="63.476562"/>
      <use xlink:href="#DejaVuSans-65" x="126.953125"/>
      <use xlink:href="#DejaVuSans-63" x="188.476562"/>
      <use xlink:href="#DejaVuSans-74" x="243.457031"/>
      <use xlink:href="#DejaVuSans-72" x="282.666016"/>
      <use xlink:href="#DejaVuSans-75" x="323.779297"/>
      <use xlink:href="#DejaVuSans-6d" x="387.158203"/>
      <use xlink:href="#DejaVuSans-2d" x="484.570312"/>
      <use xlink:href="#DejaVuSans-63" x="520.654297"/>
      <use xlink:href="#DejaVuSans-65" x="575.634766"/>
      <use xlink:href="#DejaVuSans-6e" x="637.158203"/>
      <use xlink:href="#DejaVuSans-74" x="700.537109"/>
      <use xlink:href="#DejaVuSans-72" x="739.746094"/>
      <use xlink:href="#DejaVuSans-69" x="780.859375"/>
      <use xlink:href="#DejaVuSans-63" x="808.642578"/>
     </g>
    </g>
    <g id="patch_10">
     <path d="M 441.8375 72.834687 
L 461.8375 72.834687 
L 461.8375 65.834687 
L 441.8375 65.834687 
z
" style="fill: #b22222; fill-opacity: 0.2; stroke: #b22222; stroke-width: 2; stroke-linejoin: miter"/>
    </g>
    <g id="text_21">
     <!-- Peptide-centric -->
     <g transform="translate(469.8375 72.834687) scale(0.1 -0.1)">
      <use xlink:href="#DejaVuSans-50"/>
      <use xlink:href="#DejaVuSans-65" x="56.677734"/>
      <use xlink:href="#DejaVuSans-70" x="118.201172"/>
      <use xlink:href="#DejaVuSans-74" x="181.677734"/>
      <use xlink:href="#DejaVuSans-69" x="220.886719"/>
      <use xlink:href="#DejaVuSans-64" x="248.669922"/>
      <use xlink:href="#DejaVuSans-65" x="312.146484"/>
      <use xlink:href="#DejaVuSans-2d" x="373.669922"/>
      <use xlink:href="#DejaVuSans-63" x="409.753906"/>
      <use xlink:href="#DejaVuSans-65" x="464.734375"/>
      <use xlink:href="#DejaVuSans-6e" x="526.257812"/>
      <use xlink:href="#DejaVuSans-74" x="589.636719"/>
      <use xlink:href="#DejaVuSans-72" x="628.845703"/>
      <use xlink:href="#DejaVuSans-69" x="669.958984"/>
      <use xlink:href="#DejaVuSans-63" x="697.742188"/>
     </g>
    </g>
   </g>
  </g>
 </g>
 <defs>
  <clipPath id="p47f3de9c84">
   <rect x="54.02" y="26.88" width="511.18" height="363.16"/>
  </clipPath>
 </defs>
</svg>
